<svg width="79" height="54" viewBox="0 0 79 54" fill="none" xmlns="http://www.w3.org/2000/svg">
<g clip-path="url(#clip0_2357_4508)">
<path d="M39.3474 30.5771C39.3133 30.4225 39.2976 30.2644 39.3008 30.1062C39.1405 30.6136 39.0131 31.1309 38.9191 31.6547C38.7325 32.5368 38.3966 33.3806 37.9259 34.1496C37.0683 35.3444 35.9017 36.2832 34.5512 36.8654C32.914 37.6291 31.1463 38.0736 29.3427 38.1752C28.6632 38.1914 27.9836 38.1472 27.3119 38.0431C26.6301 38.0076 25.9534 37.9055 25.2915 37.7382C24.2276 37.3487 23.2306 36.7964 22.336 36.1012C21.1436 35.2118 20.1581 34.0744 19.4476 32.7675C18.7393 31.5611 18.2985 30.2167 18.1548 28.8251C18.1296 28.3748 18.0773 27.9264 17.9981 27.4824C17.9607 27.3323 17.8067 27.0102 18.2509 27.0774C18.3528 27.0928 18.4179 26.8801 18.3896 26.7354C18.2924 25.7609 18.4715 24.7788 18.9065 23.9014C19.243 22.8871 19.7406 21.9336 20.3804 21.0776C21.0317 20.1997 21.7831 19.4007 22.6195 18.6969C23.6936 17.9427 24.8425 17.3011 26.0481 16.7824C26.3288 16.6118 26.6586 16.5401 26.9848 16.5789C27.8543 16.8378 28.6959 16.5086 29.549 16.516C30.7194 16.5326 31.8685 16.8323 32.8979 17.3896C33.3906 17.6429 33.9374 17.7761 34.4203 18.0679C34.882 18.311 35.2878 18.6477 35.6119 19.0566C35.7824 19.2358 35.9819 19.3851 36.2019 19.4982C36.8117 20.0349 37.3307 20.6667 37.739 21.3691C38.0762 21.7323 38.3704 22.1332 38.6159 22.5638C38.9011 23.4452 39.112 24.349 39.2463 25.2656C39.2825 25.519 39.3531 25.7662 39.4561 26.0005C39.653 26.4279 39.7183 26.9043 39.6436 27.3689C39.5797 28.0792 39.618 28.7896 39.5666 29.4978C39.5829 29.6001 39.5709 29.7049 39.5319 29.8008C39.4929 29.8967 39.4283 29.9801 39.3452 30.0419C39.6586 30.2391 39.3172 30.3969 39.3474 30.5771ZM19.9717 25.5456C20.0733 25.6317 20.1672 25.7266 20.2523 25.8291C20.5378 25.569 20.5904 25.1369 20.8935 24.8794C20.8292 25.1868 20.6952 25.4752 20.5017 25.7225C20.4673 25.7635 20.4432 25.812 20.4312 25.864C20.4191 25.9161 20.4196 25.9703 20.4324 26.0221C20.4453 26.074 20.4702 26.1221 20.5051 26.1625C20.5401 26.2029 20.5841 26.2345 20.6336 26.2547C20.4684 26.3148 20.2838 26.0628 20.2099 26.2975C20.0712 26.738 19.5341 27.1218 20.0643 27.7051C19.6578 27.4725 19.6952 27.4921 19.5167 27.8315C19.4125 28.0685 19.3777 28.3303 19.4165 28.5863C19.4553 28.8423 19.5662 29.0821 19.736 29.2775C19.7671 29.3187 19.8029 29.356 19.8428 29.3888C19.861 29.2966 19.8969 29.2088 19.9484 29.1303L20.4243 30.3695C20.1519 29.7504 19.5235 29.3933 19.297 28.7492C19.185 28.9621 19.1123 29.1935 19.0825 29.4322C19.1117 28.9254 19.0014 28.4202 18.7636 27.9716C18.6569 28.3679 18.6651 28.7863 18.7871 29.1781C18.9206 29.8569 19.1531 30.5156 19.3067 31.1912C19.5047 32.1321 19.9 33.0203 20.4666 33.7972C20.9069 34.5914 21.5872 35.226 22.41 35.6103C23.3961 36.0844 24.3544 36.6142 25.2803 37.1971C25.4381 37.3161 25.6207 37.3982 25.8145 37.4373C26.0083 37.4764 26.2084 37.4716 26.4001 37.4232C26.6022 37.3753 26.8146 37.3973 27.0026 37.4856C27.6964 37.7856 28.4488 37.9258 29.2041 37.8956C30.3373 37.8618 31.4591 37.6595 32.5327 37.2954C32.8834 37.2531 33.2192 37.1288 33.5129 36.9326C32.8557 36.9508 32.2919 37.2756 31.6634 37.215C31.7539 37.1229 31.8756 37.0679 32.0045 37.0608C32.8575 36.9382 33.6861 36.6833 34.4605 36.3052C34.9244 36.0015 35.4755 35.8458 35.952 35.5374C36.4073 35.2427 36.6432 34.748 37.1047 34.4443C37.416 34.1195 37.6283 33.7128 37.7168 33.2717C37.5299 33.4912 37.326 33.6956 37.1069 33.8829C36.6728 34.1884 36.5712 34.761 36.1044 35.0454C35.4207 35.4491 34.6994 35.7853 33.9507 36.0493C33.6552 36.2411 33.3285 36.3797 32.9852 36.4588C32.6388 36.4698 32.2942 36.5125 31.9556 36.5864C32.0695 36.3995 32.2423 36.2558 32.4468 36.1779C33.0858 36.4106 34.1697 35.5768 34.4175 35.0305C34.1354 35.0564 33.8619 35.1406 33.6141 35.2778C33.3663 35.415 33.1497 35.6021 32.9781 35.8274C32.9194 35.9207 32.8413 36.0002 32.7491 36.0606C32.6569 36.1209 32.5527 36.1607 32.4437 36.1771C33.0234 35.6645 33.4658 35.0157 34.0752 34.5327C34.0118 34.6636 33.9584 34.7991 33.9153 34.9381C34.1694 34.9443 34.4208 34.8849 34.6451 34.7656C34.8695 34.6462 35.0593 34.471 35.1962 34.2569C35.1712 34.4239 35.1461 34.5412 35.4105 34.4713C35.7329 34.3083 36.0143 34.0745 36.2337 33.7874C36.2294 33.8636 36.2457 33.9396 36.281 34.0073C36.3267 34.0216 36.3761 34.0191 36.42 34.0001C36.464 33.9811 36.4997 33.947 36.5206 33.9039C36.6421 33.7429 36.7463 33.5689 36.8576 33.4001C36.883 33.4819 36.7657 33.6671 36.9417 33.6281C37.0341 33.6037 37.1161 33.5502 37.1758 33.4755C37.2354 33.4008 37.2694 33.3089 37.2728 33.2134C37.282 33.0519 37.208 32.9473 37.0224 33.0518C37.023 32.8452 37.096 32.6453 37.2288 32.4871C37.2182 32.5414 37.2121 32.5964 37.2108 32.6517C37.204 32.747 37.2319 32.8416 37.2894 32.918C37.3468 32.9944 37.4299 33.0475 37.5233 33.0675C37.7298 33.0424 37.7501 32.8214 37.6631 32.6045C37.6436 32.5032 37.651 32.3985 37.6847 32.301C37.7184 32.2034 37.7772 32.1165 37.8552 32.0489C38.0085 32.2096 37.741 32.3548 37.8801 32.539C37.9169 32.4898 37.9484 32.4369 37.974 32.381C38.2 31.6242 38.4468 30.8724 38.6344 30.106C38.7348 29.8181 38.7769 29.5131 38.7581 29.2087C38.6955 29.0788 38.6555 28.9392 38.6399 28.7958C38.8393 28.4627 38.9126 28.069 38.8463 27.6865C38.8956 26.4612 38.7006 25.2384 38.2727 24.0892C38.1833 24.1317 38.103 24.1911 38.036 24.264C38.0142 24.1596 37.9848 24.0549 37.9713 23.9482C37.8471 23.2316 37.5525 22.5552 37.1124 21.9762C36.8094 21.5713 36.5284 21.1504 36.2709 20.7152C35.8277 19.9167 35.1077 19.3079 34.2466 19.0036C33.9986 18.8488 33.7019 18.7918 33.4142 18.8438C33.9432 19.3875 34.5436 19.8567 35.1991 20.2386C35.0725 20.2152 34.943 20.2126 34.8156 20.2311C34.9909 20.4932 35.2257 20.7101 35.5008 20.8642C35.5271 20.875 35.6508 20.9007 35.5625 20.9422C35.2355 21.0958 35.5433 21.1737 35.599 21.2553C35.746 21.4707 35.9192 21.668 36.076 21.877C36.2055 22.0496 36.1141 22.1275 35.9404 22.1491C35.6461 22.1857 35.8484 21.9551 35.7913 21.8621C35.361 21.192 34.8682 20.5642 34.3195 19.9871C34.248 19.969 34.1824 19.9329 34.129 19.882C34.0757 19.8312 34.0363 19.7675 34.0148 19.697C33.8959 19.1634 32.7612 18.6438 32.0842 18.7137C32.583 19.0739 32.8049 19.7064 33.4861 19.7372C33.0904 20.0033 33.5311 20.0812 33.6134 20.2332C33.7602 20.5043 34.0731 20.3407 34.347 20.4678L33.8905 20.5134L34.5642 21.307C33.9855 20.8836 33.5682 20.2992 32.9441 19.782C32.9869 20.2397 33.3799 20.3569 33.4671 20.6434L33.3762 20.6994C33.0508 20.3273 32.7253 19.9553 32.3999 19.5833C32.4714 19.623 32.5421 19.6642 32.6146 19.702C32.701 19.7471 32.7579 19.9354 32.875 19.8158C33.0167 19.6711 32.8227 19.6168 32.7476 19.5366C32.2378 19.0234 31.6695 18.5721 31.0542 18.1918C31.7811 18.7499 32.5808 18.3363 33.4003 18.4725C33.1004 18.3178 32.7712 18.2283 32.4343 18.2099C33.0391 18.184 33.6439 18.26 34.2235 18.4348C33.5389 17.9523 32.704 17.7312 31.8704 17.8117C31.285 17.8069 30.7092 17.9602 30.2036 18.2552C30.1129 18.1481 30.1149 18.0938 30.259 18.0307C30.7352 17.7902 31.26 17.6615 31.7935 17.6544C31.9093 17.6585 32.0325 17.654 32.0516 17.5148C32.0705 17.3763 31.9154 17.4061 31.8432 17.3597C31.7686 17.3249 31.686 17.3109 31.6041 17.3192C31.116 17.25 30.6184 17.3099 30.1607 17.4929C30.3295 17.3524 30.5103 17.227 30.7011 17.1181C30.5344 17.0936 30.3759 17.0297 30.2389 16.9317C29.5171 16.7445 28.7621 16.7244 28.0313 16.873C26.6448 17.2095 25.1581 17.3367 24.1222 18.5431C23.9144 18.7583 23.7204 18.9864 23.5414 19.2261C23.5145 19.267 23.4099 19.3583 23.4882 19.3861C23.855 19.5165 23.4997 19.6219 23.4624 19.6338C23.3257 19.7005 23.2196 19.817 23.1659 19.9594C22.9149 20.3408 22.864 20.806 22.6372 21.2036C22.4865 21.4678 22.5775 21.5454 23.0015 21.4901C22.7979 21.5623 22.6218 21.6963 22.4979 21.8733C22.374 22.0503 22.3084 22.2616 22.3102 22.4776C22.3422 22.7111 22.2833 22.9479 22.1457 23.1391C22.0305 22.7781 22.3009 22.4346 22.2232 22.0372C21.9251 22.2401 21.6588 22.486 21.4328 22.767C21.2384 22.9586 21.117 23.2122 21.0897 23.4838C21.0623 23.7554 21.1307 24.028 21.283 24.2546C21.3345 24.3361 21.4237 24.5587 21.1505 24.5591L20.9109 23.3329C20.6279 23.7725 20.3957 24.1359 20.1609 24.4975C20.0383 24.6412 19.9568 24.8152 19.9247 25.0013C19.8926 25.1874 19.9113 25.3786 19.9786 25.555C19.917 25.4508 19.8334 25.3614 19.7336 25.2929C19.5093 25.8451 19.2124 26.3938 19.6507 26.994C19.8491 26.8166 19.9868 26.5813 20.0444 26.3215C20.102 26.0616 20.0766 25.7902 19.9717 25.5456ZM19.9098 23.6537C20.949 21.8539 21.8626 19.9743 23.593 18.6976C21.9095 20.0138 20.2357 21.3369 19.9098 23.6537ZM21.2542 22.6154C21.7078 22.3394 22.0933 21.9646 22.382 21.519C22.6707 21.0733 22.8553 20.5683 22.9219 20.0415C22.4796 20.3303 22.1027 20.7085 21.8154 21.1519C21.5282 21.5952 21.337 22.0937 21.2542 22.6154ZM21.22 21.8625C20.9084 22.3631 20.6417 22.8038 20.3629 23.2368C20.1759 23.438 20.035 23.6776 19.9501 23.9388C19.8652 24.2001 19.8384 24.4767 19.8715 24.7494C20.3232 23.7675 21.2321 23.0884 21.22 21.8625ZM34.146 35.684C35.0226 35.6234 35.7919 35.0556 35.7423 34.5058C35.0773 34.6761 34.5047 35.0987 34.146 35.684ZM19.259 26.6783C19.151 27.1121 19.1519 27.5659 19.2618 27.9992C19.4504 27.5609 19.7441 27.1677 19.259 26.6783ZM23.297 19.2578C22.8965 19.523 22.5512 19.8634 22.2804 20.2602C22.5143 20.1802 22.7272 20.0486 22.9032 19.8751C23.0792 19.7015 23.2138 19.4906 23.297 19.2578ZM18.2333 27.5497C18.2106 28.0574 18.2613 28.5657 18.3839 29.0589C18.4332 28.5508 18.382 28.038 18.2333 27.5497ZM19.3778 25.6962C19.4927 25.5541 19.5782 25.3905 19.6293 25.2151C19.6804 25.0396 19.696 24.8557 19.6754 24.6742C19.4616 24.9705 19.3565 25.3314 19.3778 25.6962ZM33.6626 18.6643C34.0167 18.6832 34.2882 18.9671 34.6422 18.9762C34.5332 18.8269 34.3795 18.7163 34.2034 18.6602C34.0272 18.6041 33.8379 18.6056 33.6626 18.6643ZM19.5092 23.8656C19.3794 23.9994 19.2838 24.1624 19.2303 24.341C19.1769 24.5196 19.1672 24.7084 19.2022 24.8915C19.3391 24.5608 19.442 24.2171 19.5092 23.8656Z" fill="black"/>
<path d="M27.2902 40.4698L27.4193 40.1106C27.5924 40.7495 27.6979 41.4048 27.7342 42.0658C27.7625 41.9345 27.8124 41.8089 27.8819 41.6939C28.0791 41.483 28.0203 41.8789 28.1969 41.8147L28.4889 40.1253C28.7118 41.1284 28.2719 42.0365 28.3695 43.0553L28.4582 42.5978C28.3529 43.4884 28.3044 44.3848 28.313 45.2816C28.4744 43.8601 28.8666 42.4818 29.073 41.0653C28.6622 41.3913 28.7182 41.8885 28.5523 42.301C28.5305 41.9058 28.5888 41.5102 28.7237 41.138C28.8585 40.7659 29.0671 40.4248 29.337 40.1352C29.2964 40.5173 29.2805 40.8333 29.2265 41.1426C29.0634 42.0774 28.9553 43.0183 28.8795 43.9635C28.8949 44.0678 28.8818 44.1744 28.8415 44.2718C28.8012 44.3693 28.7353 44.454 28.6507 44.5171C28.5601 44.6185 28.5132 44.7516 28.5202 44.8875C28.5148 45.5784 28.4435 46.2671 28.3073 46.9444C28.3947 46.8321 28.4656 46.7078 28.5178 46.5754C28.5252 47.1613 28.4685 47.7463 28.349 48.3199C28.2756 48.9342 28.2513 49.5534 28.2763 50.1717C28.2946 51.2078 28.2195 52.2455 28.1827 53.2825C28.1803 53.3501 28.1795 53.4295 28.0777 53.4196C28.0442 53.4121 28.0142 53.3932 27.9928 53.3662C27.9714 53.3393 27.9599 53.3058 27.9603 53.2713C27.9582 53.1916 27.9708 53.1121 27.9975 53.0368C28.0005 52.9898 27.9937 52.9427 27.9774 52.8985C27.9611 52.8543 27.9357 52.8141 27.9029 52.7803C27.8125 52.7155 27.7693 52.8372 27.7303 52.9019C27.7207 52.9241 27.7067 52.9441 27.6892 52.9607C27.6716 52.9773 27.6509 52.9902 27.6283 52.9986C27.6056 53.007 27.5815 53.0107 27.5574 53.0095C27.5333 53.0084 27.5096 53.0023 27.4879 52.9918C27.4382 52.9669 27.3994 52.9246 27.3789 52.8729C27.3583 52.8213 27.3575 52.7639 27.3765 52.7117C27.3877 51.6864 27.3863 50.6609 27.4151 49.6361C27.46 48.0342 27.3454 46.4385 27.2789 44.8402C27.2939 44.1827 27.1596 43.5304 26.8862 42.9323C26.8512 42.8564 26.8316 42.7742 26.8286 42.6907C26.8257 42.6071 26.8394 42.5238 26.869 42.4456C27.0338 41.7848 27.0579 41.0967 26.9398 40.4259C26.9368 40.3567 26.9392 40.2874 26.947 40.2186C26.9569 40.0807 26.9477 39.9137 27.1536 39.9338C27.3486 39.9528 27.264 40.1184 27.278 40.2291C27.2832 40.27 27.2825 40.3116 27.2902 40.4698Z" fill="black"/>
<path d="M50.7352 22.8934C51.4475 23.0191 52.1712 23.0676 52.8939 23.0382L52.3129 22.8095C52.6746 22.7623 53.0424 22.8053 53.3834 22.9348C53.3826 22.9639 53.3757 22.9926 53.363 23.0189C53.3504 23.0453 53.3323 23.0686 53.31 23.0875C53.2878 23.1063 53.2617 23.1203 53.2337 23.1284C53.2057 23.1365 53.1762 23.1386 53.1473 23.1346C52.186 23.218 51.2181 23.1853 50.2646 23.0373C49.9224 23.0107 49.5785 23.057 49.2556 23.1732C48.0797 23.4129 46.8792 23.4593 45.701 23.6759C44.6047 23.8775 43.499 24.0283 42.4108 24.2751C42.3819 24.2866 42.3497 24.2875 42.3202 24.2775C42.2906 24.2675 42.2656 24.2472 42.2497 24.2204C42.7617 23.9504 43.357 24.0375 43.8742 23.8017C43.0535 23.8296 42.2357 23.5092 41.4056 23.7993C42.1792 23.3633 43.0796 23.3804 44.0004 23.021C43.3262 22.724 42.6432 23.0646 42.0814 22.7024C42.3472 22.5431 42.6484 22.4521 42.958 22.4376C43.817 22.3805 44.6711 22.2657 45.5352 22.2552C46.7428 22.2404 47.9492 22.1691 49.155 22.0861C50.0193 22.0267 50.8879 22.0214 51.7548 22.0081C52.8806 22.0157 54.0042 21.9074 55.1078 21.6848C55.47 21.5895 55.8502 21.5859 56.214 21.6745C56.2552 21.6762 56.2949 21.6898 56.3284 21.7137C56.3619 21.7375 56.3878 21.7706 56.4029 21.8089C56.4219 21.9424 56.2801 21.9545 56.2032 21.969C56.0034 22.0068 55.7943 21.996 55.5947 22.0346C55.244 22.204 54.8742 22.3306 54.4932 22.4115C54.468 22.4129 54.4435 22.42 54.4214 22.4322C54.3993 22.4444 54.3802 22.4615 54.3656 22.482C54.3727 22.8369 54.0895 22.7899 53.9209 22.7444C52.9118 22.5601 51.8739 22.6079 50.8861 22.8843C50.836 22.8905 50.7856 22.8935 50.7352 22.8934ZM44.0988 23.5168C44.892 23.6229 47.9495 23.1984 48.4089 22.8817C46.923 23.0774 45.4516 23.053 44.0988 23.5168ZM45.1402 22.4974L45.1204 22.6061C47.0746 22.5641 49.0315 22.6353 50.9832 22.4844L50.9809 22.3774L45.1402 22.4974ZM47.219 22.8779L47.2128 22.8275C46.8441 22.8131 46.4754 22.7934 46.1065 22.7881C46.0052 22.7866 45.8257 22.7052 45.8425 22.9208C45.8553 23.0851 46.0149 23.0373 46.1045 23.0279C46.4771 22.9889 46.8477 22.9297 47.219 22.8779Z" fill="black"/>
<path d="M46.3582 33.3621C45.625 33.1654 44.8889 32.9782 44.1595 32.7682C43.7087 32.7327 43.2745 32.5831 42.8976 32.3333C42.6505 32.2489 42.386 32.2283 42.1287 32.2736C42.0256 32.2672 41.8813 32.2963 41.8978 32.1214C41.9121 31.97 42.0421 32.0356 42.1257 32.0274C42.5896 31.9821 43.0357 32.1682 43.5756 32.1702C43.1785 31.8764 42.7306 31.6583 42.2544 31.527C42.1734 31.4985 42.0361 31.4726 42.0554 31.3778C42.0801 31.257 42.1891 31.3302 42.2829 31.3344C43.0336 31.4617 43.7642 31.6877 44.4556 32.0064C45.0119 32.1804 45.5961 32.2646 46.1538 32.4347C47.9966 32.9967 49.8355 33.5716 51.6704 34.1592C52.5142 34.3702 53.3396 34.6489 54.1385 34.9926C54.468 35.1609 54.821 35.2682 55.1474 35.4533C54.5929 35.6002 54.1229 35.1666 53.4953 35.2355C54.0141 35.4154 54.4553 35.5609 54.8894 35.7253C54.9754 35.7579 55.1473 35.7871 55.104 35.9255C55.0467 36.1089 54.9181 35.9541 54.8338 35.9302C53.0971 35.4377 51.3573 34.9551 49.6288 34.4349C48.5954 34.1238 47.5346 33.9433 46.4882 33.695C45.6677 33.4759 44.825 33.3504 43.9762 33.3208C43.4041 33.2187 42.8268 33.1476 42.247 33.1078C42.1783 33.1148 42.0609 33.1437 42.048 33.0267C42.0367 32.9246 42.1494 32.9227 42.2133 32.8777C42.7495 32.5003 43.2884 32.7987 43.8116 32.8897C44.6528 33.036 45.4826 33.2473 46.3173 33.4311L46.3582 33.3621ZM45.3782 32.6544C46.2212 33.1739 48.7177 33.9917 49.5469 33.8199C48.137 33.5083 46.7453 33.1192 45.3782 32.6544ZM51.8494 34.633C51.0053 34.3161 50.1257 34.1034 49.23 33.9997C50.0764 34.3092 50.9551 34.5217 51.8494 34.633Z" fill="black"/>
<path d="M39.5862 0.832273L38.6587 2.64005C38.7368 2.66739 38.3412 2.94665 38.7642 2.82305C38.891 2.78599 38.7991 3.01624 38.7642 3.07978C38.3851 3.8028 38.0513 4.54864 37.7646 5.31301C36.9222 7.43093 35.8713 9.45534 35.0089 11.5631C34.8272 12.1129 34.6057 12.6488 34.3464 13.1666C34.6423 12.0101 35.1216 10.9174 35.5125 9.79237C34.6754 11.3139 33.9794 12.909 33.4333 14.5575C33.406 14.0116 33.5097 13.467 33.7356 12.9692C33.894 12.4514 34.0776 11.9414 34.2313 11.4184C33.8914 11.887 33.5918 12.3836 33.3357 12.9029C33.3143 12.968 33.2763 13.0263 33.2253 13.0722C33.1744 13.1181 33.1124 13.1498 33.0454 13.1643C32.9001 13.188 32.7511 13.1577 32.6265 13.0791C32.5341 12.9874 32.6645 12.8305 32.7289 12.72C33.8749 10.7526 34.8872 8.70817 36.1053 6.78331C36.8258 5.6447 37.3153 4.39353 37.9494 3.214C38.2017 2.74472 38.442 2.26786 38.6611 1.78241C38.7373 1.61357 39.0117 1.41985 38.6804 1.21306C38.6076 1.16764 38.7083 1.05197 38.7392 1.06635C38.8561 1.10207 38.9815 1.09815 39.096 1.0552C39.2105 1.01225 39.3075 0.932679 39.3721 0.828862C39.4427 0.812477 39.5162 0.813648 39.5862 0.832273ZM33.0137 12.718L33.1284 12.7687C33.4018 12.329 33.6669 11.8836 33.9512 11.451C34.2136 11.0518 34.1863 10.5211 34.727 10.2249C34.9264 10.0585 35.09 9.85346 35.2078 9.62203C35.3257 9.39061 35.3953 9.13768 35.4125 8.87855C35.2485 9.15642 35.0492 9.41185 34.8196 9.63844C35.1706 8.96096 35.4784 8.36678 35.7862 7.77259C34.7428 9.35131 33.8161 11.0042 33.0137 12.718ZM36.0449 8.01628C36.4399 7.36805 36.7543 6.67407 36.9813 5.9497C36.5847 6.59707 36.2701 7.29126 36.0449 8.01628Z" fill="black"/>
<path d="M11.7573 27.3899C10.8402 27.4024 9.92556 27.4893 9.02251 27.6499C9.15088 27.7256 9.29626 27.7678 9.44523 27.7725C9.5942 27.7772 9.74196 27.7444 9.87488 27.6769C10.0873 27.5845 10.321 27.5521 10.5505 27.5831C11.9697 27.5389 13.3877 27.4221 14.8092 27.4724C14.8915 27.4734 14.9713 27.5013 15.0363 27.5518C14.3794 27.773 13.6952 27.9029 13.003 27.9378C13.3023 28.0641 13.6481 27.8948 13.9263 28.2681C12.3434 28.0121 10.7385 27.9185 9.13659 27.9888L9.13058 28.1034L11.4223 28.1925L11.4192 28.3113L9.01827 28.218C10.7188 28.529 12.4437 28.6874 14.1724 28.6914C14.1649 28.7322 14.149 28.7711 14.1258 28.8055C14.1025 28.8399 14.0725 28.8692 14.0374 28.8914C14.0023 28.9137 13.963 28.9285 13.922 28.9348C13.8809 28.9412 13.839 28.939 13.7989 28.9284C12.8236 28.8469 11.8489 28.7586 10.8732 28.6825C10.5055 28.6538 10.1357 28.6515 9.76304 28.656L11.1404 28.9235C10.3627 28.8824 9.5895 28.7788 8.82842 28.6136C7.68526 28.3804 6.51556 28.3046 5.35186 28.3883C3.71496 28.6256 2.04945 28.5797 0.428112 28.2526C0.306805 28.2348 0.195683 28.1747 0.114338 28.083C0.0786181 28.0622 0.04916 28.0321 0.0290565 27.996C0.00895306 27.9599 -0.00105357 27.919 8.77818e-05 27.8777C0.020335 27.8337 0.0536123 27.797 0.0954153 27.7725C0.137218 27.7481 0.185528 27.737 0.233806 27.7409C0.901365 27.6874 1.5687 27.6037 2.23702 27.5944C3.0488 27.5831 3.86199 27.6662 4.67364 27.6527C5.7728 27.6345 6.8713 27.5679 7.96967 27.5134C8.99979 27.4624 10.025 27.3143 11.0579 27.336C11.2896 27.2658 11.5391 27.285 11.7573 27.3899ZM0.259148 27.9318C1.30224 28.439 2.41765 28.2731 3.50947 28.3127C3.26412 28.3427 3.01516 28.3143 2.78285 28.2299C2.54307 28.1378 2.28469 28.1047 2.02943 28.1332C1.81546 28.1068 1.52463 28.2497 1.37836 27.8679L2.25182 27.9018L2.24932 27.7869C1.58247 27.7505 0.913703 27.7992 0.259148 27.9318ZM10.8363 27.8686C11.5383 27.9558 12.2508 27.8933 12.9268 27.6851C12.2251 27.6623 11.5233 27.7238 10.8363 27.8686ZM5.15772 27.8942C5.66103 28.01 6.18556 27.9954 6.68165 27.8517C6.17638 27.758 5.65699 27.7725 5.15772 27.8942Z" fill="black"/>
<path d="M28.6851 12.9312C28.3169 11.8563 28.0335 10.7542 27.8374 9.63505C27.9382 11.0947 28.1233 12.5472 28.3919 13.9854C28.1559 13.7825 27.9831 13.5162 27.8939 13.218C27.7089 13.5377 27.9561 13.8307 27.8078 14.1169C27.3386 13.3353 27.5672 12.5027 27.5772 11.7185C27.5633 10.0298 27.4388 8.34374 27.2046 6.67126C27.0968 5.75925 27.0201 4.84356 26.8571 3.9388C26.8198 3.7946 26.7746 3.65254 26.7218 3.51328C26.6868 4.4181 26.7024 5.32417 26.7686 6.22724C26.4672 4.16596 26.3865 2.0784 26.5279 0C26.5396 0.482891 26.5773 0.964801 26.6409 1.44363C26.8644 1.27341 26.7039 0.942674 26.9906 0.735615C27.5445 4.22591 28.2616 7.64656 28.7196 11.1126C28.3509 9.65982 28.1763 8.16769 27.7807 6.72007C27.6767 7.51539 27.7811 8.3241 28.0839 9.06687C28.2361 9.41727 28.3229 9.79258 28.3399 10.1742C28.4258 10.9619 28.5553 11.7442 28.7278 12.5176C28.7627 12.6562 28.7475 12.8026 28.6851 12.9312Z" fill="black"/>
<path d="M47.4708 9.295C47.3454 9.56604 47.2019 9.82826 47.041 10.0799L48.6989 8.56934L48.8112 8.68325C47.4648 10.1135 46.0721 11.5035 44.7852 12.9854C43.4969 14.4691 42.4582 16.1485 41.2631 17.7137L43.1545 14.8274L43.0794 14.7605C41.7447 16.1083 40.5803 17.6194 39.2128 18.9445C39.2309 18.6931 39.3068 18.4493 39.4346 18.2321C39.5624 18.0148 39.7387 17.8301 39.9496 17.6922C40.3276 17.4235 40.6663 17.1036 40.956 16.7414C41.8595 15.7964 42.7169 14.8073 43.5908 13.834C43.6064 13.7649 43.613 13.6941 43.6105 13.6233C42.8266 14.3647 42.1172 15.0386 41.4044 15.7088C40.6226 16.4438 39.8392 17.1772 39.0544 17.909C38.8693 17.9837 38.6663 18.0027 38.4706 17.9636C40.2733 15.7965 42.5975 14.1747 44.4542 12.075C44.2768 12.3936 44.0468 12.6799 43.7739 12.9217C45.4375 12.0993 46.2247 10.4675 47.4708 9.295ZM43.5847 13.3987C42.5358 14.2385 41.5457 15.1493 40.6216 16.1247C41.6898 15.3076 42.6816 14.3952 43.5847 13.3987Z" fill="black"/>
<path d="M35.9926 39.0097C36.0247 38.828 35.6646 38.6765 35.8763 38.561C36.0749 38.4527 36.1415 38.7567 36.2494 38.9021C36.6412 39.4565 37.0787 39.9772 37.5573 40.4587C36.9462 39.5256 36.2603 38.6438 35.5062 37.822C35.6338 37.8191 35.7596 37.8529 35.8686 37.9192C35.9777 37.9856 36.0654 38.0818 36.1214 38.1965C37.3704 39.7648 38.533 41.3965 39.6472 43.0624C40.1536 43.7333 40.701 44.3722 41.2862 44.9755C41.5884 45.4767 41.9187 45.9603 42.2755 46.4241C42.2968 46.45 42.3112 46.4808 42.3175 46.5138C42.3238 46.5467 42.3217 46.5806 42.3115 46.6126C42.2627 46.6922 42.1754 46.6489 42.0924 46.6304C41.8013 46.5017 41.5647 46.2747 41.424 45.9892C40.6369 45.0816 39.8436 44.1787 39.0825 43.2496C38.3872 42.4444 37.6511 41.6752 36.8772 40.9451C36.3296 40.4004 35.8109 39.8265 35.2802 39.2648C35.235 39.2329 35.2009 39.1876 35.1827 39.1353C35.246 38.6404 34.8041 38.4069 34.6213 38.0409C34.5727 37.9435 34.4555 37.8462 34.5668 37.7552C34.6679 37.6725 34.7945 37.7956 34.8434 37.8582C35.1684 38.1561 35.4729 38.4756 35.7547 38.8146C35.7719 38.8662 35.8034 38.9119 35.8455 38.9465C35.8876 38.981 35.9385 39.0029 35.9926 39.0097Z" fill="black"/>
<path d="M19.1801 36.8306C18.7418 37.2045 18.331 37.5861 17.8883 37.926C17.0224 38.6504 16.2182 39.4456 15.4842 40.3034C14.6543 41.1105 13.8794 41.9723 13.1647 42.883C12.4228 43.9295 11.4782 44.8066 10.7398 45.8534C10.6544 45.9744 10.5718 46.18 10.4054 46.0724C10.2259 45.9563 10.4512 45.8169 10.4779 45.6833C10.4898 45.6433 10.5052 45.6043 10.5237 45.5669C10.4917 45.5575 10.4575 45.5594 10.4267 45.5722C10.396 45.5851 10.3706 45.6081 10.3547 45.6374C10.2582 45.7181 10.1517 45.8283 10.0421 45.6882C9.94957 45.5698 10.0827 45.493 10.1527 45.4143C11.0568 44.3971 11.9581 43.3779 12.8959 42.3904C13.5769 41.7472 14.1939 41.0394 14.7381 40.277C14.7781 40.2141 15.047 40.0712 14.7009 39.9939C14.5677 39.9642 14.7176 39.8347 14.7775 39.786C15.7861 38.9646 16.3477 37.8035 17.0737 36.7682C17.2731 36.484 17.4398 36.1768 17.6692 35.908C17.4775 36.5868 16.941 37.0804 16.6597 37.7562C17.2967 37.3561 17.3967 36.4845 18.1968 36.2954C17.4145 37.589 16.3938 38.7072 15.5345 39.9613C15.6871 39.8069 15.8403 39.653 15.9921 39.4978C16.1459 39.3405 16.3002 39.1837 16.4511 39.0237C17.0096 38.4315 17.559 37.8303 18.1288 37.2493C18.321 37.0533 18.4765 36.7196 18.8697 36.9239C18.9588 36.857 19.0688 36.8239 19.1801 36.8306Z" fill="black"/>
<path d="M22.7708 16.3545C21.3277 15.0617 20.362 13.3889 19.1481 11.8957C19.4901 12.5757 19.8031 13.2723 20.1816 13.9313C20.5852 14.7117 21.1042 15.4266 21.7211 16.0521C21.7538 16.0939 21.7799 16.1403 21.7987 16.1898C21.2873 16.4174 21.8628 16.6679 21.7825 16.9029C21.7611 16.9655 21.9106 17.0548 21.7527 17.0901C21.7323 17.0945 21.7111 17.0946 21.6906 17.0903C21.67 17.0861 21.6506 17.0776 21.6336 17.0654C21.6165 17.0532 21.6022 17.0376 21.5915 17.0196C21.5809 17.0015 21.5741 16.9815 21.5716 16.9606C21.242 16.1201 20.8252 15.3165 20.3279 14.563C19.0929 12.3864 17.9221 10.1715 16.5512 8.07422C16.0426 7.29621 15.5123 6.53242 14.9935 5.76106C14.9322 5.66985 14.8798 5.57248 14.8255 5.47671C14.7581 5.35781 14.6794 5.14663 14.8216 5.1416C14.9604 5.1367 15.1101 4.91273 15.3175 5.20045C16.0789 6.25714 16.719 7.39292 17.4755 8.44858C18.4606 9.82327 19.5029 11.1571 20.5262 12.5042C21.0917 13.2487 21.6693 13.9841 22.2393 14.7252C22.262 14.7866 22.2767 14.8507 22.2828 14.9158C20.6899 13.261 19.4867 11.4036 18.1124 9.67875C18.4944 10.4927 18.9729 11.2576 19.5378 11.9571C20.0214 12.7226 20.562 13.4482 21.0839 14.1872C21.6134 14.9372 22.2147 15.6255 22.7708 16.3545Z" fill="black"/>
<path d="M17.4501 19.7242C17.1529 19.7243 16.8583 19.6697 16.5808 19.5633C16.9621 19.8313 17.3572 20.079 17.7646 20.3053C16.1384 19.4736 14.461 18.7461 12.7425 18.1271C13.2476 18.4453 13.7144 18.7531 14.1946 19.0383C14.7688 19.3794 15.3516 19.7064 15.9372 20.0279C16.1096 20.1179 16.2997 20.1687 16.494 20.1767C16.6585 20.2208 16.8045 20.3163 16.9107 20.4493C17.017 20.5824 17.0779 20.7459 17.0845 20.916C16.7178 20.8034 16.378 20.617 16.0859 20.3683C14.4844 19.4558 12.8976 18.5173 11.2923 17.6118C9.54779 16.6646 7.85855 15.6191 6.23275 14.4801C5.95847 14.3188 5.72448 14.0972 5.54852 13.8321C5.49599 13.7351 5.3608 13.6223 5.49885 13.5058C5.54843 13.4801 5.60541 13.4724 5.66002 13.4841C5.71464 13.4958 5.76348 13.5261 5.79818 13.5699C6.72453 14.1785 7.64528 14.7956 8.57234 15.4031C9.52132 15.9948 10.5064 16.5265 11.5219 16.995C13.1593 17.7959 14.7955 18.6018 16.4768 19.31C16.7993 19.4459 17.121 19.5841 17.4501 19.7242Z" fill="black"/>
<path d="M16.4637 24.1934C16.4127 24.4952 16.1156 24.3899 16.0047 24.581C16.3196 24.6411 16.6239 24.7471 16.908 24.8957C16.9485 24.9046 16.9842 24.9284 17.008 24.9624C17.0318 24.9963 17.042 25.0379 17.0366 25.0791C17.02 25.1072 16.9973 25.1313 16.9703 25.1498C16.9433 25.1682 16.9126 25.1806 16.8804 25.1859C16.4483 25.3618 15.9656 25.3668 15.53 25.2001C15.1887 25.1001 14.8344 25.0517 14.4788 25.0564C13.4094 24.8814 12.3341 24.7423 11.2608 24.5914C11.0883 24.5671 10.8489 24.5886 10.8655 24.3481C10.8838 24.084 11.1325 24.1847 11.2978 24.177C11.3942 24.1806 11.4907 24.1745 11.5859 24.1588C11.1507 24.0056 10.6957 23.9161 10.235 23.8929C10.0459 23.866 9.85827 23.8294 9.67292 23.7832C9.58799 23.7617 9.48026 23.7425 9.49355 23.6522C9.50018 23.6289 9.51151 23.6073 9.52683 23.5885C9.54215 23.5698 9.56114 23.5545 9.58264 23.5434C9.60413 23.5323 9.62767 23.5257 9.6518 23.5241C9.67593 23.5225 9.70014 23.5258 9.72293 23.5339C9.88474 23.5632 10.0444 23.6053 10.2068 23.63C11.675 23.8528 13.1441 24.0535 14.6286 24.1561C15.2392 24.2016 15.8518 24.2141 16.4637 24.1934ZM14.791 24.9602C13.7427 24.5262 12.6037 24.3568 11.4744 24.4667C12.059 24.5592 12.5887 24.6469 13.1197 24.7259C13.6542 24.8055 14.19 24.8763 14.791 24.9602ZM16.7089 25.0312C15.9747 24.6852 15.1672 24.524 14.3565 24.5615C15.1017 24.8726 15.9013 25.0323 16.7089 25.0312Z" fill="black"/>
<path d="M36.9444 15.8824C37.2538 15.1335 37.5672 14.3749 37.8805 13.6164C37.3539 14.2419 36.9043 14.9284 36.5417 15.6613C36.5302 15.7503 36.4862 15.8321 36.4183 15.8908C36.3503 15.9495 36.2631 15.9812 36.1733 15.9796C36.2636 15.7764 35.8908 15.6947 36.0677 15.4301C36.6866 14.5043 37.3381 13.6029 38.0222 12.7258C38.7474 11.7973 39.393 10.8092 39.952 9.77217C39.9745 9.68654 40.0206 9.60899 40.0852 9.54845C40.1497 9.4879 40.2301 9.44682 40.317 9.42993C40.3395 9.45764 40.3521 9.49211 40.3528 9.52784C40.3535 9.56356 40.3421 9.59848 40.3206 9.62701C39.8767 10.5438 39.4486 11.4674 38.9659 12.366C38.4814 13.2679 38.0443 14.1949 37.5556 15.0959C37.4942 15.3788 37.3624 15.6417 37.1724 15.86C37.1589 15.8766 37.1424 15.8903 37.1236 15.9004C37.1048 15.9105 37.0843 15.9168 37.0631 15.9189C37.0418 15.921 37.0204 15.9188 37.0001 15.9126C36.9797 15.9063 36.9608 15.8961 36.9444 15.8824Z" fill="black"/>
<path d="M31.2162 14.5526C31.2407 14.437 31.2289 14.3167 31.1824 14.2082C31.1359 14.0996 31.057 14.0081 30.9565 13.946C30.8483 13.8925 30.9066 13.7352 30.9382 13.6068C31.1303 12.8262 31.3037 12.041 31.4264 11.2398C31.28 11.6763 31.128 12.1111 30.9889 12.5499C30.8388 12.9979 30.6197 13.4198 30.3395 13.8003C30.342 13.3045 30.4567 12.8158 30.6749 12.3707C31.0277 11.4541 31.4824 10.572 31.7739 9.63785C32.0338 8.80489 32.47 8.05906 32.768 7.2501C32.7966 7.18733 32.8307 7.12725 32.87 7.07056C32.9115 7.00035 32.9554 6.91325 33.0537 6.95718C33.1907 7.01841 33.0998 7.10108 33.0702 7.1913C32.6535 8.258 32.2912 9.34518 31.9847 10.4486C31.8972 10.8483 31.8017 11.2462 31.722 11.6473C31.7135 11.6897 31.5748 11.9312 31.8619 11.7831C31.9917 11.7162 31.9138 11.891 31.8928 11.9691C31.6697 12.6128 31.4822 13.2683 31.3313 13.9326C31.3285 14.1443 31.2896 14.354 31.2162 14.5526Z" fill="black"/>
<path d="M22.5714 41.5758C22.926 41.0767 23.2245 40.5401 23.4617 39.9757C23.4889 39.8988 23.5237 39.8247 23.5654 39.7547C23.6277 39.6749 23.7036 39.5362 23.823 39.6315C24.0035 39.7757 23.7606 39.7765 23.7248 39.8495C23.3041 40.7071 22.8669 41.5568 22.4595 42.4207C22.1302 43.1625 21.7542 43.8828 21.3338 44.5771C21.3185 44.6217 21.2914 44.6613 21.2554 44.6918C21.2195 44.7224 21.1759 44.7426 21.1294 44.7505C21.1275 44.3231 21.2194 43.9005 21.3988 43.5125C21.7232 42.4042 22.0472 41.2944 22.4299 40.2057C22.5158 39.9611 22.1865 39.7634 22.4532 39.5525C22.5618 39.4667 22.5837 39.2797 22.8 39.3633C23.0459 39.4585 22.9382 39.6016 22.8988 39.7596C22.9092 40.1953 22.862 40.6305 22.7583 41.0537C22.6831 41.2229 22.6207 41.3974 22.5714 41.5758Z" fill="black"/>
<path d="M23.8081 9.475C23.8324 9.35329 23.7687 9.21356 23.9196 9.21736C23.9622 9.23556 23.9992 9.26458 24.0271 9.30155C24.0549 9.33851 24.0726 9.38211 24.0784 9.42803C24.7153 10.5499 24.7863 11.8416 25.1811 13.0342C25.2461 13.4643 25.3567 13.8862 25.5112 14.2928C25.4895 14.4463 25.4522 14.5972 25.3997 14.7431C25.3954 14.7594 25.3856 14.7737 25.3718 14.7834C25.3581 14.7932 25.3414 14.7978 25.3246 14.7964C25.3078 14.7951 25.292 14.7879 25.28 14.7761C25.268 14.7644 25.2605 14.7487 25.2588 14.732C25.2622 14.6708 25.2513 14.6097 25.2272 14.5535C25.203 14.4972 25.1661 14.4473 25.1195 14.4076C25.0728 14.3679 25.0176 14.3396 24.9581 14.3249C24.8987 14.3101 24.8367 14.3093 24.7769 14.3225C24.6749 14.3344 24.6406 14.1736 24.6134 14.0641C24.3849 13.2903 24.2522 12.4913 24.2182 11.6851C24.145 11.0222 24.0216 10.3658 23.849 9.72156C23.8344 9.62755 23.8179 9.53384 23.8081 9.475Z" fill="black"/>
<path d="M41.3585 20.6283C41.0466 20.65 40.7433 20.7404 40.4703 20.8929C40.3545 20.7334 40.4635 20.6739 40.567 20.5965C41.4862 19.9353 42.4777 19.3809 43.5224 18.944C44.2315 18.6311 44.9409 18.3199 45.6619 18.0363C45.7577 17.9986 45.9084 17.8574 45.9802 18.0297C46.038 18.1684 45.8675 18.2262 45.7645 18.2768C44.8943 18.6607 44.0677 19.1365 43.2988 19.6961C42.7524 20.1379 42.179 20.5452 41.5821 20.9157C41.4633 20.988 41.3763 21.0577 41.265 20.9423C41.1169 20.789 41.3882 20.7729 41.3585 20.6283Z" fill="black"/>
<path d="M43.7334 39.6914C43.5885 39.7129 43.4405 39.6924 43.307 39.6322C43.1735 39.5721 43.0601 39.4748 42.9802 39.3521C42.8677 39.2429 42.7344 39.1575 42.5883 39.1009C42.4421 39.0443 42.286 39.0177 42.1293 39.0228C42.0535 39.0244 41.9781 39.0099 41.9083 38.9803C41.8384 38.9507 41.7756 38.9067 41.7239 38.8512C40.707 38.017 39.6202 37.272 38.4754 36.6244C38.4123 36.5962 38.3584 36.5508 38.32 36.4934C38.2815 36.4359 38.2601 36.3688 38.2581 36.2997C38.2574 36.0814 38.4848 36.2519 38.5239 36.1964C38.8575 35.7236 39.058 36.1931 39.2625 36.3159C40.1983 36.8574 41.0816 37.4849 41.901 38.1903C42.5465 38.6467 43.1588 39.1484 43.7334 39.6914ZM39.0876 36.6435L40.4632 37.5506C40.1222 37.0996 39.6366 36.7793 39.0876 36.6435Z" fill="black"/>
<path d="M15.825 30.8179C15.8743 30.8592 15.9056 30.9182 15.9121 30.9823C15.9187 31.0463 15.9 31.1104 15.8601 31.1609C15.8092 31.2282 15.8136 31.2315 15.8991 31.2727C16.0086 31.3255 16.0046 31.4097 15.8383 31.493C15.4981 31.6634 15.1436 31.805 14.7959 31.9606C14.7247 31.9925 14.6579 32.0341 14.5515 32.0915C15.1754 32.1055 15.6709 31.649 16.322 31.7967C15.8028 32.0308 15.2615 32.2125 14.7062 32.3391C13.8415 32.5871 13.0144 32.9512 12.2475 33.4215C11.9819 33.5884 11.6682 33.5621 11.4119 33.7283C11.3924 33.7426 11.3698 33.7523 11.3459 33.7567C11.3221 33.761 11.2976 33.7598 11.2742 33.7532C11.2509 33.7466 11.2294 33.7348 11.2113 33.7187C11.1932 33.7025 11.1791 33.6825 11.1699 33.6601C11.1652 33.6185 11.1762 33.5766 11.2008 33.5427C11.2253 33.5088 11.2616 33.4853 11.3026 33.4768C11.5149 33.3846 11.7179 33.2724 11.9089 33.1417C13.0933 32.1517 14.6315 31.7813 15.825 30.8179Z" fill="black"/>
<path d="M43.8569 27.3552C43.4594 27.0958 43.0533 27.0889 42.6915 26.8245C43.0513 26.8565 43.4016 26.9576 43.7232 27.1221C44.8061 27.4808 45.9112 27.7685 47.0316 27.9834C47.2071 28.0197 47.5489 27.9858 47.5109 28.2163C47.4742 28.4387 47.1472 28.3282 46.9724 28.2921C45.9919 28.0896 44.9835 28.0705 44.0097 27.8491C43.2032 27.7864 42.4082 27.6203 41.644 27.355L42.5348 27.3896C42.4075 27.3748 42.2844 27.3346 42.173 27.2712C42.0616 27.2079 41.9641 27.1228 41.8862 27.021L43.8569 27.3552Z" fill="black"/>
<path d="M19.5896 18.9004C19.0893 18.5163 18.6571 18.0508 18.3112 17.5234C17.6929 16.6648 17.0289 15.84 16.3222 15.0526C16.2367 14.9634 16.1612 14.8653 16.097 14.7597C16.075 14.71 16.0728 14.6538 16.0908 14.6024C16.1087 14.5511 16.1455 14.5085 16.1937 14.4834C16.2695 14.4148 16.3461 14.4787 16.4051 14.5424C16.4356 14.5705 16.463 14.6017 16.487 14.6355C16.9379 15.3535 17.5137 15.985 18.1871 16.5001C18.6919 16.9128 19.1488 17.3971 19.635 17.8415C19.8954 17.98 20.1179 18.1803 20.283 18.4247C19.6511 18.0537 19.0541 17.6262 18.4994 17.1474C18.9296 17.6874 19.2955 18.2757 19.5896 18.9004Z" fill="black"/>
<path d="M32.9128 45.9816C32.0365 44.0429 31.6464 41.9146 30.7145 40.0244C31.1862 40.0363 31.2211 40.0291 31.3658 40.733C31.5926 41.8362 32.0808 42.85 32.3932 43.9227C32.5897 44.5977 32.8056 45.2672 33.0128 45.9391L32.9128 45.9816Z" fill="black"/>
<path d="M27.4106 11.4876C27.107 10.0227 26.9325 8.53399 26.8889 7.03857L27.4106 11.4876Z" fill="black"/>
<path d="M35.3459 33.9858C35.4184 33.7736 35.4741 33.5559 35.5125 33.3349C35.2595 33.3756 35.0205 33.4784 34.817 33.6341C34.6134 33.7898 34.4516 33.9935 34.3461 34.227C34.3294 34.2998 34.2948 34.3673 34.2453 34.4234C34.1958 34.4794 34.1331 34.5221 34.0629 34.5476C34.092 34.2723 34.3791 34.1182 34.4306 33.8094C33.9752 34.0057 33.4876 34.1165 32.9921 34.1364C33.4401 33.9711 33.9022 33.8449 34.3327 33.6373C34.4361 33.6049 34.5338 33.5567 34.6225 33.4945C34.6835 33.4629 34.7317 33.4111 34.7587 33.3479C34.7858 33.2847 34.79 33.2141 34.7707 33.1481C34.6897 33.022 34.5641 33.1735 34.456 33.1877C34.2259 33.319 33.9573 33.3661 33.6963 33.3209C33.8663 33.2116 34.0584 33.1413 34.2588 33.1148C34.7233 32.8698 35.189 32.6268 35.6496 32.3748C35.7368 32.3271 35.8689 32.272 35.79 32.1253C35.7235 32.0019 35.8409 31.9705 35.8911 31.965C36.7758 31.8675 37.1327 31.126 37.5164 30.5117C37.7377 30.1576 37.3002 30.3197 37.1138 30.2869C37.2277 30.2154 37.2113 29.9485 37.4966 30.1342C37.7339 30.2887 37.7971 30.4194 37.6545 30.6569C37.5452 30.8783 37.4029 31.0817 37.2325 31.2603C37.0838 31.3934 36.9657 31.557 36.8861 31.74C36.8066 31.923 36.7675 32.121 36.7715 32.3204C37.5331 31.6397 38.0343 30.7153 38.1892 29.7056C38.2378 30.0762 38.2141 30.4527 38.1194 30.8143C38.0938 31.1868 38.0254 31.5551 37.9153 31.9118C37.8235 31.6231 38.0166 31.3195 37.9026 31.0011C37.608 31.4895 37.6612 32.1141 37.2192 32.5065L37.2274 32.2943C36.9936 32.4102 36.7897 32.5785 36.6317 32.7861C36.4736 32.9937 36.3657 33.235 36.3163 33.4912L36.4526 32.8309C36.2525 32.8537 36.0642 32.9374 35.9132 33.0707C35.7622 33.204 35.6559 33.3805 35.6085 33.5762C35.5597 33.7341 35.4689 33.8757 35.3459 33.9858ZM36.6341 31.7949C36.3208 32.1731 35.8516 32.2888 35.8937 32.8145C36.0141 32.8074 36.1313 32.7738 36.2371 32.7159C36.3428 32.658 36.4344 32.5774 36.5052 32.4799C36.576 32.3824 36.6243 32.2703 36.6466 32.1519C36.6689 32.0334 36.6647 31.9115 36.6341 31.7949ZM34.8738 33.299C35.4427 33.2759 35.7236 33.0367 35.6778 32.6094C35.4927 32.6376 35.3192 32.7172 35.1771 32.8391C35.0349 32.961 34.9298 33.1204 34.8738 33.299Z" fill="black"/>
<path d="M37.5726 24.0998L36.6799 22.8354C37.1006 23.1549 37.4123 23.5964 37.5726 24.0998Z" fill="black"/>
<path d="M31.1978 18.7146C31.6844 18.8748 32.1087 19.1832 32.4113 19.5967C31.9729 19.3523 31.5655 19.0562 31.1978 18.7146Z" fill="black"/>
<path d="M38.597 28.2424C38.5656 28.6626 38.3708 29.0537 38.0543 29.3318C38.1766 28.9405 38.46 28.6262 38.597 28.2424Z" fill="black"/>
<path d="M50.5378 15.9523C49.8311 15.9934 49.1597 16.2724 48.635 16.7431C48.1102 17.2139 47.7634 17.848 47.6521 18.5407C47.6171 18.73 47.7408 19.0262 47.362 18.9981C47.2994 18.9895 47.2396 18.9669 47.1871 18.9322C47.1345 18.8975 47.0905 18.8514 47.0584 18.7975C47.0262 18.7436 47.0068 18.6832 47.0015 18.6208C46.9962 18.5584 47.0052 18.4956 47.0277 18.4372C47.0848 17.9087 47.2569 17.3988 47.5322 16.9426C47.8075 16.4865 48.1794 16.0949 48.6223 15.795C49.0651 15.495 49.5684 15.2939 50.0974 15.2053C50.6263 15.1168 51.1684 15.143 51.6861 15.2822C52.3112 15.3991 52.9178 15.5977 53.49 15.8729C53.8842 16.0963 54.0595 15.9595 54.0738 15.4911C54.0566 14.2202 54.4865 12.983 55.2896 11.9918C56.3572 10.8631 57.811 10.169 59.3673 10.0448C59.5738 10.0088 59.9318 9.90036 59.9978 10.2455C60.01 10.3852 59.9703 10.5245 59.8862 10.6372C59.8021 10.75 59.6793 10.8284 59.5409 10.8577C58.7275 11.1329 57.9709 11.551 57.3072 12.0921C56.7242 12.497 56.24 13.0258 55.8897 13.6398C55.5394 14.2539 55.332 14.9377 55.2825 15.6413C55.2311 15.8729 55.2745 16.1153 55.4032 16.3152C55.5319 16.5151 55.7355 16.6563 55.9691 16.7077C56.0383 16.7173 56.1048 16.7403 56.1649 16.7753C56.2251 16.8104 56.2777 16.8569 56.3197 16.9121C56.3617 16.9673 56.3923 17.0301 56.4098 17.0971C56.4273 17.164 56.4313 17.2337 56.4216 17.3022C56.395 17.3671 56.3538 17.4252 56.3012 17.472C56.2485 17.5188 56.1857 17.5531 56.1177 17.5722C56.0496 17.5913 55.978 17.5948 55.9084 17.5823C55.8388 17.5699 55.7729 17.5419 55.7159 17.5004C55.6045 17.448 55.4805 17.4276 55.358 17.4416C55.2355 17.4556 55.1194 17.5035 55.0231 17.5797C54.993 17.6075 54.957 17.6283 54.9178 17.6406C54.8786 17.6529 54.8371 17.6565 54.7964 17.6511C54.7556 17.6457 54.7165 17.6314 54.682 17.6092C54.6475 17.5871 54.6183 17.5577 54.5966 17.523C53.4695 16.338 51.8713 16.3092 50.5378 15.9523Z" fill="black"/>
<path d="M68.1414 7.91583C68.676 7.92177 69.2076 7.99452 69.7229 8.13229C70.6814 8.53397 70.9476 8.08217 71.2336 7.34385C71.4631 6.67288 71.9033 6.08772 72.493 5.66973C73.0826 5.25174 73.7923 5.02171 74.5235 5.01162C74.7005 5.01251 74.9322 4.93527 75 5.16762C74.9987 5.25565 74.9756 5.3421 74.9326 5.41975C74.8897 5.49739 74.8282 5.56397 74.7531 5.61394C74.5551 5.78872 74.2985 5.88868 74.0304 5.89548C73.3955 6.09554 72.8369 6.47443 72.4265 6.9835C72.016 7.49257 71.7723 8.10858 71.7268 8.75245C71.7172 8.8272 71.7246 8.90309 71.7487 8.97474C71.7727 9.0464 71.8127 9.11208 71.8659 9.16716C72.1397 9.42331 72.2777 9.69257 71.8784 9.97023C71.8026 10.0314 71.7141 10.0761 71.6188 10.1013C71.5235 10.1264 71.4237 10.1314 71.3263 10.1159C71.2288 10.1004 71.136 10.0647 71.0541 10.0114C70.9722 9.95801 70.9031 9.88821 70.8517 9.80674C70.4239 9.34721 69.8455 9.04388 69.2137 8.94767C68.9809 8.87832 68.7354 8.858 68.4937 8.8881C68.2521 8.9182 68.0199 8.99801 67.8129 9.12216C67.6059 9.2463 67.4288 9.4119 67.2936 9.60778C67.1584 9.80366 67.0682 10.0253 67.0291 10.2577C67.0181 10.3841 66.9791 10.5067 66.9148 10.6173C66.8505 10.7278 66.7623 10.8237 66.6562 10.8984C66.4349 11.0181 66.1136 11.1038 66.0197 10.7236C65.9553 10.209 66.0499 9.68754 66.2915 9.22483C66.5332 8.76212 66.9112 8.37888 67.3778 8.12336C67.6032 7.97786 67.8705 7.9052 68.1414 7.91583Z" fill="black"/>
<path d="M63.0581 23.0347C62.6781 23.0087 62.2997 23.1014 61.9844 23.2976C61.6692 23.4938 61.4357 23.7819 61.3218 24.1152C61.0681 24.5047 60.9067 25.2764 60.2055 24.8987C59.6712 24.6108 60.3255 24.1125 60.5172 23.7772C60.8144 23.1394 61.366 22.6297 62.0594 22.3521C62.7528 22.0745 63.5357 22.05 64.2482 22.2835C64.385 22.3298 64.5264 22.3638 64.6704 22.3849C65.2447 22.371 65.7569 22.5404 65.891 21.637C65.9863 20.8709 66.3097 20.1437 66.826 19.535C67.3422 18.9262 68.0313 18.4594 68.8178 18.1857C69.1925 18.0455 69.7576 17.8151 69.976 18.2613C70.1125 18.5401 69.6387 18.8155 69.2758 18.9468C68.7809 19.1361 68.3334 19.4161 67.9608 19.7696C67.5883 20.123 67.2984 20.5426 67.1091 21.0024C66.9143 21.3571 66.8456 21.7589 66.9127 22.1512C66.9798 22.5436 67.1794 22.9068 67.4833 23.1899C67.7535 23.4371 67.7929 23.5908 67.4989 23.8246C67.2283 24.0398 67.0043 24.3025 66.6082 23.9943C65.5469 23.3748 64.3164 23.0422 63.0581 23.0347Z" fill="black"/>
<path d="M33.5 30L44.5 32.5L55.5 29L65.5 29.5L77.5 34.5L78.5 39.5L71 43.5L46 47L37 46L27 47L21.5 40L33.5 30Z" fill="#F5F5F5"/>
<path d="M64.3321 45.8415C62.0025 44.771 59.673 46.2697 57.1316 46.698C56.9198 46.698 56.708 46.9121 56.708 46.9121C52.2607 46.698 48.0251 47.9826 44.0013 49.6955C41.8835 50.5519 39.1303 49.4814 37.0125 47.9826C35.9536 47.3403 34.8947 47.1262 33.8358 47.5544C30.6591 48.839 27.6942 47.9826 24.7293 46.698C20.0702 44.5569 20.2819 38.776 22.6115 35.7784C22.8233 35.5643 23.0351 35.1361 23.0351 35.1361C26.2118 35.1361 26.4235 32.995 27.0589 30.4257C27.6942 28.0705 30.0238 27 32.1416 27C35.7419 27.2141 39.5539 27.8564 42.307 30.6398C43.3659 31.4963 44.0013 31.7104 44.8484 30.8539C48.4486 27.4282 52.896 27 57.5552 27.4282C59.4612 27.6423 61.1554 27.2141 63.0614 27.2141C67.5088 27.6423 70.4737 30.8539 74.4975 31.9245C77.0389 32.5668 78.3096 35.3502 78.9449 38.1336C79.1567 39.2042 78.7331 40.0606 78.0978 40.4888C76.4036 42.4158 67.0852 46.2697 64.3321 45.8415ZM30.0238 33.6374C31.5063 34.0656 32.5652 34.7079 33.6241 35.5643C34.0476 35.9925 35.3183 36.4208 34.8947 37.2772C34.4712 38.3477 33.6241 38.9901 32.5652 39.2042C31.0827 39.4183 30.2356 38.3477 29.3885 37.7054C28.7531 37.2772 28.5413 36.2067 27.4824 36.4208C23.8822 37.0631 22.3997 40.4888 24.5175 43.4863C26.2118 46.2697 31.718 47.5544 32.9887 44.9851C34.2594 42.4158 36.589 44.771 37.8597 43.0581C38.0714 42.844 38.2832 43.7004 38.495 43.9146C39.9775 46.4839 46.5426 47.3403 48.4486 45.1992C50.5664 43.0581 52.2607 42.6299 54.802 44.1287C56.4963 45.1992 58.1905 45.4133 59.4612 43.2722C59.8847 42.4158 60.7319 42.2017 61.7908 42.4158C67.297 43.4863 70.6855 41.7735 72.8033 36.4208C72.8033 36.2067 73.2269 35.9925 73.6504 35.9925C74.9211 35.7784 75.7682 37.0631 75.3447 38.5618C74.9211 39.8465 73.8622 40.7029 72.8033 41.7735C76.8271 40.4888 77.6742 39.6324 77.4625 37.2772C77.2507 35.5643 74.2858 32.7809 72.8033 32.995C71.3208 32.995 72.5915 34.7079 71.5326 35.1361C71.3208 35.1361 71.3209 35.3502 70.8973 35.3502C70.0502 33.8515 69.4148 31.9245 67.5088 30.8539C64.1203 29.1411 60.5201 31.9245 57.5552 29.5693C57.3434 29.3552 56.9198 29.7834 56.708 29.9975C53.9549 31.4963 51.2018 32.3527 48.2369 33.2091C45.6955 33.8515 43.1541 34.7079 40.401 32.5668C36.8008 29.5693 33.4123 30.4257 30.0238 33.6374ZM28.5413 31.9245C30.4474 31.0681 32.3534 30.2116 34.0476 28.927C31.5063 27.6423 29.1767 28.927 28.5413 31.9245Z" fill="black"/>
</g>
<defs>
<clipPath id="clip0_2357_4508">
<rect width="79" height="54" fill="white"/>
</clipPath>
</defs>
</svg>
