<svg width="80" height="40" viewBox="0 0 80 40" fill="none" xmlns="http://www.w3.org/2000/svg">
<g clip-path="url(#clip0_2418_4193)">
<path d="M57.1295 39.3488C57.3177 39.3488 57.5059 39.4418 57.5059 39.5348C57.5059 39.7209 57.3177 39.6279 57.2236 39.6279C56.3765 39.6279 55.6236 39.5348 54.7765 39.5348C53.1765 39.5348 51.4824 39.7209 49.8824 39.7209C48.3765 39.6279 46.7765 39.8139 45.2706 39.6279C43.5765 39.4418 41.8824 39.4418 40.2824 39.2558C39.2471 39.1627 38.2118 39.1628 37.1765 38.9767C36.7059 38.8837 36.2354 39.2558 35.7648 39.2558C35.5765 39.2558 35.2942 39.3488 35.2001 38.9767C35.2001 38.8837 35.0118 38.8837 34.9177 38.8837C33.6942 38.9767 32.5648 38.8837 31.3412 39.0697C30.2118 39.3488 29.1765 39.0697 28.1412 39.0697C26.7295 39.0697 25.3177 38.7907 23.9059 38.8837C23.3412 38.8837 22.7765 38.8837 22.2118 38.8837C21.7412 38.8837 21.1765 38.6976 20.7059 38.9767C20.5177 39.0697 19.953 38.8837 19.4824 38.8837C19.3883 38.8837 19.2001 38.7907 19.1059 38.8837C18.1648 39.3488 17.1295 38.9767 16.0942 38.9767C15.2471 38.9767 15.0589 38.4186 14.6824 37.7674C14.1177 36.7441 13.6471 35.7209 12.8942 34.7907C11.4824 33.0232 10.6353 31.0697 9.69417 29.1162C8.84711 27.2558 7.62358 25.4883 6.68241 23.6279C5.74123 21.8604 4.89417 20 4.04711 18.1395C3.10594 16.093 2.44711 13.9535 1.3177 12C1.12947 11.7209 1.12947 11.4418 0.941231 11.0697C0.847113 10.6976 1.03535 10.6046 1.3177 10.6976C2.72947 10.8837 4.14123 10.6976 5.553 10.6046C6.77652 10.6046 8.09417 10.6976 9.3177 10.8837C10.4471 10.9767 11.5765 11.2558 12.7059 11.1628C13.9295 11.0697 15.0589 11.4418 16.0942 11.6279C17.7883 12 19.4824 12 21.1765 12.3721C22.7765 12.7441 24.3765 12.9302 25.9765 13.2093C26.6353 13.3023 27.2942 13.3023 27.7648 12.6511C28.7059 11.4418 29.7412 10.3255 30.6824 9.30229C31.6236 8.27903 32.6589 7.25578 33.7883 6.32554C34.5412 5.7674 35.0118 5.02322 35.7648 4.46508C37.2706 3.25578 38.5883 1.86043 39.7177 0.279032C39.9059 0.092986 40.0942 -0.0930591 40.2824 0.186011C41.0353 0.930197 41.9765 1.39531 42.7295 2.04648C43.4824 2.69764 44.2354 3.3488 44.9883 3.90694C46.7765 5.30229 48.5648 6.60462 50.2589 8.09299C51.4824 9.20927 52.6118 10.3255 53.8353 11.3488C54.6824 12.093 55.7177 12.5581 56.4706 13.3023C56.6589 13.4883 56.9412 13.3023 57.0354 13.1162C57.2236 12.9302 57.4118 12.8372 57.6001 12.9302C58.1648 13.1162 58.6354 12.9302 59.1059 12.8372C60.7059 12.3721 62.3059 12.186 63.9059 11.8139C64.4707 11.7209 65.0354 11.4418 65.6001 11.2558C67.2942 10.7907 69.0824 10.5116 70.8707 10.3255C71.8118 10.2325 72.8471 9.95345 73.7883 9.67438C74.7295 9.30229 75.6707 9.39531 76.6118 9.11624C77.4589 8.93019 78.2118 8.9302 79.0589 9.02322C79.2471 9.02322 79.3412 9.02322 79.3412 9.20927C79.3412 9.39531 79.2471 9.48834 79.153 9.48834C78.4001 9.76741 78.3059 10.5116 77.9295 10.9767C77.8354 11.1628 77.7412 11.4418 77.6471 11.6279C77.2707 13.1162 76.3295 14.4186 75.6707 15.8139C75.2942 16.5581 74.9177 17.3953 74.7295 18.2325C74.5412 19.0697 74.0707 19.8139 73.6942 20.6511C72.753 22.7907 71.6236 24.9302 70.8707 27.0697C70.1177 29.1162 69.1765 31.1628 68.4236 33.3023C68.0471 34.5116 67.4824 35.7209 67.0118 36.9302C66.8236 37.3953 66.8236 37.6744 67.4824 37.7674C67.5765 37.7674 67.6707 37.7674 67.6707 37.9535C67.6707 38.1395 67.4824 38.1395 67.3883 38.1395C66.6354 37.8604 66.6354 38.4186 66.353 38.7907C66.2589 38.9767 66.2589 39.1628 66.1648 39.3488C66.0707 39.5348 66.0707 39.7209 65.7883 39.7209C65.6001 39.6279 65.6942 39.4418 65.6942 39.3488C65.7883 39.2558 65.7883 39.0697 65.6001 39.0697C65.4118 39.0697 65.1295 38.9767 65.1295 39.2558C65.0354 39.6279 64.8471 39.7209 64.4706 39.5348C64.0942 39.3488 63.9059 39.8139 63.6236 39.9069C63.2471 40 63.3412 39.4418 62.8707 39.4418C61.4589 39.5348 60.0471 39.4418 58.6354 39.4418C58.2589 39.4418 57.7883 39.4418 57.4118 39.3488C57.5059 39.1628 57.3177 39.2558 57.1295 39.3488ZM57.7883 17.3953C57.9765 17.3953 58.1648 17.4883 58.353 17.4883C58.5412 17.4883 58.7295 17.3953 58.8236 17.2093C58.9177 17.1162 58.9177 17.0232 58.8236 16.9302C58.6354 16.8372 58.5412 16.7441 58.353 16.9302C58.1648 17.0232 57.8824 17.1162 57.7883 17.3953C57.3177 17.3953 57.0354 17.8604 56.4706 17.7674C56.753 17.5814 57.0354 17.3953 57.2236 17.1162C57.0354 16.9302 56.8471 16.8372 56.6589 16.6511C56.4706 16.4651 56.3765 16.4651 56.2824 16.6511C56.1883 16.9302 55.9059 17.0232 55.7177 17.1162C55.153 17.5814 54.9648 17.5814 54.7765 16.8372C55.0589 16.7441 55.153 17.2093 55.4354 16.9302C55.8118 16.5581 55.0589 16.4651 55.2471 16.093C55.3412 16.186 55.4354 16.186 55.4354 16.186C55.6236 16.3721 55.8118 16.4651 56.0001 16.279C56.2824 16.093 56.0001 15.9069 55.9059 15.7209C55.8118 15.5348 55.7177 15.4418 55.7177 15.3488C56.0001 15.2558 56.1883 15.5348 56.3765 15.7209C56.6589 16 56.9412 15.7209 57.1295 15.5348C57.3177 15.2558 57.0354 15.2558 56.8471 15.1628C56.3765 14.7907 56.0942 15.2558 55.8118 15.3488C55.4354 15.7209 55.0589 16.186 54.5883 16.5581C54.4001 16.279 54.8706 15.9069 54.4942 15.7209C54.0236 15.3488 53.4589 15.0697 53.0824 14.6046C52.8001 14.9767 53.3648 15.0697 53.2706 15.3488C53.0824 15.4418 52.9883 15.3488 52.8001 15.2558C52.5177 14.9767 52.2354 14.7907 51.953 14.4186C51.5765 13.9535 51.2942 13.9535 51.0118 14.4186C50.9177 14.6046 50.7295 14.7907 50.4471 14.8837C50.4471 14.6046 50.5412 14.4186 50.5412 14.2325C51.0118 14.1395 51.2942 13.8604 51.0118 13.3953C50.9177 13.3023 50.9177 13.2093 50.9177 13.1162C50.9177 12.6511 50.6354 12.279 50.2589 12C49.9765 11.8139 49.6942 12.279 49.5059 12.4651C49.3177 12.6511 49.2236 12.8372 49.0353 12.9302C48.753 13.1162 48.9412 13.2093 49.0353 13.3023C48.4706 13.1162 48.3765 13.8604 47.8118 13.7674C48.2824 13.0232 48.9412 12.4651 49.5059 11.9069C49.6942 11.7209 49.7883 11.7209 49.5059 11.4418C48.6589 10.6976 47.5295 10.3255 46.7765 9.39531C46.6824 9.30229 46.4001 9.30229 46.4942 9.11624C46.6824 8.93019 46.7765 9.20927 46.9648 9.20927C46.8706 9.02322 46.7765 8.83717 46.6824 8.74415C46.3059 7.99996 46.0236 7.90694 45.3648 8.37206C45.1765 8.46508 45.0824 8.65113 44.8942 8.74415C44.8001 8.83717 44.7059 9.11624 44.5177 8.93019C44.4236 8.74415 44.6118 8.65113 44.7059 8.5581C45.0824 8.18601 45.6471 7.99996 45.3648 7.25578C45.2706 6.88368 44.9883 6.79066 44.7059 6.97671C44.4236 7.16275 44.1412 7.3488 43.8589 7.62787C43.7648 7.25578 43.953 7.16275 44.0471 7.06973C44.5177 6.79066 44.2354 6.32555 44.0471 6.23252C43.5765 6.04648 43.2942 5.67438 42.6354 5.67438C43.4824 5.11624 42.9177 4.74415 42.5412 4.37206C42.4471 4.27903 42.4471 4.09299 42.2589 4.18601C42.0706 4.27903 42.2589 4.46508 42.2589 4.5581C42.353 4.9302 42.353 5.20927 42.2589 5.58136C42.1648 6.04647 41.7883 6.69764 42.5412 7.25578C42.8236 7.44182 43.2001 8.18601 42.7295 8.65113C42.2589 9.11624 42.4471 9.67438 42.2589 10.2325C42.4471 10.0465 42.5412 9.67438 42.8236 9.86043C43.1059 9.95345 42.9177 10.1395 42.9177 10.3255C42.9177 11.4418 42.353 12.4651 42.6354 13.6744C42.6354 13.7674 42.6354 13.8604 42.5412 13.8604C41.9765 14.3255 42.0706 14.8837 42.4471 15.3488C42.5412 15.4418 42.6354 15.6279 42.5412 15.7209C42.4471 15.9069 42.2589 15.8139 42.1648 15.7209C41.9765 15.6279 42.0706 15.8139 41.9765 15.8139C42.1648 16 41.4118 16.5581 42.1648 16.5581L42.2589 16.7441C41.9765 17.3023 42.353 17.8604 42.4471 18.4186C42.1648 18.5116 42.1648 18.1395 41.9765 18.1395C41.8824 18.3255 41.9765 18.5116 42.0706 18.6976C42.4471 19.3488 42.4471 19.9069 42.1648 20.4651C42.1648 20.4651 42.1648 20.5581 42.1648 20.6511C42.0706 21.3023 41.9765 21.9535 42.353 22.6046C42.6354 23.3488 42.353 24.186 42.6354 25.0232C42.7295 25.2093 42.6354 25.2093 42.353 25.2093C42.0706 25.2093 42.0706 24.9302 41.9765 24.6511C41.8824 25.2093 41.8824 25.6744 41.7883 26.1395C41.8824 26.0465 41.9765 26.0465 42.0706 26.0465C42.9177 25.6744 43.6706 25.2093 44.6118 24.9302C46.2118 24.3721 47.8118 23.8139 49.3177 22.8837C49.5059 22.7907 49.6942 22.6046 49.8824 22.6976C50.353 22.8837 50.6354 22.6046 51.0118 22.5116C51.7648 22.1395 52.4236 21.7674 53.0824 21.3953C54.7765 20.4651 56.5648 19.7209 58.0706 18.4186C58.0706 17.8604 58.1648 17.6744 57.7883 17.3953ZM67.4824 18.5116C67.7648 18.4186 68.0471 18.2325 68.5177 18.3255C67.7648 18.5116 67.3883 18.9767 66.8236 18.9767C66.1648 19.0697 65.6001 19.0697 65.1295 19.5348C65.0354 19.6279 65.0354 19.6279 64.9412 19.5348C64.753 19.2558 64.4707 19.4418 64.2824 19.5348C63.5295 19.9069 62.6824 20.186 61.8354 20.4651C61.7412 20.4651 61.6471 20.6511 61.553 20.4651C61.4589 20.279 61.6471 20.279 61.7412 20.186C62.0236 19.8139 62.3059 19.4418 62.4942 18.8837C61.7412 19.1628 61.0824 19.5348 60.5177 20.093C60.4236 20.186 60.2354 20.3721 60.1412 20.186C59.953 20 60.1412 19.9069 60.2354 19.8139C60.4236 19.6279 60.6118 19.3488 60.8001 19.0697C60.8942 18.9767 60.8942 18.8837 60.7059 18.7907C60.6118 18.6976 60.5177 18.7907 60.5177 18.8837C60.4236 19.0697 60.2354 19.3488 60.0471 19.5348C59.5765 20 59.3883 20.7441 58.8236 21.1162C59.0118 20.5581 59.4824 20.093 59.6706 19.3488C58.6354 19.9069 58.0706 20.9302 57.2236 21.5814C57.5059 21.0232 57.7883 20.4651 57.9765 19.9069C57.3177 20.186 57.2236 21.0232 56.5648 21.3023C56.3765 21.1162 56.753 20.9302 56.5648 20.7441C56.3765 20.9302 56.0942 21.0232 56.0942 21.3953C56.0942 21.8604 55.5295 21.7674 55.3412 22.1395L55.2471 22.0465C55.2471 21.7674 55.153 21.8604 55.0589 21.9534C54.7765 22.1395 54.4942 22.3255 54.3059 22.5116C53.553 23.0697 52.7059 23.6279 52.1412 24.4651C52.4236 23.9069 51.953 24.093 51.7648 24C52.2354 23.6279 52.7059 23.4418 52.8001 22.8837C52.8001 22.6976 53.1765 22.6046 53.0824 22.4186C52.8942 22.2325 52.7059 22.5116 52.5177 22.5116C52.4236 22.5116 52.4236 22.6046 52.3295 22.6046C51.7648 22.7907 51.5765 23.5348 50.8236 23.5348C50.6354 23.5348 50.4471 23.7209 50.4471 23.9069C50.4471 24 50.353 24.093 50.5412 24.186C51.0118 24.279 51.2001 24.6511 51.5765 24.8372C51.3883 25.0232 51.2001 24.8372 51.1059 24.8372C50.0706 24.5581 50.0706 24.5581 49.5059 25.5814C49.3177 25.8604 48.8471 25.9535 48.6589 25.8604C48.2824 25.8604 48.2824 25.7674 48.0001 25.9535C47.7177 26.1395 47.3412 26.4186 46.8706 26.5116C47.0589 25.9535 47.8118 25.9535 47.9059 25.3023C46.9648 25.6744 46.2118 26.5116 45.2706 26.6976L45.1765 26.6046C45.9295 26.1395 46.6824 25.6744 47.4354 25.1162C47.0589 25.0232 46.9648 25.0232 46.6824 25.2093C46.2118 25.6744 45.3648 25.6744 44.8001 26.3255C44.7059 26.4186 44.4236 26.5116 44.3295 26.7907C44.2353 27.0697 44.0471 27.2558 43.953 27.5348C43.8589 27.7209 43.8589 27.8139 43.5765 27.6279C43.0118 27.3488 42.4471 27.2558 41.8824 26.9767C42.0706 27.3488 42.353 27.6279 42.7295 27.7209C43.953 28.279 45.2706 28.7441 46.4942 29.2093C46.6824 29.3023 46.8706 29.3953 46.8706 29.0232C46.8706 28.7441 47.0589 28.7441 47.2471 28.9302C47.3412 29.0232 47.4353 29.1162 47.6236 29.2093C49.5059 30.0465 51.3883 30.7907 53.2706 31.5348C53.6471 31.7209 53.9295 31.8139 54.3059 32C55.5295 32.3721 56.753 32.7441 57.8824 33.1162C60.0471 33.7674 62.1177 34.6976 64.2824 35.4418C64.5648 35.5348 64.9412 35.8139 64.9412 35.1628C64.9412 35.0697 64.9412 34.9767 65.0354 34.9767C65.1295 34.9767 65.1295 35.0697 65.2236 35.1628C65.2236 35.2558 65.2236 35.3488 65.3177 35.4418C65.7883 35.1627 65.6942 34.7907 65.6001 34.4186C65.5059 33.8604 65.3177 33.3023 65.7883 32.8372H65.8824C65.8824 33.0232 65.9765 33.1162 65.9765 33.3023C66.0706 33.3023 66.0707 33.3023 66.1648 33.3023C65.7883 32.4651 66.6354 32.093 66.8236 31.5348C66.9177 31.4418 66.9177 31.2558 66.9177 31.1628C66.9177 30.7907 67.0118 30.4186 67.2942 30.0465C66.9177 30.1395 66.8236 30.5116 66.353 30.5116C67.2942 29.7674 67.4824 28.7441 67.7648 27.6279C67.953 28 67.8589 28.279 67.8589 28.6511C68.5177 27.9069 68.9883 27.0697 69.0824 26.1395C68.8001 26.0465 68.7059 26.4186 68.4236 26.3255C68.7059 25.9535 68.8942 25.5814 69.1765 25.3023C68.7059 25.6744 68.4236 26.3255 67.7648 26.6976C67.8589 26.3255 68.0471 26.1395 68.2354 25.8604C68.5177 25.4883 68.8001 25.0232 69.0824 24.6511C69.3648 24.186 69.3648 23.5348 70.0236 23.3488C70.1177 23.3488 70.3059 23.1628 70.4001 22.9767C70.7765 22.5116 71.153 21.9534 71.5295 21.4883C71.7177 21.2093 71.9059 20.8372 71.7177 20.5581C70.8706 21.0232 70.4001 21.9535 69.7412 22.5116C70.3059 21.2093 71.4354 20.279 72.2824 19.2558C72.0001 19.4418 71.8118 19.6279 71.5295 19.8139C71.2471 20 71.153 20.3721 70.7765 20.279C71.5295 19.1628 72.8471 18.6046 73.2236 17.1162C72.753 17.3953 72.5648 17.6744 72.1883 17.7674C72.2824 17.4883 72.4706 17.3023 72.6589 17.1162C73.3177 16.6511 73.6001 16.093 73.6942 15.3488C73.6942 15.1628 73.7883 15.0697 73.9765 14.9767C74.5412 14.6976 74.7295 14.2325 74.8236 13.7674C73.6001 13.6744 73.3177 14.6046 72.8471 15.4418C72.753 14.9767 73.0354 14.6976 73.2236 14.2325C72.753 14.1395 72.3765 14.4186 72.1883 14.7907C71.9059 15.1628 71.7177 15.5348 71.5295 15.9069C71.4354 16.093 71.2471 16.3721 71.153 16.3721C70.4001 16.186 70.0236 16.6511 69.6471 17.2093C69.6471 16.8372 69.6471 16.6511 69.2706 16.7441C68.3295 17.2093 67.7648 17.6744 67.4824 18.5116C67.2942 18.5116 67.2001 18.4186 67.2942 18.2325C67.3883 18.0465 67.4824 17.8604 67.5765 17.6744C66.0707 17.9535 65.9765 18.1395 65.8824 18.8837C66.4471 18.8837 66.9177 18.5116 67.4824 18.5116ZM26.6353 32.4651C26.2589 32.5581 26.1648 32.3721 26.4471 32.186C26.8236 32 27.1059 31.8139 27.4824 31.6279C30.1177 30.5116 32.753 29.4883 35.2942 28.4651C35.4824 28.3721 35.6706 28.279 35.7648 28.093C35.3883 27.9069 35.2001 28.279 34.8236 28.3721C34.7295 28.093 35.1059 27.9069 34.8236 27.5348C34.1648 26.7907 33.6942 26.6976 33.0353 27.3488C32.9412 27.4418 32.9412 27.4418 32.8471 27.5348C32.753 27.6279 32.6589 27.8139 32.4706 27.7209C32.2824 27.6279 32.4706 27.4418 32.5648 27.3488C32.753 27.1628 32.9412 26.8837 33.1295 26.6976C33.2236 26.6046 33.3177 26.5116 33.1295 26.3255C32.9412 26.1395 32.0001 26.0465 31.6236 26.2325C31.3412 26.4186 31.0589 26.6976 30.6824 26.7907C30.7765 26.5116 31.0589 26.3255 31.153 26.1395C31.2471 25.9534 31.6236 25.9534 31.3412 25.6744C31.153 25.3953 30.8706 25.4883 30.6824 25.5814C30.4001 25.7674 30.2118 26.1395 29.7412 26.1395C29.9295 25.7674 30.2118 25.6744 30.4001 25.3953C30.4942 25.3023 30.6824 25.2093 30.6824 25.1162C30.6824 24.9302 30.4942 24.8372 30.3059 24.8372C29.6471 25.0232 29.1765 24.5581 28.6118 24.6511C28.4236 24.6511 28.1412 24.5581 28.3295 24.3721C28.7059 23.8139 28.1412 23.7209 27.8589 23.6279C27.4824 23.4418 27.0118 23.3488 26.4471 23.2558C26.9177 23.6279 27.2942 23.9069 27.5765 24.279C26.8236 24.093 26.353 23.6279 25.7883 23.1628C25.0354 22.6046 24.4706 21.8604 23.4353 21.6744C23.3412 22.2325 24.0942 22.3255 24.2824 22.8837C22.9648 22.1395 22.2118 20.9302 20.9883 20.3721C21.553 21.2093 22.4942 21.7674 22.9648 22.6046C21.8353 21.9535 21.1765 20.7441 19.8589 20.279C20.0471 20.4651 20.3295 20.7441 20.5177 21.0232C20.2353 21.1162 20.0471 20.9302 19.953 20.8372C19.0118 20.186 18.0706 19.4418 17.2236 18.6046C17.0353 18.4186 16.753 18.2325 16.4706 18.3255C16.4706 18.6976 16.8471 18.7907 16.8471 19.1628C16.8471 19.2558 16.8471 19.3488 16.753 19.4418C16.6589 19.5348 16.5648 19.4418 16.5648 19.3488C16.0001 18.5116 14.9648 18.1395 14.3059 17.3953C14.4942 17.6744 14.6824 17.9534 14.8706 18.2325C14.9648 18.3255 14.9648 18.4186 14.8706 18.5116C14.7765 18.6046 14.6824 18.6046 14.6824 18.5116C14.3059 18.0465 13.553 18.1395 13.1765 17.7674C12.5177 17.1162 11.8589 16.5581 11.2001 15.9069C10.7295 15.3488 9.97653 15.4418 9.50594 15.0697V15.1628C9.69417 16.186 10.6353 16.6511 11.2001 17.3953C10.6353 17.2093 10.0706 16.9302 9.78829 16.5581C9.22358 15.7209 8.28241 15.3488 7.62358 14.7907C7.43535 14.6976 7.34123 14.7907 7.34123 14.9767C7.24711 15.4418 7.05888 15.1628 6.87064 15.0697C6.68241 14.8837 6.68241 14.6046 6.49417 14.5116C5.553 14.0465 4.70594 13.5814 3.76476 13.1162H3.67064C3.67064 13.4883 3.85888 13.7674 4.14123 13.9535C4.61182 14.2325 5.17653 14.5116 5.64711 14.7907C5.92947 14.9767 6.21182 15.1628 6.40005 15.5348C6.1177 15.4418 6.02358 15.4418 5.74123 15.4418C5.74123 15.8139 5.74123 16.093 5.74123 16.3721C5.74123 16.8372 5.83535 17.1162 6.30594 17.3953C6.68241 17.5814 7.153 17.6744 7.43535 18.1395C6.96476 18.1395 6.68241 17.7674 6.21182 17.8604C6.87064 18.0465 6.77653 18.5116 6.77653 18.9767C6.87064 19.5348 6.77652 20.093 7.43535 20.4651C7.62358 20.186 7.34123 19.8139 7.43535 19.5348C7.52947 19.3488 7.52947 19.0697 7.81182 19.1628C8.00005 19.1628 7.90594 19.4418 7.90594 19.5348C7.90594 19.6279 7.90594 19.7209 7.90594 19.9069C8.00005 20.6511 8.37653 21.3023 8.37653 22.0465C8.37653 22.5116 8.47064 22.9767 9.12947 23.0697C9.12947 22.7907 9.12947 22.6046 9.03535 22.4186C8.94123 22.1395 8.94123 21.9535 8.94123 21.6744C8.94123 21.4883 9.03535 21.3023 9.22358 21.3023C9.41182 21.3023 9.41182 21.5814 9.41182 21.6744C9.41182 21.9535 9.41182 22.2325 9.50594 22.4186C9.60006 22.9767 9.50594 23.5348 10.2589 23.8139C10.1648 24.093 9.88241 23.8139 9.78829 24C9.88241 24.4651 10.1648 24.6511 10.4471 24.9302C10.7295 25.1162 10.9177 25.3023 11.2001 25.4883C11.2942 25.5814 11.4824 25.6744 11.2942 25.8604C11.2001 26.0465 11.1059 25.8604 11.0118 25.7674C10.7295 25.5814 10.4471 25.3953 10.0706 25.2093C10.0706 26.3255 10.2589 26.8837 10.9177 27.1628C10.9177 27.0697 10.9177 27.0697 10.9177 26.9767C10.8236 26.7907 10.9177 26.6046 11.1059 26.4186C11.2942 26.3255 11.3883 26.5116 11.5765 26.6046C11.7648 26.7907 11.6706 26.8837 11.5765 27.0697C11.2942 27.6279 11.953 28.4651 12.5177 28.5581C12.7059 28.5581 13.0824 29.3023 13.0824 29.4883C12.6118 30.5116 12.6118 30.5116 13.4589 31.0697C13.553 31.1628 13.7412 31.2558 13.7412 31.4418C13.3648 31.6279 13.1765 31.2558 12.8942 31.2558C12.7059 31.7209 13.0824 32 13.3648 32.186C13.6471 32.3721 13.6471 31.9069 13.7412 31.8139C13.8354 31.8139 13.9295 31.7209 13.9295 31.7209C14.1177 31.5348 14.3059 31.6279 14.4001 31.8139C14.4942 32.093 14.2118 31.9069 14.2118 32C14.0236 32.093 14.0236 32.186 14.0236 32.3721C14.1177 33.0232 14.6824 33.2093 15.0589 33.3953C15.7177 33.6744 16.2824 34.2325 16.9412 34.6976C17.0353 34.7907 17.1295 34.9767 16.9412 35.1628C16.8471 35.2558 16.753 35.1627 16.6589 35.0697C16.0942 34.1395 15.0589 33.9535 14.1177 33.3953C14.4942 34.0465 14.7765 34.7907 15.6236 34.9767C15.9059 35.0697 15.8118 35.0697 15.8118 35.2558C15.8118 35.8139 15.7177 36.093 15.153 35.7209C15.0589 36.279 15.3412 36.7441 15.7177 37.0232C16.0942 37.3023 16.3765 37.7674 17.0353 37.3953C17.5059 37.1162 18.0706 36.8372 18.6353 36.5581C20.8001 35.8139 22.7765 34.6976 24.8471 33.6744C25.2236 33.1162 25.8824 32.7441 26.6353 32.4651ZM25.6001 20.093C25.9765 20.4651 26.353 20.8372 26.8236 21.1162C28.3295 21.9535 29.9295 22.5116 31.4354 23.2558C33.0354 24 34.6353 24.9302 36.3295 25.5814C37.3648 25.9535 38.3059 26.5116 39.4354 26.6046C39.8118 26.6046 40.0942 26.6046 40.1883 26.1395C40.3765 24.5581 40.1883 22.9767 39.8118 21.4883C39.7177 21.2093 39.6236 20.9302 39.8118 20.8372C40.1883 20.4651 40.0942 20.186 40.0001 19.7209C39.6236 18.4186 39.2471 17.1162 39.0589 15.8139C38.9648 15.4418 38.9648 15.1628 39.153 14.7907C39.3412 14.3255 39.3412 13.7674 39.3412 13.2093C39.3412 13.0232 38.9648 12.9302 39.0589 12.5581C39.153 12.279 39.153 12 38.9648 11.7209C38.8706 11.4418 38.7765 10.9767 38.9648 10.8837C39.7177 10.6976 39.153 10.3255 39.153 10.0465C39.0589 9.48833 38.6824 9.02322 38.8706 8.37206C39.2471 8.74415 39.153 9.30229 39.5295 9.7674C39.6236 9.48834 39.7177 9.30229 39.7177 9.11624C39.8118 8.74415 39.6236 8.37205 39.5295 7.99996C39.5295 7.90694 39.0589 8.09299 39.153 7.72089C39.3412 7.16275 39.2471 6.60461 38.9648 6.04647C38.8706 5.86043 38.9648 5.58136 39.153 5.67438C39.8118 5.95345 39.5295 5.39531 39.5295 5.20926C39.5295 4.93019 39.4354 4.5581 39.2471 4.27903C39.153 4.65112 38.6824 4.65113 38.5883 5.02322C38.4942 5.30229 38.1177 5.48834 38.2118 5.58136C38.6824 6.04647 38.2118 6.04647 38.0236 6.1395C36.8942 6.51159 36.1412 7.44183 35.4824 8.27903C35.8589 8.18601 36.1412 7.99996 36.4236 7.81392C36.5177 7.81392 36.7059 7.53485 36.8942 7.81392C36.9883 7.99996 36.8001 8.09299 36.6118 8.18601C35.6706 8.65113 34.8236 9.20927 33.8824 9.67438C33.6942 9.76741 33.6001 9.86043 33.5059 10.0465C33.5059 10.0465 33.6001 10.1395 33.6001 10.2325C33.8824 10.3255 33.9765 10.1395 34.0706 10.0465C34.2589 9.95345 34.353 9.67438 34.6353 9.86043C34.2589 10.2325 34.2589 10.7907 33.6001 11.0697C33.9765 11.1628 34.1648 11.2558 34.4471 11.4418C34.5412 11.4418 34.6353 11.6279 34.6353 11.6279C34.6353 11.7209 34.4471 11.8139 34.353 11.8139C34.1648 11.8139 33.9765 11.8139 33.7883 11.7209C33.2236 11.4418 32.9412 11.6279 32.5648 12.093C32.4706 12.279 32.3765 12.4651 32.0001 12.3721C32.1883 12.186 32.3765 12 32.5648 11.7209C32.3765 11.7209 32.1883 11.7209 32.1883 11.8139C32.0001 12 31.5295 12 31.7177 12.3721C31.8118 12.7441 32.2824 12.6511 32.5648 12.5581C32.8471 12.5581 32.9412 12.186 33.2236 12.279C33.3177 12.5581 32.753 12.8372 33.2236 13.1162C33.3177 13.2093 33.0354 13.3023 32.9412 13.2093C32.6589 13.0232 32.3765 13.1162 32.1883 13.3953C32.0942 13.4883 32.0001 13.5814 31.9059 13.4883C31.9059 13.3023 32.1883 13.2093 32.1883 12.9302C31.7177 13.3023 31.0589 13.3023 30.5883 13.7674C30.5883 13.7674 30.5883 13.8604 30.6824 13.8604C30.7765 14.0465 31.2471 13.9535 31.0589 14.2325C30.9648 14.4186 30.6824 14.2325 30.4942 14.1395C30.3059 13.9535 30.1177 14.0465 29.9295 14.2325C29.6471 14.5116 29.4589 14.7907 29.0824 14.9767C28.9883 14.6046 29.4589 14.6046 29.3648 14.3255C29.0824 14.5116 28.8001 14.6046 28.5177 14.7907C28.4236 14.8837 28.2353 14.8837 28.3295 15.0697C28.4236 15.2558 28.6118 15.2558 28.7059 15.1628C29.0824 14.9767 29.4589 14.9767 29.8354 14.7907C30.2118 14.6046 30.6824 14.3255 31.2471 14.4186C30.8706 14.6976 30.4942 14.7907 30.0236 14.9767C29.6471 15.1628 29.1765 15.2558 29.6471 15.8139C29.553 15.8139 29.4589 15.8139 29.4589 15.8139C28.8001 15.6279 28.1412 15.4418 27.8589 16.3721C27.8589 16.4651 27.6706 16.4651 27.5765 16.3721C27.4824 16.279 27.2942 16.279 27.2001 16.3721C26.5412 16.8372 25.6942 17.1162 25.3177 18.0465C25.6001 17.4883 26.5412 17.8604 26.4471 17.0232C26.4471 17.0232 26.5412 17.0232 26.6353 17.0232C27.1059 17.1162 27.4824 16.9302 27.8589 16.7441C27.953 16.7441 28.0471 16.6511 28.1412 16.7441C28.1412 16.8372 28.1412 16.9302 28.1412 16.9302C27.7648 17.2093 28.0471 17.2093 28.2353 17.2093C28.5177 17.2093 28.6118 17.3953 28.6118 17.4883C28.6118 17.7674 28.3295 17.4883 28.2353 17.5814C27.8589 17.6744 27.5765 18.0465 27.2942 18.3255C27.0118 18.6046 27.3883 18.6046 27.4824 18.7907C27.5765 18.9767 27.4824 19.0697 27.2942 19.0697C27.1059 19.0697 26.9177 19.2558 26.6353 19.1628C26.4471 19.0697 26.2589 19.2558 26.2589 19.4418C26.1648 19.6279 26.353 19.6279 26.5412 19.7209C26.7295 19.8139 27.0118 20 27.2001 20C27.3883 20.093 27.6706 20.279 27.8589 19.9069C27.953 19.8139 28.0471 19.5348 28.2353 19.6279C28.5177 19.7209 28.2354 19.9069 28.1412 20C28.0471 20.279 28.2353 20.186 28.3295 20.279C28.5177 20.3721 28.8001 20.3721 28.7059 20.7441C27.5765 20.9302 26.7295 20.093 25.6001 20.093ZM28.1412 33.9534C27.5765 33.9534 26.353 34.8837 26.2589 35.1628C26.353 35.3488 26.6354 35.0697 26.7295 35.3488C26.1648 35.8139 25.5059 36.093 24.8471 36.3721C25.3177 36.4651 25.7883 36.4651 26.2589 36.3721C26.6354 36.279 26.8236 36.3721 26.8236 36.7441C26.8236 37.1162 27.0118 37.0232 27.2942 36.9302C28.0471 36.3721 29.0824 36.279 29.8354 35.8139C29.9295 35.7209 30.1177 35.7209 30.1177 35.9069C30.2118 36.093 30.0236 36.186 29.9295 36.186C29.1765 36.3721 28.6118 36.7441 27.953 37.1162C28.6118 37.0232 29.2706 37.3023 29.8354 37.3953C30.4942 37.5814 30.7765 37.3023 31.3412 37.1162C31.0589 37.0232 30.8706 36.9302 30.6824 36.9302C30.5883 36.9302 30.4942 36.8372 30.5883 36.7441L30.6824 36.6511C31.3412 36.8372 32.0942 36.9302 32.8471 36.6511C32.8471 36.9302 32.4706 36.8372 32.5648 37.1162C32.6589 37.3023 32.8471 37.2093 33.0353 37.2093C33.5059 37.0232 33.9765 36.7441 34.353 36.7441C35.3883 36.5581 36.4236 36.186 37.4589 36.186C37.553 36.186 37.7412 36.093 37.7412 36.186C37.8353 36.4651 37.553 36.3721 37.4589 36.3721C36.8001 36.5581 36.1412 36.7441 35.3883 36.9302C35.953 37.0232 36.4236 37.2093 36.8001 37.3953C37.2706 37.6744 37.8353 37.3023 37.9295 37.2093C38.1177 36.4651 38.6824 36.8372 38.9648 36.8372C39.5295 36.8372 40.0001 36.9302 40.5648 36.6511C40.4706 36.4651 40.1883 36.5581 40.2824 36.279C40.4706 36.279 40.6589 36.279 40.8471 36.279C41.9765 36.5581 43.0118 36.9302 44.0471 37.3023C44.5177 37.4883 44.8942 37.4883 45.3648 37.3023C45.6471 37.2093 45.9295 37.0232 46.3059 37.2093C46.0236 37.5814 45.6471 37.4883 45.2706 37.6744C45.8353 38.0465 46.4942 38.0465 47.153 37.7674C47.153 38.0465 46.7765 38.0465 46.8706 38.2325C48.4706 38.3255 48.753 38.3255 49.3177 37.9535C48.2824 37.1162 46.8706 37.1162 45.553 36.6511C45.8354 36.5581 45.9295 36.4651 46.2118 36.4651C47.0589 36.5581 47.9059 36.8372 48.6589 37.1162C49.4118 37.3953 49.9765 38.0465 50.8236 37.8604C50.8236 37.8604 50.9177 37.8604 50.9177 37.9535C51.1059 38.3255 51.2001 38.4186 51.4824 38.3255C51.8589 38.2325 52.1412 38.1395 52.5177 38.3255C52.6118 38.3255 52.7059 38.3255 52.7059 38.2325C52.7059 38.1395 52.6118 38.0465 52.5177 38.0465C52.2354 37.8604 51.8589 37.7674 51.5765 37.3953C52.5177 37.3953 53.1765 38.1395 54.1177 37.7674C54.1177 37.6744 53.7412 37.6744 53.9295 37.3953C54.6824 37.6744 55.3412 37.3023 56.0001 37.1162C56.4706 36.9302 56.8471 36.9302 57.3177 37.1162C57.8824 37.3023 58.5412 37.5814 59.2001 37.2093C59.0118 37.0232 58.8236 37.0232 58.6354 37.0232C57.9765 36.8372 57.2236 36.7441 56.6589 36.186C56.3765 35.8139 56.0001 35.6279 55.6236 35.5348C55.0589 35.4418 54.8706 35.2558 55.2471 34.6046C54.6824 34.8837 54.2118 34.7907 53.6471 34.8837C53.4589 34.8837 53.3648 34.9767 53.1765 35.0697C53.0824 35.0697 52.8942 35.1627 52.8942 35.0697C52.8942 34.2325 51.6706 34.1395 51.7648 33.3023L51.6706 33.2093C51.2001 33.1162 50.8236 32.6511 50.2589 33.1162C49.9765 33.3953 49.5059 33.3953 49.1295 33.1162C48.8471 32.9302 48.5648 32.7441 48.8471 32.3721C48.9412 32.279 48.753 32.186 48.6589 32.186C48.2824 32.279 47.9059 32.093 47.5295 32.186C47.0589 32.3721 46.4942 32.7441 46.1177 31.9069C46.0236 31.8139 45.8353 31.9069 45.7412 31.9069C45.553 32 45.3648 32.279 45.2706 31.9069C45.1765 31.6279 45.4589 31.5348 45.6471 31.5348C45.7412 31.5348 45.8354 31.4418 45.8354 31.2558C45.3648 31.4418 44.7059 30.6976 44.2354 31.4418C44.2354 31.4418 44.0471 31.4418 44.0471 31.3488C43.8589 31.1628 43.7648 31.0697 43.5765 30.8837C43.1059 30.1395 42.7295 30.0465 41.8824 30.2325C41.7883 30.2325 41.6001 30.3255 41.5059 30.3255C41.3177 30.4186 41.1295 30.3255 41.0353 30.1395C40.8471 29.3023 40.2824 29.0232 39.5295 29.1162C39.4354 29.1162 39.3412 29.1162 39.2471 29.1162C39.4354 28.6511 40.0001 29.0232 40.2824 28.6511C39.4353 28 38.6824 28.6511 37.8354 28.7441C37.3648 28.8372 36.8001 28.7441 36.8001 29.4883L36.7059 29.5814C36.2354 29.5814 35.8589 30.0465 35.2942 30.0465C35.1059 30.0465 34.8236 29.9534 34.7295 30.2325C34.7295 30.4186 34.8236 30.6046 35.1059 30.6976C34.7295 30.6976 34.4471 30.8837 34.0706 30.8837C33.6001 30.8837 33.0354 30.8837 32.6589 31.3488C32.4706 31.6279 32.2824 31.8139 31.9059 31.8139C31.5295 31.9069 31.153 32.093 30.9648 32.4651C30.7765 32.9302 30.5883 33.1162 30.0236 32.9302C29.6471 32.8372 29.2706 32.9302 29.0824 33.2093C28.8942 33.5814 29.4589 33.3023 29.4589 33.5814C29.4589 33.5814 29.4589 33.6744 29.4589 33.7674C28.8942 33.6744 28.4236 33.8604 28.0471 34.3255C27.8589 34.5116 27.6706 34.9767 27.3883 34.7907C27.5765 34.5116 28.1412 34.2325 28.1412 33.9534ZM66.7295 12.9302C66.353 12.8372 66.0707 12.9302 65.7883 13.2093C65.6001 13.3953 65.2236 13.8604 65.0354 13.6744C64.753 13.3953 64.5648 13.6744 64.3765 13.6744C63.7177 13.8604 63.153 14.5116 62.4001 14.0465C62.0236 14.4186 61.4589 14.4186 60.9883 14.5116C60.8001 14.5116 60.6118 14.8837 60.4236 15.0697C60.3295 15.1628 60.3295 15.1628 60.2354 15.1628C60.1412 15.1628 60.1412 14.9767 60.1412 14.8837C60.3295 14.6046 60.1412 14.5116 59.953 14.4186C59.5765 14.3255 59.4824 14.6046 59.3883 14.7907C59.2001 14.9767 59.3883 15.1628 59.4824 15.2558C59.8589 15.5348 60.2354 15.9069 60.7059 16.186C61.4589 16.6511 61.4589 16.6511 62.2118 16.279C62.4942 16.093 62.6824 16 62.9648 15.9069C63.5295 15.9069 64.0001 15.4418 64.4706 15.2558C65.3177 14.7907 66.1648 14.4186 67.0118 14.0465C67.2942 13.8604 67.7648 14.1395 67.953 13.8604C68.1412 13.3953 68.4236 13.3953 68.8001 13.3023C68.9883 13.3023 69.0824 13.1162 69.0824 12.9302C69.0824 12.7442 68.9883 12.6511 68.8001 12.6511C68.3295 12.4651 67.953 12.4651 67.5765 12.9302C67.2942 13.3023 67.1059 13.7674 66.5412 13.9535C66.353 13.4883 66.8236 13.3023 66.7295 12.9302ZM23.7177 16.4651C23.2471 16.6511 22.7765 16.8372 22.4001 17.0232C22.2118 17.1162 22.1177 17.2093 22.0236 17.0232C21.9295 16.8372 22.1177 16.7441 22.2118 16.7441C22.6824 16.4651 23.2471 16.279 23.7177 16C23.8118 16 23.9059 15.9069 23.9059 15.8139C23.8118 15.6279 23.7177 15.6279 23.6236 15.7209C23.4353 15.8139 23.2471 16 23.0589 16.186C22.6824 16.4651 22.4001 16.093 22.0236 16.186C22.0236 15.8139 22.4001 15.8139 22.5883 15.6279C22.5883 15.6279 22.6824 15.5348 22.7765 15.5348C23.0589 15.3488 23.0589 15.2558 22.7765 15.0697C22.2118 14.6976 22.1177 14.7907 21.9295 15.3488C21.8353 15.5348 21.8354 15.8139 21.8354 16C21.8354 16.093 21.8353 16.279 21.6471 16.279C21.553 16.279 21.553 16.186 21.4589 16.093C21.3648 16 21.3648 15.8139 21.4589 15.7209C21.6471 15.2558 21.2706 15.2558 20.9883 15.3488C20.8001 15.3488 20.5177 15.5348 20.4236 15.7209C20.3295 15.8139 20.3295 16 20.2353 15.9069C20.1412 15.9069 20.0471 15.8139 20.0471 15.6279C20.0471 15.4418 20.0471 15.3488 20.0471 15.1628C20.0471 14.8837 19.953 14.6046 19.6706 14.6046C19.3883 14.5116 19.1059 14.6046 19.0118 14.9767C18.9177 15.1628 19.0118 15.2558 18.7295 15.1628C18.2589 14.8837 17.8824 15.0697 17.8824 15.3488C18.0706 15.7209 18.353 16.186 18.7295 16.3721C19.2001 16.5581 19.7648 16.4651 20.1412 17.0232H20.3295C20.5177 16.9302 20.6118 16.7441 20.8001 16.9302C20.9883 17.1162 20.5177 17.2093 20.6118 17.3953C21.1765 17.4883 21.0824 17.2093 20.9883 16.8372C20.8942 16.6511 20.8001 16.4651 21.0824 16.3721C21.2706 16.279 21.3648 16.4651 21.4589 16.6511C21.553 17.3953 22.1177 17.7674 22.4001 18.4186C23.0589 17.8604 23.2471 17.1162 23.7177 16.4651ZM6.87064 12.279C7.7177 12.5581 8.56476 12.9302 9.50594 12.9302C9.97653 12.9302 10.4471 12.8372 10.6353 13.3953C10.7295 13.4883 10.9177 13.6744 11.1059 13.5814C11.6706 13.3023 12.3295 14.0465 12.8942 13.4883C12.8942 13.4883 13.0824 13.4883 13.0824 13.5814C13.1765 13.9534 13.8353 13.7674 13.6471 14.3255L13.7412 14.4186C14.2118 14.1395 14.4001 14.5116 14.5883 14.7907C15.0589 15.2558 15.6236 15.4418 16.2824 15.0697C16.4706 14.9767 16.5648 15.0697 16.6589 15.1628C17.1295 15.7209 17.2236 15.7209 17.6001 15.0697C17.6942 14.8837 17.8824 14.6976 18.0706 14.6976C18.2589 14.6046 18.4471 14.5116 18.5412 14.4186C18.6353 14.3255 18.6353 14.2325 18.5412 14.1395C18.4471 14.0465 18.353 14.0465 18.2589 14.1395C17.8824 14.7907 17.5059 14.3255 17.2236 14.1395C16.9412 14.0465 16.753 13.9535 16.5648 14.3255C16.4706 14.6046 16.1883 14.5116 16.1883 14.3255C16.0942 13.8604 15.9059 14.0465 15.6236 14.1395C15.5295 14.1395 15.3412 14.2325 15.2471 14.1395C15.153 14.0465 15.2471 13.9535 15.2471 13.9535C15.3412 13.8604 15.4353 13.8604 15.4353 13.7674C15.4353 13.7674 15.3412 13.6744 15.2471 13.6744C15.153 13.6744 15.0589 13.7674 15.0589 13.8604C15.0589 14.1395 15.0589 14.4186 14.9648 14.6976C14.5883 14.6046 14.7765 14.1395 14.4942 13.9535C13.9295 13.4883 12.9883 13.8604 12.6118 13.2093H12.4236C11.8589 13.3023 11.2942 13.3953 10.9177 12.9302C10.8236 12.8372 10.7295 12.8372 10.7295 12.8372C10.2589 13.3023 9.88241 12.186 9.3177 12.7441C9.22358 12.8372 9.12947 12.3721 8.84711 12.279C8.37653 12.093 8.65888 12.8372 8.47064 12.6511C8.18829 12.4651 7.81182 12.7442 7.52947 12.4651C7.43535 12.186 7.153 12.186 6.87064 12.279ZM62.1177 20.186C62.4942 20.093 62.5883 20 62.7765 19.9069C63.4354 19.7209 64.0001 19.4418 64.0942 18.6976C64.1883 18.0465 64.5648 17.5814 64.9412 17.1162C65.0354 16.9302 65.2236 16.8372 65.4118 16.9302C65.6942 17.0232 65.2236 17.2093 65.4118 17.3953C65.7883 17.1162 66.1648 17.1162 66.4471 16.7441C66.5412 16.6511 66.6354 16.5581 66.5412 16.4651C66.4471 16.3721 66.353 16.4651 66.2589 16.5581C66.0707 16.6511 65.7883 16.9302 65.6942 16.7441C65.4118 16.186 65.2236 16.5581 64.9412 16.7441C64.5648 17.0232 64.1883 17.3023 63.8118 17.6744C63.6236 17.7674 63.4354 17.8604 63.4354 18.1395C63.4354 18.4186 63.8118 18.0465 63.9059 18.4186C63.0589 18.5116 62.7765 19.4418 62.1177 20.186ZM41.9765 37.6744C42.9177 38.2325 43.2001 38.2325 44.0471 37.4883C43.2942 37.2093 42.6354 37.0232 41.8824 36.7441C41.3177 36.5581 40.8471 36.5581 40.3765 36.9302C40.9412 37.3953 41.5059 37.3023 42.1648 37.1162C42.2589 37.4883 41.9765 37.4883 41.9765 37.6744ZM42.353 38.2325C41.7883 37.9534 41.3177 37.7674 40.753 38.0465C40.6589 38.1395 40.4706 38.1395 40.3765 37.9535C40.2824 37.3953 39.9059 37.2093 39.4354 37.3023C38.7765 37.4883 38.2118 37.7674 37.553 37.9535C39.153 37.7674 40.6589 38.5116 42.353 38.2325ZM64.2824 19.3488C65.2236 19.1628 65.8824 18.5116 65.9765 17.5814C64.9412 17.6744 64.6589 18.5116 64.2824 19.3488ZM33.6001 37.4883C34.2589 37.9535 34.7295 37.3023 35.2942 37.3023C35.3883 37.3953 35.1059 37.4883 35.3883 37.6744C35.953 37.9534 36.2354 37.7674 36.7059 37.4883C35.5765 37.0232 34.6354 36.7441 33.6001 37.4883ZM63.2471 17.7674C62.3059 18.0465 61.4589 18.6976 61.2706 19.3488C61.9295 18.7907 62.9648 18.7907 63.2471 17.7674ZM69.553 12.7441C70.4001 12.9302 70.9648 12.3721 71.5295 12C71.8118 11.8139 71.4354 11.6279 71.4354 11.6279C71.153 11.7209 70.6824 11.6279 70.5883 12C70.5883 12.093 70.4942 12.279 70.4001 12.279C69.9295 12 69.8354 12.4651 69.553 12.7441ZM25.9765 17.9535C26.8236 18.5116 27.0118 18.4186 27.7648 17.3953C27.0118 17.1162 26.6353 17.6744 25.9765 17.9535ZM70.3059 16.3721C71.2471 16.279 71.4354 16.093 71.7177 15.0697C70.8706 15.1628 70.6824 15.2558 70.3059 16.3721ZM70.2118 15.6279C69.553 15.9069 68.8001 16.093 68.5177 16.9302C69.3648 16.6511 70.0236 16.5581 70.2118 15.6279ZM25.4118 22.2325C25.8824 23.1628 26.8236 23.0697 27.5765 23.3488C27.0118 22.6046 26.2589 22.2325 25.4118 22.2325ZM59.2001 36.4651C59.5765 35.7209 59.4824 35.5348 58.9177 35.6279C58.4471 35.7209 57.9765 35.9069 57.3177 35.8139C57.6942 36.279 58.2589 36.3721 58.353 36.279C58.8236 35.7209 59.0118 36.093 59.2001 36.4651ZM68.3295 16.4651C67.6706 16.8372 66.8236 16.8372 66.353 17.7674C67.1059 17.3953 68.0471 17.3953 68.3295 16.4651ZM12.5177 16.279C12.7059 17.0232 13.1765 17.5814 13.9295 17.8604C13.2706 17.3953 13.4589 16.3721 12.5177 16.279ZM11.2942 28.186C11.4824 28.7441 11.2942 29.3023 11.6706 29.6744C11.7648 29.7674 11.8589 29.8604 11.953 29.7674C12.0471 29.6744 11.953 29.5814 11.953 29.4883C12.3295 28.9302 11.8589 28.6511 11.2942 28.186ZM57.9765 16.4651C57.7883 16.186 57.6001 15.9069 57.3177 15.9069C57.1295 15.9069 56.753 16.093 56.8471 16.279C56.9412 16.5581 57.2236 16.8372 57.5059 16.8372C57.6942 16.8372 57.9765 16.6511 57.9765 16.4651ZM54.5883 38.2325C55.6236 38.1395 56.753 38.1395 57.6942 37.5814C56.5648 37.5814 55.6236 38.0465 54.5883 38.2325ZM28.3295 37.6744C27.953 37.5814 27.5765 37.5814 27.2001 37.4883C27.0118 37.4883 26.7295 37.5814 26.7295 37.7674C26.7295 37.8604 26.9177 38.0465 27.1059 38.0465C27.5765 38.0465 27.953 38.0465 28.3295 37.6744ZM44.0471 38.1395C45.0824 38.2325 45.3648 38.2325 45.8354 38.0465C44.7059 37.6744 44.6118 37.6744 44.0471 38.1395ZM52.5177 14.1395C52.4236 13.7674 52.1412 13.4883 51.8589 13.3023C51.8589 13.3023 51.4824 13.3953 51.4824 13.5814C51.4824 13.6744 52.2353 14.3255 52.3295 14.3255C52.4236 14.4186 52.4236 14.3255 52.5177 14.1395ZM39.4354 2.23252C39.2471 2.51159 39.0589 2.79066 38.8706 2.97671C38.9648 3.16275 39.4354 2.51159 39.2471 3.16276C39.2471 3.3488 39.4354 3.3488 39.5295 3.3488C39.6236 3.3488 39.7177 3.25578 39.7177 3.16276C39.6236 2.88369 39.7177 2.51159 39.4354 2.23252ZM55.3412 14.8837C55.6236 14.7907 55.8118 14.6976 55.8118 14.4186C55.8118 14.2325 55.6236 14.0465 55.4354 14.0465C55.2471 14.0465 54.9648 14.1395 54.9648 14.3255C54.8706 14.6976 55.153 14.7907 55.3412 14.8837ZM25.6001 35.7209C24.5648 35.4418 24.1883 35.5348 24.0942 36.279C24.5648 36.093 25.0354 36 25.6001 35.7209ZM73.4118 10.7907C73.2236 10.9767 72.9412 10.7907 72.9412 11.0697C73.0354 11.5348 72.6589 11.3488 72.4707 11.3488C72.3765 11.3488 72.1883 11.2558 72.0942 11.3488C72.1883 11.5348 72.2824 11.8139 72.3765 11.8139C72.8471 11.6279 73.4118 11.5348 73.4118 10.7907ZM52.4236 12.8372C52.3295 12.9302 52.0471 13.0232 52.1412 13.2093C52.2354 13.3953 52.4236 13.7674 52.7059 13.8604C52.8001 13.8604 52.9883 13.6744 52.8942 13.4883C52.8942 13.1162 52.8001 12.8372 52.4236 12.8372ZM30.6824 30.9767C29.2706 31.3488 28.6118 31.6279 28.3295 32C29.1765 31.6279 29.9295 31.2558 30.6824 30.9767ZM35.0118 27.0697C35.2001 27.1628 35.2001 27.4418 35.4824 27.4418C35.5765 27.4418 35.7648 27.4418 35.7648 27.3488C35.4824 26.7907 36.2354 26.9767 36.2354 26.6046C35.6706 26.3255 35.4824 27.0697 35.0118 27.0697ZM75.1059 12.8372C74.6354 13.0232 74.1648 13.1162 73.9765 13.5814C74.5412 13.6744 74.9177 13.3953 75.1059 12.8372ZM42.0706 10.5116C41.9765 10.9767 41.6001 11.5348 42.0706 12.093C42.1648 11.5348 42.2589 11.0697 42.0706 10.5116ZM32.8471 9.48834C33.4118 9.48834 33.7883 9.20927 34.0706 8.74415C33.4118 8.65113 33.2236 9.20927 32.8471 9.48834ZM42.7295 27.2558C43.3883 27.1628 43.7648 26.7907 44.1412 26.4186C43.7648 26.6976 43.0118 26.5116 42.7295 27.2558ZM55.5295 34.1395C54.8706 34.0465 54.3059 33.7674 53.553 33.8604C54.3059 33.8604 54.8706 34.3255 55.5295 34.1395ZM26.2589 21.9534C25.7883 21.5814 25.2236 21.3023 24.6589 21.3023C25.1295 21.6744 25.6942 21.9534 26.2589 21.9534ZM39.6236 14.0465C39.4353 14.6976 39.0589 15.2558 39.4354 15.8139C39.5295 15.2558 39.8118 14.6976 39.6236 14.0465ZM29.1765 23.6279C28.8942 23.0697 28.4236 23.0697 27.953 22.8837C28.1412 23.4418 28.5177 23.6279 29.1765 23.6279ZM40.0942 17.3023C39.8118 17.7674 39.9059 18.2325 40.1883 18.8837C40.4706 18.2325 40.0942 17.7674 40.0942 17.3023ZM31.6236 10.9767C31.153 11.1628 30.7765 11.3488 30.3059 11.9069C31.0589 11.8139 31.2471 11.2558 31.6236 10.9767ZM32.1883 37.3953C31.8118 37.2093 31.5295 37.5814 31.2471 37.5814C31.153 37.5814 30.9648 37.5814 30.9648 37.7674C30.9648 37.8604 31.0589 37.8604 31.153 37.9535C31.2471 38.0465 31.5295 38.0465 31.5295 37.9535C31.6236 37.6744 31.9059 37.5814 32.1883 37.3953ZM36.5177 27.6279C36.9883 27.6279 37.2706 27.6279 37.6471 27.4418C37.7412 27.3488 37.9295 27.3488 37.8354 27.1628C37.7412 26.9767 37.6471 27.0697 37.553 27.0697C37.1765 27.2558 36.8001 27.2558 36.5177 27.6279ZM67.0118 12.3721C67.2001 12.3721 67.3883 12.279 67.3883 12.093C67.3883 11.9069 67.2942 11.8139 67.1059 11.8139C66.8236 11.8139 66.6354 12 66.5412 12.186C66.5412 12.3721 66.8236 12.3721 67.0118 12.3721ZM29.9295 13.2093C30.4001 13.1162 30.6824 12.7441 31.0589 12.279C30.4001 12.4651 30.2118 12.9302 29.9295 13.2093ZM35.1059 7.44182C34.7295 7.62787 34.5412 7.90694 34.2589 8.18601C34.1648 8.27903 34.1648 8.37205 34.2589 8.46508C34.353 8.5581 34.4471 8.46508 34.4471 8.46508C34.7295 8.18601 35.1059 7.90694 35.1059 7.44182ZM25.7883 18.8837C25.6942 18.7907 25.5059 18.6976 25.4118 18.6976C25.1295 18.6976 25.0353 18.7907 24.9412 18.9767C24.9412 19.0697 24.8471 19.0697 24.9412 19.1628C25.1295 19.3488 25.2236 19.1628 25.4118 19.1628C25.5059 19.0697 25.6001 18.9767 25.7883 18.8837ZM32.753 25.5814C33.3177 26.0465 33.6001 26.0465 34.1648 25.7674C33.6942 25.9535 33.3177 25.3953 32.753 25.5814ZM51.2001 12.3721C51.0118 12 50.9177 11.7209 50.7295 11.4418C50.6354 11.3488 50.5412 11.1628 50.353 11.3488C50.2589 11.4418 50.353 11.5348 50.353 11.6279C50.5412 11.9069 50.7295 12.093 51.2001 12.3721ZM40.0001 15.1628C39.7177 15.7209 39.7177 16.279 39.7177 16.8372C39.6236 16.279 40.1883 15.8139 40.0001 15.1628ZM45.553 25.9535C45.9295 25.7674 46.4001 25.5814 46.8706 25.3023C46.1177 25.0232 45.8354 25.6744 45.553 25.9535ZM70.7765 23.3488C70.5883 23.7209 70.1177 24 70.0236 24.4651C70.2118 24.093 70.8706 24 70.7765 23.3488ZM53.7412 13.3953C54.0236 13.5814 54.1177 13.9535 54.4942 13.9535L54.5883 13.7674C54.4001 13.4883 54.2118 13.2093 53.7412 13.3953ZM41.6942 29.1162C41.6001 29.1162 41.5059 29.2093 41.6001 29.3023C41.7883 29.4883 41.6942 29.7674 41.9765 29.7674C42.0706 29.7674 42.2589 29.6744 42.1648 29.4883C42.0706 29.3023 41.9765 29.1162 41.6942 29.1162ZM53.0824 21.9534C53.6471 21.9534 53.9295 21.7674 54.3059 21.3023C53.8353 21.5814 53.4589 21.7674 53.0824 21.9534ZM20.7059 20C20.4236 19.6279 20.2353 19.3488 19.7648 19.5348C19.953 19.7209 20.2353 19.9069 20.7059 20ZM59.4824 37.7674C59.8589 37.9534 60.2354 37.9534 60.5177 37.6744C60.2354 37.5814 59.8589 37.4883 59.4824 37.7674ZM18.4471 19.1628C18.6353 19.4418 18.9177 19.6279 19.2001 19.7209C19.2942 19.7209 19.3883 19.6279 19.2942 19.5348C19.1059 19.2558 18.8236 19.0697 18.4471 19.1628ZM24.5648 15.2558C24.3765 15.2558 24.2824 15.3488 24.2824 15.5348C24.2824 15.6279 24.3765 15.8139 24.4706 15.8139C24.6589 15.8139 24.753 15.6279 24.8471 15.4418C24.8471 15.2558 24.6589 15.2558 24.5648 15.2558ZM32.0942 37.9535C32.4706 38.0465 32.8471 38.1395 33.2236 37.7674C32.753 37.5814 32.4706 37.7674 32.0942 37.9535ZM49.3177 24.6511C48.9412 24.7441 48.6589 25.0232 48.4706 25.3953C49.0354 25.3023 49.2236 25.0232 49.3177 24.6511ZM41.7883 8.65113C41.7883 8.37206 41.9765 7.99996 41.6942 7.53485C41.4118 7.99996 41.7883 8.37206 41.7883 8.65113ZM48.5648 9.7674C48.6589 9.95345 48.6589 9.95345 48.6589 10.0465C48.6589 10.3255 48.753 10.4186 49.0353 10.5116C49.1295 10.6046 49.2236 10.5116 49.2236 10.4186C49.3177 10.1395 49.0354 10.0465 48.8471 9.95345C48.753 9.95345 48.6589 9.86043 48.5648 9.7674ZM54.4942 14.6976C54.4942 14.9767 54.6824 15.1628 54.8706 15.3488C54.9648 15.2558 55.0589 15.1628 55.0589 15.1628C55.0589 14.8837 54.6824 14.8837 54.4942 14.6976ZM50.9177 12.3721C51.0118 12.8372 51.1059 13.0232 51.3883 13.2093C51.3883 13.2093 51.4824 13.1162 51.5765 13.0232C51.4824 12.6511 51.1059 12.6511 50.9177 12.3721ZM17.8824 13.3023C18.1648 13.5814 18.4471 13.6744 18.7295 13.5814C18.7295 13.5814 18.7295 13.4883 18.7295 13.3953C18.5412 13.2093 18.2589 13.2093 17.8824 13.3023Z" fill="#2E2E2E"/>
<path d="M63.4353 39.814C62.5882 39.907 61.8353 40 60.9882 39.907C60.047 39.814 59.0117 39.814 58.0706 39.814C57.8823 39.814 57.6941 39.907 57.6941 39.7209C57.6941 39.4419 57.9764 39.5349 58.0706 39.5349C59.9529 39.6279 61.7411 39.5349 63.4353 39.814Z" fill="#2E2E2E"/>
<path d="M70.7764 17.9534C70.9646 18.6976 70.6823 19.1627 70.5881 19.7208C70.7764 19.1627 70.3999 18.6045 70.7764 17.9534Z" fill="#2E2E2E"/>
</g>
<defs>
<clipPath id="clip0_2418_4193">
<rect width="80" height="40" fill="white"/>
</clipPath>
</defs>
</svg>
