<svg width="82" height="62" viewBox="0 0 82 62" fill="none" xmlns="http://www.w3.org/2000/svg">
<g clip-path="url(#clip0_2433_5379)">
<path d="M46.6001 19C41.1001 29.5 32.3001 37.8 26.8001 48.4C26.1001 49.8 29.0001 49.5999 29.5001 48.5999C35.0001 37.9999 43.9001 29.7 49.4001 19.2C50.1001 17.8 47.2001 18 46.6001 19Z" fill="#2E2E2E"/>
<path d="M24.4999 2.60004C35.3999 1.20004 41.8999 11.3 46.5999 19.4C47.1999 20.4 49.9999 19.4 49.2999 18.2C43.9999 9.10004 36.7999 -0.799962 24.8999 0.700038C23.2999 0.900038 22.4999 2.90004 24.4999 2.60004Z" fill="#2E2E2E"/>
<path d="M50.2001 19.4001C53.0001 14.8001 64.0001 17.0001 67.5001 18.7001C71.0001 20.4001 74.3001 22.6001 77.2001 25.1001C77.9001 25.7001 80.5001 24.6001 79.9001 24.0001C74.3001 19.2001 67.9001 15.3001 60.3001 15.4001C55.8001 15.4001 49.9001 15.5001 47.3001 19.8001C47.0001 20.4001 49.7001 20.2001 50.2001 19.4001Z" fill="#2E2E2E"/>
<path d="M28.5 51.2C33.3 46.9 40.7 47 46.6 49.2C51.3 50.9 52.2 55 54 59.3C54.5 60.5 57.4001 59.6 56.9001 58.5C55.7001 55.6 54.7001 51.3 52.2001 49.1C49.9001 47.1 45.9 46.7 43.1 46.2C36.7 45.1 31 46 26.1 50.4C24.8 51.6 27.7 52 28.5 51.2Z" fill="#2E2E2E"/>
<path d="M4.19998 33.7001C10.8 32.4001 16.4 35.3001 20.6 40.1001C21.9 41.6001 23.7 43.4001 24.5 45.2001C25.3 47.1001 25.3 49.7001 25.5 51.7001C25.6 52.6001 28.5 52.0001 28.4 50.9001C28 48.0001 28 45.2001 26.2 42.7001C24.2 39.8001 21.6 36.8001 18.6 34.8001C14.1 31.8001 8.89998 31.3001 3.69998 32.4001C1.99998 32.7001 2.39998 34.0001 4.19998 33.7001Z" fill="#2E2E2E"/>
<path d="M78.3 24.7001C75.1 30.6001 71.9 36.5001 68.5 42.3001C67 44.8001 65.6 47.3001 64 49.8001C62.3 52.4001 58.9 59.2001 55.8 59.8001C56.4 59.9001 56.9 60.1001 57.5 60.2001C57.2 59.2001 57.1 58.2001 57.1 57.2001C57.1 56.2001 54.1 56.8001 54.2 58.0001C54.2 59.0001 54.3 60.0001 54.6 61.0001C54.7 61.6001 55.9 61.5001 56.3 61.4001C62 60.2001 65.5 52.1001 68.2 47.7001C72.8 40.2001 76.9 32.5001 81.1 24.8001C81.7 23.6001 78.8 23.8001 78.3 24.7001Z" fill="#2E2E2E"/>
<path d="M22.9 0.899898C14.6 10.8999 6.30003 20.8999 0.900029 32.7999C0.200029 34.2999 3.10003 34.3999 3.70003 33.1999C9.00003 21.4999 17.1 11.5999 25.4 1.8999C26.5 0.399898 23.8 -0.100102 22.9 0.899898Z" fill="#2E2E2E"/>
<path d="M51.0999 22.8001C51.2999 22.6001 56.5999 26.1001 56.1999 25.9001C56.9999 26.3001 57.1 26.2001 58 26.2001C59 26.2001 58.1999 25.7001 59.5999 26.1001C59.9999 26.1001 60.3 26.2001 60.4 26.4001C60.5 26.5001 60.4999 26.6001 60.5999 26.7001C60.8999 26.8001 61.2999 27.1001 61.5999 27.3001C63.2999 28.1001 65.6 28.4001 67.3 29.3001C67.5 29.4001 68.2 29.1001 67.9 29.0001C66.8 28.4001 65.6999 27.8001 64.5999 27.3001C63.8999 27.0001 63.2999 27.2001 62.6999 27.0001C63.6999 27.3001 60.4999 25.3001 60.1999 25.3001C59.9999 25.3001 59.2999 25.4001 59.0999 25.4001C58.8999 25.5001 58.6 25.6001 58.4 25.8001C57.4 25.9001 56.7 25.6001 56.4 24.9001C56.2 24.8001 55.8999 24.2001 55.6999 24.1001C55.4999 23.9001 53.9999 23.8001 54.5999 24.0001C53.7999 23.7001 53.2 23.1001 52.5 22.8001C51.6 22.5001 51.2 22.4001 50.5 23.1001C50.2 23.0001 50.8999 22.9001 51.0999 22.8001Z" fill="#2E2E2E"/>
<path d="M46.8999 28.5999C49.9999 26.1999 49.2999 30 50.6999 30.7C50.9999 30.8 51.2999 30.8 51.4999 30.8C53.0999 31.3 51.8999 30.6 55.1999 31.8C55.3999 31.9 56.2999 32.2 56.5999 32.3C58.5999 33.3 59.6999 34.2 61.9999 34.9C62.2999 35 62.8999 34.6 62.3999 34.4C61.6999 34.2 60.7999 34 60.1999 33.7C59.4999 33.3 58.9999 32.4999 58.2999 32.0999C57.4999 31.6999 57.0999 31.8 56.2999 31.3C55.0999 30.5 55.1999 30.2 53.6999 29.9C53.4999 29.9 53.1999 30.1 52.8999 30C52.0999 29.7 51.2999 29.4 50.4999 29.2C50.4999 28.9 50.3999 28.7 50.3999 28.4C49.7999 27.7 50.2999 27.5 49.2999 27.2C48.2999 26.8 47.1999 27.6 46.4999 28.2C46.0999 28.6 46.5999 28.8999 46.8999 28.5999Z" fill="#2E2E2E"/>
<path d="M41.3999 37.3C42.9999 36.6 44.1999 35.8 45.9999 37C46.1999 37.1 46.0999 37.5 46.2999 37.6C47.1999 38.1 47.2999 38.2 48.3999 38.4C51.2999 39 52.2999 39.6 54.0999 41.6C55.1999 42.8 56.0999 44 57.4999 44.8C57.6999 44.9 58.3999 44.6 58.0999 44.4C55.5999 43 54.5999 40.2 52.3999 38.6C51.1999 37.7 49.6999 37.8 48.3999 37.3C47.3999 37.4 46.7999 37 46.5999 36.1C46.4999 35.9 46.3999 35.7 46.2999 35.6C46.0999 35.5 45.8999 35.4 45.6999 35.3C44.5999 34.9 42.1999 36.5 41.2999 36.9C40.6999 37.2 41.0999 37.5 41.3999 37.3Z" fill="#2E2E2E"/>
<path d="M23.6001 7.89996C25.9001 7.59996 27.5001 7.99996 28.5001 10.2C28.7001 10.6 28.8001 11.1 29.1001 11.5C29.7001 12.5 30.3001 12.6 31.2001 13.2C34.0001 15 31.9001 14.9 33.1001 16.5C33.2001 16.7 33.4001 16.7 33.6001 16.8C35.1001 17.8 36.2001 18 37.0001 19.8C37.1001 20.1 37.8001 19.9 37.7001 19.6C36.9001 17.9 35.8001 17.6 34.4001 16.5C32.8001 15.2 34.3001 14.5 33.4001 13.3C33.2001 13 32.8001 13 32.5001 12.8C32.7001 12.9 29.7001 11.4 31.2001 12.2C30.1001 11.6 29.9001 11.1 29.3001 9.89996C28.9001 9.09996 28.7001 8.39996 28.0001 7.79996C26.8001 6.89996 25.1001 7.09996 23.7001 7.29996C23.3001 7.49996 23.1001 7.89996 23.6001 7.89996Z" fill="#2E2E2E"/>
<path d="M21.0999 13.9001C23.3999 13.0001 22.3999 16.9001 22.8999 17.6001C23.5999 18.6001 25.6999 18.6001 26.5999 19.2001C28.1999 20.0001 29.3999 21.1001 30.5999 22.4001C31.8999 23.8001 33.7999 24.4001 34.9999 25.8001C35.0999 26.0001 35.7999 25.7001 35.6999 25.5001C35.0999 24.8001 34.5999 24.5001 33.7999 24.1001C32.3999 23.3001 31.5999 22.3001 30.3999 21.2001C28.7999 19.7001 26.8999 18.8001 24.9999 17.9001C23.5999 17.2001 23.4999 17.0001 23.3999 15.7001C23.3999 15.1001 23.2999 14.4001 22.8999 14.0001C22.1999 13.4001 21.4999 13.5001 20.7999 13.8001C20.2999 13.9001 20.7999 14.0001 21.0999 13.9001Z" fill="#2E2E2E"/>
<path d="M14.1999 24.1C15.8999 22.6 15.9999 22.8 17.0999 24.6C17.1999 24.8 17.6999 25.9 17.9999 26.2C18.5999 26.7 18.7999 26.7 19.4999 26.9C21.3999 27.6 23.2999 26.5 24.4999 28.8C24.6999 29.2 24.6999 29.8 24.9999 30.2C25.8999 31.5 27.9999 31.7 29.3999 32.2C29.5999 32.3 30.1999 32 29.9999 31.9C29.0999 31.6 27.6999 31.4 26.8999 30.9C25.8999 30.3 25.5999 29.2 24.9999 28.3C24.2999 27.4 23.5999 26.7 22.4999 26.5C21.7999 26.4 21.0999 26.7 20.4999 26.6C17.7999 26.2 17.9999 23.6 16.1999 22.3C16.0999 22.2 15.7999 22.3 15.5999 22.4C14.7999 22.8 14.1999 23.5 13.5999 24.1C13.2999 24.3 14.0999 24.3 14.1999 24.1Z" fill="#2E2E2E"/>
</g>
<defs>
<clipPath id="clip0_2433_5379">
<rect width="82" height="62" fill="white"/>
</clipPath>
</defs>
</svg>
