<svg width="80" height="101" viewBox="0 0 80 101" fill="none" xmlns="http://www.w3.org/2000/svg">
<g clip-path="url(#clip0_2419_4216)">
<path d="M54.7026 55.4957C55.5675 56.3645 56.3242 57.0161 56.9729 57.6678C57.2972 57.5592 56.9729 57.1247 57.2972 57.1247C57.6215 57.0161 57.7296 57.342 57.8377 57.5592C59.2432 59.7312 60.7567 61.7946 61.9459 64.0753C62.3783 64.8355 62.7026 65.7043 62.8107 66.5731C61.9459 65.0527 61.1891 63.4237 60.108 62.0118C60.6486 64.0753 62.2702 65.7043 62.8107 67.8764C63.2432 67.5506 62.9188 67.2247 63.0269 66.8989C63.6756 68.0936 63.8918 69.3968 64.2161 70.7C65.081 73.8495 65.4053 77.1076 66.4864 80.1484C66.7026 80.8 66.7026 81.4516 66.8107 82.1032C66.9188 82.7549 67.135 83.4065 67.4594 83.9495C67.6756 84.2753 68.108 84.6011 67.3513 84.9269C66.9188 85.1441 67.3513 85.9043 67.2431 86.4473C67.2431 86.5559 67.4594 86.6645 67.3513 86.9903C66.5945 86.6645 66.3783 85.9043 66.054 85.3613C65.7296 84.9269 65.6215 84.1667 64.7567 84.2753C64.6486 84.2753 64.5404 84.1667 64.5404 84.0581C62.054 81.886 59.3513 79.9312 57.1891 77.4334C56.5405 76.6731 55.6756 76.0215 54.7026 75.6957C54.5945 75.6957 54.3783 75.5871 54.3783 75.4785C53.4053 74.3925 52.4323 73.3065 51.5675 72.1118C51.0269 71.3516 50.1621 70.8086 49.5134 70.157C48.6486 69.2882 47.8918 68.4194 46.9188 67.6592C46.3783 67.2248 46.1621 67.2248 45.8377 67.8764C45.2972 69.1796 45.4053 70.5914 45.2972 72.0032C45.081 74.6097 44.9729 77.2161 45.081 79.8226C45.081 81.7774 45.4053 83.7323 45.5134 85.6871C45.7296 88.185 45.9459 90.6828 46.3783 93.0721C46.7026 95.2441 47.0269 97.4161 47.5675 99.5882C47.6756 99.914 47.6756 100.24 47.3513 100.566C47.135 100.783 46.8107 100.566 46.7026 100.457C45.8377 99.0452 44.108 98.3936 43.3513 96.9817C41.8377 94.1581 39.6756 91.8774 38.5945 88.8366C38.2702 87.7506 37.5134 86.8817 36.8648 85.9043C36.6486 85.5785 36.4323 85.3613 36.5404 84.9269C37.1891 85.1441 36.8648 86.0129 37.5134 86.3387C37.6215 85.9043 37.4053 85.5785 37.2972 85.2527C36.6486 83.9495 36.2161 82.5377 35.8918 81.1258C35.7837 80.6914 35.4594 80.257 35.8918 79.714C35.9999 79.6054 35.8918 79.0624 35.7837 78.9538C34.4864 78.1936 34.7026 76.8903 34.5945 75.8043C34.2702 72.1119 34.4864 68.4194 34.2702 64.7269C34.2702 64.1839 34.5945 63.5323 34.2702 62.8807C33.1891 64.1839 32.108 65.3785 31.0269 66.6817C30.9188 66.7903 30.8107 67.2248 30.5945 66.6817C30.4864 66.4645 30.3783 66.7903 30.2702 66.8989C29.081 68.4194 27.6756 69.614 26.2702 70.9172C25.2972 71.786 23.9999 72.2204 22.9188 72.8721C22.2702 73.1979 21.6215 73.5237 21.081 73.8495C20.3242 74.3925 19.4594 74.3925 18.5945 74.0667C17.6215 73.7409 16.7567 73.3065 15.6756 73.1979C14.9188 73.1979 14.2702 72.5463 13.5134 72.1118C13.4053 72.1118 12.9729 71.4602 13.081 72.3291C13.081 72.5463 12.7567 72.3291 12.7567 72.2205C11.6756 70.9172 10.4864 69.7226 9.40531 68.4194C8.75666 67.6592 8.43234 66.4645 7.67558 65.8129C5.83774 64.0753 6.48639 61.9032 6.5945 59.9484C6.70261 57.6678 7.35126 55.3871 8.21612 53.2151C8.75666 52.0204 9.51342 50.8258 10.054 49.6312C10.3783 48.871 10.8107 48.328 11.5675 47.8936C12.4323 47.3506 12.4323 47.1334 11.5675 46.4817C9.83774 45.1785 8.10801 43.7667 6.48639 42.3549C5.51342 41.486 4.86477 40.4 3.78369 39.6398C3.67558 39.5312 3.45937 39.314 3.45937 39.2054C3.13504 38.4452 2.5945 37.7936 2.27018 37.142C1.51342 35.6215 0.540446 34.2097 0.432337 32.3635C0.432337 30.7344 -9.44658e-05 29.214 0.32423 27.585C0.540446 26.1731 1.18909 25.0871 2.16207 24.2183C3.78369 22.6979 5.83774 21.829 7.78369 20.8516C8.75666 20.4172 10.054 19.9828 11.0269 20.2C13.081 20.6344 15.2431 20.0914 17.081 21.5032C17.6215 21.9376 18.4864 21.9377 19.135 22.2635C21.5134 23.4581 23.7837 24.8699 25.5134 26.8247C26.5945 28.0194 28.2161 28.4538 28.9729 29.8656C29.7296 31.1688 30.9188 32.1463 31.4594 33.5581C31.7837 34.3183 32.5404 34.6441 33.1891 35.0785C33.2972 35.1871 33.5134 35.0785 33.5134 34.9699C33.6215 34.6441 33.6215 34.2097 33.4053 33.8839C33.2972 33.7753 33.1891 33.7753 33.081 33.8839C32.9729 33.9925 32.8648 34.1011 32.6486 34.2097C32.5404 33.6667 32.5404 33.6667 32.9729 33.3409C33.4053 33.1237 33.6215 32.9065 33.6215 32.4721C33.5134 32.0377 33.9459 31.8204 34.2702 31.7118C34.9188 31.6032 35.2431 30.7344 35.9999 31.1688C36.108 31.1688 36.108 31.1688 36.2161 31.0602C36.7567 29.6484 37.5134 29.214 39.0269 29.3226C39.4594 29.3226 39.8918 29.214 40.4323 29.1054C40.6486 29.1054 40.7567 28.9968 40.7567 28.7796C40.7567 28.5624 40.7567 28.3452 40.6486 28.128C40.2161 27.1506 40.3242 26.1731 40.5404 25.1957C40.9729 23.1323 41.2972 20.9602 41.4053 18.8968C41.4053 18.571 41.5134 18.2452 41.6215 17.9194C42.4864 15.4215 43.5675 13.0323 45.081 10.8602C46.3783 9.014 47.5675 7.27636 48.8648 5.43012C49.8377 4.0183 51.3513 3.25808 52.5404 2.06346C53.9459 0.543027 55.6756 0.325823 57.5134 0.543027C57.8377 0.543027 58.054 0.325823 58.3783 0.325823C59.4594 0.108619 60.3242 0.434425 61.081 1.19464C61.081 0.868833 61.4053 1.08604 61.6215 1.30324C62.4864 1.95485 63.2432 2.60647 63.7837 3.58389C64.4323 4.77851 65.5134 5.75593 65.9459 7.16776C66.2702 8.25378 66.5945 9.2312 66.7026 10.3172C66.9188 11.729 67.135 13.2495 66.9188 14.7699C66.8107 15.4215 66.4864 16.0731 66.2702 16.6161C65.7296 18.2452 65.2972 19.8742 64.6486 21.5032C64.108 22.9151 63.4594 24.2183 62.8107 25.5215C62.7026 25.7387 62.4864 25.8473 62.7026 26.0645C62.9188 26.2817 63.0269 26.0645 63.2432 26.0645C64.108 25.9559 64.6486 25.4129 65.4053 25.0871C65.8377 24.8699 66.2702 24.8699 66.8107 24.9785C67.7837 25.1957 68.7567 25.4129 69.7296 25.4129C71.4594 25.5215 73.2972 25.6301 74.5945 27.042C74.7026 27.1506 74.7026 27.2592 74.8107 27.2592C77.2972 28.3452 77.9459 30.7344 78.8107 32.9065C79.5675 34.8613 79.2432 36.8161 78.9188 38.771C78.1621 42.8979 75.8918 46.1559 72.9729 48.9796C72.2161 49.7398 71.4594 50.6086 70.7026 51.2602C69.6215 52.2377 68.3242 52.9979 66.9188 53.4323C66.054 53.7581 65.1891 53.8667 64.5404 54.6269C64.4323 54.8441 63.9999 54.8441 63.6756 54.9527C61.081 55.6043 58.3783 55.7129 55.7837 55.3871C55.5675 55.3871 55.2431 55.4957 54.7026 55.4957ZM62.054 76.8903C61.9459 77.4334 62.2702 77.7592 62.7026 78.085C62.9188 77.8678 62.5945 77.542 63.0269 77.4334C63.3513 78.085 62.9188 78.9538 63.5675 79.6054C63.6756 78.8452 63.2431 78.3022 63.4594 77.6506C63.8918 77.9764 63.5675 78.5194 64.2161 78.7366C64.108 77.9764 63.8918 77.3248 63.8918 76.5645C63.7837 75.2613 63.5675 74.1753 62.2702 73.6323L62.1621 73.5237C62.054 73.5237 61.9459 73.4151 62.054 73.3065C62.1621 73.1979 62.2702 73.1979 62.3783 73.1979C62.7026 73.3065 62.8107 73.7409 63.3513 73.8495C62.9188 72.9807 62.4864 72.2204 62.054 71.3516C62.5945 71.3516 62.3783 72.0032 62.9188 72.1118C63.0269 71.3516 62.8107 70.5914 62.5945 69.9398C62.3783 70.0484 62.5945 70.3742 62.3783 70.4828C62.1621 70.3742 62.1621 70.157 62.1621 69.8312C61.8377 68.3108 61.6215 66.7903 60.9729 65.2699C60.2161 63.4237 59.2431 61.5774 57.9459 60.057C56.8648 58.8624 55.5675 58.2108 54.2702 57.2334C53.1891 56.3645 51.8918 55.4957 50.5945 55.0613C50.054 54.8441 49.5134 54.6269 49.4053 55.7129C49.081 54.4097 48.108 55.1699 47.4594 54.9527C47.4594 54.5183 47.9999 54.6269 47.9999 54.3011C46.4864 53.6495 44.7567 53.8667 43.2432 52.9979C43.135 52.9979 42.9188 53.1065 42.8107 53.2151C42.5945 53.4323 42.2702 53.5409 41.9459 53.6495C41.1891 54.0839 40.3242 54.0839 39.6756 54.6269C39.135 54.9527 38.9188 55.9301 39.0269 55.9301C39.6756 56.3645 39.135 56.6903 39.0269 56.9075C38.9188 57.2334 38.8107 57.5592 38.8107 57.885C38.9188 58.8624 38.9188 59.8398 38.9188 60.7086C38.9188 62.3377 39.2431 63.8581 39.5675 65.5957C38.4864 64.4011 39.135 62.7721 38.3783 61.5774C37.8377 62.9893 38.8107 64.2925 38.7026 65.8129C38.054 64.6183 38.2702 63.5323 37.6215 62.5549C37.2972 64.1839 38.054 65.7043 38.1621 67.442C37.7296 67.1161 38.054 66.4645 37.4053 66.2473C37.2972 66.8989 37.081 67.442 37.4053 67.985C37.9459 69.071 37.9459 70.157 38.2702 71.243C37.8377 71.243 38.054 70.7 37.6215 70.5914C37.4053 71.243 37.1891 71.786 37.6215 72.3291C38.054 72.8721 37.7296 73.8495 38.7026 74.1753C38.7026 74.1753 38.7026 74.2839 38.7026 74.3925C38.4864 75.6957 39.2432 76.5645 39.9999 77.542C40.2161 77.7592 40.3242 77.9764 39.9999 77.9764C39.0269 78.1936 39.4594 78.7366 39.6756 79.171C39.9999 79.6054 39.9999 80.257 40.6486 80.5828C40.7567 80.6914 40.7567 80.8 40.7567 81.0172C40.6486 81.1258 40.5404 81.2344 40.4323 81.1258C40.2161 81.0172 40.108 80.9086 39.8918 80.8C40.9729 81.7774 40.7567 83.4065 41.7296 84.6011C40.5404 84.3839 40.9729 84.9269 41.1891 85.4699C41.4053 86.3387 42.054 86.9903 42.4864 87.9678C41.6215 87.8592 41.6215 86.9903 40.9729 86.7731C40.7567 87.2075 41.2972 87.4247 41.1891 87.642C40.6486 88.6194 41.2972 89.271 41.6215 89.9226C41.9459 90.5742 42.1621 91.2258 42.054 91.986C42.054 92.4204 42.1621 92.7463 42.4864 92.8549C43.135 93.0721 43.2431 93.5065 43.5675 94.0495C43.8918 94.5925 44.2161 95.0269 44.5404 95.5699C44.6486 95.5699 44.7567 95.5699 44.8648 95.4613C42.9188 91.986 43.4594 88.185 43.0269 84.6011C43.2431 86.6645 43.6756 88.728 43.6756 90.9C43.6756 91.5516 43.5675 92.3119 44.4323 92.6377C44.5404 92.6377 44.6486 92.8549 44.6486 92.9635C44.3242 94.2667 45.4053 95.2441 45.4053 96.5473C45.4053 96.9817 45.7296 97.3075 46.054 97.6334C46.2702 97.1989 45.8377 96.9817 45.7296 96.5473C45.5134 94.7011 45.1891 92.8549 44.7567 90.9C44.7567 90.7914 44.7567 90.6828 44.6486 90.6828C44.3242 90.6828 44.3242 90.6828 44.2161 90.4656C43.9999 89.5968 43.9999 88.728 43.9999 87.8592C44.108 85.3613 43.9999 82.7549 43.7837 80.257C43.5675 76.6731 43.7837 73.0893 44.108 69.5054C44.2161 68.4194 44.7567 67.442 44.7567 66.3559C44.7567 64.8355 44.7567 63.3151 44.9729 61.9032C45.1891 60.6 44.7567 59.514 44.2161 58.3194C44.108 58.1022 43.9999 57.7764 43.6756 57.6678C43.2432 57.6678 43.3513 58.1022 42.9188 58.3194C43.3513 57.4506 42.8107 57.6678 42.3783 57.5592C42.5945 57.1248 42.8107 57.1248 43.135 57.2334C43.6756 57.4506 43.7837 57.0161 43.6756 56.5817C43.5675 56.2559 43.4594 55.9301 43.2432 55.6043C42.8107 55.0613 42.4864 54.5183 42.5945 53.6495C42.9188 54.0839 43.5675 53.7581 43.7837 54.4097C43.8918 54.8441 43.8918 55.4957 44.6486 55.6043C44.7567 55.6043 44.8648 55.8215 44.7567 55.9301C44.5404 56.3645 44.6486 56.7989 44.6486 57.1247C44.7567 57.9936 45.2972 58.7538 45.7296 59.4054C45.9459 59.7312 46.1621 60.057 46.5945 60.1656C47.2431 60.1656 47.135 60.4914 47.2432 61.0344C47.2432 61.3602 47.135 62.3377 48.108 61.686C48.4323 61.4688 48.4323 61.9032 48.4323 62.0118C48.7567 62.7721 49.081 63.5323 49.7296 64.0753C50.1621 64.4011 50.4864 64.7269 50.7026 63.9667C51.135 64.4011 50.7026 65.0527 51.135 65.3785C51.5675 65.7043 51.9999 65.8129 52.4323 66.1387C52.7567 66.3559 52.8648 66.6817 53.081 67.0075C53.6215 67.6592 53.5134 68.4194 53.8377 69.071C54.1621 69.9398 55.0269 70.0484 55.6756 70.4828C55.9999 70.7 55.8918 69.8312 56.2161 69.8312C56.7567 69.8312 56.7567 71.4602 57.7296 70.2656C57.8377 70.3742 57.8377 70.4828 57.9459 70.5914C58.2702 71.0258 58.054 71.6774 58.2702 72.2205C58.5945 72.9807 58.8107 73.7409 59.4594 74.2839C59.5675 74.3925 59.7837 74.5011 59.6756 74.6097C59.0269 75.5871 60.108 75.6957 60.4323 76.1301C60.3242 75.8043 60.108 75.5871 59.8918 75.2613C59.7837 75.0441 59.7837 74.9355 59.8918 74.9355C60.4323 75.0441 60.108 74.7183 60.108 74.5011C59.8918 73.9581 59.7837 73.4151 59.3513 73.0893C59.135 72.8721 59.2432 72.6549 59.4594 72.4377C59.6756 72.329 59.7837 72.4377 59.8918 72.5463C60.2161 73.6323 60.9729 74.5011 61.4053 75.4785C61.4053 76.2387 61.5134 76.7817 62.054 76.8903ZM5.51342 37.0334C5.72964 36.8161 6.27018 37.4678 6.27018 36.7075C6.27018 36.4903 6.5945 36.5989 6.5945 36.7075C6.70261 37.5764 7.35126 38.228 7.45936 39.0968C7.02693 39.314 6.48639 39.5312 6.27018 38.771C6.27018 38.6624 6.05396 38.4452 5.72963 38.5538C5.51342 38.6624 5.51342 38.8796 5.72963 39.0968C5.94585 39.314 6.16207 39.4226 6.27018 39.6398C6.48639 39.7484 7.24315 39.6398 6.5945 40.2914C6.37828 40.4 6.70261 40.5086 6.91882 40.5086C7.56747 40.6172 8.43234 40.2914 8.86477 41.1602C8.64856 41.3774 8.32423 40.943 7.99991 41.3774C8.75666 41.8118 9.83774 41.8118 10.2702 42.7893C9.94585 42.6807 9.51342 42.6807 9.08099 42.5721C9.2972 43.0065 9.62153 43.0065 9.83774 43.2237C10.054 43.4409 10.4864 43.1151 10.7026 43.4409C10.9188 43.7667 11.135 43.8753 11.4594 43.5495C11.7837 43.2237 11.5675 42.8979 11.3513 42.6807C10.5945 41.8118 10.7026 41.2688 11.6756 40.6172C11.5675 40.943 11.4594 41.2688 11.2431 41.5946C11.135 41.8118 11.2431 42.1377 11.4594 42.2463C12.6486 42.5721 12.108 43.2237 11.7837 43.7667C11.6756 43.9839 11.5675 44.2011 11.7837 44.4183C11.9999 44.7441 12.3242 44.9613 12.4323 45.3957C12.6486 45.9387 13.5134 46.2645 14.054 46.4817C14.3783 46.6989 14.7026 46.2645 15.135 46.1559C15.3513 46.1559 15.5675 45.8301 15.6756 46.1559C15.7837 46.3731 15.4594 46.4817 15.3513 46.5903C14.7026 47.1334 13.9459 47.5678 13.2972 48.1108C12.8648 48.4366 12.5404 48.9796 13.1891 49.414C13.4053 49.6312 13.4053 49.7398 13.081 49.8484C12.2161 50.1742 12.2161 51.043 12.108 51.8032C11.8918 52.6721 11.7837 53.5409 11.9999 54.4097C12.2161 54.9527 12.108 55.6043 12.108 56.1473C12.2161 56.6903 12.5404 56.3645 12.8648 56.3645C12.2161 56.9075 12.3242 57.885 11.5675 58.3194C10.7026 58.8624 9.72964 59.2968 9.94585 60.6C9.94585 60.7086 9.83774 60.8172 9.83774 60.8172C8.97288 60.9258 9.40531 61.4688 9.51342 61.9032C9.62153 62.2291 9.83774 62.4463 9.72964 62.7721C9.40531 62.7721 9.2972 62.3377 8.97288 62.3377C8.75666 63.0979 8.75666 63.7495 9.08099 64.4011C9.2972 64.4011 9.51342 64.0753 9.51342 64.0753C9.2972 63.2065 10.1621 63.2065 10.4864 62.8807C10.5945 62.7721 10.8107 62.6635 10.9188 62.9893C11.0269 63.3151 11.4594 63.5323 11.2431 63.9667C11.135 64.1839 10.9188 64.0753 10.7026 63.9667C10.3783 63.7495 10.1621 63.9667 10.054 64.0753C9.72963 64.4011 9.51342 64.8355 9.2972 65.2699C8.97288 65.9215 9.08099 66.5731 9.83774 66.8989C10.5945 67.2247 11.2432 67.6592 12.108 67.2248C12.4323 67.1162 12.6486 67.2247 12.6486 67.5506C12.6486 67.6592 12.6486 67.985 12.8648 67.985C13.7296 67.985 14.4864 68.528 15.2431 68.7452C15.4594 68.8538 15.6756 68.8538 15.8918 68.6366C15.9999 68.4194 15.7837 68.3108 15.7837 68.2022C15.6756 67.985 15.4594 67.7678 15.7837 67.6592C15.9999 67.5506 16.3242 67.442 16.4323 67.7678C16.7567 68.8538 16.9729 67.8764 17.1891 67.6592C17.2972 68.0936 17.4053 68.528 17.8377 68.0936C18.4864 67.5506 18.7026 67.985 18.8107 68.528C18.8107 68.6366 18.8107 68.8538 19.135 68.9624C19.135 68.3108 19.8918 68.0936 20.2161 68.2022C20.9729 68.4194 21.2972 67.985 21.6215 67.442C21.7296 67.6592 21.8377 67.7678 21.9459 67.8764C22.1621 68.7452 22.7026 68.6366 23.2431 68.3108C23.6756 68.0936 24.108 67.985 24.6486 67.6592C24.3242 68.3108 23.6756 68.2022 23.3513 68.528C23.135 68.6366 22.8107 68.7452 23.0269 69.071C23.135 69.3968 23.4594 69.2882 23.6756 69.1796C24.2161 69.071 24.3242 68.528 24.6486 68.3108C25.6215 67.6592 26.8107 67.442 27.135 66.0301C27.2431 65.3785 28.2161 64.8355 28.9729 64.4011C29.5134 64.0753 29.8377 63.7495 29.9459 63.2065C29.9459 62.8807 30.054 62.3377 30.4864 62.5549C31.0269 62.6635 30.054 62.9893 30.4864 63.3151C31.0269 62.9893 31.6756 62.7721 31.6756 62.0118C31.6756 61.3602 31.8918 60.9258 32.3242 60.6C33.1891 59.8398 33.6215 58.8624 34.3783 58.1022C34.5945 57.885 34.9188 57.5592 34.7026 57.2334C34.054 56.1473 34.8107 55.0613 34.5945 53.9753C34.4864 53.7581 34.5945 52.8893 35.2431 52.4549C35.135 53.2151 35.135 53.6495 35.0269 54.1925C34.8107 54.9527 34.3783 56.1473 34.9188 56.4731C35.6756 56.7989 36.2161 55.7129 36.8648 55.1699C37.1891 54.9527 37.081 54.7355 36.9729 54.5183C36.2161 53.5409 36.2161 52.3463 35.9999 51.1516C35.9999 50.9344 35.9999 50.6086 35.6756 50.5C35.5675 50.6086 35.5675 50.6086 35.4594 50.7172C34.3783 52.5635 33.6215 54.5183 32.9729 56.5817C32.7567 57.342 32.7567 57.342 31.9999 57.2334C32.6486 56.4731 32.8648 55.3871 33.2972 54.5183C33.4053 54.1925 33.7296 53.9753 33.8377 53.6495C34.054 52.4549 34.7026 51.3688 35.3513 50.2828C35.6756 49.7398 35.6756 49.3054 35.3513 48.5452C34.2702 50.5 32.7567 52.0205 31.5675 53.6495C30.5945 55.0613 30.054 56.6903 28.6486 57.7764C26.8107 59.0796 25.4053 61.143 23.0269 61.5774C22.8107 61.5774 22.7026 61.7946 22.4864 62.0118C22.3783 61.143 22.054 61.2516 21.4053 61.5774C20.6486 62.1205 19.7837 62.4463 19.6756 63.5323C19.4594 63.2065 19.4594 62.8807 19.6756 62.5549C19.7837 62.3377 19.7837 62.1205 19.4594 62.1205C18.8107 62.2291 18.2702 61.5774 17.5134 61.7946C17.2972 61.7946 17.1891 61.7946 17.1891 61.5774C17.1891 61.143 16.8648 61.143 16.7567 60.9258C16.2161 60.2742 15.2431 59.7312 15.2431 58.7538C15.2431 57.885 15.3513 57.0161 15.3513 56.1473C15.3513 55.7129 14.9188 55.4957 15.2431 55.0613C16.2161 53.7581 16.4323 52.0204 17.6215 50.8258C19.0269 49.414 20.2161 47.8936 22.054 47.0247C21.8377 46.6989 21.5134 46.4817 21.2972 46.4817C19.8918 46.5903 19.0269 45.5043 18.054 44.8527C17.5134 44.5269 16.7567 44.4183 16.3242 43.8753C15.9999 43.4409 15.6756 42.8979 15.2431 42.4635C13.9459 41.486 13.8377 39.857 13.4053 38.4452C13.2972 38.0108 13.5134 37.685 13.8377 37.2506C14.1621 36.9247 14.5945 36.5989 14.2702 35.9473C14.1621 35.8387 14.2702 35.8387 14.2702 35.7301C15.135 34.6441 16.3242 33.8839 17.6215 33.6667C20.8648 33.1237 24.2161 33.1237 27.4594 33.8839C27.9999 33.9925 28.6486 34.1011 29.4053 34.2097C28.5404 33.0151 27.2431 32.6893 26.4864 31.7118C26.2702 31.4946 25.8377 31.6032 25.6215 31.1688C24.9729 29.9742 24.4323 29.8656 23.3513 30.6258C23.0269 30.843 22.7026 31.1688 21.9459 31.1688C22.7026 30.7344 23.2431 30.4086 23.7837 29.9742C24.2161 29.6484 24.3242 29.1054 23.7837 29.1054C23.0269 29.1054 22.5945 28.3452 21.6215 28.8882C21.9459 28.3452 22.1621 28.128 21.7296 27.8022C20.8648 26.8247 20.2161 28.0194 19.4594 27.8022C19.7837 27.3678 19.5675 26.9333 19.135 26.6075C18.8107 26.3903 18.4864 26.1731 18.054 26.3903C17.5134 26.6075 17.5134 27.042 17.6215 27.585C16.9729 27.3678 16.8648 26.7161 16.4323 26.3903C15.7837 25.8473 15.5675 26.9334 15.0269 26.8247C15.135 26.4989 15.3513 26.0645 15.5675 25.7387C15.8918 25.1957 15.2431 24.9785 15.135 24.6527C15.135 24.5441 14.9188 24.5441 14.8107 24.5441C14.4864 24.7613 14.9188 24.9785 14.8107 25.1957C14.4864 25.1957 14.054 25.1957 13.9459 24.7613C13.8377 24.4355 13.5134 24.4355 13.1891 24.4355C12.8648 24.5441 12.5404 24.6527 12.2161 24.2183C11.9999 23.8925 11.3513 24.0011 11.0269 24.2183C10.5945 24.6527 11.2431 24.6527 11.4594 24.8699C11.6756 25.0871 11.7837 25.5215 11.6756 25.5215C10.9188 25.4129 10.8107 26.3903 10.1621 26.6075C10.1621 26.2817 10.2702 26.0645 10.4864 25.8473C10.7026 25.6301 11.0269 25.4129 10.8107 24.9785C10.8107 24.8699 10.7026 24.8699 10.5945 24.8699C10.2702 24.9785 10.1621 25.3043 10.054 25.6301C9.94585 25.8473 9.08099 26.3903 8.97288 26.2817C8.32423 25.8473 7.78369 25.3043 6.91882 24.9785C5.83774 24.6527 5.94585 24.4355 4.97288 24.9785C6.05396 25.3043 6.81072 25.9559 7.67558 26.4989C6.27018 26.0645 4.97288 25.4129 3.67558 24.6527C3.78369 25.4129 4.10801 25.9559 4.21612 25.7387C4.64855 25.3043 4.75666 25.7387 4.97288 25.9559C5.2972 26.1731 5.62153 26.3903 5.83774 26.6075C5.94585 26.8247 5.62153 26.8247 5.51342 26.8247C4.64855 26.8247 3.99991 26.4989 3.45937 25.8473C3.35126 25.7387 3.24315 25.6301 3.02693 25.7387C2.81072 25.8473 3.02693 26.0645 3.13504 26.1731C3.67558 26.8247 4.10801 27.4764 4.97288 27.6936C4.54045 27.9108 4.10801 27.4764 3.67558 27.585C3.78369 27.8022 3.78369 28.0194 3.8918 28.2366C4.43234 29.3226 4.43234 29.3226 3.24315 29.5398C3.02693 29.5398 2.81072 29.6484 2.70261 29.3226C2.70261 29.214 2.91882 28.7796 2.48639 28.9968C2.27018 29.1054 2.27018 29.3226 2.27018 29.5398C2.27018 29.9742 2.5945 30.3 3.02693 30.4086C3.24315 30.5172 3.56747 30.5172 3.56747 30.9516C3.45936 30.9516 3.35126 30.9516 3.24315 30.843C3.02693 30.843 2.70261 30.6258 2.48639 30.843C2.37828 31.0602 2.5945 31.2774 2.70261 31.386C3.35126 32.2549 4.21612 32.7979 5.40531 32.9065C4.97288 33.0151 4.54045 33.6667 3.99991 33.1237C3.8918 33.0151 3.45937 33.1237 3.35126 33.3409C3.24315 33.4495 3.24315 33.6667 3.35126 33.7753C4.21612 33.7753 4.43234 34.8613 5.18909 35.0785C5.2972 35.0785 5.2972 35.1871 5.2972 35.2957C5.08099 35.5129 4.86477 35.1871 4.54045 35.4043C5.08099 36.1645 5.1891 36.5989 5.51342 37.0334C5.1891 37.0334 4.86477 36.7075 4.54045 36.9248C4.64856 37.4678 4.97288 37.685 5.51342 37.9022C5.51342 37.4678 5.51342 37.2506 5.51342 37.0334ZM72.6486 29.9742C72.5404 29.8656 72.4323 29.8656 72.3242 29.757C71.5675 29.1054 71.5675 29.1054 70.9188 29.8656C70.8107 29.9742 70.8107 30.0828 70.5945 29.9742C70.054 29.4312 69.8378 29.9742 69.5134 30.3C69.4053 30.5172 69.2972 30.6258 68.9729 30.5172C68.7567 30.4086 68.7567 30.3 68.7567 30.0828C68.6486 29.6484 68.4323 29.214 68.2161 28.8882C67.9999 28.5624 67.6756 28.2366 67.2431 28.3452C66.9188 28.4538 66.4864 28.5624 66.7026 29.1054C66.8107 29.3226 66.4864 29.5398 66.1621 29.6484C66.054 29.757 65.9459 29.6484 65.8377 29.5398C65.7296 29.4312 65.6215 29.1054 65.8377 29.1054C66.4864 28.7796 66.3783 28.0194 66.7026 27.4764C66.8107 27.2592 67.135 27.042 66.7026 26.9333C66.4864 26.8247 66.054 26.9334 66.054 27.3678C66.054 27.585 65.8377 27.9108 65.7296 27.6936C65.5134 27.3678 64.8648 27.8022 64.8648 27.2592C64.8648 27.042 64.9729 26.7161 64.6486 26.6075C64.3242 26.6075 64.108 26.7161 63.9999 27.042C63.9999 27.1506 63.8918 27.3678 63.6756 27.2592C63.5675 27.2592 63.5675 27.1506 63.5675 27.042C63.5675 25.9559 63.135 26.6075 62.8107 26.8247C62.7026 27.1506 62.7026 27.4764 62.3783 27.2592C62.1621 27.1506 61.9459 27.1506 61.8377 27.4764C61.5134 28.2366 60.8648 28.4538 60.108 28.0194C60.6486 27.585 60.7567 26.8247 61.1891 26.2817C61.8377 25.4129 62.3783 24.5441 62.8107 23.5667C62.9188 23.3495 63.4594 23.1323 62.9188 22.8065C62.3783 22.5893 62.4864 23.0237 62.3783 23.2409C62.054 23.6753 61.9459 24.3269 61.2972 24.7613C61.6215 23.8925 62.1621 23.3495 62.1621 22.4807C62.1621 22.3721 62.2702 22.1549 62.054 22.1549C61.8377 22.1549 61.8377 22.2635 61.7296 22.3721C61.5134 22.6979 61.6215 23.1323 61.2972 23.4581C60.9729 22.5893 61.9459 21.9377 61.4053 21.1774C62.4864 20.8516 62.054 19.7656 62.2702 19.114C62.8107 17.7022 62.9188 16.0731 63.2432 14.5527C63.4594 13.3581 63.3513 12.1635 63.5675 11.0774C63.6756 10.643 63.135 10.5344 62.8107 10.4258C62.3783 10.3172 62.5945 10.7516 62.5945 10.8602C62.4864 10.9688 62.3783 11.186 62.3783 11.2946C62.2702 11.8377 62.054 12.4893 62.054 13.0323C62.1621 14.0097 62.054 14.5527 60.9729 15.0957C62.054 13.3581 61.8377 11.6204 62.054 9.88281C61.5134 9.88281 61.4053 10.4258 60.8648 10.643C61.081 10.3172 61.1891 10.1 61.4053 9.99141C62.1621 9.4484 62.054 8.57959 62.1621 7.81937C62.1621 7.60217 62.1621 7.27636 61.9459 7.27636C61.7296 7.16776 61.7296 7.49356 61.5134 7.60217C60.8648 7.92797 60.8648 8.90539 60.108 9.3398C60.108 9.1226 60.108 8.90539 60.108 8.79679C60.8648 8.14518 60.9729 7.05916 61.9459 6.73335C62.054 6.62475 62.3783 6.40754 62.2702 6.19034C62.1621 6.08174 62.054 5.97313 61.8377 5.86453C61.5134 5.75593 61.4053 5.97313 61.2972 6.19034C61.1891 6.40754 61.1891 6.62475 60.7567 6.51615C60.9729 6.08174 61.2972 5.53873 60.6486 5.10432C60.8648 5.10432 60.8648 4.99572 60.9729 4.99572C61.1891 4.99572 61.5134 5.21292 61.6215 4.77851C61.7296 4.4527 61.2972 4.3441 61.1891 4.2355C60.8648 4.0183 60.8648 4.3441 60.6486 4.56131C60.2161 5.10432 59.8918 5.86453 58.9188 5.86453C58.9188 5.10432 59.5675 4.77851 59.8918 4.3441C60.2161 4.0183 60.5405 3.69249 59.7837 3.25808C60.108 3.25808 60.3242 3.25808 60.4323 3.25808C60.6486 3.25808 60.8648 3.14948 60.8648 2.93227C60.8648 2.71507 60.5405 2.60647 60.3242 2.71507C59.8918 2.82367 59.6756 3.14948 59.3513 3.36668C58.7026 4.0183 58.2702 4.77851 57.8377 5.64733C57.5134 4.66991 58.3783 4.2355 58.4864 3.47529C57.8377 3.69249 57.2972 3.80109 56.9729 4.56131C56.5404 5.75593 55.7837 6.40754 54.5945 6.73335C55.0269 6.08174 55.2432 5.10432 56.2161 4.99572C56.6486 4.88711 56.7567 4.56131 56.6486 4.2355C56.5405 4.0183 56.2161 4.1269 55.9999 4.2355C55.5675 4.3441 55.3513 4.56131 55.135 4.88711C54.5945 5.53873 54.1621 6.29894 54.054 7.16776C53.6215 7.16776 53.8377 6.73335 53.6215 6.62475C53.2972 6.95055 52.9729 7.38496 52.4323 7.60217C52.2161 7.27636 52.6486 7.16776 52.5404 6.84195C51.6756 7.60217 50.1621 7.49356 50.1621 9.1226C49.7296 9.01399 49.9459 8.57959 49.7296 8.47098C49.4053 8.68819 49.5134 9.3398 48.9729 9.2312C48.8648 9.2312 48.8648 9.4484 48.8648 9.55701C48.8648 9.77421 48.9729 9.77421 49.1891 9.88281C49.7296 9.99142 50.054 9.66561 50.4864 9.3398C49.9459 10.3172 49.8377 10.4258 49.081 10.4258C48.8648 10.4258 48.6486 10.5344 48.5404 10.643C47.6756 11.4032 46.4864 12.0549 46.7026 13.6839C45.9459 12.7065 45.8377 13.3581 45.7296 13.9011C45.5134 14.7699 45.8377 15.3129 46.4864 15.0957C46.7026 14.9871 46.8107 14.9871 46.9188 15.2043C47.0269 15.4215 46.7026 15.5301 46.5945 15.5301C46.2702 15.5301 45.7296 15.5301 45.6215 15.6387C44.7567 16.1817 43.9999 16.8333 43.9999 18.028C43.9999 18.571 43.8918 19.0054 43.8918 19.5484C43.5675 19.3312 43.8918 18.6796 43.3513 18.7882C42.9188 18.8968 42.7026 19.2226 42.8107 19.657C42.8107 19.7656 42.8107 19.9828 42.9188 20.0914C43.0269 20.4172 42.8107 20.6344 42.7026 20.743C42.054 21.286 41.9459 22.1549 41.6215 22.9151C41.081 24.5441 41.1891 26.0645 41.081 27.6936C41.081 28.2366 41.1891 28.671 41.8377 28.7796C42.1621 28.7796 42.4864 28.8882 42.7026 29.214C43.2432 30.0828 43.5675 29.5398 43.7837 28.9968C44.108 27.8022 45.081 26.8247 45.081 25.5215C45.081 25.4129 45.2972 25.1957 45.4053 25.0871C45.9459 24.8699 45.8377 24.4355 45.9459 24.1097C46.054 23.4581 46.054 22.9151 46.3783 22.2635C46.7026 21.6118 47.0269 20.9602 47.0269 20.2C47.0269 19.7656 47.2432 19.4398 47.4594 19.114C48.7567 17.3764 50.054 15.5301 51.3513 13.7925C51.5675 13.5753 51.5675 13.1409 51.9999 13.1409C51.7837 13.9011 50.7026 14.4441 51.135 15.4215C51.4594 15.3129 51.5675 14.7699 51.9999 14.9871C52.6486 15.3129 52.6486 14.8785 52.4323 14.5527C52.108 13.7925 52.4323 13.3581 53.1891 13.0323C53.1891 13.2495 53.1891 13.3581 53.1891 13.4667C52.7567 14.1183 52.7567 14.4441 53.7296 14.7699C54.9188 15.2043 56.108 15.8559 56.5405 17.485C56.7567 18.2452 56.5405 19.0054 56.5405 19.657C56.7567 21.0688 56.6486 22.3721 56.2161 23.6753C55.5675 25.6301 54.7026 27.585 53.5134 29.3226C53.1891 29.8656 52.6486 30.3 52.5404 31.0602C55.135 30.5172 57.7296 30.0828 60.3242 30.9516C60.7567 31.0602 61.1891 31.386 61.7296 31.1688C61.8377 31.0602 62.1621 31.1688 62.2702 31.386C62.5945 32.1463 62.8107 32.1463 63.4594 31.6032C63.8918 31.1688 64.3242 30.7344 64.7567 30.1914C64.8648 30.0828 65.081 29.9742 65.1891 30.1914C65.2972 30.4086 65.1891 30.5172 64.9729 30.6258C64.5404 30.7344 64.3242 31.1688 64.108 31.4946C63.7837 31.929 63.7837 32.2549 64.3242 32.4721C64.7567 32.5807 65.1891 32.9065 65.5134 33.2323C66.7026 34.2097 67.135 35.6215 67.4594 37.0334C67.5675 37.5764 67.6756 38.228 68.6486 38.1194C67.9999 38.228 67.9999 38.5538 67.9999 38.9882C68.108 39.7484 67.8918 40.6172 67.5675 41.2688C67.3513 41.7032 67.135 42.3549 66.3783 42.4635C67.3513 40.6172 67.6756 38.771 67.135 37.9022C67.0269 38.771 66.5945 39.6398 66.3783 40.5086C66.3783 40.6172 66.1621 40.8344 66.3783 40.943C66.7026 41.1602 66.7026 41.3774 66.2702 41.486C66.054 41.5946 65.8377 41.486 65.7296 41.8118C65.2972 42.5721 64.6486 43.0065 63.9999 43.5495C63.5675 43.8753 63.0269 44.2011 62.5945 44.5269C62.1621 44.7441 61.9459 45.1785 61.2972 45.0699C60.5404 44.9613 59.6756 44.8527 58.9188 44.9613C58.8107 45.1785 59.3513 45.2871 59.135 45.3957C58.2702 45.7215 58.054 46.4817 57.4053 47.0247C57.2972 47.1334 57.081 47.4592 56.9729 47.242C56.7567 47.0248 56.9729 46.8075 57.1891 46.6989C57.6215 46.2645 58.054 45.7215 58.5945 45.3957C57.6215 44.7441 57.6215 44.6355 56.6486 45.2871C56.4323 45.3957 56.4323 45.3957 56.3242 45.1785C56.2161 44.9613 56.108 44.7441 56.3242 44.6355C57.2972 44.2011 56.5404 44.0925 56.2161 43.8753C54.9188 43.0065 53.1891 43.2237 51.7837 42.4635C50.4864 41.8118 49.6215 40.7258 48.3242 40.1828C48.2161 40.0742 47.9999 39.857 48.2161 39.6398C48.4323 39.4226 48.6486 39.6398 48.7567 39.7484C48.9729 40.0742 49.4053 40.1828 49.7296 40.0742C50.3783 39.857 50.8107 40.1828 51.2432 40.4C52.108 40.943 52.9729 41.486 53.9459 41.5946C55.3513 41.7032 56.6486 41.9205 58.054 42.2463C60.4323 42.8979 62.7026 43.2237 64.5404 41.1602C65.2972 40.2914 66.054 39.4226 66.1621 38.228C66.1621 37.9022 66.1621 37.4678 66.5945 37.2506C66.8107 37.142 66.8107 36.4903 66.5945 36.5989C65.5134 36.9248 65.6215 35.7301 65.6215 35.6215C65.6215 34.9699 65.5134 34.5355 64.9729 34.3183C64.4323 34.1011 64.3242 33.2323 63.6756 33.2323C63.2432 33.2323 63.0269 33.0151 62.7026 32.7979C62.1621 32.4721 61.6215 32.3635 61.081 31.8204C60.5404 31.386 59.6756 31.386 58.8107 31.386C57.081 31.4946 55.3513 31.8204 53.6215 32.1463C53.2972 32.2549 52.7567 32.4721 52.5404 32.0377C52.2161 31.6032 52.108 31.8204 51.9999 32.0377C51.6756 32.5807 51.2432 32.9065 50.8107 33.3409C50.4864 33.5581 49.9459 34.3183 50.054 33.1237C50.054 32.9065 49.8377 32.7979 49.6215 32.7979C49.4053 32.6893 49.081 32.6893 49.081 32.3635C49.081 32.0377 49.2972 31.8204 49.6215 31.7118C50.054 31.6032 50.3783 31.2774 50.5945 30.9516C50.8107 30.7344 51.0269 30.5172 51.2432 30.6258C51.6756 30.7344 51.0269 31.0602 51.2432 31.2774C51.8918 30.843 53.9459 27.042 53.8377 26.3903C52.9729 27.3678 52.5404 28.5624 51.7837 29.5398C51.7837 29.6484 51.7837 29.757 51.7837 29.757C51.7837 29.9742 51.6756 30.1914 51.4594 30.1914C51.3513 30.1914 51.135 30.1914 51.135 30.0828C51.135 29.8656 51.2432 29.6484 51.3513 29.5398C52.4323 27.6936 53.7296 25.9559 54.2702 23.7839C54.3783 23.3495 54.4864 22.9151 54.5945 22.5893C55.0269 21.3946 55.3513 20.0914 54.7026 18.8968C54.4864 18.571 54.4864 18.2452 54.9188 18.1366C55.3513 18.028 55.2431 17.7022 55.2431 17.485C55.135 17.0506 54.8107 16.6161 54.5945 16.2903C54.5945 16.1817 54.3783 16.3989 54.3783 16.3989C53.2972 16.6161 52.5404 17.5936 51.4594 18.028C51.6756 17.2678 52.4323 17.0506 52.9729 16.3989C51.4594 16.5075 50.7026 17.2678 50.054 18.2452C49.7296 18.6796 49.5134 19.2226 49.1891 19.657C47.8918 22.0463 46.1621 24.2183 46.1621 27.1506C46.1621 27.4764 46.1621 27.8022 45.8377 28.128C45.2972 28.5624 44.7567 30.1914 45.081 30.843C46.2702 33.0151 46.9188 35.4043 47.5675 37.7936C48.3242 40.5086 48.7567 43.3323 48.7567 46.1559C48.7567 46.6989 49.081 47.242 48.9729 47.785C48.6486 49.3054 47.8918 50.6086 46.7026 51.586C46.5945 51.6946 46.3783 51.9118 46.1621 51.8032C45.4053 51.6946 44.7567 52.0204 44.108 52.4549C44.3242 52.6721 44.5404 52.8893 44.7567 52.4549C44.8648 52.2377 45.081 52.0204 45.1891 52.2377C45.5134 52.6721 45.8377 52.3463 46.054 52.3463C47.2431 52.7807 48.3242 52.1291 49.4053 51.8032C49.2972 52.6721 49.9459 52.8893 50.4864 52.9979C51.0269 52.9979 50.5945 52.4549 50.8107 52.1291C51.4594 52.5635 52.2161 52.9979 52.8648 53.4323C52.9729 53.5409 53.1891 53.6495 53.2972 53.4323C53.4053 53.2151 53.4053 52.9979 53.081 52.9979C52.8648 52.8893 52.7567 52.7807 52.8648 52.5635C52.9729 52.4549 53.081 52.1291 53.5134 52.3463C54.1621 52.7807 54.8107 52.9979 55.4594 53.3237C55.6756 53.4323 55.8918 53.7581 56.108 53.3237C56.2161 52.9979 55.9999 52.8893 55.6756 52.7807C55.5675 52.7807 55.3513 52.6721 55.2431 52.6721C55.0269 52.6721 54.8107 52.6721 54.8107 52.4549C54.8107 52.2377 55.0269 52.1291 55.2431 52.1291C55.4594 52.1291 55.6756 52.1291 55.8918 52.1291C57.2972 52.4549 58.5945 52.5635 59.7837 51.4774H59.8918C59.8918 51.8032 59.3513 51.9118 59.3513 52.3463C59.5675 52.4549 59.9999 52.5635 60.108 52.3463C60.4323 51.6946 61.1891 51.586 61.7296 51.2602C62.5945 50.7172 63.3513 49.957 64.108 49.1968C64.2161 48.9796 64.4323 48.871 64.6486 49.0882C64.8648 49.3054 64.5404 49.414 64.4323 49.5226C64.108 49.8484 63.6756 50.2828 63.3513 50.6086C63.2432 50.7172 63.0269 50.9344 63.4594 51.043C63.8918 51.1516 65.2972 50.3914 65.4053 49.957C65.6215 48.9796 66.4864 48.7624 67.2431 48.5452C68.2161 48.328 68.5405 48.0022 68.5405 47.0247C68.5405 46.2645 68.5405 46.2645 69.081 45.7215C68.9729 46.6989 68.9729 46.6989 69.5134 47.0247C69.4053 47.242 68.9729 47.4592 69.1891 47.6764C69.4053 48.0022 69.8378 47.785 70.054 47.5678C70.5945 47.0247 71.135 46.3731 71.3513 45.6129C71.3513 45.6129 71.3513 45.5043 71.3513 45.3957C71.5675 44.6355 71.8918 43.8753 72.108 43.0065C72.3242 43.4409 72.108 43.7667 72.108 44.0925C72.108 44.3097 71.7837 44.5269 72.108 44.7441C72.3242 44.8527 72.5405 44.7441 72.7567 44.6355C73.2972 44.4183 73.6215 43.9839 73.7296 43.4409C73.7296 43.3323 73.8377 43.1151 74.1621 43.1151C74.3783 43.3323 73.9459 43.6581 74.2702 43.8753C74.7026 43.4409 75.0269 43.0065 75.2432 42.3549C75.4594 41.486 75.0269 40.6172 75.5675 39.7484C75.6756 39.5312 75.5675 38.8796 74.8107 39.2054C74.054 39.5312 73.5134 40.0742 73.081 40.7258C73.4053 40.1828 73.2972 39.6398 73.5134 39.2054C73.6215 38.8796 72.9729 38.8796 73.2972 38.3366C73.6215 37.5764 74.2702 37.2506 74.5945 36.7075C74.8107 36.2731 75.2432 36.0559 75.5675 36.7075C75.8918 35.2957 74.7026 36.1645 74.2702 35.7301C74.3783 35.6215 74.3783 35.6215 74.3783 35.5129C74.7026 35.2957 75.2432 35.0785 75.0269 34.5355C74.8107 33.8839 74.3783 34.5355 74.054 34.5355C73.9459 34.5355 73.7296 34.6441 73.6215 34.4269C73.5134 34.2097 73.6215 34.1011 73.7296 33.9925C74.1621 33.7753 74.4864 33.4495 74.9188 33.2323C75.135 33.1237 75.3513 33.0151 75.2432 32.6893C75.135 32.4721 74.9188 32.3635 74.7026 32.5807C74.3783 32.7979 73.9459 32.9065 73.5134 32.7979C73.6215 32.3635 74.054 32.3635 74.1621 32.2549C74.2702 32.1463 74.7026 32.0377 74.4864 31.7118C74.3783 31.4946 74.1621 31.2774 73.7296 31.386C73.4053 31.4946 73.2972 31.7118 73.081 31.9291C72.3242 32.9065 71.5675 33.7753 70.9188 34.7527C70.9188 34.1011 71.3513 33.5581 71.6756 33.0151C71.8918 32.6893 72.4323 32.2549 72.108 31.8204C71.7837 31.386 71.4594 32.1463 71.0269 32.0377C71.4594 31.0602 71.6756 30.9516 72.3242 31.386C72.5405 31.4946 72.6486 31.4946 72.7567 31.2774C72.9729 31.0602 73.2972 30.7344 73.5134 30.4086C73.6215 30.3 73.7296 30.1914 73.5134 29.9742C73.4053 29.8656 73.1891 29.8656 73.081 29.9742C72.8648 30.1914 72.6486 30.5172 72.2161 30.1914C72.108 30.5172 72.7567 30.3 72.6486 29.9742C72.8648 29.9742 73.2972 30.0828 73.1891 29.757C73.081 29.3226 72.8648 28.8882 72.2161 28.9968C72.2161 29.4312 72.6486 29.5398 72.6486 29.9742ZM18.2702 35.7301C17.5134 36.3817 16.6486 36.8161 16.2161 37.9022C15.8918 38.771 15.5675 39.6398 16.108 40.2914C17.081 41.7032 18.2702 43.1151 19.8918 43.7667C21.6215 44.5269 23.2431 45.2871 25.1891 44.9613C26.8107 44.6355 28.4323 44.7441 30.054 44.7441C30.3783 44.7441 30.5945 44.9613 30.7026 45.1785C30.9188 45.6129 30.4864 45.6129 30.2702 45.6129C29.4053 45.8301 28.5404 46.1559 27.6756 46.3731C25.4053 46.9161 23.3513 47.6764 21.6215 49.1968C20.5404 50.1742 20.108 51.4774 19.135 52.5635C18.3783 53.5409 18.5945 54.8441 17.9459 55.8215C17.4053 56.5817 17.9459 57.4506 17.6215 58.2108C17.6215 58.3194 17.8377 58.5366 17.9459 58.6452C18.7026 58.971 19.3513 59.514 19.9999 59.9484C20.7567 60.4914 21.7296 60.8172 22.7026 60.3828C23.5675 59.9484 24.5404 59.514 25.1891 58.7538C26.7026 57.1247 28.6486 55.7129 29.9459 53.8667C31.2432 52.129 32.9729 50.7172 33.8377 48.7624C34.054 48.328 34.4864 47.785 34.9188 47.8936C35.9999 48.0022 35.6756 47.3506 35.5675 46.8075C35.3513 45.9387 35.0269 45.0699 34.9188 44.0925C34.4864 41.8118 34.054 39.6398 33.1891 37.4678C33.081 37.142 32.8648 36.4903 32.6486 36.4903C31.6756 36.3817 30.9188 35.8387 30.054 35.6215C27.7837 34.9699 25.5134 34.8613 23.135 34.8613C21.5134 34.8613 19.8918 35.2957 18.5945 36.3817C18.3783 36.4903 18.1621 36.5989 18.054 36.4903C17.8377 36.1645 18.2702 36.0559 18.2702 35.7301ZM40.6486 31.2774C40.5404 30.9516 40.6486 30.7344 40.3242 30.6258C39.9999 30.5172 39.7837 30.7344 39.6756 30.9516C39.3513 31.386 39.0269 31.929 38.4864 32.3635C38.5945 31.6032 39.3513 31.386 39.2431 30.843C36.9729 30.9516 35.9999 31.929 36.5404 33.3409C36.8648 33.0151 37.1891 32.7979 37.5134 32.4721C36.7567 33.5581 37.7296 34.5355 37.5134 35.6215C37.8377 35.6215 37.8377 35.2957 38.1621 35.2957C38.054 35.6215 37.8377 36.0559 38.2702 36.2731C38.3783 36.2731 38.4864 36.3817 38.3783 36.4903C38.1621 36.9247 38.2702 37.0334 38.7026 37.0334C38.7026 37.3592 38.2702 37.685 38.7026 37.9022C39.135 38.1194 39.4594 38.0108 39.6756 37.7936C40.6486 39.6398 40.9729 41.5946 41.5134 43.5495C42.054 45.5043 42.1621 47.4592 42.1621 49.414C41.8377 48.1108 41.6215 46.8075 41.4053 45.5043C41.081 43.9839 40.5404 42.5721 40.108 41.1602C39.9999 40.6172 39.6756 40.7258 39.4594 41.0516C39.0269 41.8118 38.7026 42.6807 38.3783 43.4409C38.2702 43.7667 38.3783 44.0925 38.5945 44.3097C38.8107 44.4183 39.0269 44.0925 39.135 43.8753C39.2432 43.6581 39.3513 43.4409 39.4594 43.2237C39.5675 43.0065 39.6756 42.5721 40.108 42.8979C40.4323 43.1151 40.2161 43.3323 39.9999 43.5495C39.4594 44.0925 39.6756 44.8527 39.2431 45.3957C39.135 45.5043 39.2432 45.7215 39.4594 45.6129C40.108 45.5043 39.6756 45.8301 39.6756 45.9387C39.5675 46.1559 39.4594 46.2645 39.2431 46.3731C39.135 46.1559 39.135 45.8301 38.9188 45.8301C38.7026 45.8301 38.7026 46.0473 38.7026 46.2645C38.4864 46.6989 39.0269 46.9161 39.135 47.242C39.2432 47.3506 39.3513 47.242 39.4594 47.1334C39.6756 46.5903 40.2161 46.4817 40.7567 46.4817C39.8918 47.4592 40.3242 48.871 39.6756 49.957C39.5675 50.0656 39.6756 50.3914 39.8918 50.5C40.108 50.6086 40.2161 50.3914 40.3242 50.2828C40.4323 50.0656 40.5404 49.8484 40.9729 49.6312C40.5404 50.5 40.108 51.1516 39.6756 51.8032C39.5675 51.9118 39.3513 52.0204 39.5675 52.2377C39.7837 52.4549 39.8918 52.2377 40.108 52.1291C40.2161 52.0204 40.3242 51.9118 40.4323 51.8032C40.7567 51.2602 41.081 51.043 41.7296 51.2602C42.1621 51.3688 42.5945 51.3688 42.9188 50.9344C43.3513 50.2828 43.6756 49.6312 43.8918 48.7624C43.2431 48.871 43.0269 49.414 42.7026 49.7398C42.2702 50.1742 42.1621 50.2828 41.6215 50.0656C42.3783 49.7398 43.6756 48.6538 43.9999 48.1108C44.2161 47.6764 44.2161 47.3506 43.4594 47.4592C43.6756 47.242 43.7837 47.0247 43.8918 46.8075C44.108 46.4817 44.3242 46.6989 44.3242 46.9161C44.3242 47.5678 44.8648 48.2194 44.3242 48.9796C44.2161 49.0882 44.2161 49.3054 44.4323 49.5226C44.8648 48.871 46.054 48.7624 45.4053 47.5678C45.8377 47.3506 45.9459 47.8936 46.2702 47.785C46.4864 47.242 45.9459 47.0248 45.8377 46.5903C46.1621 46.3731 46.2702 46.9161 46.4864 46.6989C46.5945 46.5903 46.5945 46.3731 46.4864 46.1559C46.1621 45.2871 45.6215 45.0699 44.7567 45.5043C44.5404 45.6129 43.9999 47.1334 43.7837 45.5043C43.7837 45.5043 43.7837 45.5043 43.6756 45.5043C42.9188 45.5043 43.3513 45.1785 43.5675 44.9613C43.8918 44.4183 43.9999 43.9839 43.6756 43.4409C43.4594 43.0065 43.0269 42.3549 43.0269 42.1377C43.3513 40.7258 42.4864 39.857 41.9459 38.771C41.5134 37.7936 40.6486 36.8161 41.9459 35.8387C42.1621 35.7301 42.1621 35.2957 42.3783 35.1871C43.135 34.5355 42.8107 33.7753 42.8107 32.9065C42.1621 33.2323 41.9459 33.7753 41.6215 34.2097C41.4053 33.5581 41.7296 32.9065 41.4053 32.4721C41.1891 32.1463 41.081 32.0377 41.2972 31.8204C41.6215 31.4946 41.6215 31.0602 41.2972 30.7344C41.1891 30.6258 40.9729 31.1688 40.6486 31.2774ZM44.2161 38.8796C44.2161 38.3366 44.6486 38.1194 44.7567 37.7936C44.8648 37.5764 44.8648 37.142 44.7567 37.2506C44.3242 37.4678 44.2161 36.5989 43.8918 37.0334C43.5675 37.3592 43.0269 37.685 43.135 38.3366C43.3513 39.2054 43.5675 40.0742 43.7837 40.943C43.7837 41.1602 43.8918 41.486 44.2161 41.2688C44.6486 40.8344 45.081 40.4 45.4053 39.7484C45.6215 39.314 45.6215 38.6624 45.1891 38.3366C44.7567 38.0108 44.6486 38.6624 44.2161 38.8796ZM44.9729 42.0291C44.3242 42.5721 44.4323 43.2237 44.5404 43.8753C44.6486 44.3097 44.8648 44.6355 44.6486 45.0699C44.5404 45.1785 44.6486 45.3957 44.8648 45.3957C44.9729 45.3957 45.081 45.3957 45.1891 45.2871C45.4053 44.9613 45.9459 44.6355 45.5134 44.0925C45.2972 43.7667 45.4053 43.6581 45.7296 43.5495C46.1621 43.3323 46.2702 41.8118 45.8377 41.486C45.4053 41.1602 45.2972 40.943 45.8377 40.6172C46.2702 40.2914 46.1621 40.0742 45.9459 39.6398C45.5134 40.4 45.081 40.943 44.5404 41.486C44.4323 41.7032 44.2161 41.8118 44.4323 42.1377C44.4323 42.3549 44.6486 41.9204 44.9729 42.0291ZM11.3513 53.1065C10.9188 53.2151 10.9188 53.5409 10.8107 53.7581C10.3783 54.8441 10.8107 56.0387 10.7026 57.2334C10.5945 57.9936 11.4594 57.7764 11.7837 57.7764C12.2161 57.7764 12.108 57.342 11.9999 57.0161C11.8918 56.5817 11.6756 56.2559 11.5675 55.7129C11.4594 54.8441 11.5675 53.9753 11.3513 53.1065ZM37.4053 47.6764C38.054 46.9161 38.1621 46.3731 37.5134 45.5043C37.1891 45.0699 36.8648 44.5269 36.6486 43.8753C36.5404 43.6581 36.4323 43.3323 36.7567 43.2237C37.1891 43.1151 37.081 43.4409 37.1891 43.6581C37.1891 43.7667 37.2972 43.7667 37.2972 43.8753C37.6215 43.5495 37.5134 43.2237 37.1891 43.0065C37.081 42.8979 36.7567 42.6807 36.7567 42.3549C36.7567 42.0291 36.8648 41.7032 36.5404 41.7032C36.108 41.7032 36.2161 42.1377 36.2161 42.3549C36.2161 43.7667 36.5404 45.0699 36.7567 46.4817C37.1891 46.4817 36.9729 45.9387 37.2972 46.0473C37.6215 46.5903 36.7567 47.1334 37.4053 47.6764ZM57.5134 43.9839C58.4864 44.9613 61.081 45.1785 62.054 44.2011C61.4053 44.3097 60.8648 44.7441 60.3242 44.3097C59.4594 43.5495 58.4864 43.7667 57.5134 43.9839ZM43.7837 33.4495C43.6756 33.7753 43.7837 33.9925 43.7837 34.2097C43.7837 34.8613 44.2161 35.6215 43.0269 35.7301C42.7026 35.7301 42.4864 36.0559 42.4864 36.3817C42.3783 36.7075 42.5945 36.9248 42.8107 37.142C42.9188 37.2506 43.0269 37.2506 43.135 37.142C44.108 36.9248 44.5404 34.4269 43.7837 33.4495ZM35.8918 41.5946C36.4323 40.6172 36.4323 39.5312 36.5404 38.5538C36.5404 38.3366 36.4323 38.0108 36.108 38.3366C35.7837 38.6624 35.4594 38.9882 35.4594 39.5312C35.4594 40.2914 35.6756 40.943 35.8918 41.5946ZM45.9459 62.0118C46.1621 63.0979 46.4864 64.2925 47.6756 65.0527C47.4594 63.6409 47.135 62.6635 45.9459 62.0118ZM9.40531 54.3011C9.62153 54.0839 9.72964 54.0839 9.83774 53.9753C10.4864 53.4323 10.3783 52.3463 11.3513 52.0205C11.4594 52.0205 11.5675 51.586 11.3513 51.3688C11.135 51.1516 11.0269 51.4774 10.9188 51.586C10.2702 52.3463 9.51342 52.9979 9.40531 54.3011ZM71.7837 47.4592C72.108 47.242 72.3242 47.1334 72.4323 46.9161C72.6486 46.4817 72.7567 46.0473 73.4053 46.3731C73.6215 46.4817 73.6215 46.1559 73.5134 46.0473C73.2972 45.8301 73.1891 45.6129 73.081 45.5043C72.7567 45.1785 72.4323 45.3957 72.108 45.6129C71.7837 45.7215 71.6756 46.0473 71.9999 46.3731C72.3242 46.6989 72.2161 46.8075 71.8918 46.9161C71.6756 46.9161 71.7837 47.1334 71.7837 47.4592ZM30.2702 65.3785C30.7026 65.3785 31.7837 63.9667 31.6756 63.5323C31.5675 63.3151 31.4594 63.3151 31.2432 63.4237C30.3783 63.6409 30.5945 64.6183 29.9459 65.0527C29.9459 65.1613 30.054 65.3785 30.2702 65.3785ZM50.4864 4.56131C49.4053 5.21292 49.6215 6.40754 48.9729 7.16776C48.8648 7.27636 48.6486 7.60217 48.9729 7.71077C49.1891 7.81937 49.4053 7.60217 49.5134 7.27636C49.8377 6.40754 50.1621 5.53873 50.4864 4.56131ZM28.7567 32.4721C29.7296 33.1237 29.8377 34.7527 31.4594 34.7527C30.5945 33.6667 29.6215 33.1237 28.7567 32.4721ZM75.7837 37.685C75.3513 37.685 74.3783 38.228 74.3783 38.3366C74.7026 38.4452 74.4864 38.9882 74.9188 38.8796C75.135 38.8796 76.2161 38.1194 76.2161 37.9022C76.2161 37.5764 75.9999 37.685 75.7837 37.685ZM9.51342 58.2108C9.62153 58.3194 9.40531 58.7538 9.83774 58.7538C10.2702 58.7538 10.4864 58.428 10.4864 57.9936C10.4864 57.5592 10.2702 57.1248 9.94585 57.2334C9.51342 57.342 9.51342 57.7764 9.51342 58.2108ZM39.4594 40.0742C39.4594 39.7484 39.3513 39.6398 39.2431 39.5312H39.0269C38.9188 40.0742 38.3783 40.4 38.2702 40.943C38.2702 41.1602 38.2702 41.2688 38.4864 41.3774C38.5945 41.486 38.8107 41.486 38.8107 41.3774C39.0269 40.943 39.3513 40.4 39.4594 40.0742ZM9.51342 25.0871C9.40531 25.3043 9.2972 25.7387 9.72964 25.5215C10.054 25.4129 10.4864 24.9785 10.4864 24.5441C10.4864 24.2183 9.94585 24.5441 9.72964 24.4355C9.40531 24.4355 9.1891 24.4355 8.86477 24.4355C8.64856 24.4355 8.43234 24.4355 8.32423 24.5441C8.21612 24.6527 8.32423 24.7613 8.43234 24.8699C8.64855 25.0871 8.86477 24.9785 9.08099 24.7613C9.18909 24.6527 9.40531 24.5441 9.51342 24.6527C9.51342 24.8699 9.51342 24.9785 9.51342 25.0871ZM8.64855 59.4054C8.32423 59.9484 8.32423 60.3828 8.21612 60.9258C8.10801 61.143 7.99991 61.3602 8.21612 61.5774C8.32423 61.686 8.43234 61.5774 8.54045 61.4688C8.75666 61.3602 9.08099 61.143 8.97288 60.8172C8.86477 60.3828 8.75666 59.9484 8.64855 59.4054ZM20.9729 71.6774C20.2161 71.6774 19.8918 70.4828 18.8107 71.0258C19.4594 71.5688 20.108 72.0032 20.9729 71.6774ZM4.97288 23.6753C5.40531 23.6753 5.94585 24.3269 6.27018 23.7839C6.48639 23.5667 6.16207 22.9151 5.83774 22.8065C5.2972 22.6979 5.40531 23.4581 4.97288 23.6753ZM26.5945 29.5398C26.4864 29.6484 26.4864 29.6484 26.3783 29.757C27.0269 30.5172 27.5675 31.2774 28.3242 32.1463C28.3242 30.7344 27.3513 30.3 26.5945 29.5398ZM42.2702 30.9516C42.2702 31.6032 42.1621 32.0377 42.1621 32.4721C42.1621 32.5807 42.1621 32.7979 42.2702 32.7979C42.4864 32.9065 42.4864 32.6893 42.5945 32.5807C43.135 32.2549 43.135 31.7118 42.2702 30.9516ZM55.135 57.1247C54.8107 56.3645 54.4864 55.8215 53.8377 55.4957C53.6215 55.3871 53.5134 55.2785 53.2972 55.4957C53.081 55.7129 53.2972 55.8215 53.5134 55.9301C54.054 56.2559 54.5945 56.6903 55.135 57.1247ZM47.7837 45.8301C47.7837 44.8527 47.4594 44.0925 47.2432 43.1151C46.8107 44.2011 47.2432 44.9613 47.7837 45.8301ZM64.2161 8.47098C64.108 8.14518 63.8918 7.81937 63.4594 7.71077C63.135 7.60217 62.9188 7.81937 62.9188 8.03658C62.9188 8.57959 63.3513 8.57959 63.6756 8.79679C63.8918 9.014 63.9999 8.79679 64.2161 8.47098ZM78.4864 38.6624C78.7026 37.3592 79.0269 36.1645 78.1621 34.9699C78.7026 36.1645 78.4864 37.3592 78.4864 38.6624ZM36.9729 48.5452C36.9729 48.871 36.8648 49.1968 37.1891 49.3054C37.1891 48.7624 38.054 49.0882 38.054 48.5452C38.054 48.0022 37.6215 48.1108 37.4053 48.0022C36.8648 48.0022 36.8648 48.328 36.9729 48.5452ZM63.8918 18.6796C63.3513 18.8968 63.2432 19.3312 63.2432 19.8742C63.2432 20.0914 63.3513 20.2 63.5675 20.3086C63.7837 20.3086 63.8918 20.2 63.8918 20.0914C63.8918 19.657 64.3242 19.2226 63.8918 18.6796ZM62.3783 8.57959C62.5945 8.90539 61.9459 9.55701 62.7026 9.77421C63.0269 9.88281 63.3513 9.77421 63.3513 9.4484C63.3513 8.79679 62.7026 8.79679 62.3783 8.57959ZM61.2972 77.9764C61.8377 78.4108 61.7296 79.4968 62.9188 79.6054C62.2702 78.8452 62.2702 77.9764 61.2972 77.9764ZM44.6486 35.0785C44.6486 35.6215 44.6486 36.0559 44.6486 36.3817C44.6486 36.5989 44.7567 36.7075 44.9729 36.7075C45.2972 36.7075 45.2972 36.5989 45.2972 36.3817C45.4053 35.8387 45.2972 35.4043 44.6486 35.0785ZM22.9188 26.9333C22.5945 26.6075 22.2702 26.1731 21.9459 25.8473C21.8377 25.7387 21.7296 25.7387 21.5134 25.7387C21.5134 25.7387 21.4053 25.8473 21.4053 25.9559C21.4053 26.4989 22.2702 27.042 22.9188 26.9333ZM65.2972 11.186C65.5134 10.4258 65.2972 9.88281 64.8648 9.3398C64.7567 9.2312 64.5404 9.1226 64.4323 9.2312C64.3242 9.3398 64.3242 9.4484 64.4323 9.55701C64.7567 10.1 64.9729 10.643 65.2972 11.186ZM63.8918 11.186C63.4594 11.186 63.5675 11.5118 63.5675 11.729C63.5675 11.9463 63.3513 12.3807 63.6756 12.4893C63.9999 12.5979 64.3242 12.1635 64.3242 11.8377C64.5404 11.5118 64.2161 11.2946 63.8918 11.186ZM44.108 51.3688C44.6486 51.1516 44.9729 50.9344 45.2972 50.8258C45.5134 50.7172 45.5134 50.6086 45.5134 50.3914C45.5134 50.1742 45.1891 50.2828 45.081 50.2828C44.5404 50.2828 44.3242 50.6086 44.108 51.3688ZM56.2161 2.60647C55.3513 2.60647 54.8107 2.93227 54.3783 3.80109C55.135 3.47529 55.7837 3.36668 56.2161 2.60647ZM8.32423 24.1097C8.64856 24.2183 8.97288 24.0011 9.2972 23.8925C9.2972 23.8925 9.40531 23.7839 9.40531 23.6753C9.40531 23.5667 9.2972 23.5667 9.1891 23.5667C8.75666 24.2183 8.43234 23.6753 7.99991 23.5667C7.8918 23.5667 7.67558 23.3495 7.56747 23.6753C7.56747 23.7839 7.67558 24.0011 7.78369 24.1097C7.8918 24.1097 8.10801 24.0011 8.32423 24.1097ZM29.6215 65.5957C29.6215 65.3785 29.7296 65.0527 29.4053 65.0527C29.081 65.0527 28.8648 65.3785 28.8648 65.5957C28.8648 65.8129 28.8648 66.2473 29.2972 66.2473C29.6215 66.2473 29.6215 65.9215 29.6215 65.5957ZM58.9188 53.6495C58.5945 53.4323 58.2702 53.6495 58.054 53.7581C57.8377 53.8667 57.5134 53.9753 57.5134 54.1925C57.5134 54.3011 57.6215 54.4097 57.7296 54.4097C58.054 54.4097 58.3783 54.5183 58.4864 54.1925C58.5945 53.9753 58.9188 53.8667 58.9188 53.6495ZM49.5134 66.4645C49.1891 65.8129 49.081 64.9441 48.108 64.5097C48.4323 65.4871 48.9729 65.9215 49.5134 66.4645ZM69.5134 48.6538C68.6486 48.7624 68.4323 49.414 67.9999 49.957C68.5405 49.6312 69.1891 49.414 69.5134 48.6538ZM52.8648 69.1796C52.7567 68.2022 52.4323 67.6592 51.5675 67.5506C51.7837 68.2022 52.3242 68.6366 52.8648 69.1796ZM18.1621 26.1731C17.9459 25.9559 17.8377 25.6301 17.5134 25.6301C17.2972 25.6301 17.081 25.8473 17.1891 26.1731C17.2972 26.4989 17.4053 26.8247 17.7296 26.8247C17.8377 26.8247 17.9459 26.3903 18.1621 26.1731ZM37.2972 73.7409C37.2972 74.2839 37.1891 74.6097 37.1891 74.8269C37.1891 75.0441 37.2972 75.2613 37.5134 75.2613C37.7296 75.2613 37.8377 75.0441 37.8377 74.8269C37.8377 74.5011 37.6215 74.1753 37.2972 73.7409ZM52.8648 69.7226C52.9729 70.7 53.4053 71.0258 54.054 71.4602C54.054 70.5914 53.5134 70.2656 52.8648 69.7226ZM45.2972 68.528C45.4053 68.3108 45.1891 68.0936 44.8648 67.985C44.5404 67.985 44.3242 68.2022 44.3242 68.4194C44.3242 68.7452 44.5404 69.071 44.9729 69.1796C45.2972 69.1796 45.1891 68.8538 45.2972 68.528ZM69.6215 28.5624C69.8377 28.4538 70.1621 28.2366 70.1621 27.9108C70.1621 27.6936 70.054 27.585 69.8377 27.585C69.4053 27.585 69.2972 27.9108 69.2972 28.2366C69.4053 28.3452 69.4053 28.5624 69.6215 28.5624ZM62.4864 19.3312C62.9188 19.114 63.135 18.8968 63.2432 18.571C63.3513 18.3538 63.5675 17.9194 63.2432 17.8108C62.9188 17.7022 62.8107 18.1366 62.7026 18.3538C62.5945 18.571 62.4864 18.8968 62.4864 19.3312ZM45.1891 14.2269C44.6486 14.7699 44.5404 15.0957 44.6486 15.8559C44.9729 15.3129 45.4053 14.9871 45.1891 14.2269ZM22.4864 71.1344C23.135 70.9172 23.7837 70.5914 24.108 70.0484C23.5675 70.2656 22.9188 70.4828 22.4864 71.1344ZM62.4864 3.69249C62.2702 3.47529 62.054 3.25808 61.6215 3.14948C61.5134 3.14948 61.2972 3.25808 61.2972 3.47529C61.4053 3.80109 61.7296 4.0183 62.054 4.0183C62.2702 4.0183 62.4864 3.90969 62.4864 3.69249ZM23.0269 69.5054C22.5945 69.1796 22.1621 69.071 21.9459 69.5054C21.8377 69.614 21.7296 69.9398 21.9459 70.0484C22.3783 70.157 22.5945 69.8312 23.0269 69.5054ZM36.9729 41.1602C37.5134 40.943 37.5134 40.4 37.6215 40.0742C37.5134 40.0742 37.2972 39.857 37.1891 39.9656C36.7567 40.2914 36.8648 40.7258 36.9729 41.1602ZM67.3513 49.5226C66.4864 49.414 66.4864 49.5226 66.4864 50.3914C66.9188 50.1742 67.135 49.8484 67.3513 49.5226ZM47.8918 53.5409C48.3242 53.8667 48.8648 53.8667 49.6215 53.8667C48.9729 53.4323 48.4323 53.5409 47.8918 53.5409ZM57.5134 73.3065C57.7296 73.3065 57.8377 73.1979 57.7296 73.0893C57.6215 72.7635 57.5134 72.3291 57.081 72.1118C56.9729 72.1118 56.8648 72.2204 56.8648 72.3291C57.081 72.6549 57.1891 73.0893 57.5134 73.3065ZM76.3242 34.8613C76.2161 34.6441 76.2161 34.2097 75.8918 34.2097C75.7837 34.2097 75.4594 34.3183 75.5675 34.5355C75.6756 34.7527 75.5675 35.1871 75.9999 35.1871C76.108 35.1871 76.3242 35.0785 76.3242 34.8613ZM36.3242 64.7269C36.5404 64.1839 36.8648 63.6409 36.7567 62.8807C36.108 63.5323 36.108 64.0753 36.3242 64.7269ZM62.1621 21.0688C62.2702 20.9602 62.3783 20.9602 62.4864 20.8516C62.7026 20.6344 62.8107 20.4172 62.7026 20.0914C62.7026 19.9828 62.4864 19.8742 62.4864 19.8742C62.1621 19.9828 62.3783 20.3086 62.1621 20.5258C62.054 20.743 62.054 20.8516 62.1621 21.0688ZM16.5404 25.1957C16.7567 25.0871 16.8648 25.0871 16.8648 24.8699C16.7567 24.5441 16.6486 24.3269 16.3242 24.3269C16.2161 24.3269 15.8918 24.4355 15.9999 24.6527C16.108 24.8699 16.2161 25.0871 16.5404 25.1957ZM52.4323 3.80109C52.108 4.4527 51.3513 4.4527 51.4594 5.32152C52.108 5.10432 52.3242 4.66991 52.4323 3.80109Z" fill="#2E2E2E"/>
<path d="M48.9729 15.0958C48.7567 14.4442 49.081 13.9012 49.5134 13.684C49.9458 13.3582 50.054 12.7066 50.4864 12.3807C50.9188 12.0549 50.4864 11.8377 50.2702 11.6205C51.4594 11.9463 51.5675 11.0775 51.6756 10.4259C51.7837 9.55709 52.6485 9.44849 53.081 8.79688C53.081 8.79688 53.2972 8.79688 53.4053 8.79688C53.5134 8.90548 53.5134 9.01408 53.4053 9.12268C51.7837 11.0775 50.2702 13.0324 48.9729 15.0958Z" fill="#2E2E2E"/>
<path d="M56.7568 8.57964C56.7568 8.03663 56.6487 7.60222 57.5135 7.71082C57.946 7.81943 58.0541 7.38502 58.0541 7.05921C58.1622 6.6248 58.3784 6.4076 58.9189 6.5162C58.4865 7.38502 57.7297 7.92803 57.1892 8.68824C56.973 9.01405 56.8649 8.57964 56.7568 8.57964Z" fill="#2E2E2E"/>
<path d="M59.5676 19.6569C60.1082 18.5709 60.4325 17.4849 61.5136 16.8333C61.0811 17.9193 60.3244 18.7881 59.5676 19.6569Z" fill="#2E2E2E"/>
<path d="M74.9188 41.4861C74.8107 41.8119 74.9188 42.2463 74.4864 42.3549C74.3783 42.0291 73.8377 42.2463 73.9459 41.8119C74.054 41.3775 74.1621 40.8345 74.7026 40.8345C75.0269 40.8345 74.8107 41.2689 74.9188 41.4861Z" fill="#2E2E2E"/>
<path d="M72.108 39.4227C71.8918 39.4227 71.7837 39.3141 71.8918 39.0969C71.8918 38.9883 71.9999 38.8797 72.108 38.6625C72.3242 38.2281 72.5404 37.7937 73.081 37.6851C73.1891 37.6851 73.4053 37.9023 73.2972 38.0109C72.7566 38.6625 72.4323 39.0969 72.108 39.4227Z" fill="#2E2E2E"/>
<path d="M72.7567 40.3999C72.5405 40.9429 72.1081 41.4859 72.973 41.7031C73.1892 41.7031 73.1892 41.9203 73.0811 42.1375C72.973 42.3547 72.7567 42.4633 72.5405 42.4633C72.3243 42.4633 72.4324 42.2461 72.4324 42.0289C72.1081 41.4859 71.8919 40.9429 72.7567 40.3999Z" fill="#2E2E2E"/>
<path d="M58.054 24.327C58.4864 23.5668 58.8107 22.8066 59.2432 21.9377C59.3513 23.0238 58.7026 23.6754 58.2702 24.4356C58.1621 24.4356 58.1621 24.327 58.054 24.327Z" fill="#2E2E2E"/>
<path d="M71.027 37.7935C70.9189 38.2279 70.7027 38.4451 70.4864 38.6623C70.2702 38.8795 69.5135 38.7709 70.1621 39.4225C70.2702 39.5311 70.054 39.6397 69.9459 39.6397C69.7297 39.7483 69.6216 39.5311 69.6216 39.4225C69.6216 38.9881 69.8378 38.7709 70.054 38.5537C70.2702 38.2279 70.5946 38.0107 71.027 37.7935Z" fill="#2E2E2E"/>
<path d="M64.1082 45.287C64.2163 44.744 64.6487 44.3096 64.973 43.9838C65.0811 43.8752 65.1892 43.658 65.4054 43.8752C65.5136 44.0924 65.4054 44.201 65.2973 44.3096C64.8649 44.6354 64.3244 44.8526 64.1082 45.287Z" fill="#2E2E2E"/>
<path d="M49.9459 42.3547C49.9459 42.7891 49.9459 43.2236 49.4053 43.3322C49.2972 43.3322 48.9729 43.3322 48.9729 43.115C48.9729 42.5719 49.7297 42.6805 49.9459 42.3547Z" fill="#2E2E2E"/>
<path d="M53.8378 45.2871C53.6216 45.2871 53.6216 45.1785 53.7297 45.1785C54.054 44.8527 53.8378 44.0925 54.4865 43.9839C54.4865 43.9839 54.7027 44.0925 54.5946 44.0925C54.5946 44.7441 54.054 44.9613 53.8378 45.2871Z" fill="#2E2E2E"/>
<path d="M66.5946 44.5269C66.4865 44.4183 66.2703 44.3097 66.2703 44.2011V43.9839C66.5946 43.9839 66.9189 43.7667 67.1351 43.4409C67.1351 43.4409 67.4595 43.4409 67.3513 43.5495C67.1351 43.9839 66.9189 44.3097 66.5946 44.5269Z" fill="#2E2E2E"/>
<path d="M61.6216 48.1108C61.8378 47.4591 62.2702 47.1333 62.9189 46.5903C62.5946 47.3505 62.1621 47.785 61.6216 48.1108Z" fill="#2E2E2E"/>
<path d="M56.7567 8.57959C56.6486 9.1226 56.6486 9.77421 55.8918 10.2086C56.3243 9.55701 55.6756 8.68819 56.7567 8.57959Z" fill="#2E2E2E"/>
<path d="M68.4324 42.2462C68.5405 41.486 69.1891 41.1602 69.4053 40.6172C69.5134 41.3774 68.9729 41.7032 68.4324 42.2462Z" fill="#2E2E2E"/>
<path d="M54.1622 7.05908C54.1622 7.71069 54.0541 8.0365 53.6217 8.1451C53.5136 8.1451 53.2974 8.1451 53.2974 7.9279C53.2974 7.38489 53.7298 7.38489 54.1622 7.05908Z" fill="#2E2E2E"/>
<path d="M28.2162 60.2742C27.7838 61.3602 27.4595 62.5548 27.027 63.6408C26.9189 63.858 27.2433 64.5097 26.8108 64.4011C26.3784 64.2924 26.7027 63.7494 26.8108 63.5322C27.1352 62.4462 27.4595 61.2516 28.2162 60.2742Z" fill="#2E2E2E"/>
<path d="M14.3783 62.3378C14.1621 61.5775 14.9188 61.1431 15.135 60.4915C15.2431 60.2743 15.4594 60.2743 15.6756 60.4915C15.7837 60.7087 15.6756 60.8173 15.5675 60.9259C15.2431 61.3603 14.8107 61.9033 14.3783 62.3378Z" fill="#2E2E2E"/>
<path d="M23.1353 63.858C23.1353 62.9891 23.3515 62.4461 24.0001 62.0117C24.0001 62.7719 23.6758 63.2063 23.1353 63.858Z" fill="#2E2E2E"/>
<path d="M13.5136 37.2504C13.0811 38.0107 12.6487 38.7709 12.1082 39.6397C12.2163 38.5537 12.7568 37.9021 13.1892 37.1418C13.4055 37.1418 13.5136 37.2504 13.5136 37.2504Z" fill="#2E2E2E"/>
<path d="M62.054 76.8903C62.2702 76.2387 62.054 75.4785 62.2702 74.7183C62.8107 75.3699 62.9188 76.0215 62.9188 76.6731C63.0269 77.6505 62.3783 76.6731 62.054 76.8903Z" fill="#2E2E2E"/>
<path d="M60.4325 69.1795C59.6757 68.7451 59.4595 67.9849 58.9189 67.3333C59.7838 67.5505 60.4325 68.4193 60.4325 69.1795Z" fill="#2E2E2E"/>
<path d="M53.8379 66.8989C54.7028 67.7677 55.2433 68.7452 56.0001 69.7226C55.2433 69.3968 54.7028 68.7452 53.8379 66.8989Z" fill="#2E2E2E"/>
<path d="M59.1353 69.8313C60.0001 70.3743 60.3244 71.4603 61.0812 72.2205C60.2163 71.5689 59.7839 70.5915 59.1353 69.8313Z" fill="#2E2E2E"/>
<path d="M38.1621 71.4602C38.5945 72.5462 38.9189 73.6322 39.4594 74.7183C38.5945 73.7409 38.2702 72.6548 38.1621 71.4602Z" fill="#2E2E2E"/>
<path d="M55.5676 64.5098C56.4325 65.27 56.7568 66.0302 57.1892 66.899C56.6487 66.2474 56.0001 65.5958 55.5676 64.5098Z" fill="#2E2E2E"/>
<path d="M38.7026 66.4646C39.1351 67.2248 39.1351 68.2022 39.5675 68.9625C38.8107 68.3108 39.027 67.2248 38.7026 66.4646Z" fill="#2E2E2E"/>
<path d="M56.9729 61.3601C57.2972 61.9031 57.7297 62.3375 58.054 62.8805C58.1621 62.9891 58.2702 63.2063 58.054 63.3149C57.9459 63.3149 57.6216 63.3149 57.6216 63.0977C57.5134 62.5547 57.081 62.1203 56.9729 61.3601Z" fill="#2E2E2E"/>
<path d="M55.6758 62.6633C56.3244 63.2063 56.6488 63.7494 56.7569 64.2924C56.2163 63.9666 55.7839 63.6407 55.6758 62.6633Z" fill="#2E2E2E"/>
<path d="M39.5677 71.3516C38.8109 71.0258 38.919 70.3742 38.7028 69.9398C38.5947 69.8312 38.7028 69.614 38.919 69.614C39.1352 69.614 39.2434 69.7226 39.1352 69.9398C38.919 70.4828 39.3515 70.8086 39.5677 71.3516Z" fill="#2E2E2E"/>
<path d="M42.4865 69.9397C42.7027 70.5913 42.7027 71.0257 42.3784 71.5687C42.4865 71.0257 42.0541 70.4827 42.4865 69.9397Z" fill="#2E2E2E"/>
<path d="M59.0271 64.8354C59.3514 64.8354 59.4595 65.1613 59.6757 65.1613C59.892 65.1613 60.0001 65.3785 60.0001 65.5957C60.0001 65.7043 59.892 65.9215 59.892 65.9215C59.6758 65.9215 59.5676 65.8129 59.3514 65.7043C59.2433 65.3785 59.0271 65.1613 59.0271 64.8354Z" fill="#2E2E2E"/>
</g>
<defs>
<clipPath id="clip0_2419_4216">
<rect width="80" height="101" fill="white"/>
</clipPath>
</defs>
</svg>
