<svg width="78" height="78" viewBox="0 0 78 78" fill="none" xmlns="http://www.w3.org/2000/svg">
<g clip-path="url(#clip0_2353_3576)">
<path d="M77.3 29.3C76.7 24.5 73.8 20.3 71.4 16.2C67.7 9.89998 62.1 5.49998 55.3 3.09998C46.1 -0.200022 35.5 -0.300022 26.2 2.59998C17.7 5.19998 12.8 9.79998 7.50003 16.5C7.50003 16.6 7.40002 16.6 7.40002 16.7C7.30002 16.8 7.30003 16.8 7.20003 16.9C-2.39997 30 -1.79997 48.9 7.90002 61.8C17.4 74.4 33.8 80.3 49.1 76.4C66 72 76 58.1 77.4 41.2C77.8 37.3 77.9 33.2 77.3 29.3ZM54 71.1C40.5 77.1 24.7 74.1 14.2 63.8C2.20003 52 0.100025 32.2 10.1 18.6C13.5 14.3 16.6 10.5 21.6 7.99998C29.1 4.29998 37.8 3.19998 46 4.29998C60.9 6.29998 73.9 18.1 74.3 33.8C74.7 49.4 69 64.4 54 71.1Z" fill="#2E2E2E"/>
<path d="M22.0001 39.3C22.9001 40.1 24.9001 39.8 25.0001 38.1C25.2001 34.6 30.3001 34.4 30.6001 38C30.8001 40.1 33.9001 40.2 34.0001 38C34.1001 33.2 33.0001 26.1 26.7001 26.1C24.3001 26.1 22.3001 27.8 21.4001 29.9C20.2001 32.6 20.7001 35.5 21.3001 38.3C21.4001 38.7 21.7001 39.1 22.0001 39.3Z" fill="#2E2E2E"/>
<path d="M45.0001 39.3C45.9001 40.1 47.9001 39.8 48.0001 38.1C48.2001 34.6 53.3001 34.4 53.6001 38C53.8001 40.1 56.9001 40.2 57.0001 38C57.1001 33.2 56.0001 26.1 49.7001 26.1C47.3001 26.1 45.3001 27.8 44.4001 29.9C43.2001 32.6 43.7001 35.5 44.3001 38.3C44.4001 38.7 44.7001 39.1 45.0001 39.3Z" fill="#2E2E2E"/>
<path d="M55.7001 48.2C46.2001 56.6 31.4001 56.9 21.6001 48.8C19.9001 47.4 17.5001 49.8 19.2001 51.2C30.5001 60.5 47.1001 60.3 58.1001 50.6C59.7001 49.1 57.3001 46.7 55.7001 48.2Z" fill="#2E2E2E"/>
</g>
<defs>
<clipPath id="clip0_2353_3576">
<rect width="78" height="78" fill="white"/>
</clipPath>
</defs>
</svg>
