<svg width="44" height="80" viewBox="0 0 44 80" fill="none" xmlns="http://www.w3.org/2000/svg">
<g clip-path="url(#clip0_2383_3324)">
<path d="M6.30009 21.7999C4.40009 20.4999 3.50009 18.5999 3.50009 16.3999C3.40009 14.2999 3.30009 12.0999 3.60009 9.99994C3.80009 7.89994 4.20009 5.69994 6.20009 4.39994C7.70009 3.49994 9.50009 2.89994 11.2001 2.39994C14.0001 1.59994 16.8001 0.999943 19.7001 0.699943C20.9001 0.499943 22.1001 0.599943 23.3001 0.699943C27.4001 1.19994 31.7001 0.999943 35.8001 1.99994C36.6001 2.19994 37.4001 2.39994 38.3001 2.89994C36.2001 3.09994 34.4001 2.89994 32.6001 2.39994C31.7001 2.19994 30.8001 2.19994 30.0001 2.09994C27.6001 1.69994 25.2001 1.79994 22.8001 1.49994C21.6001 1.39994 20.3001 1.89994 19.1001 2.19994C18.3001 2.49994 17.4001 2.29994 16.7001 2.19994C15.7001 2.09994 14.7001 2.09994 14.1001 2.49994C13.3001 3.19994 12.3001 2.69994 11.5001 3.09994C10.6001 3.59994 9.50009 3.89994 8.50009 4.19994C7.90009 4.39994 7.30009 4.79994 6.80009 4.99994C5.90009 5.39994 6.00009 6.29994 5.80009 6.99994C5.70009 7.49994 6.50009 7.79994 7.00009 7.99994C8.20009 8.49994 9.50009 8.79994 10.8001 8.99994C12.6001 9.39994 14.5001 9.49994 16.3001 9.49994C18.4001 9.49994 20.5001 9.89994 22.6001 10.0999C24.7001 10.3999 26.9001 10.1999 29.1001 9.99994C31.6001 9.69994 34.0001 9.29994 36.2001 8.09994C37.1001 7.59994 37.9001 7.09994 38.6001 6.39994C39.1001 5.79994 39.4001 5.29994 38.6001 4.79994C38.6001 4.79994 38.6001 4.69994 38.5001 4.69994C38.2001 4.29994 37.5001 3.79994 38.0001 3.39994C38.5001 2.99994 39.1001 3.39994 39.5001 3.89994C40.2001 4.69994 40.5001 5.49994 40.5001 6.59994C40.5001 9.29994 40.3001 11.8999 39.6001 14.4999C39.3001 15.6999 38.8001 16.6999 38.1001 17.6999C37.5001 18.5999 37.4001 19.7999 36.2001 20.3999C35.9001 20.4999 36.0001 20.8999 36.3001 21.0999C39.4001 23.7999 40.6001 27.4999 41.6001 31.2999C42.6001 35.1999 43.3001 39.1999 43.5001 43.1999C43.7001 46.3999 43.6001 49.6999 43.4001 52.8999C43.2001 55.4999 42.6001 58.0999 42.3001 60.7999C41.9001 64.4999 41.5001 68.1999 40.0001 71.6999C38.5001 75.2999 35.9001 77.7999 31.7001 78.1999C28.3001 78.5999 24.9001 78.8999 21.5001 79.0999C19.4001 79.1999 17.4001 79.3999 15.4001 78.9999C13.6001 78.5999 11.8001 78.4999 10.1001 78.0999C8.60009 77.6999 7.40009 76.6999 6.30009 75.5999C3.00009 72.3999 1.90009 68.2999 1.30009 63.8999C0.600088 58.5999 1.00009 53.1999 0.70009 47.8999C0.50009 44.3999 0.800089 40.8999 0.900089 37.3999C1.00009 33.6999 1.40009 30.0999 2.90009 26.6999C3.70009 24.9999 4.50009 22.9999 6.30009 21.7999ZM4.50009 9.89994C4.10009 11.3999 4.60009 12.7999 4.60009 14.1999C4.60009 14.6999 5.00009 14.4999 5.20009 14.5999C5.80009 14.8999 6.60009 14.4999 7.00009 15.3999C6.50009 15.4999 6.00009 15.4999 5.50009 15.2999C5.10009 15.1999 4.60009 14.9999 4.40009 15.5999C4.20009 16.1999 4.40009 16.5999 4.90009 16.8999C5.60009 17.2999 6.50009 17.1999 7.30009 17.8999C6.30009 18.0999 5.50009 18.0999 4.80009 17.7999C5.10009 18.9999 5.50009 19.8999 7.30009 19.0999C6.90009 19.5999 6.80009 19.6999 6.70009 19.8999C6.60009 20.0999 6.20009 19.8999 6.20009 20.2999C9.20009 22.1999 12.6001 22.2999 16.0001 21.9999C19.8001 21.5999 23.7001 21.6999 27.5001 21.1999C29.5001 20.9999 31.4001 20.3999 33.3001 20.5999C33.4001 19.9999 32.6001 20.2999 32.9001 19.7999C33.1001 19.3999 33.4001 19.4999 33.8001 19.4999C33.9001 19.4999 33.9001 19.5999 34.0001 19.5999C35.2001 19.9999 35.9001 19.6999 36.3001 18.4999C36.5001 18.0999 36.6001 17.5999 36.9001 17.0999C36.1001 17.1999 35.4001 17.6999 34.5001 17.3999C35.4001 16.7999 36.3001 16.2999 37.3001 16.1999C37.9001 16.0999 38.0001 15.6999 37.9001 15.3999C37.8001 14.8999 37.4001 15.1999 37.1001 15.1999C36.5001 15.2999 35.9001 15.6999 35.2001 15.4999C35.6001 14.8999 36.3001 14.6999 36.9001 14.6999C38.0001 14.6999 38.6001 14.1999 38.5001 12.9999C37.4001 13.3999 36.3001 13.4999 35.0001 13.2999C35.8001 12.6999 36.6001 12.7999 37.4001 12.5999C39.0001 12.0999 39.1001 12.0999 39.1001 10.1999C37.8001 10.9999 36.4001 11.4999 34.9001 11.5999C36.2001 10.4999 38.1001 10.3999 39.2001 8.99994C37.8001 9.49994 36.4001 10.1999 34.7001 10.2999C35.3001 9.59994 36.1001 9.59994 36.7001 9.29994C37.3001 8.89994 38.1001 8.99994 38.4001 7.89994C36.0001 9.29994 33.6001 10.3999 31.0001 10.7999C28.2001 11.1999 25.4001 11.4999 22.6001 11.1999C19.7001 10.7999 16.9001 10.5999 14.0001 10.3999C10.8001 10.1999 7.70009 10.0999 4.90009 8.19994C4.50009 8.69994 4.80009 9.39994 4.50009 9.89994ZM42.5001 47.9999C42.8001 45.0999 42.4001 42.1999 42.0001 39.1999C41.6001 35.6999 40.8001 32.1999 39.7001 28.7999C38.8001 25.9999 37.2001 23.6999 35.2001 21.6999C34.9001 21.4999 34.7001 21.2999 34.3001 21.3999C32.6001 21.7999 30.8001 21.4999 29.1001 21.9999C27.7001 22.3999 26.2001 22.3999 24.8001 22.4999C22.9001 22.5999 21.0001 22.4999 19.1001 22.6999C15.4001 23.1999 11.8001 23.2999 8.20009 22.3999C7.90009 22.2999 7.50009 22.2999 7.40009 22.5999C7.20009 23.1999 6.80009 23.2999 6.40009 23.4999C5.90009 23.7999 5.30009 24.0999 5.00009 24.4999C3.20009 27.0999 2.20009 30.0999 2.00009 33.1999C1.70009 37.1999 1.40009 41.1999 1.40009 45.1999C1.40009 46.7999 1.70009 48.3999 1.60009 49.9999C1.50009 52.5999 1.50009 55.0999 1.60009 57.6999C1.70009 59.7999 2.00009 61.8999 2.20009 63.9999C2.60009 68.1999 3.80009 72.0999 6.90009 75.0999C7.90009 76.0999 9.20009 77.0999 10.6001 77.2999C13.2001 77.6999 15.9001 78.1999 18.6001 78.2999C22.1001 78.3999 25.6001 77.7999 29.1001 77.6999C30.9001 77.5999 32.6001 77.3999 34.3001 76.6999C37.3001 75.4999 38.7001 72.8999 39.6001 69.9999C40.4001 67.3999 40.8001 64.6999 41.2001 61.9999C41.7001 57.3999 42.7001 52.7999 42.5001 47.9999Z" fill="#2E2E2E"/>
<path d="M32.1 72.3C32.5 72.2 32.7 72.4 32.9 72.6H34C34.3 71.5 34.8 70.5 34.9 69.3C35.1 67.5 35.5 65.7 35.5 63.9C35.6 62.9 35.5 61.9 35.7 60.9C35.9 60 35.5 60 34.9 60C33.7 60.1 32.5 60.4 31.3 60.4C28.5 60.3 25.7 60.4 22.9 60.6C19.5 60.8 16 61.3 12.6 60.8C11.6 60.6 10.5 60.7 9.40004 60.8C9.00004 60.8 8.40004 60.2 8.20004 61C8.10004 61.4 7.80004 61.8 7.80004 62.3C7.80004 64.1 8.00004 65.8 7.70004 67.6C7.50004 68.9 7.90004 70.3 7.90004 71.6C7.90004 71.9 8.20004 72 8.40004 72.1C9.60004 72.5 10.9 72.6 12.1 72.9C15 73.5 17.8 73.2 20.6 73.1C23.4 72.9 26.2 72.6 29.1 72.7C30.1 72.5 31.1 72.5 32.1 72.3ZM26.3 71.6C24.6 71.7 22.8 72.1 21.1 72C18.5 72 15.9 72.8 13.3 71.9C12.1 71.5 10.8 71.8 9.60004 71.3C9.00004 71.1 8.40004 70.9 9.40004 70.3C9.60004 70.2 9.60004 69.9 9.70004 69.7C10.1 70.1 10 71 10.6 70.9C11.1 70.8 10.5 70.3 10.7 70C11.3 69.9 11.9 69.8 12 70.7C12 70.8 12.1 70.8 12.1 70.9C12.3 71 12.6 70.9 12.5 70.8C11.5 69.9 15.1 70.7 13 69.6C11.9 69 12.5 68.1 12.2 67.4C12 66.8 11.9 66 13.1 66.2C12.8 65.6 11.8 65.9 11.8 65C11.8 64.5 11.6 64.2 12.3 64.2C12.5 64.2 12.7 64.2 12.8 64.1C13 64 13.4 64.2 13.4 63.8C13.4 63.4 13 63.5 12.7 63.5C12 63.4 11.1 63.9 10.6 62.9C10.5 62.7 10.2 63 10.2 63.2C10.1 63.5 10 63.6 9.70004 63.5C9.50004 63.4 9.10004 63.4 9.10004 63C9.10004 62.3 8.50004 61.5 10.2 61.6C13.1 61.9 16.1 61.6 19 61.6C21.9 61.6 24.8 61.3 27.7 61.3C29.6 61.3 31.5 61.2 33.5 61C34.2 61 34.4 61.1 34.3 61.8C34.2 62.7 34.1 63.7 34.3 64.6C34.6 66.1 33.6 67.3 33.3 68.7C33.2 69.3 32.4 69.1 31.7 68.9C32.4 70.1 32.3 70.3 31.2 71C29.7 72.1 28 71.5 26.3 71.6ZM9.30004 64.8C9.20004 64.6 9.50004 64.5 9.70004 64.5C10.1 64.5 10.1 64.8 10.1 65.1C10.1 65.4 10 65.8 9.70004 65.7C9.30004 65.6 9.40004 65.1 9.30004 64.8ZM10.6 68.6C10.7 68 10.7 67.5 10.7 66.9C10.7 66.7 10.8 66.5 11.1 66.5C11.2 66.6 11.3 66.8 11.3 66.9C11.4 67.4 11.4 68 11.6 68.5C11.7 68.8 11.9 69.1 11.3 69.1C10.8 69.2 10.5 69.2 10.6 68.6Z" fill="#2E2E2E"/>
<path d="M22.4 51.8C20.2 51.5 17.9 51.9 15.6 52.1C13.1 52.3 10.7 51.9 8.20004 51.8C7.90004 51.8 7.60004 51.7 7.70004 51.4C7.70004 51 8.10004 51 8.40004 51C8.90004 51.1 9.50003 51.2 10 51.3C13.5 51.7 16.9 51.3 20.4 51C20.8 51 21.3 50.9 21.7 50.9C25.4 51.4 28.9 50.8 32.5 50.2C33 50.1 33.4 50.2 33.9 50.1C34.1 50.1 34.5 50 34.5 50.3C34.6 50.7 34.2 50.9 33.9 50.9C31.3 51.1 28.7 51.6 26 51.8C24.9 51.9 23.8 51.8 22.4 51.8Z" fill="#2E2E2E"/>
<path d="M14.7 46.4C13.6 46.1 12.2 45.7 10.8 45.5C10.2 45.4 9.59995 45.3 8.99995 45.5C8.69995 45.6 8.49995 45.7 8.29995 45.4C8.19995 45.1 8.29995 44.7 8.59995 44.6C9.09995 44.4 9.49995 44.4 10.1 44.5C12.1 45 14.1 45.7 16.2 45.6C19.2 45.5 22.3 45.2 25.3 45C27 44.9 28.8 45 30.5 44.8C31.2 44.7 32 44.6 32.8 44.5C33.1 44.5 33.6 44.3 33.6 44.8C33.7 45.2 33.2 45.2 32.9 45.3C31.4 45.5 30 45.7 28.5 45.8C24.9 46 21.3 46 17.7 46.4C16.7 46.5 15.8 46.4 14.7 46.4Z" fill="#2E2E2E"/>
<path d="M4.6001 11.8C5.8001 11.4 6.9001 12 8.1001 12.1C8.3001 12.1 8.5001 12.2 8.4001 12.4C8.4001 12.6 8.2001 12.8 8.0001 12.7C6.9001 12.5 5.5001 13 4.6001 11.8Z" fill="#2E2E2E"/>
<path d="M7.80006 14.5C6.90006 15 6.20006 14.9 5.40006 15.1C5.20006 15.1 5.00006 15.1 4.90006 14.8C4.80006 14.6 5.00005 14.4 5.10005 14.4C6.00005 14.3 6.80006 14.2 7.80006 14.5Z" fill="#2E2E2E"/>
<path d="M25.1 35.6C24.2 35.2 24.2 35.8 24.2 36.5C24.2 37.2 24.2 38 24.7 38.6C25.1 39.1 24.7 39.3 24.3 39.3C23.2 39.4 22.2 39.7 21.1 39.9C20.5 40 20.4 39.6 20.5 39.2C20.6 38.4 20.3 37.6 20.3 36.8C20.3 36.3 20.1 36.2 19.6 36.3C18.7 36.5 17.8 36.6 16.8 36.5C15.9 36.4 15.6 36.1 15.6 35.2C15.6 34.4 16.2 33.5 15.2 32.8C14.9 32.6 15.3 32.3 15.7 32.2C16.8 32 17.9 31.7 19 31.7C19.6 31.7 19.6 31.5 19.6 31.1C19.4 29.9 19.9 28.8 19.4 27.6C19.3 27.2 19.4 26.7 19.9 26.9C20.9 27.1 21.7 26.8 22.7 26.7C23 26.7 23.3 26.6 23.6 26.7C24.1 26.7 24.4 26.9 24 27.4C23.6 28 23.6 28.6 23.5 29.3C23.3 30.3 23.9 30.8 24.9 30.6C25.8 30.4 26.8 30.3 27.7 30.2C28.3 30.2 28.7 30.6 28.3 31.2C27.8 31.8 28 32.4 28.1 33C28.4 34.7 27.6 35.8 25.8 35.8C25.6 35.6 25.4 35.6 25.1 35.6ZM21.7 38.8C22.2 38.5 22.9 38.8 23.2 38.5C23.4 38.1 23.2 37.5 23.2 37C23.2 36.6 23.3 36.3 23.3 35.9C23.2 34.6 24 34.5 25 34.4C27.2 34.3 27.3 34.1 27.1 31.9C27.1 31.3 26.8 31.1 26.4 31.3C25.4 31.8 24.3 30.8 23.2 31.5C23 31.6 22.8 31.3 22.7 31C22.3 29.8 22.5 28.6 22.9 27.5C21 27.1 20.5 27.6 20.5 29.4C20.5 30 20.5 30.5 20.6 31.1C20.8 31.9 20.5 32.5 19.6 32.7C18.9 32.9 18.2 32.8 17.5 33C16.5 33.3 16.8 34.1 16.8 34.8C16.8 35.6 17.5 35.3 17.9 35.3C18.8 35.1 19.8 35.2 20.7 35.3C21.3 35.4 21.4 35.6 21.4 36.1C21.5 37 21.6 37.9 21.7 38.8Z" fill="#2E2E2E"/>
</g>
<defs>
<clipPath id="clip0_2383_3324">
<rect width="44" height="80" fill="white"/>
</clipPath>
</defs>
</svg>
