<svg width="106" height="106" viewBox="0 0 106 106" fill="none" xmlns="http://www.w3.org/2000/svg">
<g clip-path="url(#clip0_2357_4230)">
<mask id="mask0_2357_4230" style="mask-type:alpha" maskUnits="userSpaceOnUse" x="12" y="9" width="74" height="87">
<path d="M53.8767 95.1891C30.4828 93.2748 10.2492 74.6891 12.3767 48.6891C14.0838 27.8275 26.8767 8.18909 54.8766 9.68903C45.6564 16.6521 38.8932 26.2674 37.8767 38.6891C35.9128 62.6891 48.3767 77.6891 75.3767 81.6891C78.4842 81.9434 82.9097 84.0929 85.8767 83.6891C77.6462 90.4587 65.337 96.1269 53.8767 95.1891Z" fill="#D9D9D9"/>
</mask>
<g mask="url(#mask0_2357_4230)">
<path d="M47.9766 11.1887C51.5764 10.2888 55.0769 10.0888 58.6768 10.6887C60.9765 10.9887 63.2764 10.8891 65.5762 10.5891C69.076 10.1892 72.3761 10.9892 75.376 12.8889C76.3757 13.4888 77.3762 13.9887 78.376 14.4886C81.8757 16.0884 84.9762 18.4888 87.876 20.9886C88.3759 21.3885 88.7764 21.9885 89.5762 21.6887C89.9761 21.4888 90.3768 21.7888 90.6768 22.1887C92.0767 23.6887 93.376 25.2893 94.376 27.0891C94.7759 27.8891 95.2767 28.389 95.9766 28.8889C98.0765 30.3889 99.6763 32.1892 99.2764 35.0891C99.1764 35.589 99.2767 36.1889 99.4766 36.6887C101.177 40.5887 102.276 44.5894 102.776 48.7893C102.777 49.2884 103.176 49.3887 103.376 49.4886C104.076 49.9885 104.476 50.589 104.576 51.3889C104.876 53.8889 105.076 56.2888 104.076 58.6887C103.676 59.5886 104.076 60.7886 103.477 61.1887C102.677 61.6887 102.176 62.3886 101.576 62.9886C101.276 63.2885 101.077 63.6892 100.977 64.0891C100.577 67.1889 98.9766 69.6889 97.1768 72.1887C95.9768 73.7887 95.176 75.6892 93.876 77.0891C93.0764 77.989 93.4759 78.8892 92.876 79.5891C91.9762 80.6889 91.1765 81.9887 90.1768 82.9886C88.6768 84.3885 87.0761 85.3893 85.0762 85.7893C84.0763 85.9893 82.8759 86.2894 82.376 87.5891C82.0758 88.2888 80.9763 88.2894 80.2764 88.7893C79.6764 89.1892 78.9762 89.3892 78.2764 89.5891C74.4765 90.5891 70.8766 91.9894 67.1768 93.2893C66.6769 93.4893 66.0764 93.689 65.1768 93.2893C65.7767 92.3895 66.6764 92.389 67.2764 91.7893C67.0762 91.3895 66.2769 91.1884 66.6768 90.4886C67.0767 89.8889 67.6769 89.5892 68.4766 89.5891C72.6764 89.4891 76.4763 88.2886 80.0762 86.1887C80.9762 85.6888 81.5762 84.8885 82.0762 83.9886C82.9761 82.0887 84.0769 80.3889 85.6768 78.8889C87.1766 77.4891 88.7769 76.8891 90.6768 76.5891C91.3765 76.4891 91.7768 76.289 92.1768 75.5891C93.0767 73.8892 94.6768 72.6885 95.6768 70.9886C96.7767 69.0888 98.1768 67.3891 99.1768 65.2893C99.8768 63.6893 100.076 62.2891 99.376 60.5891C97.9761 56.9892 98.1768 53.3885 100.177 49.9886C100.677 49.1887 100.776 48.389 100.376 47.5891C99.9761 46.8892 99.876 46.0889 99.876 45.3889C99.7759 43.289 98.8762 41.3889 98.5762 39.3889C98.3762 38.2891 98.0763 37.289 97.7764 36.0891C95.8765 36.9889 94.6765 35.4887 93.4766 34.6887C92.1767 33.8888 91.1767 32.6889 90.6768 31.0891C90.3768 29.7892 90.0763 28.4887 89.7764 27.1887C89.5765 26.289 89.6771 25.4891 90.6768 25.0891C90.8766 24.9891 91.0763 24.789 90.9766 24.5891C90.8765 24.3893 90.6759 24.289 90.376 24.3889C89.6763 24.7885 89.3759 24.2892 88.876 23.7893C86.0761 20.7895 83.0765 17.9891 79.1768 16.5891C78.4768 16.2892 77.6761 16.0891 77.0762 15.5891C75.7762 14.5894 74.2761 14.6886 73.0762 15.4886C71.7763 16.2884 70.3765 16.2893 68.9766 16.2893C66.3768 16.3893 63.7766 16.189 61.6768 14.2893C61.4768 14.0895 61.1761 13.9889 61.0762 13.8889C60.7761 12.4893 59.6766 12.5891 58.6768 12.5891C55.7768 12.4891 52.9761 11.8891 50.0762 12.0891C47.6764 12.1892 45.676 13.0892 43.5762 14.0891C43.3764 14.1892 43.1763 14.3886 42.9766 14.4886C40.4766 17.5885 36.9759 19.0893 33.376 19.7893C29.7764 20.3895 27.976 22.7895 26.0762 25.2893C25.2763 26.3892 24.7759 27.5893 23.876 28.5891C22.9763 29.5891 22.8762 30.9891 21.7764 31.8889C21.4766 32.089 21.6764 32.589 21.7764 32.8889C22.4764 37.5889 21.9766 42.1893 19.4766 46.2893C18.6766 47.5892 17.9759 48.8888 17.376 50.1887C17.276 50.4887 17.1762 50.7891 17.0762 51.0891C16.5762 54.789 16.6766 58.4893 17.9766 62.0891C18.2765 62.8888 18.6767 63.4887 19.2764 63.9886C20.6761 64.8884 21.5763 66.2887 22.5762 67.4886C23.3761 68.4885 23.9767 69.7892 24.1768 71.0891C24.4768 72.8888 25.4759 74.2889 25.876 75.9886C25.976 76.4885 26.2767 77.0891 26.1768 77.5891C25.8768 78.789 26.5767 79.2894 27.4766 79.7893C28.3764 80.1893 29.1766 80.8892 30.2764 80.7893C30.8763 80.6893 31.5759 81.0893 31.876 81.5891C33.1759 83.489 35.2762 84.0893 37.0762 85.0891C40.476 87.089 44.2761 88.4892 47.876 90.0891C48.9758 90.5891 49.8761 90.5887 50.876 89.8889C52.6759 88.689 54.6765 88.0893 56.7764 87.7893C59.5762 87.4894 64.0761 89.2888 65.7764 91.4886C63.5765 93.2884 60.8766 93.6886 58.1768 93.9886C55.7768 94.1886 53.2763 94.4887 50.7764 93.6887C49.8765 93.3888 49.1765 93.1886 48.9766 92.1887C48.8765 91.689 48.5763 91.5891 48.2764 91.5891C46.9765 91.789 45.9763 91.1887 44.7764 90.6887C43.2766 90.0889 41.6765 89.689 40.1768 89.0891C36.5768 87.5892 33.0763 85.7887 29.7764 83.6887C28.9765 83.0888 28.1765 82.4886 27.4766 81.6887C25.9766 80.089 23.9762 79.4892 22.2764 78.2893C21.1765 77.4894 20.4765 76.5888 19.9766 75.3889C19.0766 73.089 17.9762 70.7889 17.5762 68.3889C17.2762 67.0891 16.5762 65.7888 17.376 64.3889C17.776 64.1889 17.476 64.0889 17.376 63.8889C14.7763 60.2891 14.6768 56.2889 15.1768 52.0891C15.1768 51.1892 15.4759 50.3893 14.376 49.7893C13.6766 49.3893 13.776 48.4891 13.876 47.7893C14.176 45.7894 14.5766 43.8885 14.9766 41.9886C15.6766 39.0888 16.9763 36.4884 18.5762 33.9886C19.076 33.2886 19.0767 31.9897 20.376 32.0891C20.376 32.0891 20.4763 31.8895 20.4766 31.7893C20.7766 29.7894 21.776 27.6885 23.376 25.9886C24.876 24.3886 26.2766 22.7885 27.4766 20.9886C27.5766 20.7886 27.7768 20.4888 27.9766 20.4886C28.9762 20.0886 29.1767 19.2891 29.1768 18.2893C29.1768 17.5895 29.3767 17.1893 29.9766 16.7893C31.5765 15.6894 33.0764 14.5887 34.7764 13.6887C36.8761 12.5889 39.0762 12.2889 41.376 11.8889H41.5762C43.8761 13.0889 45.8766 11.6888 47.9766 11.1887ZM53.4766 90.8889C52.9766 91.2888 52.0766 91.3893 52.2764 92.0891C52.4764 92.7889 53.1765 92.5889 53.7764 92.3889C53.6764 91.889 53.5765 91.4889 53.4766 90.8889ZM60.876 90.5891C58.7763 90.5891 56.6765 90.5895 54.6768 91.2893C56.4767 92.8888 59.7758 92.4887 60.876 90.5891ZM62.376 91.1887C61.9766 91.0892 61.8766 91.2893 61.6768 91.5891C61.6769 91.6866 61.7717 91.7845 61.7764 91.7893C62.0763 91.9892 62.2766 91.7885 62.4766 91.4886C62.4762 91.3887 62.376 91.2886 62.376 91.1887ZM63.1768 86.2893C62.6768 87.0892 62.0765 86.9893 61.4766 86.7893C61.9765 86.3894 62.4768 86.1894 63.1768 86.2893ZM63.6768 85.4895C64.2767 84.5896 64.6767 84.2896 65.4766 84.4895C65.0766 84.8894 64.5765 85.2896 63.6768 85.4895ZM90.6768 78.6887C88.8768 79.5887 87.1761 80.5894 85.5762 81.7893C85.2763 81.9894 84.9763 82.3895 84.7764 82.7893C84.5766 83.0891 84.4768 83.3892 84.7764 83.5891C84.9762 83.789 85.2764 83.889 85.5762 83.7893C85.9761 83.5894 86.4763 83.389 86.7764 83.0891C88.4763 81.8892 89.6766 80.1889 91.4766 78.8889C90.8775 78.6893 90.7766 78.6887 90.6768 78.6887ZM58.4766 83.3889C58.8765 82.789 59.2772 82.3888 60.0771 82.6887C59.5771 83.1887 59.1766 83.4889 58.4766 83.3889ZM70.1768 81.8889C69.4768 82.3889 69.2767 82.8893 68.3769 82.4895C68.8769 82.0895 69.3768 81.8889 70.1768 81.8889ZM51.7764 71.6897C51.0764 72.5892 50.0769 72.6898 49.0771 73.4895C49.2769 73.5896 49.4768 73.789 49.7764 73.8889C50.5762 74.3889 50.5769 74.9892 50.0771 75.5891C49.5771 76.2891 49.7763 77.1889 49.2764 77.8889C48.3764 78.9889 47.5769 80.0893 46.8769 81.2893C46.5769 81.7893 46.1766 82.1889 45.4766 81.8889C45.2769 81.3891 45.6764 80.989 45.7764 80.5891C46.2764 79.1891 46.2764 79.1895 44.7764 78.9895C44.6765 78.9893 44.5765 78.8892 44.3769 78.6897C44.9769 78.1898 45.2765 77.4897 46.2764 77.9895C46.6762 78.1895 47.1762 77.8894 47.2764 77.4895C47.4763 76.7897 47.6767 76.0895 47.0771 75.4895C46.6771 75.0895 46.2764 74.8897 45.7764 75.1897C44.3765 75.8895 42.7762 76.1891 41.7764 77.3889C41.6766 77.2889 41.5773 77.0895 41.5771 76.9895C41.5771 76.8895 41.6769 76.5898 41.3769 76.6897C41.277 76.6897 41.0772 76.8892 41.0771 77.0891C41.0771 77.489 41.4764 77.389 41.7764 77.3889C41.6764 78.3889 42.3769 79.1897 42.3769 80.1897C42.3771 80.5892 42.5768 80.5891 42.9766 80.5891C43.8766 80.5891 43.9769 81.3893 44.8769 81.7893C43.5771 82.3893 42.4771 82.0897 41.5771 82.4895C41.4772 82.5895 41.277 82.3894 41.0771 82.2893C39.5771 81.0893 38.9764 78.7889 39.7764 76.8889C40.5764 74.889 41.7772 73.4893 44.0771 73.2893C45.2768 73.1891 46.0767 72.0897 47.2764 71.9895C47.3761 72.5893 46.5766 72.5893 46.4766 73.0891C46.4766 73.2891 46.5765 73.3896 46.7764 73.4895C47.5764 73.5895 48.1769 73.4893 48.8769 72.7893C49.4769 72.0894 50.4766 71.5898 51.7764 71.6897ZM52.9766 79.7893C53.1766 80.6893 51.8764 80.6896 52.2764 81.4895C52.2759 81.5896 51.8767 81.7895 51.6768 81.6897C51.4768 81.5897 51.3766 81.3891 51.4766 81.0891C51.6766 80.1894 52.2767 79.9893 52.9766 79.7893ZM83.2764 78.5891C83.4763 77.9892 83.7765 77.8896 84.2764 77.9895C84.3763 78.0895 84.4763 78.1893 84.2764 78.2893C83.9766 78.4895 83.8766 79.0887 83.3769 78.8889C83.2769 78.8889 83.2764 78.6891 83.2764 78.5891ZM25.1768 76.7893C24.677 77.3891 24.4768 77.8888 24.7764 78.4886C25.4761 78.0886 25.3767 77.4891 25.1768 76.7893ZM19.4766 67.7893C19.3767 68.589 19.5761 69.389 19.876 70.1887C20.3759 71.2887 20.9767 72.3889 21.1768 73.6887C21.2767 74.6886 21.7766 75.5887 22.7764 76.4886C22.3763 73.0889 21.3763 70.1891 19.4766 67.7893ZM35.7764 74.8889C35.7764 74.589 35.9765 74.1896 36.2764 74.2893C37.1764 74.8893 37.9769 74.0889 38.8769 74.3889C37.9769 74.8889 37.1764 75.2893 36.2764 75.2893C35.9765 75.2893 35.7764 75.1888 35.7764 74.8889ZM88.4766 74.1887C88.6765 74.2887 88.9768 74.2893 88.8769 74.5891C88.8769 74.7891 88.6766 74.9891 88.4766 75.0891C88.0767 75.0891 87.9766 74.7891 87.9766 74.5891C87.8767 74.2893 88.1766 74.1888 88.4766 74.1887ZM53.5771 72.3889C54.0769 72.0888 54.377 71.3895 55.1768 71.7893C54.7768 72.4892 54.177 72.4889 53.5771 72.3889ZM48.8769 70.8889C48.777 71.5889 48.4769 71.7893 47.8769 71.7893C47.7771 71.7893 47.6771 71.5897 47.7764 71.4895C47.9764 70.9895 48.3769 70.8889 48.8769 70.8889ZM45.3769 70.4895C45.4768 71.6892 44.6763 71.5897 43.7764 71.6897C44.1764 70.8897 44.8769 70.8895 45.3769 70.4895ZM45.3769 70.4895C45.8768 70.4894 46.1767 69.7896 46.7764 70.0891C46.4764 70.7889 45.9768 70.5895 45.3769 70.4895ZM86.7764 69.4895C87.0764 69.3895 87.2768 69.6895 87.1768 69.9895C87.077 70.1896 87.1761 70.5891 86.7764 70.5891C86.5766 70.5889 86.4766 70.3886 86.4766 70.1887C86.4765 69.8889 86.377 69.4898 86.7764 69.4895ZM50.5771 69.5891C50.777 69.5891 50.9768 69.5892 50.8769 69.8889C50.677 70.0888 50.577 70.3886 50.2773 70.3889C50.0773 70.3889 49.9766 70.2891 49.9766 70.0891C50.0766 69.7891 50.2771 69.5891 50.5771 69.5891ZM60.5771 68.3889C59.8771 68.8889 59.5766 69.3889 58.9766 69.3889C59.2765 68.589 59.2772 68.5889 60.5771 68.3889ZM92.3769 68.4895C92.4769 68.4897 92.5768 68.5895 92.6768 68.7893C92.6768 68.8894 92.6765 69.0898 92.4766 69.1897C92.1768 69.2895 92.0771 69.0889 92.0771 68.8889C92.0772 68.6891 92.177 68.5895 92.3769 68.4895ZM53.8769 67.7893C53.5769 68.4893 53.1766 68.6897 52.4766 68.6897C52.6766 67.9897 53.0769 67.7893 53.8769 67.7893ZM25.5771 58.5891C26.9769 57.9894 28.4764 58.4894 29.2764 59.8889C29.7763 60.8889 29.9769 61.6892 29.8769 63.0891C29.9769 64.3891 29.4764 65.7897 28.7764 67.1897C28.0763 68.6893 26.6768 68.9888 25.3769 67.8889C24.477 67.089 23.9769 66.0889 23.8769 64.8889C23.777 64.0891 23.7768 63.2893 23.3769 62.4895C22.7769 61.2895 24.0771 59.2891 25.5771 58.5891ZM53.2764 66.3889C52.7764 67.0888 52.7767 67.0891 51.5771 67.3889C52.077 66.6893 52.6766 66.4889 53.2764 66.3889ZM56.0771 66.2893C55.4772 66.8893 55.4767 66.8891 54.3769 67.3889C54.9767 66.5893 54.9773 66.5893 56.0771 66.2893ZM25.7764 61.4895C25.676 61.4898 25.3769 61.5899 25.3769 61.6897C25.077 63.0896 24.8772 64.3898 25.5771 65.6897C25.9771 66.3892 26.5773 66.3894 27.0771 65.6897C27.5771 64.9897 27.8764 64.1893 27.7764 63.2893C27.7764 63.0896 27.677 63.0891 27.5771 63.0891C27.3772 63.4891 27.3768 63.9893 26.8769 64.2893C26.6769 63.3893 26.5769 62.6889 26.3769 61.8889C26.2769 61.5891 26.0763 61.4895 25.7764 61.4895ZM56.9766 64.2893C57.1765 64.3893 57.1771 64.5894 57.0771 64.7893C56.7772 65.1893 56.3769 65.2891 55.8769 65.0891C56.077 64.4894 56.5766 64.3893 56.9766 64.2893ZM59.8769 62.9895C59.177 63.7895 58.6764 64.2891 57.7764 64.0891C58.2764 63.3891 58.8769 63.0895 59.8769 62.9895ZM65.5771 63.5891C65.7771 63.2892 66.077 62.8898 66.3769 63.1897C66.5763 63.4894 66.1768 63.5898 65.8769 63.6897C65.777 63.7895 65.6771 63.689 65.5771 63.5891ZM61.6768 61.9895C61.7767 61.6896 61.9765 61.5895 62.2764 61.7893C62.4764 61.8893 62.9764 61.8893 62.7764 62.2893C62.7761 62.4892 62.4766 62.5891 62.1768 62.5891C61.8769 62.4892 61.6769 62.2893 61.6768 61.9895ZM27.3769 59.5891C26.4769 58.9891 25.8764 59.2895 25.2764 59.9895C26.2764 60.4895 27.1771 60.8889 28.0771 61.3889C28.4768 60.4892 28.0768 59.9891 27.3769 59.5891ZM101.977 51.8889C101.677 51.9889 101.576 51.9886 101.576 51.9886C101.476 52.0885 101.376 52.2887 101.276 52.4886C100.576 54.1885 100.576 55.9894 100.876 57.7893C100.976 58.3892 100.677 59.3882 101.576 59.4886C102.276 59.5886 102.377 58.5886 102.677 57.9886C102.777 57.7884 102.776 57.3889 102.776 57.0891C102.776 55.2892 102.577 53.5889 101.977 51.8889ZM33.4766 57.7893C33.6765 57.6893 33.9765 57.7892 33.9766 58.0891C34.0765 58.389 33.7771 58.2892 33.5771 58.3889C33.3771 58.3889 32.9766 58.4887 32.9766 58.1887C32.9775 58.0886 33.2769 57.8892 33.4766 57.7893ZM90.1768 57.5891C90.3767 57.4892 90.5771 57.5894 90.5771 57.7893C90.4771 57.9893 90.2768 58.1893 90.1768 58.2893L89.7764 58.0891C89.7764 57.7892 89.8768 57.6891 90.1768 57.5891ZM28.4766 55.1887C28.4769 54.6893 29.0767 54.5889 29.4766 54.6887C29.7766 54.6887 30.2766 54.5895 30.4766 54.9895C30.1766 55.3891 29.7765 55.3896 29.4766 55.4895C29.0766 55.5896 28.5765 55.7885 28.4766 55.1887ZM25.3769 55.0891C25.4769 54.9892 25.5768 54.9892 25.6768 55.0891C25.6768 55.1891 25.5771 55.1893 25.5771 55.2893H25.2773C25.1773 55.2893 25.2769 55.1891 25.3769 55.0891ZM19.9766 54.4895C20.0766 54.4895 20.1768 54.5897 20.1768 54.6897C20.1768 54.7895 20.1769 54.8897 20.0771 54.9895C19.9771 54.8895 19.8764 54.6891 19.7764 54.5891C19.7764 54.4893 19.7768 54.4895 19.9766 54.4895ZM102.977 50.5891C102.777 51.7888 103.076 52.4889 103.576 53.4886C103.876 51.7891 103.876 51.7889 102.977 50.5891ZM29.3769 36.5891C29.777 36.1895 30.677 37.0896 30.8769 37.9895C31.1769 39.4894 31.1765 40.9897 30.9766 42.4895C30.7766 43.8894 30.4767 45.1896 30.1768 46.4895C29.7768 47.7892 29.0768 48.8888 28.0771 49.6887C26.5771 50.8887 25.1771 50.4887 24.5771 48.6887C23.6772 45.9888 23.377 43.2891 24.3769 40.5891C24.6769 39.8892 24.5765 39.0892 24.7764 38.2893C24.7764 38.0894 24.9765 37.8891 25.2764 37.8889C25.6763 37.8889 25.6771 38.2892 25.5771 38.5891C24.7862 41.2586 25.8506 43.8301 25.4883 46.4973C25.5298 46.4905 25.5948 46.4895 25.6768 46.4895C25.7768 45.3895 25.9771 44.2887 26.0771 43.1887C26.0772 42.0889 26.2768 41.0888 26.6768 39.8889C27.2767 40.5889 26.6768 41.4889 27.4766 41.8889L27.3769 42.1887C26.477 41.9887 26.5771 42.5891 26.5771 43.0891C26.5771 43.5891 26.3769 44.1891 26.8769 44.5891C27.1765 44.8889 26.777 44.989 26.6768 45.1887C26.3768 45.6887 26.4768 46.0891 26.6768 46.5891C26.7768 46.9891 27.0771 47.3889 27.5771 47.3889C28.0769 47.3888 28.4768 47.089 28.6768 46.5891C28.7767 46.1891 28.7769 45.7889 28.8769 45.3889C28.9769 44.8891 29.0762 44.3894 28.7764 43.9895C28.4764 43.4895 28.0768 44.1889 27.6768 43.8889C27.5767 43.789 27.3767 43.6891 27.1768 43.5891C27.7768 42.9892 29.0764 43.0889 28.7764 41.8889C28.4765 40.589 28.8764 38.9895 26.9766 38.4895C27.2766 37.1895 28.6769 37.2891 29.3769 36.5891ZM26.5771 48.2893C26.3771 48.2893 26.2768 48.2895 26.1768 48.4895C26.0769 48.6892 26.0768 48.789 26.2764 48.8889C26.4764 48.8889 26.6764 48.8887 26.7764 48.6887C26.7762 48.4892 26.677 48.3892 26.5771 48.2893ZM15.376 45.0891C14.7761 46.3889 14.7765 47.0896 15.2764 48.7893C16.5763 47.4894 15.1762 46.2891 15.376 45.0891ZM20.1768 35.1887C19.5769 34.989 19.1763 35.489 18.7764 35.8889C18.3765 36.2888 18.2767 36.6889 18.1768 37.1887C17.7768 39.1887 17.3762 41.1894 17.0762 43.2893C16.8762 44.4892 16.8763 45.7893 16.7764 47.0891C17.4763 47.0891 17.5768 46.6886 17.6768 46.4886C18.7767 43.1888 20.0766 40.0889 20.4766 36.5891C20.5766 36.0892 20.9764 35.4888 20.1768 35.1887ZM20.6768 45.2893C20.7766 45.1894 20.8767 45.0893 20.9766 45.1887C21.1766 45.3887 21.3763 45.589 21.2764 45.8889C21.2764 45.9889 21.0766 45.9889 20.9766 45.8889L20.6768 45.2893ZM47.8769 44.9895C47.5769 45.8893 46.9765 45.5895 46.4766 45.4895C46.9766 45.5895 47.2769 45.0895 47.8769 44.9895ZM73.1768 44.4895C73.6767 44.5895 73.8769 44.8892 73.8769 45.5891C73.277 45.2892 73.5766 44.7895 73.1768 44.4895ZM71.9766 42.3889C72.4766 42.4889 72.6773 42.8891 72.7773 43.5891C72.2773 43.1891 71.9766 42.8889 71.9766 42.3889ZM28.6768 38.5891C28.5768 39.4891 28.9768 39.8895 29.6768 40.4895C29.4768 39.6895 29.8769 39.2889 29.8769 38.8889C29.577 38.589 29.1767 38.7891 28.6768 38.5891ZM84.4766 36.3889C84.1767 36.9887 83.577 36.989 83.0771 37.1887C83.2773 36.6893 83.8768 36.6888 84.4766 36.3889ZM92.376 26.8889C92.176 26.7889 91.8763 26.589 91.7764 26.6887C91.4766 26.7888 91.3768 27.0889 91.4766 27.4886C91.4766 27.6884 91.5761 27.9887 91.5762 28.1887C91.9761 29.9887 94.7765 33.5887 96.4766 34.3889H97.0762C96.3762 32.3891 95.5764 30.689 94.4766 29.0891C93.8766 28.1892 93.1759 27.5889 92.376 26.8889ZM63.9766 32.7893C64.1766 32.2893 64.4771 32.0889 65.0771 32.3889C64.7771 32.6889 64.4766 32.9893 63.9766 32.7893ZM70.3769 29.4895C70.5769 29.4895 70.7764 29.4898 70.7764 29.6897C70.7762 29.9894 70.5762 30.0898 70.2764 30.1897C70.1764 30.0897 69.9769 30.0889 69.8769 29.8889C69.8772 29.6891 70.0771 29.4895 70.3769 29.4895ZM27.9766 25.8889C27.7766 26.4889 27.3766 26.8893 26.4766 26.7893C27.0765 26.3894 27.4767 26.0889 27.9766 25.8889ZM51.8769 23.5891C52.5767 24.089 52.7764 24.5889 52.4766 25.1887C52.4766 25.2887 52.2768 25.2893 52.1768 25.2893C51.6768 24.8893 51.8769 24.2891 51.8769 23.5891ZM70.3769 22.8889C70.6769 22.6891 70.9766 22.7898 70.9766 23.1897C70.9767 23.3896 71.0771 23.5898 71.0771 23.6897C70.9898 23.8645 70.9784 23.9627 70.9101 23.9846L70.9365 23.9739C70.9833 23.9458 71.0022 23.8889 71.0771 23.8889C71.6772 24.2888 72.8771 23.8894 72.5771 25.2893C71.7772 25.1893 71.077 24.9892 70.8769 23.9895C70.677 23.7896 70.477 23.6894 70.3769 23.4895C70.1769 23.2895 70.1769 23.0889 70.3769 22.8889ZM86.6768 23.8889C87.1768 24.0889 87.3764 24.3893 87.2764 24.7893C87.2761 24.8893 87.0765 24.9889 86.9766 24.8889C86.6767 24.6889 86.5768 24.3888 86.6768 23.8889ZM85.8769 22.1887C86.5767 22.2887 86.8768 22.4892 86.8769 23.1887C86.2769 23.0887 85.9769 22.7887 85.8769 22.1887ZM32.0762 17.4886C31.7764 17.4888 31.5759 17.6891 31.376 17.8889C31.376 17.8889 31.4763 18.0885 31.5762 18.0891C31.7762 18.1891 32.1764 18.2889 32.2764 17.8889C32.2764 17.689 32.2761 17.4886 32.0762 17.4886ZM40.2764 13.8889C37.6764 13.6891 34.8761 15.2894 33.0762 17.7893C35.5761 17.4893 39.3763 15.2889 40.2764 13.8889ZM47.4766 14.2893C46.4768 15.0892 45.6769 15.4895 44.5771 15.1897C45.477 14.7898 46.2767 14.2894 47.4766 14.2893ZM49.2764 14.5891C49.4764 14.5891 49.5771 14.6893 49.5771 14.7893C49.4772 14.9892 49.3769 15.1886 49.0771 15.1887C48.9772 15.1887 48.6771 15.189 48.7764 14.9895C48.8763 14.7896 49.0765 14.6891 49.2764 14.5891ZM63.4766 13.7893C64.8765 14.7891 66.677 15.0887 68.6768 14.6887C66.8769 14.6887 65.1764 14.0893 63.4766 13.7893ZM71.4766 13.3889C69.1766 11.7891 67.0763 11.489 64.7764 12.3889C66.8763 13.4889 68.8767 13.8889 71.4766 13.3889Z" fill="black"/>
<path d="M69.5478 2.03205C73.1477 1.13206 76.648 0.932053 80.248 1.53205C82.5478 1.83202 84.8475 1.73239 87.1474 1.43244C90.6474 1.03244 93.9481 1.83224 96.9481 3.73224C97.9481 4.33221 98.9482 4.83285 99.9481 5.33283C103.448 6.93283 106.548 9.33293 109.448 11.8328C109.948 12.2328 110.348 12.8318 111.147 12.532C111.547 12.3321 111.948 12.6322 112.248 13.032C113.648 14.532 114.948 16.1324 115.948 17.9324C116.348 18.7323 116.848 19.2323 117.548 19.7322C119.648 21.2322 121.248 23.0325 120.848 25.9324C120.748 26.4323 120.848 27.0321 121.048 27.532C122.748 31.432 123.848 35.4326 124.348 39.6326C124.348 40.1325 124.748 40.2328 124.948 40.3328C125.648 40.8327 126.047 41.4326 126.147 42.2322C126.447 44.7322 126.647 47.1321 125.647 49.532C125.247 50.432 125.647 51.6319 125.048 52.032C124.248 52.532 123.747 53.2328 123.147 53.8328C122.848 54.1328 122.648 54.5326 122.548 54.9324C122.148 58.0323 120.548 60.5322 118.748 63.032C117.548 64.632 116.748 66.5325 115.448 67.9324C114.648 68.8323 115.048 69.7325 114.448 70.4324C113.548 71.5324 112.748 72.8328 111.748 73.8328C110.248 75.2328 108.647 76.2326 106.647 76.6326C105.648 76.8326 104.448 77.1328 103.948 78.4324C103.648 79.1324 102.548 79.1326 101.848 79.6326C101.248 80.0325 100.547 80.2325 99.8476 80.4324C96.0477 81.4324 92.4478 82.8327 88.748 84.1326C88.248 84.3326 87.6479 84.5325 86.748 84.1326C87.3479 83.2327 88.2476 83.2325 88.8476 82.6326C88.6476 82.2327 87.8482 82.0327 88.248 81.3328C88.6479 80.7328 89.2478 80.4324 90.0478 80.4324C94.2477 80.3324 98.0474 79.132 101.647 77.032C102.547 76.5321 103.147 75.7327 103.647 74.8328C104.547 72.9328 105.648 71.2322 107.248 69.7322C108.748 68.3324 110.348 67.7324 112.248 67.4324C112.948 67.3324 113.348 67.1324 113.748 66.4324C114.648 64.7326 116.248 63.5327 117.248 61.8328C118.348 59.9328 119.748 58.2326 120.748 56.1326C121.448 54.5326 121.648 53.1324 120.948 51.4324C119.548 47.8325 119.748 44.2328 121.748 40.8328C122.248 40.0329 122.348 39.2324 121.948 38.4324C121.548 37.7324 121.448 36.9322 121.448 36.2322C121.348 34.1323 120.447 32.2322 120.147 30.2322C119.947 29.1324 119.648 28.1323 119.348 26.9324C117.448 27.8323 116.248 26.332 115.048 25.532C113.748 24.732 112.748 23.5323 112.248 21.9324C111.948 20.6325 111.648 19.332 111.348 18.032C111.148 17.1323 111.248 16.3324 112.248 15.9324C112.448 15.8324 112.648 15.6324 112.548 15.4324C112.448 15.2326 112.248 15.1325 111.948 15.2322C111.248 15.6322 110.948 15.1326 110.448 14.6326C107.648 11.6327 104.648 8.83245 100.748 7.43244C100.048 7.13244 99.2474 6.93244 98.6474 6.43244C97.3474 5.43269 95.8473 5.53289 94.6474 6.33283C93.3475 7.13255 91.9476 7.13263 90.5478 7.13263C87.9478 7.23263 85.3479 7.03251 83.248 5.13263C83.048 4.93263 82.7474 4.83224 82.6474 4.73224C82.3473 3.33269 81.2478 3.43243 80.248 3.43244C77.348 3.33244 74.5474 2.73244 71.6474 2.93244C69.2476 3.03253 67.2472 3.9325 65.1474 4.93244C64.9475 5.03249 64.7477 5.23288 64.5478 5.33283C62.0478 8.4326 58.548 9.93262 54.9481 10.6326C51.3481 11.2326 49.5474 13.6326 47.6474 16.1326C46.8475 17.2325 46.3479 18.4326 45.4481 19.4324C44.5481 20.4324 44.4476 21.8322 43.3476 22.7322C43.0477 22.9322 43.2475 23.4322 43.3476 23.7322C43.549 25.0848 43.6501 26.4293 43.6337 27.7557C43.0381 28.1436 42.2475 28.2764 42.0487 29.3328C42.9545 29.6252 43.2175 30.2937 43.33 31.0584C43.1408 32.1239 42.859 33.1713 42.4755 34.1961C42.3786 34.2632 42.288 34.3389 42.2118 34.4324C42.2591 34.4614 42.3052 34.4923 42.3505 34.5213C42.2299 34.8246 42.1 35.1256 41.9608 35.4246C41.5623 35.0247 41.7226 34.4295 41.7226 33.9324C41.7226 33.4325 41.6413 32.8321 42.3749 33.032L42.456 32.7322C41.8044 32.3321 42.2936 31.4321 41.8046 30.7322C41.4786 31.9321 41.3154 32.9322 41.3153 34.032C41.2368 35.0914 41.084 36.1514 40.9999 37.2108C40.975 37.2514 40.9504 37.2922 40.9257 37.3328C40.8873 37.3334 40.8563 37.3359 40.8339 37.3406C40.9944 35.8914 40.8142 34.4706 40.7167 33.0467C41.3129 31.2302 41.8235 29.3947 42.0478 27.4324C42.1478 26.9325 42.5479 26.332 41.748 26.032C41.148 25.8321 40.7476 26.3322 40.3476 26.7322C39.9477 27.1321 39.8479 27.5323 39.748 28.032C39.348 30.032 38.9474 32.0326 38.6474 34.1326C38.4474 35.3326 38.4475 36.6325 38.3476 37.9324C39.0473 37.9324 39.148 37.5329 39.248 37.3328C39.3341 37.0745 39.4226 36.8175 39.5106 36.5613C39.601 37.3797 39.7551 38.1981 39.9579 39.0164C39.5944 39.6882 39.2582 40.3603 38.9481 41.032C38.8481 41.332 38.7474 41.6324 38.6474 41.9324C38.2034 45.218 38.2348 48.5031 39.1571 51.7186C38.9675 52.2954 38.9267 52.8728 39.1142 53.3328C39.4401 54.1326 39.4399 54.9325 39.5214 55.7322C39.6029 56.932 40.0106 57.9323 40.744 58.7322C40.8361 58.8278 40.9314 58.9106 41.0243 58.9852C41.0105 59.6675 41.1923 60.3497 41.4481 61.032C41.9481 62.1319 42.5479 63.2322 42.748 64.532C42.848 65.532 43.3476 66.4328 44.3476 67.3328C43.9836 64.239 43.1206 61.5606 41.537 59.2947C42.3346 59.61 43.0871 59.1614 43.5165 58.033C43.5608 57.9244 43.6013 57.8144 43.6435 57.7059C43.8107 57.9182 43.9772 58.1287 44.1474 58.3328C44.9474 59.3328 45.5479 60.6325 45.748 61.9324C46.048 63.7324 47.0481 65.1328 47.4481 66.8328C47.5482 67.3327 47.8479 67.9326 47.748 68.4324C47.448 69.6324 48.1478 70.1326 49.0478 70.6326C49.9477 71.0326 50.7477 71.7325 51.8476 71.6326C52.1033 71.59 52.3774 71.6379 52.6308 71.7459C52.8566 72.2839 53.1652 72.7611 53.5438 73.1326C53.7067 73.2327 53.8696 73.4326 53.9511 73.3328C54.0099 73.3008 54.0699 73.2737 54.1308 73.2498C55.414 74.5328 57.1355 75.0926 58.6474 75.9324C62.0474 77.9324 65.8481 79.3324 69.4481 80.9324C70.548 81.4323 71.4482 81.4322 72.4481 80.7322C74.248 79.5325 76.2478 78.9326 78.3476 78.6326C81.1476 78.3326 85.6476 80.1328 87.3476 82.3328C85.1476 84.1326 82.4478 84.5328 79.748 84.8328C77.348 85.0328 74.8476 85.332 72.3476 84.532C71.4477 84.2321 70.7477 84.0319 70.5478 83.032C70.4477 82.5325 70.1475 82.4324 69.8476 82.4324C68.5477 82.6323 67.5475 82.032 66.3476 81.532C64.8477 80.9321 63.2478 80.5324 61.748 79.9324C58.148 78.4324 54.6476 76.632 51.3476 74.532C50.5477 73.9321 49.7476 73.3319 49.0478 72.532C47.5478 70.9323 45.5475 70.3326 43.8476 69.1326C42.7476 68.3327 42.0477 67.4322 41.5478 66.2322C40.6478 63.9323 39.5473 61.6322 39.1474 59.2322C38.8473 57.9324 38.1482 56.6321 38.9481 55.2322C39.3476 55.0324 39.0481 54.9322 38.9481 54.7322C36.3482 51.1322 36.248 47.1324 36.748 42.9324C36.748 42.0326 37.0477 41.2326 35.9481 40.6326C35.2482 40.2326 35.3481 39.3326 35.4481 38.6326C35.7481 36.6327 36.1478 34.7327 36.5478 32.8328C37.2477 29.933 38.5475 27.3327 40.1474 24.8328C40.6474 24.1328 40.6481 22.8324 41.9481 22.9324C41.9518 22.9252 42.0477 22.7308 42.0478 22.6326C42.3478 20.6326 43.3481 18.5328 44.9481 16.8328C46.4481 15.2329 47.8478 13.6327 49.0478 11.8328C49.1477 11.6328 49.3478 11.3329 49.5478 11.3328C50.5477 10.9328 50.7479 10.1326 50.748 9.13263C50.748 8.43267 50.9478 8.03262 51.5478 7.63263C53.1478 6.53263 54.6476 5.43205 56.3476 4.53205C58.4476 3.43205 60.6482 3.13224 62.9481 2.73224H63.1474C65.4474 3.93224 67.4478 2.53205 69.5478 2.03205ZM75.0478 81.7322C74.5478 82.1322 73.6477 82.2326 73.8476 82.9324C74.0475 83.6324 74.7476 83.4322 75.3476 83.2322C75.2476 82.7324 75.1477 82.3321 75.0478 81.7322ZM82.4481 81.4324C80.3482 81.4324 78.2479 81.4327 76.248 82.1326C78.048 83.7325 81.3482 83.3324 82.4481 81.4324ZM83.9481 82.032C83.5482 81.9321 83.4479 82.1325 83.248 82.4324C83.248 82.531 83.3447 82.6297 83.3476 82.6326C83.6475 82.8326 83.8478 82.6327 84.0478 82.3328C84.0478 82.2328 83.9481 82.132 83.9481 82.032ZM71.5595 77.1326C71.1519 77.9324 70.6628 77.8326 70.1737 77.6326C70.5813 77.2327 70.989 77.0328 71.5595 77.1326ZM71.9677 76.3328C72.4568 75.4329 72.7824 75.1329 73.4345 75.3328C73.1085 75.7327 72.701 76.1329 71.9677 76.3328ZM112.248 69.532C110.448 70.432 108.747 71.4326 107.147 72.6326C106.847 72.8327 106.547 73.2328 106.348 73.6326C106.148 73.9325 106.048 74.2325 106.348 74.4324C106.547 74.6323 106.848 74.7324 107.147 74.6326C107.547 74.4327 108.048 74.2324 108.348 73.9324C110.048 72.7324 111.248 71.0322 113.048 69.7322C112.448 69.5324 112.348 69.532 112.248 69.532ZM67.7284 74.2322C68.0545 73.6324 68.381 73.2331 69.0331 73.533C68.6255 74.033 68.299 74.3322 67.7284 74.2322ZM77.2665 72.7322C76.6959 73.2322 76.5324 73.7328 75.7987 73.3328C76.2063 72.9328 76.6143 72.7322 77.2665 72.7322ZM62.2665 62.533C61.6959 63.4329 60.8805 63.5329 60.0653 64.3328C60.2282 64.4328 60.3913 64.6323 60.6356 64.7322C61.2877 65.2322 61.2882 65.8325 60.8808 66.4324C60.4732 67.1323 60.6357 68.0323 60.2284 68.7322C59.4947 69.8322 58.842 70.9326 58.2714 72.1326C58.0269 72.6325 57.7013 73.032 57.1308 72.7322C56.9679 72.2323 57.2934 71.8324 57.3749 71.4324C57.7825 70.0326 57.7823 70.0328 56.5595 69.8328C56.478 69.8327 56.3961 69.7328 56.2333 69.533C56.7224 69.0331 56.9671 68.3331 57.7821 68.8328C58.1082 69.0328 58.5159 68.7327 58.5976 68.3328C58.7606 67.6328 58.9236 66.9328 58.4345 66.3328C58.1084 65.9328 57.7825 65.733 57.3749 66.033C56.2337 66.7329 54.9293 67.0326 54.1142 68.2322C54.0327 68.1323 53.9512 67.9328 53.9511 67.8328C53.9511 67.7328 54.0326 67.433 53.788 67.533C53.7065 67.533 53.5439 67.7325 53.5438 67.9324C53.5438 68.3324 53.8696 68.2322 54.1142 68.2322C54.0326 69.2322 54.6034 70.033 54.6034 71.033C54.6035 71.4326 54.7667 71.4324 55.0927 71.4324C55.826 71.4327 55.9079 72.2327 56.6415 72.6326C55.6666 73.1846 54.8297 72.9756 54.1308 73.2498C53.8863 73.0054 53.6562 72.7364 53.4481 72.4324C53.276 72.1455 52.9719 71.8914 52.6308 71.7459C52.1272 70.5465 52.0331 69.0439 52.4833 67.7322C53.1355 65.7324 54.1142 64.3326 55.9892 64.1326C56.9673 64.0326 57.6194 62.933 58.5976 62.8328C58.6789 63.4326 58.0268 63.4326 57.9452 63.9324C57.9452 64.1324 58.0273 64.2328 58.1903 64.3328C58.8424 64.4328 59.3317 64.3326 59.9022 63.6326C60.3914 62.9327 61.2068 62.433 62.2665 62.533ZM63.244 70.6326C63.4071 71.5326 62.3476 71.5328 62.6737 72.3328C62.6734 72.4329 62.3474 72.633 62.1845 72.533C62.0215 72.433 61.9399 72.2324 62.0214 71.9324C62.1844 71.0328 62.6736 70.8326 63.244 70.6326ZM46.748 67.6326C46.248 68.2326 46.0476 68.7328 46.3476 69.3328C47.0475 68.9329 46.9479 68.3326 46.748 67.6326ZM49.2226 65.7322C49.2226 65.4323 49.3863 65.0327 49.6308 65.1326C50.3643 65.7321 51.0163 64.9324 51.7499 65.2322C51.0164 65.7321 50.3643 66.1325 49.6308 66.1326C49.3862 66.1326 49.2226 66.0322 49.2226 65.7322ZM92.1845 65.033C92.3475 65.133 92.5921 65.1326 92.5106 65.4324C92.5106 65.6324 92.3475 65.8324 92.1845 65.9324C91.8586 65.9323 91.7772 65.6324 91.7772 65.4324C91.6958 65.1326 91.94 65.0331 92.1845 65.033ZM63.7333 63.2322C64.1409 62.9322 64.3858 62.2326 65.038 62.6326C64.7119 63.3326 64.2224 63.3322 63.7333 63.2322ZM59.9022 61.7322C59.8207 62.4322 59.5759 62.6326 59.0868 62.6326C59.0053 62.6324 58.9243 62.4328 59.0058 62.3328C59.1688 61.8328 59.4946 61.7322 59.9022 61.7322ZM57.0487 61.3328C57.1302 62.5326 56.4777 62.433 55.744 62.533C56.0701 61.7331 56.6411 61.7327 57.0487 61.3328ZM57.0487 61.3328C57.4563 61.3328 57.7012 60.6324 58.1903 60.9324C57.9458 61.6324 57.5379 61.4328 57.0487 61.3328ZM90.7987 60.3328C91.0433 60.2328 91.2064 60.5328 91.1249 60.8328C91.0436 61.0329 91.1246 61.4324 90.7987 61.4324C90.6358 61.4323 90.5546 61.232 90.5546 61.032C90.5545 60.7321 90.4729 60.3329 90.7987 60.3328ZM61.288 60.4324C61.451 60.4324 61.6144 60.4326 61.5331 60.7322C61.3701 60.9321 61.2881 61.232 61.0438 61.2322C60.8808 61.2322 60.7987 61.1324 60.7987 60.9324C60.8802 60.6325 61.0435 60.4325 61.288 60.4324ZM69.4403 59.2322C68.8697 59.7322 68.6248 60.2322 68.1356 60.2322C68.3802 59.4324 68.3806 59.4322 69.4403 59.2322ZM95.3642 59.3328C95.4456 59.3329 95.5268 59.4328 95.6083 59.6326C95.6083 59.7326 95.6083 59.933 95.4452 60.033C95.201 60.1326 95.119 59.9321 95.119 59.7322C95.1191 59.5325 95.2012 59.4328 95.3642 59.3328ZM63.9784 58.6326C63.7339 59.3326 63.4075 59.533 62.8368 59.533C62.9999 58.833 63.3262 58.6326 63.9784 58.6326ZM41.0478 58.6326C41.2188 58.8487 41.3803 59.0705 41.537 59.2947C41.3666 59.2274 41.1961 59.1231 41.0243 58.9852C41.0267 58.8677 41.0331 58.7501 41.0478 58.6326ZM63.4892 57.2322C63.0816 57.9322 63.0814 57.9323 62.1034 58.2322C62.511 57.5325 63.0001 57.3322 63.4892 57.2322ZM65.7714 57.1326C65.2824 57.7325 65.2823 57.7323 64.3856 58.2322C64.8746 57.4326 64.875 57.4325 65.7714 57.1326ZM40.9071 49.4324C42.0483 48.8325 43.2715 49.3325 43.9237 50.7322C44.3313 51.7322 44.4945 52.5326 44.413 53.9324C44.4882 55.1316 44.1447 56.415 43.6435 57.7059C43.2252 57.1751 42.804 56.632 42.3388 56.1258C42.6153 55.5269 42.7673 54.8634 42.7011 54.1326C42.7011 53.9326 42.6195 53.9324 42.538 53.9324C42.375 54.3324 42.3751 54.8326 41.9677 55.1326C41.8046 54.2326 41.7225 53.5322 41.5595 52.7322C41.4779 52.4326 41.3147 52.3328 41.0702 52.3328C40.9883 52.3331 40.744 52.4332 40.744 52.533C40.6244 53.2177 40.5247 53.8786 40.5204 54.5272C40.0969 54.0901 39.7893 53.5766 39.5478 52.9324C39.4021 52.5292 39.2735 52.1242 39.1571 51.7186C39.4622 50.7907 40.1531 49.8642 40.9071 49.4324ZM40.5204 54.5272C40.6228 54.6329 40.7307 54.7355 40.8476 54.8328C41.4139 55.1969 41.8964 55.6445 42.3388 56.1258C42.2747 56.2645 42.2074 56.4014 42.1308 56.533C41.7232 57.2329 41.2332 57.2328 40.9071 56.533C40.6156 55.869 40.516 55.2045 40.5204 54.5272ZM66.5058 55.1326C66.6685 55.2327 66.6683 55.4327 66.5868 55.6326C66.3423 56.0326 66.0159 56.1324 65.6083 55.9324C65.7714 55.3326 66.1797 55.2326 66.5058 55.1326ZM68.869 53.8328C68.2985 54.6326 67.8907 55.1324 67.1571 54.9324C67.5647 54.2326 68.0541 53.9329 68.869 53.8328ZM73.5165 54.4324C73.6795 54.1325 73.9244 53.7331 74.1688 54.033C74.3312 54.3326 74.0051 54.4331 73.7606 54.533C73.6792 54.6325 73.5979 54.5323 73.5165 54.4324ZM70.3368 52.8328C70.4183 52.5328 70.5815 52.4326 70.8261 52.6326C70.9892 52.7326 71.3963 52.7327 71.2333 53.1326C71.2332 53.3324 70.9894 53.4323 70.745 53.4324C70.5006 53.3325 70.3369 53.1326 70.3368 52.8328ZM42.3749 50.4324C41.6413 49.8326 41.1521 50.1329 40.663 50.8328C41.478 51.3327 42.2117 51.7324 42.9452 52.2322C43.2712 51.3324 42.9455 50.8324 42.3749 50.4324ZM123.548 42.7322C123.248 42.8322 123.147 42.8328 123.147 42.8328C123.047 42.933 122.947 43.1331 122.848 43.3328C122.148 45.0327 122.148 46.8328 122.448 48.6326C122.548 49.2326 122.248 50.2326 123.147 50.3328C123.847 50.4328 123.948 49.4329 124.248 48.8328C124.348 48.6328 124.348 48.2324 124.348 47.9324C124.348 46.1325 124.148 44.4322 123.548 42.7322ZM47.3476 48.6326C47.5106 48.5326 47.7557 48.6325 47.7558 48.9324C47.8372 49.2323 47.5926 49.1326 47.4296 49.2322C47.2666 49.2322 46.9407 49.3325 46.9403 49.033C46.9403 48.9331 47.1845 48.7327 47.3476 48.6326ZM93.5702 48.4324C93.7333 48.3324 93.8964 48.4326 93.8964 48.6326C93.8149 48.8326 93.6517 49.0326 93.5702 49.1326C93.4072 49.0327 93.244 48.9324 93.244 48.9324C93.2441 48.6327 93.3259 48.5324 93.5702 48.4324ZM43.2714 46.032C43.2717 45.5326 43.7608 45.4322 44.0868 45.532C44.3314 45.532 44.7392 45.4328 44.9022 45.8328C44.6577 46.2326 44.3313 46.2328 44.0868 46.3328C43.7608 46.4329 43.3529 46.6319 43.2714 46.032ZM40.745 45.9324C40.8265 45.8327 40.9077 45.8326 40.9892 45.9324C40.9892 46.0324 40.9071 46.0326 40.9071 46.1326H40.663C40.5816 46.1326 40.6635 46.0324 40.745 45.9324ZM36.3427 45.3328C36.4241 45.3332 36.5058 45.4332 36.5058 45.533C36.5058 45.6329 36.5051 45.733 36.4237 45.8328C36.3422 45.7329 36.2611 45.5325 36.1796 45.4324C36.1796 45.3326 36.1797 45.3328 36.3427 45.3328ZM124.548 41.4324C124.348 42.6324 124.647 43.3328 125.147 44.3328C125.447 42.6328 125.448 42.6324 124.548 41.4324ZM44.0058 27.4324C44.332 27.0331 45.0654 27.933 45.2284 28.8328C45.4729 30.3327 45.4725 31.8329 45.3095 33.3328C45.1464 34.7327 44.9017 36.0329 44.6571 37.3328C44.331 38.6326 43.7603 39.7321 42.9452 40.532C41.7224 41.732 40.5818 41.332 40.0927 39.532C40.046 39.3601 40.0005 39.1884 39.9579 39.0164C40.2616 38.4551 40.5847 37.8942 40.9257 37.3328C40.9451 37.3326 40.9664 37.3328 40.9892 37.3328C40.9922 37.2922 40.9967 37.2514 40.9999 37.2108C41.0158 37.1847 41.0317 37.1587 41.0478 37.1326C41.3893 36.5726 41.6919 36.0023 41.9608 35.4246C41.9632 35.427 41.9653 35.4301 41.9677 35.4324C42.2118 35.732 41.8865 35.8324 41.8046 36.032C41.56 36.532 41.6415 36.9324 41.8046 37.4324C41.8861 37.8324 42.1304 38.2322 42.538 38.2322C42.9456 38.2322 43.2714 37.9324 43.4345 37.4324C43.516 37.0325 43.516 36.6322 43.5976 36.2322C43.679 35.7325 43.7607 35.2327 43.5165 34.8328C43.2719 34.3328 42.9451 35.0322 42.619 34.7322C42.5611 34.6614 42.4612 34.5922 42.3505 34.5213C42.3935 34.4132 42.4348 34.3047 42.4755 34.1961C43.0001 33.8328 43.723 33.7452 43.5165 32.7322C43.415 32.1925 43.4098 31.6014 43.33 31.0584C43.3841 30.7538 43.4303 30.4478 43.4696 30.1404C43.5759 30.5971 43.8545 30.917 44.2499 31.3328C44.0869 30.5328 44.413 30.1322 44.413 29.7322C44.1905 29.4594 43.9013 29.5975 43.5438 29.4744C43.5973 28.9054 43.6266 28.3323 43.6337 27.7557C43.771 27.6662 43.8988 27.5636 44.0058 27.4324ZM41.7226 39.1326C41.5596 39.1326 41.4779 39.1329 41.3964 39.3328C41.315 39.5326 41.3155 39.6323 41.4784 39.7322C41.6414 39.7322 41.8042 39.7319 41.8856 39.532C41.8855 39.3324 41.804 39.2326 41.7226 39.1326ZM36.9481 35.9324C36.3481 37.2324 36.3476 37.9326 36.8476 39.6326C38.0619 38.4183 36.9203 37.2911 36.9276 36.1697C37.0041 36.3573 37.0807 36.5447 37.1571 36.7322C37.2387 36.8322 37.4022 36.8322 37.4022 36.7322C37.4836 36.4324 37.3201 36.232 37.1571 36.032C37.0813 35.9396 37.0054 36.0199 36.9296 36.1121C36.9321 36.0523 36.9382 35.9923 36.9481 35.9324ZM40.663 28.7322C40.989 28.7323 40.9886 29.1325 40.9071 29.4324C40.6127 30.6514 40.6348 31.8501 40.7167 33.0467C40.3327 34.2166 39.9167 35.3798 39.5106 36.5613C39.3219 34.8517 39.4134 33.1421 39.9296 31.4324C40.1741 30.7325 40.0927 29.9326 40.2558 29.1326C40.2558 28.9326 40.4184 28.7322 40.663 28.7322ZM59.0868 35.8328C58.8422 36.7325 58.3528 36.4328 57.9452 36.3328C58.3528 36.4328 58.5978 35.9329 59.0868 35.8328ZM79.7118 35.3328C80.1194 35.4328 80.2821 35.7326 80.2821 36.4324C79.7936 36.1324 80.0378 35.6327 79.7118 35.3328ZM36.9296 36.1121C36.9288 36.1313 36.9278 36.1505 36.9276 36.1697C36.9226 36.1574 36.918 36.1449 36.913 36.1326C36.9185 36.1258 36.9241 36.1189 36.9296 36.1121ZM78.7333 33.2322C79.1409 33.3322 79.3041 33.7325 79.3856 34.4324C78.9781 34.0325 78.7333 33.7322 78.7333 33.2322ZM43.5438 29.4744C43.5229 29.6971 43.498 29.9191 43.4696 30.1404C43.4225 29.9381 43.4094 29.7088 43.4345 29.4324C43.4712 29.4505 43.5085 29.4623 43.5438 29.4744ZM113.948 17.7322C113.748 17.6323 113.448 17.4323 113.348 17.532C113.048 17.6321 112.948 17.9329 113.048 18.3328C113.048 18.5327 113.147 18.8321 113.147 19.032C113.547 20.832 116.348 24.4321 118.048 25.2322H118.647C117.947 23.2324 117.148 21.5323 116.048 19.9324C115.448 19.0325 114.748 18.4322 113.948 17.7322ZM72.2118 23.6326C72.3748 23.1328 72.6195 22.9327 73.1083 23.2322C72.8637 23.5322 72.6194 23.8326 72.2118 23.6326ZM42.8642 16.7322C42.7011 17.3322 42.3751 17.7325 41.6415 17.6326C42.1306 17.2327 42.4566 16.9322 42.8642 16.7322ZM62.3476 14.4324C62.9181 14.9323 63.0812 15.4322 62.8368 16.032C62.8368 16.1319 62.6743 16.1326 62.5927 16.1326C62.1851 15.7326 62.3476 15.1324 62.3476 14.4324ZM90.7177 14.7322C91.1252 14.9322 91.2875 15.2327 91.206 15.6326C91.2058 15.7326 91.0433 15.8322 90.9618 15.7322C90.7174 15.5322 90.6362 15.2321 90.7177 14.7322ZM90.0653 13.033C90.6358 13.133 90.8808 13.3331 90.8808 14.033C90.3918 13.9331 90.1469 13.6327 90.0653 13.033ZM53.6474 8.33283C53.3478 8.33302 53.1479 8.53245 52.9481 8.73224C52.9481 8.73224 53.0475 8.93186 53.1474 8.93244C53.3474 9.03244 53.7476 9.13224 53.8476 8.73224C53.8476 8.53234 53.8473 8.33283 53.6474 8.33283ZM61.8476 4.73224C60.7261 4.64603 59.5673 4.89474 58.4677 5.40607C58.5631 5.32088 58.6611 5.23029 58.7606 5.13263C57.7825 5.13268 57.1301 5.63304 56.3964 6.03303C56.6971 6.13364 56.9702 6.15279 57.2313 6.10724C56.26 6.76343 55.3726 7.62542 54.6474 8.63263C57.1474 8.33263 60.9476 6.13224 61.8476 4.73224ZM58.4677 5.40607C58.0437 5.78467 57.6537 6.03357 57.2313 6.10724C57.631 5.83729 58.0452 5.60255 58.4677 5.40607ZM60.2284 5.43244C60.3913 5.43252 60.4726 5.53268 60.4726 5.63263C60.3911 5.83252 60.3097 6.03196 60.0653 6.03205C59.9839 6.03205 59.7392 6.0324 59.8202 5.83283C59.9017 5.63283 60.0654 5.53244 60.2284 5.43244ZM85.0478 4.63263C86.4478 5.63262 88.248 5.93205 90.248 5.53205C88.448 5.53205 86.7478 4.93263 85.0478 4.63263ZM93.0478 4.23224C90.7478 2.63234 88.6475 2.33226 86.3476 3.23224C88.4476 4.33224 90.4478 4.73224 93.0478 4.23224Z" fill="black"/>
</g>
</g>
<defs>
<clipPath id="clip0_2357_4230">
<rect width="105.825" height="105.599" fill="white"/>
</clipPath>
</defs>
</svg>
