<svg width="78" height="78" viewBox="0 0 78 78" fill="none" xmlns="http://www.w3.org/2000/svg">
<g clip-path="url(#clip0_2353_3568)">
<path d="M77.3 29.3C76.7 24.5 73.8 20.3 71.4 16.2C67.7 9.89998 62.1 5.49998 55.3 3.09998C46.1 -0.200022 35.5 -0.300022 26.2 2.59998C17.7 5.19998 12.8 9.79998 7.50003 16.5C7.50003 16.6 7.40002 16.6 7.40002 16.7C7.30002 16.8 7.30003 16.8 7.20003 16.9C-2.39997 30 -1.79997 48.9 7.90002 61.8C17.4 74.4 33.8 80.3 49.1 76.4C66 72 76 58.1 77.4 41.2C77.8 37.3 77.9 33.2 77.3 29.3ZM54 71.1C40.5 77.1 24.7 74.1 14.2 63.8C2.20003 52 0.100025 32.2 10.1 18.6C13.5 14.3 16.6 10.5 21.6 7.99998C29.1 4.29998 37.8 3.19998 46 4.29998C60.9 6.29998 73.9 18.1 74.3 33.8C74.7 49.4 69 64.4 54 71.1Z" fill="#2E2E2E"/>
<path d="M26.1001 36.8999C29.2001 37.4999 31.6001 35.4999 31.9001 32.3999C32.2001 29.4999 30.8001 26.2999 28.3001 24.7999C27.9001 24.5999 27.5001 24.4999 27.2001 24.5999C27.0001 24.4999 26.9001 24.3999 26.7001 24.3999C23.6001 23.8999 22.1001 27.1999 21.8001 29.7999C21.4001 32.9999 22.7001 36.1999 26.1001 36.8999Z" fill="#2E2E2E"/>
<path d="M50.1001 36.8999C53.2001 37.4999 55.6001 35.4999 55.9001 32.3999C56.2001 29.4999 54.8001 26.2999 52.3001 24.7999C51.9001 24.5999 51.5001 24.4999 51.2001 24.5999C51.0001 24.4999 50.9001 24.3999 50.7001 24.3999C47.6001 23.8999 46.1001 27.1999 45.8001 29.7999C45.4001 32.9999 46.7001 36.1999 50.1001 36.8999Z" fill="#2E2E2E"/>
<path d="M55.2 49.0999C43.8 48.9999 32.4 48.8999 21 48.7999C18.8 48.7999 18.8 52.1999 21 52.1999C32.4 52.2999 43.8 52.3999 55.2 52.3999C57.4 52.4999 57.4 49.0999 55.2 49.0999Z" fill="#2E2E2E"/>
</g>
<defs>
<clipPath id="clip0_2353_3568">
<rect width="78" height="78" fill="white"/>
</clipPath>
</defs>
</svg>
