<svg width="42" height="84" viewBox="0 0 42 84" fill="none" xmlns="http://www.w3.org/2000/svg">
<g clip-path="url(#clip0_2352_3463)">
<path d="M41.7732 63.3684C41.9487 67.3934 41.1589 71.4184 40.9834 75.4434C40.8956 76.9309 40.2813 78.3309 39.7548 79.7309C39.4915 80.4309 38.8772 80.8684 38.1752 81.1309C37.2099 81.4809 36.1568 81.9184 35.1038 82.1809C30.8915 83.2309 26.5915 83.5809 22.2915 83.3184C19.7466 83.1434 17.2017 83.5809 14.6568 83.4934C11.7609 83.4059 8.95274 82.7934 6.40784 81.3934C5.26703 80.7809 5.09152 79.2059 5.00376 78.0684C4.82825 75.0059 4.38948 71.9434 4.03846 68.8809C3.59968 64.0684 3.16091 59.3434 2.80989 54.5309C2.63438 51.3809 2.63438 48.3184 2.45887 45.1684C2.1956 38.8684 1.49356 32.5684 1.31805 26.2684C1.14254 20.7559 0.0894784 15.3309 0.0894784 9.90591C0.0894784 7.89341 0.264989 5.88092 0.703765 3.95592C0.96703 2.73092 2.45887 2.29342 3.51193 1.76842C5.17927 1.06842 6.93438 0.805914 8.77723 0.718414C13.7793 0.455914 18.7813 0.543416 23.7834 0.543416C25.8895 0.543416 27.9956 0.980918 30.014 1.33092C33.3487 1.94342 34.665 3.60592 35.2793 7.45592C35.8058 10.6059 36.3323 13.6684 36.9466 16.8184C37.5609 19.7934 37.8242 22.7684 38.1752 25.7434C38.7017 30.1184 39.316 34.5809 39.667 39.0434C39.9303 42.6309 40.4568 46.3059 40.8078 49.8934C41.1589 53.8309 41.5976 57.6809 41.7732 61.6184C41.7732 62.1434 41.7732 62.7559 41.7732 63.3684ZM21.8527 81.9184C26.2405 82.3559 30.365 81.9184 34.4895 80.9559C36.7711 80.4309 38.8772 79.5559 39.4038 76.8434C40.018 73.6934 40.1058 70.4559 40.3691 67.3059C40.8078 61.4434 40.1058 55.5809 39.5793 49.7184C39.2283 45.9559 38.7017 42.1934 38.2629 38.3434C37.8242 34.6684 37.5609 30.9059 37.0344 27.2309C36.5078 23.7309 36.0691 20.2309 35.367 16.8184C34.665 13.4934 34.2262 10.1684 33.5242 6.84341C33.0854 5.00591 32.2956 3.51842 30.365 2.29342C30.716 3.08092 31.1548 3.60591 30.5405 3.86841C30.014 4.13091 29.7507 3.60591 29.4874 3.34341C28.6976 2.11841 27.2936 2.11841 26.1527 2.03091C20.7119 1.50591 15.2711 1.68091 9.8303 2.03091C7.2854 2.11841 4.82825 2.64341 2.63438 4.13092C2.1956 4.48092 1.93234 4.74342 1.84458 5.26842C1.31805 7.45592 1.31805 9.73092 1.4058 11.9184C1.58132 15.6809 2.02009 19.3559 2.37111 23.0309C2.80989 27.4059 2.80989 31.8684 3.16091 36.2434C3.68744 42.2809 3.68744 48.4059 4.03846 54.5309C4.21397 57.3309 4.47723 60.2184 4.7405 63.0184C5.09152 66.5184 5.35478 70.0184 5.88131 73.4309C6.23234 75.7934 5.44254 78.5059 7.89968 80.2559C8.77723 80.8684 9.65478 81.4809 10.7956 81.7434C13.4283 82.1809 16.1487 82.0059 18.8691 82.0059C21.1507 82.0059 21.3262 81.9184 21.0629 79.7309C20.9752 79.1184 21.0629 79.0309 21.5895 78.9434C22.2038 78.8559 22.2915 79.2059 22.2038 79.6434C22.116 80.4309 22.2915 81.2184 21.8527 81.9184Z" fill="#2E2E2E"/>
<path d="M12.1997 51.1185C14.7446 51.206 17.6405 53.7435 17.6405 55.931C17.6405 57.9435 14.8323 60.7435 12.9017 60.656C10.1813 60.5685 8.0752 58.381 8.0752 55.581C8.16295 53.3935 10.0936 50.856 12.1997 51.1185ZM11.8487 54.706C12.0242 54.356 11.2344 54.006 11.8487 53.656C12.3752 53.306 12.6385 53.831 12.9017 54.0935C13.2527 54.356 13.6038 54.706 13.9548 54.9685C14.2181 55.231 14.4813 55.3185 14.7446 55.3185C14.3058 54.6185 15.7099 54.6185 15.2711 53.9185C14.3936 52.431 11.6732 51.906 10.5323 52.8685C9.47928 53.656 9.12826 55.406 9.65479 56.7185C10.2691 58.381 11.6732 59.5185 13.0772 59.431C14.6568 59.3435 15.1834 58.031 16.1487 56.8935C14.6568 57.156 14.0425 55.756 12.7262 55.406C12.9895 56.1935 13.165 56.806 13.3405 57.506C13.4283 57.681 13.4283 57.856 13.2527 57.856C13.165 57.856 12.9017 57.856 12.9017 57.856C12.1119 56.7185 10.7956 56.0185 10.0058 54.7935C9.91805 54.6185 9.8303 54.4435 10.0058 54.2685C10.1813 54.0935 10.3568 54.181 10.5323 54.2685C11.0589 54.2685 11.2344 54.7935 11.8487 54.706Z" fill="#2E2E2E"/>
<path d="M32.3834 69.581C32.3834 72.2935 30.8038 73.956 28.2589 73.8685C26.5915 73.8685 23.6079 70.806 23.6956 69.1435C23.6956 67.7435 26.8548 64.331 27.9956 64.5935C29.7507 64.9435 32.6466 66.956 32.3834 69.581ZM27.4691 70.106C27.5568 68.881 28.2589 69.406 28.8732 69.6685C28.8732 69.3185 28.8732 69.1435 28.7854 69.056C28.6977 68.6185 28.3466 68.181 28.8732 67.9185C29.3119 67.656 29.4875 68.2685 29.7507 68.4435C29.8385 68.531 29.9262 68.6185 30.014 68.706C30.1895 68.881 30.365 69.1435 30.6283 68.9685C30.9793 68.706 30.8038 68.4435 30.6283 68.181C30.1895 67.3935 29.4875 66.781 28.6099 66.5185C27.4691 66.081 26.5038 66.781 25.6262 67.3935C24.9242 67.9185 24.6609 68.706 24.8364 69.581C25.0997 70.806 27.3813 72.381 28.6977 72.4685C29.7507 72.556 30.4528 72.2935 30.716 71.2435C31.067 70.1935 30.2773 69.931 29.3997 69.4935C29.4875 69.931 29.4875 70.281 29.4875 70.631C29.4875 70.981 29.2242 71.2435 29.0487 70.981C28.3466 70.281 27.7324 70.806 27.0303 70.8935C25.8017 71.0685 26.1528 70.0185 25.8017 69.4935C25.714 69.231 25.6262 68.881 25.9773 68.881C26.5915 68.881 26.767 69.4935 26.9426 69.931C27.1181 69.931 27.2058 69.931 27.4691 70.106Z" fill="#2E2E2E"/>
<path d="M8.42617 8.76843C10.8833 8.76843 13.0772 10.9559 13.0772 13.2309C13.0772 15.2434 10.9711 17.5184 9.21596 17.5184C6.93433 17.5184 4.91596 15.4184 4.91596 13.1434C4.82821 10.6934 6.4078 8.68093 8.42617 8.76843ZM10.7956 11.2184C10.0058 9.90593 8.60168 10.1684 7.54862 10.2559C6.32004 10.3434 6.23229 11.2184 7.02208 12.0934C7.28535 12.4434 7.72412 12.7059 7.72412 13.2309C7.72412 13.4059 7.02208 13.4934 7.54862 13.8434C7.81188 14.0184 8.07514 13.7559 8.1629 13.3184C8.25065 12.7059 8.86494 12.4434 9.30372 12.7059C9.74249 12.9684 10.3568 13.7559 9.83025 14.0184C9.04045 14.5434 9.47923 15.0684 9.39147 15.7684C9.12821 15.5934 8.9527 15.5059 8.86494 15.3309C8.60168 14.7184 8.77719 13.4059 7.54862 14.6309C7.37311 14.8059 7.19759 14.5434 7.02208 14.3684C6.84657 14.1059 6.75882 13.6684 6.23229 13.5809C6.14453 14.7184 7.02208 15.1559 7.63637 15.6809C8.51392 16.3809 9.56698 16.2934 10.3568 15.6809C11.3221 14.9809 11.6731 13.9309 11.4976 12.7059C11.4976 12.4434 11.2343 12.0059 10.7956 12.0059C9.83025 12.0934 9.65474 11.1309 8.86494 10.7809C9.918 10.4309 10.0935 11.4809 10.7956 11.2184Z" fill="#2E2E2E"/>
<path d="M18.5181 69.4935C18.5181 72.6435 16.6752 75.356 14.3936 75.356C10.5323 75.2685 8.865 73.5185 8.77724 70.631C8.60173 66.781 10.4446 65.2935 13.6915 65.031C15.3589 64.856 18.6058 67.2185 18.5181 69.4935ZM10.0058 69.756C9.83031 72.206 11.0589 73.8685 14.3058 74.0435C15.7977 74.131 17.0262 72.1185 17.114 69.581C17.2017 68.0935 15.1834 66.3435 13.4283 66.256C11.4099 66.256 10.0058 67.656 10.0058 69.756Z" fill="#2E2E2E"/>
<path d="M14.5691 29.0684C14.5691 30.5559 13.5161 31.2559 12.463 31.8684C10.8834 32.6559 7.54872 31.8684 6.67117 30.3809C6.05688 29.3309 5.79362 27.8434 6.49566 26.7934C7.37321 25.3934 8.25076 23.8184 10.4446 23.6434C11.9365 23.5559 13.3406 24.0809 13.7793 25.4809C14.1304 26.6184 14.6569 27.7559 14.5691 29.0684ZM13.2528 28.9809C13.2528 27.8434 12.814 26.7934 12.463 25.8309C12.0242 24.6934 10.2691 24.4309 9.30382 25.2184C9.04056 25.3934 8.86505 25.4809 9.30382 25.8309C10.2691 26.6184 10.3569 27.8434 10.4446 28.9809C10.4446 29.2434 10.5324 29.5059 10.1814 29.5934C9.91811 29.6809 9.65484 29.5934 9.47933 29.3309C9.12831 28.8059 8.77729 28.2809 8.42627 27.7559C8.25076 27.4934 7.9875 27.3184 7.81199 27.4059C7.54872 27.4934 7.54872 27.7559 7.54872 28.1059C7.54872 29.6809 9.21607 31.0809 10.8834 30.9059C12.814 30.6434 13.3406 30.2059 13.2528 28.9809Z" fill="#2E2E2E"/>
<path d="M27.2058 18.481C25.8895 18.656 24.5732 18.7435 23.2569 18.2185C22.9936 18.131 22.6426 18.0435 22.3793 18.131C20.8875 18.306 19.2201 17.1685 18.7814 15.681C18.7814 15.5935 18.6936 15.506 18.6936 15.4185C19.6589 13.931 19.5712 12.006 21.1507 10.8685C21.8528 10.3435 22.6426 9.81847 23.4324 9.38097C24.661 8.68097 25.6263 9.38097 26.4161 10.1685C28.8732 12.4435 29.5752 15.2435 27.2058 18.481ZM20.712 13.931C20.5365 14.281 20.361 14.7185 20.1854 15.2435C20.8875 15.0685 21.414 14.8935 21.3263 15.7685C21.3263 16.1185 21.6773 16.206 21.9405 16.381C23.0814 16.9935 24.3099 17.081 25.5385 17.1685C26.1528 17.256 26.5916 16.906 26.7671 16.2935C27.2936 14.8935 27.2936 13.581 26.5916 12.2685C25.714 10.5185 24.2222 9.99347 22.6426 11.0435C21.5895 11.7435 20.9752 12.706 20.712 13.931Z" fill="#2E2E2E"/>
<path d="M25.4507 21.6309C27.2935 21.6309 30.014 24.1684 30.014 25.9184C30.014 28.0184 27.6446 30.9934 24.4854 30.8184C23.0813 30.7309 20.7119 28.8934 20.7119 26.7934C20.7997 24.4309 23.3446 21.6309 25.4507 21.6309ZM23.5201 26.8809C23.0813 28.1059 24.0466 28.8934 24.7486 29.2434C25.3629 29.6809 26.5037 29.5059 27.2058 28.8059C28.0833 27.9309 28.9609 26.9684 28.7854 25.5684C28.5221 24.1684 26.3282 22.5059 25.0997 22.6809C23.6956 22.8559 22.0282 25.0434 22.0282 26.5309C22.0282 27.1434 22.6425 27.2309 22.818 27.3184C23.2568 27.4934 23.1691 27.0559 23.0813 26.7059C22.9935 26.1809 23.5201 26.0934 23.9588 26.3559C24.6609 26.7059 25.0997 27.2309 25.1874 28.1934C24.4854 27.7559 24.3099 26.9684 23.5201 26.8809Z" fill="#2E2E2E"/>
<path d="M26.6793 35.281C27.6446 35.281 30.6283 37.8185 30.8916 39.3935C31.2426 41.1435 29.4875 43.156 27.5569 43.9435C24.8365 45.081 21.765 42.5435 21.3263 39.9185C21.1507 38.956 22.1161 38.3435 22.5548 37.6435C23.4324 36.331 24.4854 35.3685 26.6793 35.281ZM25.8895 36.681C25.714 36.7685 25.363 36.7685 25.0997 36.856C23.2569 37.381 22.4671 39.9185 23.0814 40.881C23.5201 41.581 24.3977 42.0185 25.0997 42.456C25.6263 42.806 26.3283 42.981 26.9426 42.806C28.6099 42.456 30.1018 40.9685 29.8385 39.7435C29.5752 38.606 27.1181 36.681 25.8895 36.681Z" fill="#2E2E2E"/>
<path d="M31.5057 53.306C31.5057 55.4935 30.716 56.5435 29.1364 57.7685C27.118 59.256 26.0649 58.381 24.7486 57.2435C23.169 55.931 22.9935 54.181 23.2568 52.256C23.4323 51.2935 23.7833 50.4185 24.4853 49.7185C25.7139 48.4935 28.6976 48.581 29.9262 49.981C30.8915 51.031 31.8568 51.9935 31.5057 53.306ZM27.3813 56.7185C29.6629 56.5435 30.2772 55.581 30.3649 53.3935C30.4527 51.6435 28.4343 49.981 26.5037 50.0685C25.4506 50.0685 24.2221 51.4685 24.2221 52.606C24.1343 55.056 25.7139 56.8935 27.3813 56.7185Z" fill="#2E2E2E"/>
<path d="M16.1487 43.2435C16.1487 45.256 14.1303 47.181 12.0242 47.181C9.91809 47.181 7.54871 44.2935 7.54871 41.931C7.63646 40.356 10.0936 38.6935 12.2875 38.6935C14.1303 38.6935 16.1487 41.1435 16.1487 43.2435ZM13.6038 43.331C14.9201 43.156 15.0956 42.8935 14.4814 41.756C14.3058 41.406 14.0426 41.056 13.6916 40.706C12.9018 39.656 11.1467 39.5685 10.0058 40.4435C8.77728 41.406 8.51401 42.5435 9.56707 43.681C10.1814 44.381 10.3569 45.606 11.5854 45.781C12.9895 46.0435 13.8671 45.1685 14.9201 44.2935C14.2181 44.2935 13.7793 44.031 13.6038 43.331Z" fill="#2E2E2E"/>
<path d="M30.8915 61.4434C31.8568 61.2684 32.7343 61.5309 33.6996 61.1809C33.9629 61.0934 34.3139 61.0934 34.4894 61.4434C34.665 61.8809 34.3139 62.0559 33.9629 62.2309C33.4364 62.4934 32.8221 62.2309 32.2956 62.3184C31.067 62.4934 29.8384 62.2309 28.6099 62.6684C28.1711 62.8434 27.6445 62.7559 27.5568 62.1434C27.469 61.6184 27.9956 61.4434 28.4343 61.4434C29.3119 61.4434 30.1017 61.4434 30.8915 61.4434Z" fill="#2E2E2E"/>
<path d="M22.3793 62.756C22.0283 62.756 21.5895 62.581 21.2385 62.931C20.7997 63.281 20.4487 63.456 20.0099 62.931C19.5711 62.3185 19.7467 61.706 20.0977 61.181C20.2732 60.9185 20.5364 61.006 20.6242 61.181C20.9752 62.1435 21.765 61.7935 22.4671 61.7935C22.9058 61.7935 23.7834 61.4435 23.7834 62.231C23.7834 62.8435 22.9058 62.756 22.3793 62.756Z" fill="#2E2E2E"/>
<path d="M15.1834 3.69351C15.7099 4.04351 16.3242 4.48101 15.9732 5.00601C15.5344 5.61851 15.6222 6.14351 15.7977 6.75601C15.8854 7.10601 15.8854 7.45601 15.4467 7.63101C14.9201 7.80601 14.9201 7.28101 14.7446 6.93101C14.3058 5.88101 15.1834 4.91851 14.8324 3.95601C14.8324 3.78101 15.0079 3.69351 15.1834 3.69351Z" fill="#2E2E2E"/>
<path d="M21.5894 73.606C21.5894 73.8685 21.5894 74.131 21.5894 74.3935C21.5894 74.831 21.4139 75.0935 21.0629 75.0935C20.5364 75.181 20.5364 74.7435 20.5364 74.3935C20.5364 73.6935 20.5364 72.9935 20.5364 72.2935C20.5364 71.9435 20.6241 71.5935 20.8874 71.5935C21.3262 71.506 21.3262 72.031 21.4139 72.2935C21.5894 72.731 21.5894 73.1685 21.5894 73.606Z" fill="#2E2E2E"/>
<path d="M27.2059 18.481C27.8201 18.5685 28.3467 18.656 28.961 18.7435C29.1365 18.7435 29.3997 18.831 29.4875 19.0935C29.4875 19.356 29.312 19.531 29.0487 19.6185C28.6977 19.706 28.2589 19.6185 27.9079 19.706C27.2058 19.881 26.1528 20.1435 25.8895 19.4435C25.5385 18.656 26.8548 18.9185 27.2059 18.481Z" fill="#2E2E2E"/>
<path d="M19.3078 48.231C18.869 48.056 17.9915 48.6685 18.0792 47.7935C18.167 47.2685 18.9568 46.831 19.3956 46.3935C19.8343 46.831 20.7119 47.356 20.6241 47.7935C20.6241 48.581 19.7466 48.056 19.3078 48.231Z" fill="#2E2E2E"/>
<path d="M16.1486 19.531C16.6752 19.4435 16.7629 19.7935 16.9384 20.1435C17.2017 20.6685 17.5527 21.1935 17.2017 21.7185C16.8507 22.156 16.4997 21.806 16.3242 21.3685C16.2364 21.106 16.4997 20.6685 15.8854 20.581C15.4466 20.581 15.0956 20.231 15.0956 19.881C15.0956 19.356 15.7099 19.6185 16.1486 19.531Z" fill="#2E2E2E"/>
<path d="M8.42625 63.1059C7.37319 64.0684 6.32013 63.6309 5.35482 63.4559C5.26707 63.4559 5.09155 63.1934 5.09155 63.1059C5.09155 62.7559 5.35482 62.6684 5.61809 62.6684C6.58339 62.6684 7.46094 62.7559 8.42625 63.1059Z" fill="#2E2E2E"/>
<path d="M21.5895 68.6184C21.5895 69.1434 21.5895 69.7559 20.9752 69.7559C20.2732 69.8434 20.6242 69.1434 20.5365 68.7934C20.5365 68.7059 20.5365 68.6184 20.5365 68.5309C20.5365 68.0059 20.0977 67.2184 20.9752 67.2184C21.6773 67.3059 21.5018 68.1809 21.5895 68.6184Z" fill="#2E2E2E"/>
<path d="M27.8201 47.7059C27.3813 47.6184 26.767 47.8809 26.767 47.2684C26.6792 46.5684 27.2935 46.6559 27.7323 46.6559C27.8201 46.6559 27.9078 46.6559 27.9956 46.6559C28.4343 46.8309 29.3119 45.9559 29.3119 46.8309C29.3997 47.7934 28.4343 47.6184 27.8201 47.7059Z" fill="#2E2E2E"/>
<path d="M34.7528 46.306C35.3671 46.5685 35.8058 46.2185 36.2446 46.0435C36.6834 45.8685 36.9466 45.956 37.0344 46.306C37.2099 46.831 36.8589 46.9185 36.5079 46.9185C35.9813 46.9185 35.5426 47.0935 35.016 47.0935C34.5773 47.0935 33.8752 47.356 33.8752 46.7435C33.7875 46.2185 34.4895 46.3935 34.7528 46.306Z" fill="#2E2E2E"/>
<path d="M5.96906 49.281C5.35477 49.3685 4.74049 49.106 4.74049 48.6685C4.65273 48.231 5.26702 47.881 5.79355 48.056C6.32008 48.231 7.28538 48.056 7.28538 48.6685C7.28538 49.281 6.49559 49.1935 5.96906 49.281Z" fill="#2E2E2E"/>
<path d="M6.93437 35.281C6.14458 35.631 5.35478 35.806 4.56498 35.806C4.38947 35.806 4.12621 35.806 4.03845 35.5435C3.9507 35.281 4.12621 35.0185 4.38947 34.931C5.17927 34.756 6.14458 34.231 6.93437 35.281Z" fill="#2E2E2E"/>
<path d="M11.7609 62.2309C12.1997 62.3184 12.6384 62.3184 12.9894 62.4059C13.2527 62.4934 13.6915 62.4934 13.6915 62.8434C13.6915 63.1934 13.3405 63.3684 12.9894 63.4559C12.5507 63.4559 12.1997 63.3684 11.7609 63.2809C11.4099 63.2809 10.9711 63.3684 11.0588 62.8434C10.9711 62.3184 11.4099 62.2309 11.7609 62.2309Z" fill="#2E2E2E"/>
<path d="M10.9711 47.706C11.3221 47.9685 12.0241 47.706 12.0241 48.406C12.0241 49.106 11.5854 49.106 11.0588 48.8435C10.9711 48.8435 10.8833 48.756 10.7956 48.8435C10.3568 48.931 9.567 49.1935 9.567 48.581C9.47924 47.7935 10.4445 47.9685 10.9711 47.706Z" fill="#2E2E2E"/>
<path d="M16.1487 23.9935C16.2364 23.6435 16.0609 23.1185 16.4997 23.2935C17.3773 23.4685 17.114 24.431 17.3773 25.0435C17.5528 25.3935 17.2895 25.656 16.9385 25.5685C16.0609 25.306 16.4119 24.431 16.1487 23.9935Z" fill="#2E2E2E"/>
<path d="M16.1486 48.231C15.1833 48.231 14.6568 48.231 14.0425 48.231C13.7793 48.231 13.516 48.1435 13.516 47.881C13.516 47.531 13.6915 47.356 14.0425 47.2685C14.7446 47.0935 15.3588 47.4435 16.1486 48.231Z" fill="#2E2E2E"/>
<path d="M22.9059 46.9185C23.3446 46.9185 23.9589 46.831 23.8712 47.356C23.7834 47.881 23.0814 47.881 22.6426 47.881C22.2038 47.881 21.765 47.881 21.765 47.356C21.6773 46.656 22.4671 47.0935 22.9059 46.9185Z" fill="#2E2E2E"/>
<path d="M17.2894 28.106C17.816 28.281 17.9037 28.7185 17.9037 29.156C17.9915 29.5935 17.7282 30.1185 17.2894 30.031C16.5874 29.9435 16.7629 29.156 16.6751 28.631C16.5874 28.3685 16.8507 28.106 17.2894 28.106Z" fill="#2E2E2E"/>
<path d="M24.3977 19.706C23.6956 19.881 22.9936 19.9685 22.2915 20.1435C21.9405 20.231 21.6772 20.056 21.6772 19.706C21.6772 19.2685 22.116 19.356 22.2915 19.2685C22.9936 19.006 23.6956 19.4435 24.3977 19.356C24.3977 19.4435 24.3977 19.531 24.3977 19.706Z" fill="#2E2E2E"/>
<path d="M35.1915 61.4435C35.5425 61.006 36.0691 60.7435 36.5956 60.656C36.9466 60.5685 37.1221 60.831 37.1221 61.181C37.0344 61.706 36.7711 62.056 36.1568 61.881C35.8936 61.7935 35.4548 61.9685 35.1915 61.4435Z" fill="#2E2E2E"/>
<path d="M16.9384 62.3185C16.8506 63.0185 16.3241 63.0185 15.9731 63.106C15.6221 63.281 15.1833 63.106 15.0955 62.6685C15.0078 62.231 15.2711 61.9685 15.7098 61.881C16.2364 61.881 16.5874 62.056 16.9384 62.3185Z" fill="#2E2E2E"/>
<path d="M11.1467 34.4059C10.7957 34.9309 10.4446 34.8434 10.0936 34.9309C9.74259 34.9309 9.30381 35.1934 9.04055 34.7559C8.95279 34.6684 8.95279 34.4934 9.04055 34.3184C9.30381 33.9684 9.74259 34.0559 10.0936 34.0559C10.4446 34.0559 10.7957 34.2309 11.1467 34.4059Z" fill="#2E2E2E"/>
<path d="M8.77722 20.8435C8.77722 20.1435 9.47926 20.406 9.91804 20.231C10.2691 20.056 10.7078 20.056 10.6201 20.581C10.5323 21.0185 10.1813 21.3685 9.65477 21.3685C9.30375 21.456 8.86498 21.456 8.77722 20.8435Z" fill="#2E2E2E"/>
<path d="M21.3263 65.906C21.3263 65.9935 21.414 66.5185 21.063 66.431C20.5365 66.3435 20.361 65.906 20.361 65.381C20.361 64.9435 20.4487 64.4185 20.8875 64.5935C21.3263 64.681 21.3263 65.2935 21.3263 65.906Z" fill="#2E2E2E"/>
<path d="M34.1384 32.5685C33.5241 33.531 32.7343 33.2685 32.0323 33.0935C31.9446 33.0935 31.769 32.831 31.769 32.7435C31.769 32.481 32.0323 32.3935 32.2078 32.3935C32.8221 32.3935 33.3486 32.481 34.1384 32.5685Z" fill="#2E2E2E"/>
<path d="M17.7283 32.4809C18.2548 32.5684 18.2548 33.0059 18.2548 33.3559C18.3426 33.7059 18.3426 34.1434 17.7283 34.1434C17.3773 34.1434 16.9385 33.7934 17.0262 33.5309C17.114 33.2684 17.2895 32.7434 17.7283 32.4809Z" fill="#2E2E2E"/>
<path d="M12.4629 34.1435C12.6384 33.6185 13.1649 33.531 13.6037 33.531C13.867 33.531 14.218 33.6185 14.1302 34.056C14.0425 34.581 13.6037 34.756 13.1649 34.8435C12.7262 34.8435 12.5506 34.4935 12.4629 34.1435Z" fill="#2E2E2E"/>
<path d="M20.7119 77.3684C20.9752 77.0184 20.9752 76.4059 21.5895 76.4059C22.0282 76.4059 22.0282 76.6684 22.0282 77.0184C22.0282 77.5434 21.765 77.8934 21.1507 77.8934C20.8874 77.8059 20.6242 77.7184 20.7119 77.3684Z" fill="#2E2E2E"/>
<path d="M31.5935 18.5685C32.0323 18.656 32.7343 18.306 32.6466 18.831C32.5588 19.531 31.769 19.181 31.2425 19.2685C30.8915 19.356 30.365 19.2685 30.4527 18.9185C30.6282 18.2185 31.2425 18.656 31.5935 18.5685Z" fill="#2E2E2E"/>
<path d="M19.7467 19.3559C20.1855 19.3559 20.5365 19.4434 20.5365 19.8809C20.5365 20.2309 20.2732 20.5809 19.9222 20.5809C19.4834 20.5809 18.8691 20.4059 18.7814 19.9684C18.7814 19.2684 19.4834 19.6184 19.7467 19.3559Z" fill="#2E2E2E"/>
<path d="M36.3323 31.956C36.5956 32.0435 37.1221 31.781 37.0344 32.306C36.9466 32.9185 36.2446 32.831 35.718 32.9185C35.4548 33.006 35.1038 32.831 35.1038 32.481C35.2793 31.8685 35.8936 31.956 36.3323 31.956Z" fill="#2E2E2E"/>
<path d="M25.1874 62.1434C25.6262 61.7059 26.1527 62.0559 26.5915 61.7059C26.9425 61.4434 27.2057 61.7934 27.2935 62.0559C27.3813 62.3184 27.118 62.4934 26.8547 62.5809C26.2404 62.7559 25.6262 62.8434 25.1874 62.1434Z" fill="#2E2E2E"/>
<path d="M20.7997 58.381C20.7119 58.731 20.8874 59.256 20.4486 59.256C19.9221 59.256 19.8344 58.731 19.8344 58.2935C19.8344 57.856 20.0099 57.506 20.4486 57.506C21.0629 57.5935 20.6241 58.1185 20.7997 58.381Z" fill="#2E2E2E"/>
<path d="M3.16089 21.456C3.16089 20.931 3.59966 20.8435 3.95068 20.8435C4.3017 20.8435 4.74048 20.756 4.82824 21.1935C4.91599 21.7185 4.56497 21.8935 4.1262 21.8935C3.68742 21.8935 3.24864 21.981 3.16089 21.456Z" fill="#2E2E2E"/>
<path d="M20.8875 33.006C21.3262 33.006 21.765 33.006 21.765 33.4435C21.765 33.9685 21.414 34.056 20.9752 34.056C20.6242 34.056 20.0977 33.9685 20.0977 33.531C20.0977 32.9185 20.6242 33.006 20.8875 33.006Z" fill="#2E2E2E"/>
<path d="M31.6813 46.9185C31.5935 47.356 31.2425 47.356 30.9792 47.4435C30.6282 47.531 30.1017 47.4435 30.1017 47.006C30.0139 46.5685 30.4527 46.481 30.8037 46.481C31.067 46.3935 31.418 46.481 31.6813 46.9185Z" fill="#2E2E2E"/>
<path d="M15.3588 12.6184C16.2364 12.9684 16.4119 13.4934 16.3241 14.1059C16.3241 14.3684 16.0609 14.4559 15.7976 14.3684C15.0078 14.0184 15.4466 13.3184 15.3588 12.6184Z" fill="#2E2E2E"/>
<path d="M38.2629 60.306C38.6139 60.306 38.965 60.2185 38.965 60.656C38.965 61.181 38.4384 61.2685 38.0874 61.356C37.8241 61.4435 37.4731 61.356 37.3854 60.9185C37.3854 60.306 37.9119 60.3935 38.2629 60.306Z" fill="#2E2E2E"/>
<path d="M15.3589 8.85593C15.8855 8.85593 15.9732 9.20593 16.061 9.64343C16.1487 9.99343 15.8855 10.3434 15.4467 10.2559C15.0079 10.1684 14.8324 9.81843 14.8324 9.46843C14.8324 9.11843 15.0079 8.85593 15.3589 8.85593Z" fill="#2E2E2E"/>
<path d="M16.6751 17.1685C16.6751 17.431 16.7629 17.8685 16.2364 17.781C15.7098 17.6935 15.7098 17.1685 15.6221 16.8185C15.5343 16.556 15.7098 16.2935 15.9731 16.2935C16.5874 16.2935 16.6751 16.731 16.6751 17.1685Z" fill="#2E2E2E"/>
<path d="M17.6405 61.9685C18.4303 61.9685 19.0446 61.6185 19.3956 62.231C19.5711 62.4935 19.2201 62.6685 18.9568 62.756C18.2548 63.1935 17.9915 62.6685 17.6405 61.9685Z" fill="#2E2E2E"/>
<path d="M30.2772 32.306C30.6283 32.2185 30.6283 32.481 30.6283 32.656C30.6283 33.181 30.365 33.4435 29.8385 33.531C29.5752 33.531 29.1364 33.531 29.2242 33.181C29.3119 32.5685 29.9262 32.5685 30.2772 32.306Z" fill="#2E2E2E"/>
<path d="M11.6731 19.706C12.1119 19.706 12.4629 19.881 12.4629 20.3185C12.4629 20.756 11.9364 20.756 11.5853 20.8435C11.2343 20.931 10.8833 20.6685 10.8833 20.231C10.9711 19.7935 11.4098 19.881 11.6731 19.706Z" fill="#2E2E2E"/>
<path d="M17.9038 38.5185C17.9038 38.1685 17.9916 37.906 18.2548 37.906C18.8691 37.9935 18.8691 38.5185 18.9569 38.956C18.9569 39.2185 18.9569 39.481 18.6058 39.481C18.0793 39.3935 17.9916 38.956 17.9038 38.5185Z" fill="#2E2E2E"/>
<path d="M19.7466 54.4435C19.7466 54.0935 19.9221 53.9185 20.2731 53.9185C20.7996 53.9185 20.7996 54.181 20.7996 54.6185C20.7996 55.056 20.7119 55.3185 20.1854 55.231C19.7466 55.1435 19.7466 54.7935 19.7466 54.4435Z" fill="#2E2E2E"/>
<path d="M20.5364 50.9435C20.4486 51.2935 20.6241 51.8185 20.0976 51.731C19.5711 51.6435 19.7466 51.1185 19.6588 50.7685C19.6588 50.4185 19.7466 50.0685 20.0976 50.0685C20.7119 50.156 20.4486 50.681 20.5364 50.9435Z" fill="#2E2E2E"/>
<path d="M12.5507 69.056C12.5507 68.6185 12.7262 68.4435 12.9017 68.356C13.0772 68.2685 13.1649 68.356 13.3405 68.4435C14.1303 69.1435 14.8323 69.756 15.6221 70.3685C15.9731 70.7185 16.0609 71.0685 15.3588 71.0685C15.0078 71.0685 14.92 71.2435 14.6568 71.331C13.6037 72.1185 13.3405 72.031 13.4282 70.806C13.516 69.8435 12.9017 69.406 12.5507 69.056Z" fill="#2E2E2E"/>
<path d="M12.9017 72.381C12.1119 71.4185 11.4976 70.631 10.8833 69.8435C10.6201 69.4935 10.7078 69.1435 10.9711 68.7935C11.1466 68.6185 11.3221 68.4435 11.6731 68.531C12.0241 68.6185 12.3752 69.056 12.2874 69.231C11.8486 70.3685 12.7262 71.0685 13.0772 71.856C13.0772 71.9435 12.9894 72.031 12.9017 72.381Z" fill="#2E2E2E"/>
<path d="M11.5854 29.506C10.7078 28.631 10.7078 27.581 11.2343 26.881C11.6731 26.2685 12.1119 27.1435 12.6384 27.3185C12.1996 28.0185 11.8486 27.231 11.4098 27.406C11.2343 28.0185 12.0241 28.631 11.5854 29.506Z" fill="#2E2E2E"/>
<path d="M20.7119 13.931C20.8874 13.8435 21.0629 13.6685 21.1507 13.6685C22.2038 14.106 22.9058 14.0185 22.9935 12.6185C22.9935 12.6185 23.3446 12.531 23.4323 12.6185C23.6956 12.7935 24.0466 13.1435 23.8711 13.4935C23.6078 14.281 23.8711 14.981 24.0466 15.681C24.1344 16.031 24.2221 16.381 23.8711 16.6435C23.5201 16.906 23.1691 16.6435 22.9058 16.4685C22.0282 15.7685 21.5895 14.631 20.7119 13.931Z" fill="#2E2E2E"/>
<path d="M26.2405 26.531C25.9772 25.7435 25.0997 25.306 25.5384 24.431C25.714 24.1685 25.8895 23.906 26.1527 23.906C26.6793 23.8185 26.767 24.256 26.9425 24.606C27.118 24.8685 27.4691 25.2185 26.767 25.2185C26.8548 25.656 26.767 26.0935 26.2405 26.531Z" fill="#2E2E2E"/>
<path d="M26.6793 39.9185C26.8548 39.2185 26.3283 39.0435 26.065 38.606C25.9772 38.431 25.6262 38.256 25.9772 37.9935C26.1527 37.8185 26.416 37.8185 26.6793 37.906C27.6446 38.3435 28.1711 40.2685 27.5568 41.056C27.3813 41.3185 27.118 41.3185 26.8548 41.231C26.5915 41.1435 26.416 41.1435 26.5038 41.4935C26.5915 41.756 26.767 42.106 26.3282 42.281C25.8895 42.456 25.714 42.106 25.4507 41.8435C25.0119 41.406 24.6609 40.9685 24.3099 40.4435C23.7834 39.656 24.8364 39.2185 24.7487 38.431C24.7487 38.3435 25.2752 38.3435 25.4507 38.6935C25.8017 39.2185 26.1527 39.5685 26.6793 39.9185Z" fill="#2E2E2E"/>
<path d="M28.0833 54.4435C27.469 54.706 27.5568 55.581 26.767 55.6685C26.416 55.6685 25.0997 53.9185 25.1874 53.481C25.2752 52.956 25.9772 52.606 26.2405 52.6935C27.118 52.956 27.6446 53.656 28.0833 54.4435Z" fill="#2E2E2E"/>
<path d="M12.7262 42.1934C11.8486 43.0684 12.814 43.9434 12.7262 44.7309C12.7262 44.8184 12.6384 44.9934 12.5507 44.9934C12.3752 45.0809 12.1119 45.0809 12.0242 44.8184C11.9364 44.2059 11.3221 44.0309 11.0589 43.6809C10.5323 43.0684 10.5323 42.9809 11.3221 42.6309C11.5854 42.4559 11.4976 42.2809 11.4976 42.1059C11.4976 41.8434 11.4099 41.4059 11.8486 41.4934C12.1997 41.6684 12.5507 41.9309 12.7262 42.1934Z" fill="#2E2E2E"/>
</g>
<defs>
<clipPath id="clip0_2352_3463">
<rect width="42" height="84" fill="white"/>
</clipPath>
</defs>
</svg>
