<svg width="78" height="78" viewBox="0 0 78 78" fill="none" xmlns="http://www.w3.org/2000/svg">
<g clip-path="url(#clip0_2353_3560)">
<path d="M77.3 29.3C76.7 24.5 73.8 20.3 71.4 16.2C67.7 9.89998 62.1 5.49998 55.3 3.09998C46.1 -0.200022 35.5 -0.300022 26.2 2.59998C17.7 5.19998 12.8 9.79998 7.50003 16.5C7.50003 16.6 7.40002 16.6 7.40002 16.7C7.30002 16.8 7.30003 16.8 7.20003 16.9C-2.39997 30 -1.79997 48.9 7.90002 61.8C17.4 74.4 33.8 80.3 49.1 76.4C66 72 76 58.1 77.4 41.2C77.8 37.3 77.9 33.2 77.3 29.3ZM54 71.1C40.5 77.1 24.7 74.1 14.2 63.8C2.20003 52 0.100025 32.2 10.1 18.6C13.5 14.3 16.6 10.5 21.6 7.99998C29.1 4.29998 37.8 3.19998 46 4.29998C60.9 6.29998 73.9 18.1 74.3 33.8C74.7 49.4 69 64.4 54 71.1Z" fill="#2E2E2E"/>
<path d="M27.3001 37.4C31.0001 36.5 31.5001 31.7 31.7001 28.6C31.8001 26.7 32.0001 24.8 30.5001 23.3C29.2001 22.1 27.3001 21.4 25.5001 21.5C25.4001 21.5 25.3001 21.5 25.2001 21.5C24.9001 21.4 24.5001 21.3 24.1001 21.5C17.1001 24.5 18.9001 39.5 27.3001 37.4Z" fill="#2E2E2E"/>
<path d="M49.5 21.6C49.4 21.6 49.3 21.6 49.2 21.6C48.9 21.5 48.5 21.4 48.1 21.6C41.1 24.4 43 39.5 51.4 37.4C55.1 36.5 55.6 31.7 55.8 28.6C55.9 26.7 56.1 24.8 54.6 23.3C53.2 22.1 51.2 21.4 49.5 21.6Z" fill="#2E2E2E"/>
<path d="M54.8 55.8C49.3 52 43.1 49.8 36.5 49.5C31.7 49.3 25.5 51.3 21.8 54.8C21.3 55 20.8 55.5 20.8 56.3C20.8 56.4 20.8 56.5 20.8 56.6C20.7 58.1 22.7 58.8 23.7 57.8C31.6 49.6 45 53.1 53.2 58.8C54.9 59.9 56.6 57 54.8 55.8Z" fill="#2E2E2E"/>
</g>
<defs>
<clipPath id="clip0_2353_3560">
<rect width="78" height="78" fill="white"/>
</clipPath>
</defs>
</svg>
