<svg width="84" height="79" viewBox="0 0 84 79" fill="none" xmlns="http://www.w3.org/2000/svg">
<g clip-path="url(#clip0_2357_3584)">
<path d="M57.9224 45.0046C57.8722 44.7771 57.8492 44.5445 57.8539 44.3116C57.618 45.0585 57.4303 45.8198 57.2921 46.5908C57.0175 47.8892 56.523 49.1311 55.8301 50.263C54.5679 52.0215 52.8508 53.4033 50.8631 54.2602C48.4534 55.3842 45.8516 56.0385 43.197 56.188C42.1968 56.2119 41.1966 56.1468 40.208 55.9936C39.2045 55.9413 38.2085 55.791 37.2342 55.5448C35.6683 54.9715 34.2008 54.1587 32.8841 53.1354C31.129 51.8263 29.6786 50.1523 28.6329 48.2287C27.5903 46.4531 26.9414 44.4742 26.7301 42.426C26.6929 41.7632 26.6159 41.1033 26.4993 40.4498C26.4443 40.2288 26.2177 39.7548 26.8715 39.8537C27.0214 39.8764 27.1172 39.5632 27.0757 39.3503C26.9325 37.916 27.1961 36.4704 27.8363 35.179C28.3316 33.6861 29.0641 32.2827 30.0058 31.0228C30.9644 29.7306 32.0704 28.5547 33.3014 27.5188C34.8823 26.4086 36.5733 25.4644 38.3478 24.701C38.7609 24.4498 39.2463 24.3443 39.7264 24.4014C41.0063 24.7824 42.245 24.2979 43.5006 24.3088C45.2233 24.3332 46.9145 24.7743 48.4296 25.5945C49.1548 25.9674 49.9597 26.1635 50.6704 26.593C51.3499 26.9507 51.9473 27.4464 52.4243 28.0482C52.6753 28.312 52.9689 28.5317 53.2927 28.6981C54.1902 29.4882 54.9542 30.418 55.5551 31.4518C56.0514 31.9865 56.4845 32.5765 56.8457 33.2103C57.2656 34.5076 57.5759 35.8378 57.7736 37.187C57.8269 37.5599 57.9308 37.9238 58.0824 38.2686C58.3722 38.8977 58.4683 39.5988 58.3584 40.2827C58.2644 41.3281 58.3207 42.3737 58.245 43.4162C58.2691 43.5667 58.2514 43.7209 58.194 43.8621C58.1366 44.0032 58.0415 44.1259 57.9192 44.2169C58.3805 44.5073 57.878 44.7394 57.9224 45.0046ZM29.4042 37.599C29.5537 37.7258 29.6919 37.8654 29.8172 38.0163C30.2375 37.6334 30.3149 36.9974 30.7609 36.6185C30.6664 37.0709 30.469 37.4955 30.1842 37.8595C30.1337 37.9198 30.0982 37.9911 30.0805 38.0678C30.0627 38.1444 30.0634 38.2241 30.0823 38.3004C30.1012 38.3768 30.1379 38.4476 30.1893 38.507C30.2408 38.5665 30.3056 38.613 30.3784 38.6427C30.1352 38.7312 29.8636 38.3602 29.7548 38.7057C29.5506 39.354 28.7602 39.919 29.5404 40.7776C28.9422 40.4351 28.9973 40.464 28.7346 40.9635C28.5811 41.3124 28.5299 41.6977 28.5871 42.0745C28.6442 42.4514 28.8073 42.8042 29.0573 43.0919C29.103 43.1525 29.1558 43.2075 29.2144 43.2556C29.2413 43.12 29.2941 42.9908 29.3699 42.8752L30.0704 44.6991C29.6694 43.7879 28.7445 43.2624 28.4111 42.3143C28.2462 42.6277 28.1393 42.9682 28.0954 43.3196C28.1384 42.5736 27.9761 41.8301 27.6261 41.1698C27.469 41.7531 27.481 42.3689 27.6607 42.9456C27.8572 43.9447 28.1994 44.9141 28.4254 45.9085C28.7169 47.2934 29.2987 48.6008 30.1326 49.7443C30.7807 50.9132 31.7819 51.8473 32.993 52.4128C34.4444 53.1106 35.8549 53.8904 37.2176 54.7484C37.45 54.9236 37.7187 55.0444 38.004 55.1019C38.2892 55.1595 38.5837 55.1524 38.8658 55.0811C39.1633 55.0107 39.4759 55.043 39.7526 55.173C40.7738 55.6146 41.8813 55.8209 42.993 55.7765C44.6608 55.7268 46.312 55.429 47.8921 54.8931C48.4083 54.8308 48.9026 54.6479 49.335 54.3591C48.3675 54.3859 47.5378 54.8639 46.6127 54.7748C46.7459 54.6391 46.925 54.5582 47.1148 54.5477C48.3703 54.3674 49.5899 53.9921 50.7296 53.4356C51.4124 52.9886 52.2236 52.7595 52.9249 52.3056C53.595 51.8718 53.9423 51.1436 54.6216 50.6967C55.0798 50.2187 55.3922 49.62 55.5224 48.9708C55.2474 49.2938 54.9472 49.5946 54.6248 49.8703C53.9858 50.3201 53.8363 51.1628 53.1492 51.5814C52.1429 52.1755 51.0813 52.6703 49.9793 53.0589C49.5444 53.3412 49.0634 53.5453 48.5582 53.6617C48.0484 53.6779 47.5411 53.7408 47.0427 53.8495C47.2104 53.5745 47.4648 53.363 47.7658 53.2483C48.7062 53.5908 50.3016 52.3636 50.6663 51.5594C50.2512 51.5976 49.8485 51.7215 49.4839 51.9234C49.1192 52.1253 48.8004 52.4008 48.5477 52.7323C48.4614 52.8697 48.3464 52.9868 48.2107 53.0756C48.075 53.1644 47.9217 53.2229 47.7612 53.2471C48.6145 52.4926 49.2656 51.5377 50.1626 50.8267C50.0692 51.0194 49.9905 51.2189 49.9272 51.4234C50.3011 51.4326 50.6711 51.3452 51.0014 51.1695C51.3317 50.9939 51.611 50.736 51.8124 50.4208C51.7757 50.6666 51.7388 50.8392 52.1279 50.7364C52.6024 50.4964 53.0166 50.1523 53.3396 49.7299C53.3331 49.842 53.3572 49.9538 53.4092 50.0534C53.4764 50.0745 53.5491 50.0708 53.6138 50.0428C53.6785 50.0149 53.731 49.9647 53.7618 49.9012C53.9407 49.6643 54.094 49.4081 54.2578 49.1598C54.2952 49.2801 54.1226 49.5527 54.3816 49.4953C54.5175 49.4594 54.6383 49.3806 54.7261 49.2707C54.8138 49.1608 54.8639 49.0256 54.8689 48.885C54.8824 48.6472 54.7735 48.4933 54.5003 48.6471C54.5012 48.343 54.6087 48.0489 54.8042 47.8159C54.7885 47.8958 54.7796 47.9769 54.7776 48.0582C54.7677 48.1985 54.8088 48.3377 54.8933 48.4501C54.9778 48.5626 55.1001 48.6407 55.2376 48.6702C55.5415 48.6332 55.5714 48.3079 55.4435 47.9887C55.4146 47.8396 55.4256 47.6855 55.4752 47.542C55.5248 47.3984 55.6114 47.2705 55.7262 47.171C55.9517 47.4075 55.558 47.6212 55.7628 47.8923C55.8169 47.8199 55.8633 47.742 55.901 47.6598C56.2336 46.5459 56.5969 45.4393 56.873 44.3114C57.0208 43.8876 57.0827 43.4386 57.055 42.9907C56.9629 42.7995 56.9041 42.5939 56.8812 42.3829C57.1746 41.8926 57.2825 41.3132 57.185 40.7501C57.2575 38.9467 56.9704 37.1469 56.3406 35.4555C56.2091 35.5181 56.0908 35.6054 55.9923 35.7127C55.9602 35.559 55.9169 35.405 55.897 35.2479C55.7142 34.1931 55.2807 33.1976 54.6328 32.3454C54.1868 31.7495 53.7734 31.1299 53.3942 30.4894C52.742 29.3141 51.6822 28.418 50.4149 27.9702C50.0498 27.7423 49.613 27.6585 49.1896 27.7349C49.9682 28.5352 50.852 29.2258 51.8167 29.7879C51.6304 29.7534 51.4398 29.7497 51.2523 29.7769C51.5103 30.1626 51.8559 30.482 52.2609 30.7088C52.2995 30.7246 52.4816 30.7624 52.3517 30.8235C51.8703 31.0496 52.3234 31.1643 52.4054 31.2844C52.6217 31.6014 52.8766 31.8918 53.1074 32.1994C53.298 32.4534 53.1635 32.5681 52.9079 32.5999C52.4747 32.6538 52.7725 32.3144 52.6883 32.1775C52.0551 31.1912 51.3298 30.2671 50.522 29.4177C50.4169 29.3912 50.3203 29.3379 50.2418 29.2631C50.1632 29.1883 50.1053 29.0945 50.0736 28.9907C49.8986 28.2054 48.2284 27.4406 47.2321 27.5435C47.9662 28.0737 48.2929 29.0045 49.2954 29.0499C48.713 29.4417 49.3617 29.5562 49.4829 29.7799C49.699 30.179 50.1594 29.9381 50.5625 30.1252L49.8906 30.1924L50.8823 31.3604C50.0305 30.7373 49.4163 29.8771 48.4977 29.1159C48.5607 29.7895 49.1391 29.962 49.2675 30.3837L49.1337 30.4661C48.6547 29.9185 48.1757 29.371 47.6967 28.8234C47.8019 28.8819 47.9061 28.9425 48.0127 28.9982C48.1399 29.0645 48.2237 29.3416 48.396 29.1656C48.6046 28.9526 48.319 28.8726 48.2084 28.7547C47.4582 27.9994 46.6216 27.335 45.716 26.7753C46.7859 27.5968 47.9629 26.9881 49.1692 27.1885C48.7278 26.9608 48.2433 26.8291 47.7474 26.802C48.6375 26.7639 49.5277 26.8758 50.3808 27.133C49.3732 26.4228 48.1444 26.0974 46.9173 26.2158C46.0558 26.2089 45.2082 26.4344 44.4641 26.8687C44.3305 26.711 44.3335 26.6311 44.5456 26.5382C45.2465 26.1842 46.019 25.9948 46.8041 25.9844C46.9747 25.9904 47.156 25.9838 47.184 25.7789C47.2119 25.575 46.9836 25.6188 46.8773 25.5506C46.7675 25.4994 46.6459 25.4788 46.5254 25.4909C45.8071 25.3891 45.0746 25.4772 44.401 25.7467C44.6495 25.5399 44.9156 25.3553 45.1963 25.195C44.9509 25.159 44.7177 25.0649 44.516 24.9207C43.4536 24.6451 42.3424 24.6156 41.2668 24.8343C39.2261 25.3295 37.0378 25.5168 35.5131 27.2924C35.2073 27.6091 34.9218 27.9449 34.6583 28.2977C34.6186 28.3578 34.4648 28.4923 34.5799 28.5332C35.1199 28.7251 34.5969 28.8802 34.5421 28.8977C34.3408 28.996 34.1847 29.1674 34.1056 29.3769C33.7362 29.9384 33.6613 30.623 33.3274 31.2082C33.1056 31.5971 33.2396 31.7113 33.8637 31.63C33.5639 31.7362 33.3048 31.9334 33.1224 32.1939C32.94 32.4545 32.8435 32.7654 32.8462 33.0835C32.8933 33.427 32.8066 33.7756 32.604 34.0571C32.4344 33.5257 32.8325 33.0201 32.7181 32.4353C32.2793 32.7338 31.8873 33.0958 31.5548 33.5094C31.2686 33.7914 31.09 34.1646 31.0497 34.5643C31.0094 34.9641 31.11 35.3654 31.3342 35.6989C31.4101 35.8189 31.5414 36.1465 31.1393 36.147L30.7865 34.3423C30.3701 34.9893 30.0283 35.5242 29.6826 36.0564C29.5023 36.2679 29.3822 36.524 29.335 36.7979C29.2879 37.0718 29.3153 37.3533 29.4144 37.6129C29.3237 37.4596 29.2006 37.3279 29.0537 37.2271C28.7236 38.0399 28.2866 38.8474 28.9317 39.7309C29.2238 39.4698 29.4265 39.1235 29.5113 38.741C29.596 38.3585 29.5586 37.9591 29.4042 37.599ZM29.3132 34.8144C30.8426 32.1655 32.1873 29.3989 34.7342 27.5199C32.2563 29.4571 29.7928 31.4045 29.3132 34.8144ZM31.2918 33.2863C31.9594 32.8799 32.5268 32.3283 32.9518 31.6724C33.3768 31.0165 33.6484 30.2732 33.7465 29.4979C33.0955 29.9229 32.5407 30.4796 32.1179 31.1321C31.6951 31.7846 31.4137 32.5184 31.2918 33.2863ZM31.2415 32.1781C30.7829 32.9149 30.3903 33.5635 29.98 34.2008C29.7047 34.4969 29.4974 34.8496 29.3724 35.2341C29.2475 35.6186 29.208 36.0258 29.2567 36.4272C29.9216 34.982 31.2594 33.9824 31.2415 32.1781ZM50.2667 52.5213C51.5569 52.4321 52.6892 51.5964 52.6163 50.7872C51.6375 51.0379 50.7947 51.6598 50.2667 52.5213ZM28.3552 39.2662C28.1962 39.9047 28.1976 40.5726 28.3593 41.2104C28.637 40.5652 29.0692 39.9865 28.3552 39.2662ZM34.2986 28.3443C33.709 28.7346 33.2008 29.2356 32.8023 29.8196C33.1466 29.702 33.4599 29.5083 33.7189 29.2529C33.978 28.9974 34.1761 28.6869 34.2986 28.3443ZM26.8455 40.5488C26.8121 41.2961 26.8868 42.0442 27.0672 42.7701C27.1398 42.0223 27.0644 41.2675 26.8455 40.5488ZM28.53 37.8207C28.6992 37.6115 28.825 37.3708 28.9002 37.1126C28.9754 36.8543 28.9985 36.5837 28.968 36.3164C28.6535 36.7526 28.4988 37.2838 28.53 37.8207ZM49.5552 27.4708C50.0764 27.4985 50.476 27.9164 50.9971 27.9298C50.8366 27.7102 50.6104 27.5473 50.3512 27.4648C50.0919 27.3822 49.8132 27.3843 49.5552 27.4708ZM28.7235 35.1263C28.5325 35.3232 28.3917 35.5633 28.313 35.8261C28.2344 36.0889 28.2202 36.3668 28.2716 36.6363C28.4731 36.1496 28.6245 35.6437 28.7235 35.1263Z" fill="black"/>
<path d="M40.176 59.5655L40.366 59.0369C40.6208 59.9773 40.7762 60.9418 40.8296 61.9146C40.8712 61.7214 40.9446 61.5364 41.0469 61.3673C41.3371 61.0568 41.2506 61.6396 41.5105 61.545L41.9404 59.0585C42.2684 60.5348 41.6209 61.8715 41.7645 63.3711L41.8951 62.6977C41.7401 64.0085 41.6687 65.3279 41.6814 66.6478C41.919 64.5556 42.4963 62.5269 42.8001 60.442C42.1954 60.9219 42.2779 61.6537 42.0336 62.2609C42.0016 61.6791 42.0874 61.0969 42.2859 60.5491C42.4843 60.0013 42.7914 59.4993 43.1886 59.073C43.1288 59.6355 43.1055 60.1006 43.026 60.5559C42.7859 61.9317 42.6268 63.3165 42.5152 64.7077C42.5379 64.8613 42.5186 65.0181 42.4593 65.1616C42.4 65.305 42.303 65.4298 42.1785 65.5225C42.0451 65.6718 41.976 65.8678 41.9864 66.0678C41.9784 67.0846 41.8735 68.0983 41.6731 69.0952C41.8017 68.9299 41.906 68.747 41.9829 68.5521C41.9937 69.4145 41.9104 70.2755 41.7344 71.1197C41.6264 72.024 41.5906 72.9354 41.6274 73.8453C41.6544 75.3703 41.5438 76.8977 41.4897 78.424C41.4861 78.5235 41.4849 78.6403 41.3352 78.6258C41.2857 78.6147 41.2416 78.587 41.2102 78.5472C41.1787 78.5075 41.1618 78.4582 41.1622 78.4076C41.1593 78.2901 41.1778 78.1731 41.2171 78.0624C41.2215 77.9932 41.2115 77.9239 41.1875 77.8588C41.1635 77.7938 41.1261 77.7345 41.0778 77.6848C40.9447 77.5894 40.8811 77.7686 40.8238 77.8638C40.8096 77.8964 40.789 77.9259 40.7632 77.9503C40.7374 77.9748 40.7069 77.9937 40.6736 78.0061C40.6403 78.0184 40.6048 78.0239 40.5693 78.0222C40.5338 78.0205 40.499 78.0116 40.467 77.9961C40.3939 77.9594 40.3368 77.8972 40.3065 77.8212C40.2763 77.7452 40.275 77.6607 40.303 77.5838C40.3196 76.0748 40.3174 74.5653 40.3598 73.0571C40.426 70.6993 40.2572 68.3505 40.1594 65.9981C40.1815 65.0304 39.9838 64.0703 39.5814 63.19C39.5298 63.0782 39.501 62.9573 39.4967 62.8343C39.4923 62.7114 39.5125 62.5887 39.5561 62.4736C39.7986 61.501 39.8341 60.4882 39.6603 59.5009C39.6559 59.3991 39.6595 59.2971 39.6709 59.1958C39.6855 58.9929 39.6718 58.747 39.975 58.7766C40.262 58.8046 40.1375 59.0484 40.1581 59.2113C40.1657 59.2715 40.1647 59.3327 40.176 59.5655Z" fill="black"/>
<path d="M74.6836 33.6958C75.7319 33.8807 76.7972 33.9522 77.8608 33.9088L77.0057 33.5722C77.5381 33.5027 78.0794 33.5661 78.5814 33.7566C78.5802 33.7995 78.57 33.8418 78.5513 33.8805C78.5327 33.9192 78.5061 33.9536 78.4733 33.9814C78.4405 34.0091 78.4023 34.0296 78.361 34.0416C78.3197 34.0536 78.2764 34.0567 78.2338 34.0508C76.8189 34.1734 75.3943 34.1253 73.9908 33.9075C73.4873 33.8684 72.9811 33.9366 72.5058 34.1075C70.7751 34.4603 69.0081 34.5287 67.274 34.8475C65.6603 35.1442 64.033 35.3661 62.4313 35.7293C62.3887 35.7464 62.3413 35.7476 62.2978 35.7329C62.2544 35.7181 62.2176 35.6883 62.1941 35.6489C62.9477 35.2514 63.824 35.3796 64.5851 35.0325C63.3771 35.0737 62.1735 34.602 60.9518 35.029C62.0903 34.3874 63.4157 34.4125 64.7709 33.8835C63.7785 33.4464 62.7733 33.9478 61.9464 33.4146C62.3377 33.1801 62.7809 33.0462 63.2366 33.0249C64.501 32.9408 65.7581 32.7718 67.0299 32.7563C68.8073 32.7346 70.5829 32.6296 72.3577 32.5075C73.6299 32.42 74.9083 32.4123 76.1843 32.3927C77.8413 32.4039 79.495 32.2444 81.1194 31.9168C81.6524 31.7766 82.212 31.7713 82.7476 31.9016C82.8081 31.9042 82.8666 31.9242 82.9159 31.9593C82.9653 31.9944 83.0034 32.0431 83.0255 32.0995C83.0535 32.2959 82.8448 32.3138 82.7317 32.3352C82.4376 32.3907 82.1298 32.3749 81.8361 32.4317C81.3199 32.6811 80.7756 32.8673 80.2148 32.9864C80.1777 32.9885 80.1416 32.999 80.109 33.0169C80.0765 33.0349 80.0485 33.06 80.0269 33.0902C80.0374 33.6126 79.6205 33.5434 79.3725 33.4765C77.8872 33.2052 76.3596 33.2756 74.9056 33.6824C74.8319 33.6914 74.7578 33.6959 74.6836 33.6958ZM64.9157 34.6132C66.0832 34.7694 70.5834 34.1447 71.2595 33.6785C69.0726 33.9665 66.9068 33.9306 64.9157 34.6132ZM66.4485 33.1128L66.4194 33.2729C69.2957 33.211 72.176 33.3159 75.0486 33.0938L75.0452 32.9362L66.4485 33.1128ZM69.5083 33.673L69.4991 33.5987C68.9564 33.5776 68.4138 33.5485 67.8708 33.5407C67.7217 33.5385 67.4574 33.4187 67.4822 33.736C67.501 33.9779 67.7359 33.9075 67.8678 33.8937C68.4163 33.8364 68.9617 33.7492 69.5083 33.673Z" fill="black"/>
<path d="M68.2414 49.1041C67.1621 48.8144 66.0787 48.5389 65.0051 48.2298C64.3417 48.1776 63.7025 47.9574 63.1478 47.5898C62.7841 47.4655 62.3948 47.4353 62.0162 47.5019C61.8643 47.4925 61.6519 47.5353 61.6762 47.2778C61.6972 47.055 61.8886 47.1516 62.0117 47.1395C62.6944 47.0729 63.351 47.3468 64.1457 47.3497C63.5613 46.9172 62.9021 46.5963 62.2012 46.4031C62.0819 46.361 61.8798 46.3229 61.9083 46.1834C61.9446 46.0055 62.105 46.1133 62.243 46.1196C63.348 46.3069 64.4233 46.6395 65.441 47.1087C66.2598 47.3647 67.1196 47.4886 67.9404 47.739C70.6528 48.5662 73.3593 49.4123 76.0601 50.2772C77.302 50.5878 78.5169 50.9981 79.6928 51.5039C80.1778 51.7516 80.6974 51.9095 81.1777 52.1819C80.3616 52.3982 79.6698 51.7599 78.746 51.8614C79.5097 52.1262 80.1591 52.3403 80.798 52.5823C80.9246 52.6303 81.1776 52.6733 81.1139 52.8769C81.0295 53.1469 80.8403 52.9191 80.7161 52.8839C78.16 52.159 75.5992 51.4487 73.0552 50.683C71.5341 50.2251 69.9728 49.9594 68.4327 49.594C67.225 49.2716 65.9847 49.0868 64.7354 49.0432C63.8933 48.8929 63.0437 48.7883 62.1903 48.7297C62.0891 48.74 61.9163 48.7825 61.8973 48.6103C61.8807 48.4601 62.0465 48.4573 62.1406 48.391C62.9299 47.8356 63.723 48.2747 64.4931 48.4086C65.7312 48.624 66.9526 48.935 68.1811 49.2056L68.2414 49.1041ZM66.7988 48.0623C68.0396 48.827 71.7142 50.0306 72.9346 49.7778C70.8594 49.3191 68.811 48.7464 66.7988 48.0623ZM76.3236 50.9746C75.0812 50.5081 73.7865 50.1951 72.4682 50.0425C73.7139 50.498 75.0073 50.8107 76.3236 50.9746Z" fill="black"/>
<path d="M58.2739 1.22516L56.9087 3.88594C57.0237 3.92618 56.4414 4.33722 57.0639 4.15529C57.2505 4.10075 57.1154 4.43965 57.064 4.53316C56.5061 5.59735 56.0147 6.69512 55.5927 7.82016C54.3529 10.9374 52.8061 13.9171 51.5367 17.0193C51.2692 17.8286 50.9433 18.6174 50.5616 19.3795C50.9971 17.6772 51.7025 16.0691 52.278 14.4131C51.0458 16.6526 50.0214 19.0003 49.2176 21.4268C49.1775 20.6232 49.3301 19.8216 49.6626 19.089C49.8957 18.3269 50.166 17.5762 50.3922 16.8064C49.8919 17.4961 49.4509 18.2271 49.0741 18.9914C49.0425 19.0872 48.9865 19.1731 48.9116 19.2406C48.8366 19.3081 48.7453 19.3548 48.6468 19.3762C48.4328 19.411 48.2135 19.3663 48.0302 19.2507C47.8942 19.1158 48.0861 18.8848 48.1808 18.7222C49.8676 15.8265 51.3575 12.8174 53.1504 9.98423C54.211 8.30836 54.9314 6.46681 55.8648 4.73072C56.2361 4.04 56.5898 3.33814 56.9122 2.62362C57.0243 2.37511 57.4283 2.08999 56.9406 1.78562C56.8335 1.71877 56.9816 1.54853 57.0271 1.56969C57.1992 1.62227 57.3838 1.6165 57.5523 1.55328C57.7208 1.49007 57.8636 1.37295 57.9586 1.22014C58.0626 1.19603 58.1708 1.19775 58.2739 1.22516ZM48.6001 18.7192L48.7688 18.7939C49.1713 18.1466 49.5615 17.4912 49.98 16.8544C50.3661 16.2668 50.326 15.4858 51.1217 15.0497C51.4153 14.8049 51.6561 14.503 51.8295 14.1624C52.003 13.8218 52.1054 13.4495 52.1307 13.0681C51.8894 13.4771 51.5961 13.8531 51.258 14.1866C51.7746 13.1894 52.2277 12.3149 52.6808 11.4403C51.145 13.7639 49.7811 16.1967 48.6001 18.7192ZM53.0615 11.799C53.6429 10.8449 54.1057 9.82344 54.4398 8.75728C53.856 9.71012 53.393 10.7319 53.0615 11.799Z" fill="black"/>
<path d="M17.3138 40.3138C15.9639 40.3322 14.6178 40.4602 13.2886 40.6965C13.4776 40.8079 13.6915 40.87 13.9108 40.877C14.1301 40.884 14.3475 40.8356 14.5432 40.7363C14.8558 40.6003 15.1998 40.5525 15.5376 40.5983C17.6265 40.5331 19.7136 40.3613 21.8058 40.4353C21.927 40.4368 22.0443 40.4778 22.1401 40.5521C21.1732 40.8777 20.1662 41.0689 19.1473 41.1203C19.5879 41.3062 20.0969 41.057 20.5063 41.6065C18.1765 41.2297 15.8143 41.0919 13.4565 41.1954L13.4477 41.364L16.8208 41.4951L16.8163 41.67L13.2824 41.5327C15.7853 41.9904 18.3241 42.2236 20.8685 42.2294C20.8574 42.2895 20.8341 42.3467 20.7999 42.3974C20.7657 42.4481 20.7214 42.4912 20.6698 42.5239C20.6182 42.5567 20.5604 42.5784 20.4999 42.5878C20.4395 42.5971 20.3778 42.5939 20.3187 42.5783C18.8833 42.4584 17.4487 42.3284 16.0126 42.2163C15.4714 42.1741 14.9271 42.1707 14.3786 42.1773L16.4058 42.571C15.2611 42.5107 14.1231 42.3582 13.0029 42.115C11.3204 41.7717 9.59876 41.6601 7.88595 41.7834C5.47667 42.1327 3.02528 42.0651 0.638908 41.5836C0.460361 41.5574 0.296807 41.469 0.177078 41.3339C0.124504 41.3033 0.0811455 41.2591 0.0515561 41.2059C0.0219667 41.1528 0.00723836 41.0926 0.00891826 41.0318C0.0387192 40.9671 0.0876986 40.913 0.149227 40.877C0.210755 40.841 0.28186 40.8248 0.352918 40.8305C1.33547 40.7518 2.31769 40.6285 3.30136 40.6148C4.49619 40.5982 5.69308 40.7205 6.88772 40.7007C8.50552 40.6738 10.1224 40.5758 11.739 40.4957C13.2552 40.4206 14.7641 40.2025 16.2845 40.2345C16.6254 40.1312 16.9927 40.1595 17.3138 40.3138ZM0.390218 41.1114C1.9255 41.858 3.56722 41.6138 5.17422 41.6721C4.81311 41.7162 4.44667 41.6744 4.10474 41.5502C3.75182 41.4147 3.37152 41.3659 2.99582 41.4079C2.68088 41.3691 2.25282 41.5794 2.03754 41.0173L3.32315 41.0673L3.31947 40.8982C2.33796 40.8447 1.35363 40.9163 0.390218 41.1114ZM15.9583 41.0184C16.9915 41.1468 18.0401 41.0548 19.0352 40.7484C18.0024 40.7147 16.9694 40.8054 15.9583 41.0184ZM7.60021 41.0561C8.34101 41.2265 9.11305 41.205 9.84321 40.9936C9.09953 40.8556 8.33506 40.877 7.60021 41.0561Z" fill="black"/>
<path d="M42.2291 19.0328C41.6872 17.4507 41.2701 15.8286 40.9815 14.1814C41.1298 16.3297 41.4022 18.4677 41.7976 20.5845C41.4502 20.2859 41.1958 19.8939 41.0646 19.455C40.7923 19.9256 41.1561 20.3568 40.9379 20.7781C40.2472 19.6277 40.5837 18.4021 40.5985 17.2479C40.578 14.7624 40.3948 12.2808 40.05 9.81913C39.8914 8.47678 39.7785 7.12902 39.5386 5.79735C39.4837 5.5851 39.4172 5.37601 39.3395 5.17104C39.2879 6.5028 39.3109 7.83641 39.4084 9.1656C38.9647 6.13169 38.8459 3.05911 39.054 0C39.0713 0.710746 39.1268 1.42005 39.2204 2.12482C39.5493 1.87427 39.3131 1.38748 39.7351 1.08272C40.5503 6.21993 41.6058 11.2546 42.28 16.3562C41.7372 14.2179 41.4803 12.0217 40.898 9.89097C40.7448 11.0616 40.8986 12.2519 41.3442 13.3451C41.5683 13.8609 41.696 14.4133 41.7211 14.975C41.8475 16.1344 42.0381 17.2858 42.292 18.4241C42.3433 18.6281 42.321 18.8436 42.2291 19.0328Z" fill="black"/>
<path d="M69.8788 13.6809C69.6944 14.0798 69.483 14.4657 69.2463 14.8361L71.6864 12.6128L71.8517 12.7805C69.8701 14.8856 67.8201 16.9315 65.9261 19.1126C64.0299 21.2964 62.5011 23.7682 60.742 26.072L63.5259 21.8237L63.4153 21.7253C61.4509 23.7091 59.737 25.9332 57.7243 27.8835C57.751 27.5135 57.8627 27.1546 58.0508 26.8349C58.2389 26.5152 58.4983 26.2433 58.8088 26.0403C59.3651 25.6449 59.8636 25.1739 60.29 24.6409C61.6199 23.25 62.8818 21.7942 64.168 20.3616C64.191 20.2599 64.2008 20.1557 64.1971 20.0514C63.0432 21.1427 61.9992 22.1346 60.95 23.121C59.7993 24.2029 58.6463 25.2824 57.4911 26.3595C57.2186 26.4694 56.92 26.4974 56.6318 26.4398C59.2851 23.2501 62.7061 20.8631 65.4388 17.7726C65.1778 18.2415 64.8392 18.6629 64.4375 19.0189C66.8861 17.8085 68.0448 15.4067 69.8788 13.6809ZM64.1591 19.721C62.6152 20.9569 61.158 22.2975 59.7979 23.7332C61.37 22.5305 62.8298 21.1876 64.1591 19.721Z" fill="black"/>
<path d="M52.9846 57.4165C53.0319 57.1492 52.502 56.9261 52.8135 56.7562C53.1058 56.5968 53.2039 57.0443 53.3626 57.2582C53.9393 58.0742 54.5833 58.8406 55.2877 59.5493C54.3883 58.176 53.3787 56.8781 52.2688 55.6685C52.4566 55.6642 52.6417 55.7139 52.8022 55.8115C52.9627 55.9092 53.0918 56.0508 53.1743 56.2196C55.0126 58.528 56.7237 60.9296 58.3637 63.3816C59.109 64.3691 59.9147 65.3094 60.7762 66.1974C61.2208 66.935 61.707 67.6469 62.2323 68.3295C62.2636 68.3677 62.2848 68.413 62.294 68.4615C62.3033 68.5099 62.3002 68.5599 62.2852 68.6069C62.2134 68.7242 62.0849 68.6604 61.9628 68.6331C61.5343 68.4437 61.186 68.1096 60.9789 67.6893C59.8204 66.3536 58.6528 65.0246 57.5326 63.657C56.5091 62.4719 55.4258 61.3398 54.2867 60.2652C53.4806 59.4635 52.7173 58.6188 51.9361 57.7921C51.8696 57.7451 51.8195 57.6784 51.7927 57.6015C51.8858 56.873 51.2355 56.5293 50.9664 55.9906C50.8948 55.8473 50.7222 55.7041 50.8861 55.5702C51.035 55.4484 51.2213 55.6296 51.2933 55.7218C51.7716 56.1602 52.2197 56.6305 52.6346 57.1294C52.6599 57.2054 52.7062 57.2727 52.7681 57.3235C52.8301 57.3743 52.9051 57.4065 52.9846 57.4165Z" fill="black"/>
<path d="M28.2391 54.2091C27.5939 54.7595 26.9894 55.3211 26.3378 55.8214C25.0633 56.8876 23.8797 58.0581 22.7993 59.3206C21.5778 60.5086 20.4373 61.7771 19.3854 63.1174C18.2933 64.6577 16.903 65.9487 15.8162 67.4894C15.6906 67.6676 15.569 67.9702 15.3241 67.8118C15.0599 67.6408 15.3915 67.4357 15.4307 67.2391C15.4483 67.1802 15.4709 67.1229 15.4981 67.0677C15.4511 67.054 15.4007 67.0567 15.3554 67.0756C15.3102 67.0945 15.2728 67.1283 15.2494 67.1715C15.1074 67.2903 14.9507 67.4525 14.7894 67.2463C14.6531 67.0721 14.8491 66.959 14.9521 66.8432C16.2829 65.346 17.6093 63.8458 18.9897 62.3924C19.9921 61.4457 20.9001 60.4039 21.7012 59.2818C21.76 59.1892 22.1559 58.9789 21.6464 58.8651C21.4503 58.8213 21.671 58.6308 21.7591 58.559C23.2436 57.3502 24.0703 55.6412 25.1388 54.1174C25.4322 53.699 25.6777 53.2469 26.0154 52.8512C25.7331 53.8504 24.9435 54.5768 24.5294 55.5715C25.4671 54.9826 25.6142 53.6998 26.7918 53.4215C25.6404 55.3254 24.138 56.9712 22.8734 58.8172C23.098 58.5898 23.3235 58.3634 23.5469 58.1349C23.7733 57.9034 24.0004 57.6726 24.2225 57.4371C25.0445 56.5654 25.8531 55.6807 26.6918 54.8255C26.9747 54.537 27.2036 54.0459 27.7823 54.3465C27.9135 54.248 28.0753 54.1994 28.2391 54.2091Z" fill="black"/>
<path d="M33.5241 24.0713C31.4001 22.1684 29.9788 19.7063 28.1921 17.5086C28.6954 18.5094 29.1561 19.5348 29.7133 20.5047C30.3073 21.6532 31.0712 22.7056 31.9792 23.6262C32.0272 23.6876 32.0657 23.7559 32.0934 23.8288C31.3407 24.1638 32.1877 24.5326 32.0695 24.8784C32.0381 24.9705 32.2581 25.102 32.0257 25.1539C31.9956 25.1604 31.9644 25.1606 31.9342 25.1543C31.904 25.148 31.8754 25.1355 31.8503 25.1176C31.8252 25.0997 31.8042 25.0767 31.7885 25.0501C31.7728 25.0236 31.7628 24.994 31.7592 24.9634C31.274 23.7263 30.6605 22.5435 29.9286 21.4343C28.1108 18.2307 26.3876 14.9708 24.3698 11.8839C23.6212 10.7388 22.8407 9.61457 22.0771 8.47923C21.9868 8.34499 21.9097 8.20168 21.8298 8.06071C21.7306 7.88571 21.6148 7.57488 21.8241 7.56748C22.0284 7.56027 22.2488 7.23062 22.554 7.6541C23.6747 9.2094 24.6168 10.8811 25.7302 12.4349C27.1801 14.4582 28.7142 16.4215 30.2204 18.4042C31.0528 19.5 31.9029 20.5823 32.7419 21.6732C32.7753 21.7635 32.7969 21.8578 32.8059 21.9538C30.4614 19.5181 28.6905 16.7842 26.6677 14.2455C27.2299 15.4435 27.9343 16.5694 28.7657 17.5989C29.4774 18.7256 30.2732 19.7935 31.0413 20.8814C31.8207 21.9852 32.7057 22.9983 33.5241 24.0713Z" fill="black"/>
<path d="M25.6927 29.0312C25.2553 29.0313 24.8217 28.951 24.4133 28.7943C24.9744 29.1888 25.556 29.5533 26.1556 29.8864C23.7621 28.6623 21.2931 27.5915 18.7638 26.6805C19.5073 27.1488 20.1943 27.6018 20.9011 28.0216C21.7463 28.5236 22.6041 29.005 23.4659 29.4782C23.7197 29.6106 23.9995 29.6854 24.2855 29.6972C24.5276 29.762 24.7425 29.9027 24.8989 30.0984C25.0553 30.2942 25.1449 30.5349 25.1546 30.7853C24.6149 30.6195 24.1147 30.3451 23.6848 29.9791C21.3277 28.6361 18.9922 27.2548 16.6294 25.922C14.0617 24.5279 11.5754 22.989 9.18243 21.3126C8.77872 21.0752 8.43433 20.7491 8.17533 20.3589C8.09802 20.216 7.89904 20.0501 8.10223 19.8785C8.17521 19.8407 8.25907 19.8294 8.33945 19.8466C8.41984 19.8638 8.49173 19.9085 8.5428 19.9729C9.90626 20.8686 11.2615 21.777 12.626 22.6711C14.0227 23.542 15.4727 24.3245 16.9673 25.0141C19.3773 26.1929 21.7856 27.3792 24.2601 28.4215C24.7349 28.6215 25.2083 28.8249 25.6927 29.0312Z" fill="black"/>
<path d="M24.2409 35.6093C24.1659 36.0534 23.7286 35.8985 23.5653 36.1798C24.0288 36.2682 24.4768 36.4243 24.8949 36.6429C24.9545 36.6561 25.007 36.6911 25.0421 36.7411C25.0771 36.791 25.0921 36.8523 25.0842 36.9128C25.0597 36.9542 25.0264 36.9897 24.9866 37.0169C24.9469 37.0441 24.9017 37.0622 24.8542 37.0701C24.2183 37.3289 23.5078 37.3364 22.8667 37.0909C22.3643 36.9438 21.8428 36.8725 21.3194 36.8795C19.7454 36.6219 18.1628 36.4171 16.583 36.195C16.3292 36.1594 15.9767 36.1909 16.0012 35.837C16.0281 35.4483 16.3941 35.5965 16.6374 35.5851C16.7793 35.5905 16.9214 35.5815 17.0615 35.5583C16.421 35.3328 15.7513 35.2011 15.0732 35.167C14.7948 35.1274 14.5187 35.0735 14.2459 35.0054C14.1209 34.9738 13.9623 34.9456 13.9819 34.8126C13.9916 34.7784 14.0083 34.7465 14.0309 34.719C14.0534 34.6915 14.0814 34.6688 14.113 34.6525C14.1446 34.6362 14.1793 34.6265 14.2148 34.6241C14.2503 34.6217 14.2859 34.6266 14.3195 34.6385C14.5576 34.6817 14.7927 34.7437 15.0317 34.78C17.1926 35.1079 19.355 35.4033 21.5399 35.5544C22.4386 35.6214 23.3402 35.6397 24.2409 35.6093ZM21.779 36.7378C20.236 36.0992 18.5595 35.8497 16.8974 36.0115C17.7578 36.1476 18.5374 36.2768 19.319 36.3931C20.1057 36.5102 20.8943 36.6144 21.779 36.7378ZM24.6018 36.8424C23.5212 36.3332 22.3326 36.0959 21.1394 36.151C22.2362 36.609 23.4132 36.844 24.6018 36.8424Z" fill="black"/>
<path d="M54.3856 23.3763C54.841 22.2739 55.3023 21.1575 55.7635 20.041C54.9883 20.9616 54.3267 21.9721 53.7929 23.0508C53.7759 23.1819 53.7112 23.3022 53.6112 23.3886C53.5112 23.475 53.3828 23.5216 53.2506 23.5194C53.3836 23.2202 52.8348 23.1 53.0953 22.7105C54.0062 21.348 54.9651 20.0212 55.972 18.7302C57.0394 17.3636 57.9896 15.9093 58.8124 14.3829C58.8454 14.2568 58.9134 14.1427 59.0084 14.0536C59.1034 13.9645 59.2217 13.904 59.3495 13.8792C59.3827 13.9199 59.4013 13.9707 59.4023 14.0233C59.4033 14.0758 59.3866 14.1272 59.3549 14.1692C58.7015 15.5185 58.0714 16.878 57.3609 18.2007C56.6479 19.5281 56.0045 20.8925 55.2852 22.2187C55.1949 22.6351 55.0008 23.0219 54.7211 23.3434C54.7014 23.3677 54.677 23.3879 54.6494 23.4028C54.6218 23.4177 54.5915 23.4269 54.5603 23.43C54.5291 23.433 54.4975 23.4299 54.4676 23.4207C54.4376 23.4114 54.4097 23.3964 54.3856 23.3763Z" fill="black"/>
<path d="M45.9545 21.4192C45.9905 21.2491 45.9731 21.0721 45.9047 20.9123C45.8363 20.7525 45.7202 20.6178 45.5722 20.5265C45.413 20.4476 45.4987 20.2161 45.5452 20.0271C45.828 18.8783 46.0832 17.7226 46.2638 16.5433C46.0484 17.1858 45.8247 17.8257 45.6199 18.4715C45.3989 19.1309 45.0764 19.7519 44.6641 20.3119C44.6678 19.5823 44.8366 18.863 45.1578 18.2078C45.677 16.8587 46.3462 15.5604 46.7753 14.1854C47.1579 12.9594 47.7999 11.8617 48.2385 10.671C48.2805 10.5786 48.3308 10.4902 48.3886 10.4068C48.4497 10.3034 48.5143 10.1752 48.659 10.2399C48.8607 10.33 48.7268 10.4517 48.6833 10.5845C48.0699 12.1545 47.5367 13.7547 47.0856 15.3788C46.9569 15.967 46.8162 16.5527 46.6989 17.1431C46.6865 17.2055 46.4823 17.5609 46.9049 17.343C47.0959 17.2444 46.9812 17.5017 46.9503 17.6167C46.6219 18.5641 46.346 19.5289 46.1238 20.5067C46.1198 20.8183 46.0625 21.1269 45.9545 21.4192Z" fill="black"/>
<path d="M33.2306 61.1939C33.7524 60.4592 34.1919 59.6694 34.541 58.8386C34.5811 58.7254 34.6322 58.6165 34.6936 58.5133C34.7853 58.396 34.8971 58.1917 35.0728 58.3321C35.3385 58.5443 34.9809 58.5454 34.9282 58.6529C34.309 59.9152 33.6656 61.1659 33.0659 62.4374C32.5812 63.5292 32.0278 64.5893 31.409 65.6112C31.3864 65.6769 31.3466 65.7352 31.2937 65.7802C31.2407 65.8251 31.1767 65.8549 31.1082 65.8665C31.1054 65.2374 31.2407 64.6154 31.5046 64.0443C31.9822 62.4131 32.459 60.7796 33.0223 59.1772C33.1488 58.8172 32.664 58.5261 33.0566 58.2158C33.2164 58.0895 33.2487 57.8142 33.5671 57.9374C33.929 58.0774 33.7704 58.2881 33.7124 58.5207C33.7278 59.1619 33.6583 59.8024 33.5056 60.4254C33.395 60.6744 33.3031 60.9312 33.2306 61.1939Z" fill="black"/>
<path d="M35.0509 13.9456C35.0867 13.7665 34.9929 13.5608 35.215 13.5664C35.2777 13.5932 35.3322 13.6359 35.3732 13.6903C35.4142 13.7447 35.4402 13.8089 35.4487 13.8765C36.3862 15.5276 36.4907 17.4289 37.0717 19.1843C37.1674 19.8173 37.3303 20.4383 37.5576 21.0367C37.5257 21.2627 37.4707 21.4848 37.3936 21.6996C37.3872 21.7235 37.3727 21.7445 37.3525 21.7588C37.3323 21.7732 37.3077 21.7799 37.283 21.778C37.2582 21.776 37.235 21.7655 37.2173 21.7481C37.1996 21.7308 37.1886 21.7078 37.1861 21.6831C37.1911 21.5931 37.1751 21.5032 37.1396 21.4203C37.104 21.3375 37.0497 21.264 36.981 21.2057C36.9124 21.1473 36.8311 21.1056 36.7436 21.0839C36.6561 21.0622 36.5648 21.061 36.4768 21.0804C36.3268 21.0979 36.2763 20.8612 36.2362 20.7001C35.8999 19.5611 35.7045 18.3852 35.6545 17.1986C35.5468 16.2229 35.3652 15.2567 35.1111 14.3085C35.0896 14.1701 35.0653 14.0322 35.0509 13.9456Z" fill="black"/>
<path d="M60.8825 30.3617C60.4234 30.3937 59.977 30.5267 59.5752 30.7511C59.4047 30.5164 59.5651 30.4288 59.7175 30.3149C61.0704 29.3417 62.5298 28.5257 64.0674 27.8827C65.1111 27.4221 66.1552 26.9641 67.2165 26.5467C67.3575 26.4912 67.5794 26.2833 67.685 26.5369C67.7701 26.7411 67.5191 26.8261 67.3674 26.9007C66.0867 27.4657 64.8701 28.166 63.7383 28.9897C62.9341 29.6398 62.0902 30.2393 61.2115 30.7847C61.0367 30.8912 60.9087 30.9937 60.7448 30.8239C60.527 30.5983 60.9262 30.5745 60.8825 30.3617Z" fill="black"/>
<path d="M64.3779 58.4201C64.1647 58.4518 63.9469 58.4216 63.7503 58.333C63.5538 58.2445 63.3868 58.1014 63.2693 57.9207C63.1038 57.7599 62.9076 57.6342 62.6924 57.5509C62.4772 57.4677 62.2475 57.4286 62.0169 57.436C61.9053 57.4383 61.7944 57.417 61.6915 57.3735C61.5887 57.3299 61.4962 57.2652 61.4202 57.1834C59.9235 55.9556 58.3238 54.8591 56.6388 53.906C56.546 53.8645 56.4667 53.7976 56.4101 53.7131C56.3535 53.6285 56.3219 53.5297 56.319 53.428C56.318 53.1067 56.6526 53.3576 56.7102 53.276C57.2012 52.5801 57.4963 53.2711 57.7974 53.4518C59.1748 54.2489 60.4749 55.1725 61.6809 56.2107C62.6309 56.8825 63.5322 57.6208 64.3779 58.4201ZM57.54 53.934L59.5647 55.2692C59.0627 54.6053 58.3479 54.1339 57.54 53.934Z" fill="black"/>
<path d="M23.3008 45.3595C23.3734 45.4204 23.4194 45.5072 23.4291 45.6015C23.4388 45.6957 23.4113 45.79 23.3525 45.8644C23.2776 45.9634 23.2841 45.9683 23.41 46.029C23.5711 46.1067 23.5652 46.2306 23.3204 46.3532C22.8197 46.6039 22.2979 46.8124 21.7862 47.0415C21.6814 47.0884 21.583 47.1496 21.4264 47.2341C22.3447 47.2546 23.074 46.5828 24.0323 46.8002C23.2681 47.1447 22.4714 47.4122 21.6541 47.5985C20.3814 47.9635 19.1641 48.4995 18.0353 49.1916C17.6443 49.4373 17.1826 49.3986 16.8054 49.6432C16.7766 49.6643 16.7434 49.6786 16.7083 49.685C16.6732 49.6913 16.6371 49.6896 16.6028 49.6799C16.5684 49.6702 16.5368 49.6528 16.5102 49.6291C16.4835 49.6053 16.4627 49.5758 16.4492 49.5428C16.4423 49.4816 16.4585 49.42 16.4946 49.3701C16.5308 49.3202 16.5842 49.2856 16.6446 49.2731C16.957 49.1374 17.2559 48.9723 17.537 48.7799C19.2801 47.3227 21.5441 46.7775 23.3008 45.3595Z" fill="black"/>
<path d="M64.5598 40.2629C63.9747 39.8811 63.377 39.8709 62.8444 39.4817C63.374 39.5289 63.8896 39.6776 64.3629 39.9198C65.9568 40.4477 67.5834 40.8712 69.2324 41.1875C69.4908 41.2409 69.9938 41.191 69.9379 41.5303C69.8839 41.8577 69.4026 41.6949 69.1453 41.6418C67.7021 41.3438 66.218 41.3156 64.7846 40.9898C63.5976 40.8975 62.4274 40.6531 61.3027 40.2626L62.6138 40.3135C62.4264 40.2918 62.2453 40.2325 62.0813 40.1393C61.9173 40.0461 61.7738 39.9208 61.6592 39.771L64.5598 40.2629Z" fill="black"/>
<path d="M28.8418 27.8186C28.1054 27.2533 27.4693 26.5681 26.9602 25.7918C26.0501 24.5281 25.0729 23.3141 24.0327 22.1551C23.9068 22.024 23.7957 21.8794 23.7012 21.7241C23.6689 21.6509 23.6656 21.5682 23.692 21.4926C23.7184 21.4171 23.7726 21.3544 23.8436 21.3174C23.9552 21.2165 24.0679 21.3106 24.1548 21.4043C24.1996 21.4456 24.24 21.4915 24.2752 21.5413C24.9389 22.598 25.7864 23.5275 26.7776 24.2856C27.5206 24.8932 28.193 25.606 28.9086 26.2601C29.2919 26.4639 29.6194 26.7587 29.8624 27.1185C28.9323 26.5724 28.0536 25.9432 27.2372 25.2384C27.8704 26.0332 28.4089 26.8991 28.8418 27.8186Z" fill="black"/>
<path d="M48.4517 67.6781C47.162 64.8246 46.5879 61.692 45.2162 58.9099C45.9105 58.9274 45.9618 58.9168 46.1748 59.9529C46.5087 61.5766 47.2272 63.0688 47.687 64.6476C47.9763 65.6412 48.294 66.6265 48.599 67.6155L48.4517 67.6781Z" fill="black"/>
<path d="M40.3531 16.9083C39.9063 14.7521 39.6494 12.5609 39.5853 10.3599L40.3531 16.9083Z" fill="black"/>
<path d="M52.0327 50.022C52.1395 49.7096 52.2215 49.3892 52.278 49.0639C51.9056 49.1239 51.5539 49.2752 51.2542 49.5043C50.9546 49.7334 50.7165 50.0332 50.5611 50.3769C50.5366 50.4841 50.4856 50.5835 50.4128 50.6659C50.34 50.7484 50.2477 50.8113 50.1443 50.8488C50.1872 50.4436 50.6098 50.2168 50.6856 49.7623C50.0153 50.0512 49.2976 50.2143 48.5682 50.2436C49.2276 50.0002 49.9078 49.8145 50.5415 49.5089C50.6936 49.4613 50.8374 49.3904 50.9679 49.2989C51.0578 49.2524 51.1287 49.1761 51.1685 49.083C51.2083 48.99 51.2145 48.886 51.1861 48.7889C51.0669 48.6033 50.8821 48.8263 50.7229 48.8473C50.3843 49.0404 49.9889 49.1098 49.6047 49.0434C49.855 48.8825 50.1377 48.7789 50.4327 48.7399C51.1164 48.3793 51.8018 48.0217 52.4798 47.6507C52.6081 47.5806 52.8025 47.4995 52.6863 47.2836C52.5886 47.1019 52.7612 47.0557 52.8352 47.0476C54.1373 46.9041 54.6626 45.8127 55.2274 44.9086C55.5531 44.3874 54.9092 44.626 54.6348 44.5777C54.8025 44.4725 54.7784 44.0796 55.1983 44.353C55.5476 44.5803 55.6405 44.7727 55.4306 45.1223C55.2697 45.4481 55.0603 45.7475 54.8095 46.0104C54.5907 46.2063 54.4168 46.4471 54.2997 46.7164C54.1826 46.9857 54.1251 47.2772 54.131 47.5708C55.2519 46.5687 55.9896 45.2082 56.2177 43.722C56.2892 44.2675 56.2543 44.8217 56.1149 45.3539C56.0773 45.9022 55.9765 46.4442 55.8145 46.9693C55.6795 46.5443 55.9636 46.0976 55.7959 45.6289C55.3622 46.3478 55.4405 47.267 54.7899 47.8446L54.802 47.5324C54.4579 47.7028 54.1578 47.9505 53.9252 48.2561C53.6926 48.5617 53.5337 48.9168 53.461 49.2939L53.6616 48.3221C53.3671 48.3557 53.09 48.4789 52.8678 48.6751C52.6455 48.8713 52.489 49.131 52.4192 49.4191C52.3474 49.6514 52.2138 49.8598 52.0327 50.022ZM53.9288 46.7972C53.4677 47.3539 52.7771 47.5242 52.8391 48.2979C53.0162 48.2875 53.1888 48.238 53.3444 48.1528C53.5001 48.0677 53.6349 47.949 53.7391 47.8055C53.8433 47.6619 53.9144 47.497 53.9472 47.3227C53.98 47.1483 53.9738 46.9689 53.9288 46.7972ZM51.3378 49.0111C52.1752 48.977 52.5886 48.625 52.5213 47.9961C52.2488 48.0376 51.9934 48.1548 51.7842 48.3342C51.575 48.5136 51.4204 48.7481 51.3378 49.0111Z" fill="black"/>
<path d="M55.3103 35.4711L53.9965 33.6102C54.6156 34.0804 55.0744 34.7303 55.3103 35.4711Z" fill="black"/>
<path d="M45.9272 27.5449C46.6435 27.7807 47.268 28.2347 47.7134 28.8432C47.0681 28.4836 46.4684 28.0477 45.9272 27.5449Z" fill="black"/>
<path d="M56.8179 41.5686C56.7716 42.187 56.4849 42.7626 56.0192 43.172C56.1991 42.596 56.6163 42.1334 56.8179 41.5686Z" fill="black"/>
</g>
<defs>
<clipPath id="clip0_2357_3584">
<rect width="84" height="79" fill="white"/>
</clipPath>
</defs>
</svg>
