<svg width="80" height="50" viewBox="0 0 80 50" fill="none" xmlns="http://www.w3.org/2000/svg">
<g clip-path="url(#clip0_2357_3827)">
<path d="M53.9135 54.0046C53.8633 53.7771 53.8403 53.5445 53.845 53.3116C53.6091 54.0585 53.4214 54.8198 53.2832 55.5908C53.0086 56.8892 52.5141 58.1311 51.8212 59.263C50.559 61.0215 48.8419 62.4033 46.8542 63.2602C44.4445 64.3842 41.8427 65.0385 39.1881 65.188C38.1879 65.2119 37.1877 65.1468 36.1991 64.9936C35.1955 64.9413 34.1996 64.791 33.2253 64.5448C31.6594 63.9715 30.1919 63.1587 28.8752 62.1354C27.1201 60.8263 25.6697 59.1523 24.624 57.2287C23.5814 55.4531 22.9325 53.4742 22.7211 51.426C22.684 50.7632 22.6069 50.1033 22.4904 49.4498C22.4354 49.2288 22.2088 48.7548 22.8626 48.8537C23.0125 48.8764 23.1083 48.5632 23.0667 48.3503C22.9235 46.916 23.1872 45.4704 23.8274 44.179C24.3227 42.6861 25.0552 41.2827 25.9969 40.0228C26.9554 38.7306 28.0615 37.5547 29.2925 36.5188C30.8733 35.4086 32.5644 34.4644 34.3389 33.701C34.752 33.4498 35.2374 33.3443 35.7175 33.4014C36.9974 33.7824 38.2361 33.2979 39.4917 33.3088C41.2144 33.3332 42.9056 33.7743 44.4207 34.5945C45.1459 34.9674 45.9508 35.1635 46.6615 35.593C47.341 35.9507 47.9384 36.4464 48.4154 37.0482C48.6664 37.312 48.96 37.5317 49.2838 37.6981C50.1813 38.4882 50.9453 39.418 51.5462 40.4518C52.0425 40.9865 52.4756 41.5765 52.8368 42.2103C53.2566 43.5076 53.567 44.8378 53.7647 46.187C53.818 46.5599 53.9219 46.9238 54.0735 47.2686C54.3633 47.8977 54.4594 48.5988 54.3495 49.2827C54.2555 50.3281 54.3118 51.3737 54.2361 52.4162C54.2602 52.5667 54.2425 52.7209 54.1851 52.8621C54.1277 53.0032 54.0326 53.1259 53.9103 53.2169C54.3715 53.5073 53.8691 53.7394 53.9135 54.0046ZM25.3952 46.599C25.5448 46.7258 25.683 46.8654 25.8082 47.0163C26.2286 46.6334 26.306 45.9974 26.752 45.6185C26.6574 46.0709 26.4601 46.4955 26.1753 46.8595C26.1248 46.9198 26.0893 46.9911 26.0715 47.0678C26.0538 47.1444 26.0545 47.2241 26.0734 47.3004C26.0923 47.3768 26.129 47.4476 26.1804 47.507C26.2319 47.5665 26.2966 47.613 26.3695 47.6427C26.1263 47.7312 25.8547 47.3602 25.7459 47.7057C25.5417 48.354 24.7512 48.919 25.5315 49.7776C24.9333 49.4351 24.9884 49.464 24.7257 49.9635C24.5722 50.3124 24.521 50.6977 24.5782 51.0745C24.6353 51.4514 24.7984 51.8042 25.0484 52.0919C25.0941 52.1525 25.1468 52.2075 25.2055 52.2556C25.2324 52.12 25.2852 51.9908 25.361 51.8752L26.0615 53.6991C25.6605 52.7879 24.7356 52.2624 24.4022 51.3143C24.2373 51.6277 24.1303 51.9682 24.0865 52.3196C24.1295 51.5736 23.9672 50.8301 23.6172 50.1698C23.4601 50.7531 23.4721 51.3689 23.6518 51.9456C23.8483 52.9447 24.1905 53.9141 24.4165 54.9085C24.708 56.2934 25.2898 57.6008 26.1237 58.7443C26.7718 59.9132 27.773 60.8473 28.9841 61.4128C30.4355 62.1106 31.846 62.8904 33.2087 63.7484C33.4411 63.9236 33.7098 64.0444 33.995 64.1019C34.2803 64.1595 34.5748 64.1524 34.8569 64.0811C35.1544 64.0107 35.467 64.043 35.7437 64.173C36.7649 64.6146 37.8724 64.8209 38.9841 64.7765C40.6519 64.7268 42.3031 64.429 43.8832 63.8931C44.3994 63.8308 44.8937 63.6479 45.3261 63.3591C44.3586 63.3859 43.5289 63.8639 42.6038 63.7748C42.737 63.6391 42.9161 63.5582 43.1059 63.5477C44.3614 63.3674 45.581 62.9921 46.7207 62.4356C47.4035 61.9886 48.2147 61.7595 48.916 61.3056C49.5861 60.8718 49.9333 60.1436 50.6127 59.6967C51.0708 59.2187 51.3833 58.62 51.5135 57.9708C51.2385 58.2938 50.9383 58.5946 50.6158 58.8703C49.9769 59.3201 49.8274 60.1628 49.1402 60.5814C48.134 61.1755 47.0724 61.6703 45.9704 62.0589C45.5355 62.3412 45.0545 62.5453 44.5493 62.6617C44.0395 62.6779 43.5322 62.7408 43.0338 62.8495C43.2015 62.5745 43.4558 62.363 43.7569 62.2483C44.6973 62.5908 46.2927 61.3636 46.6574 60.5594C46.2423 60.5976 45.8396 60.7215 45.4749 60.9234C45.1103 61.1253 44.7915 61.4008 44.5388 61.7323C44.4525 61.8697 44.3375 61.9868 44.2018 62.0756C44.066 62.1644 43.9127 62.2229 43.7523 62.2471C44.6056 61.4926 45.2567 60.5377 46.1536 59.8267C46.0603 60.0194 45.9816 60.2189 45.9182 60.4234C46.2922 60.4326 46.6622 60.3452 46.9925 60.1695C47.3228 59.9939 47.6021 59.736 47.8035 59.4208C47.7668 59.6666 47.7299 59.8392 48.119 59.7364C48.5935 59.4964 49.0077 59.1523 49.3306 58.7299C49.3242 58.842 49.3483 58.9538 49.4003 59.0534C49.4675 59.0745 49.5401 59.0708 49.6049 59.0428C49.6696 59.0149 49.7221 58.9647 49.7529 58.9012C49.9318 58.6643 50.0851 58.4081 50.2489 58.1598C50.2863 58.2801 50.1137 58.5527 50.3727 58.4953C50.5086 58.4594 50.6294 58.3806 50.7172 58.2707C50.8049 58.1608 50.855 58.0256 50.86 57.885C50.8735 57.6472 50.7646 57.4933 50.4914 57.6471C50.4923 57.343 50.5998 57.0489 50.7953 56.8159C50.7796 56.8958 50.7707 56.9769 50.7687 57.0582C50.7588 57.1985 50.7999 57.3377 50.8844 57.4501C50.9689 57.5626 51.0912 57.6407 51.2287 57.6702C51.5326 57.6332 51.5625 57.3079 51.4346 56.9887C51.4057 56.8396 51.4167 56.6855 51.4663 56.542C51.5159 56.3984 51.6025 56.2705 51.7173 56.171C51.9428 56.4075 51.5491 56.6212 51.7539 56.8923C51.808 56.8199 51.8544 56.742 51.8921 56.6598C52.2247 55.5459 52.588 54.4393 52.8641 53.3114C53.0119 52.8876 53.0738 52.4386 53.0461 51.9907C52.954 51.7995 52.8951 51.5939 52.8722 51.3829C53.1657 50.8926 53.2735 50.3132 53.1761 49.7501C53.2486 47.9467 52.9615 46.1469 52.3317 44.4555C52.2002 44.5181 52.0819 44.6054 51.9833 44.7127C51.9513 44.559 51.908 44.405 51.8881 44.2479C51.7053 43.1931 51.2717 42.1976 50.6239 41.3454C50.1779 40.7495 49.7644 40.1299 49.3853 39.4894C48.7331 38.3141 47.6733 37.418 46.4059 36.9702C46.0409 36.7423 45.6041 36.6585 45.1807 36.7349C45.9593 37.5352 46.8431 38.2258 47.8078 38.7879C47.6215 38.7534 47.4309 38.7497 47.2434 38.7769C47.5014 39.1626 47.847 39.482 48.252 39.7088C48.2906 39.7246 48.4727 39.7624 48.3428 39.8235C47.8614 40.0496 48.3145 40.1643 48.3965 40.2844C48.6128 40.6014 48.8677 40.8918 49.0985 41.1994C49.2891 41.4534 49.1546 41.5681 48.899 41.5999C48.4658 41.6538 48.7636 41.3144 48.6794 41.1775C48.0462 40.1912 47.3209 39.2671 46.5131 38.4177C46.408 38.3912 46.3114 38.3379 46.2329 38.2631C46.1543 38.1883 46.0964 38.0945 46.0647 37.9907C45.8897 37.2054 44.2195 36.4406 43.2232 36.5435C43.9573 37.0737 44.284 38.0045 45.2865 38.0499C44.7041 38.4417 45.3528 38.5562 45.474 38.7799C45.69 39.179 46.1505 38.9381 46.5536 39.1252L45.8817 39.1924L46.8733 40.3604C46.0216 39.7373 45.4074 38.8771 44.4888 38.1159C44.5518 38.7895 45.1302 38.962 45.2586 39.3837L45.1248 39.4661C44.6458 38.9185 44.1668 38.371 43.6878 37.8234C43.793 37.8819 43.8971 37.9425 44.0038 37.9982C44.131 38.0645 44.2148 38.3416 44.3871 38.1656C44.5957 37.9526 44.3101 37.8726 44.1995 37.7547C43.4493 36.9994 42.6127 36.335 41.7071 35.7753C42.777 36.5968 43.954 35.9881 45.1603 36.1885C44.7189 35.9608 44.2344 35.8291 43.7385 35.802C44.6286 35.7639 45.5188 35.8758 46.3719 36.133C45.3643 35.4228 44.1355 35.0974 42.9084 35.2158C42.0468 35.2089 41.1993 35.4344 40.4552 35.8687C40.3216 35.711 40.3246 35.6311 40.5367 35.5382C41.2376 35.1842 42.0101 34.9948 42.7952 34.9844C42.9658 34.9904 43.1471 34.9838 43.1751 34.7789C43.203 34.575 42.9747 34.6188 42.8684 34.5506C42.7586 34.4994 42.637 34.4788 42.5165 34.4909C41.7982 34.3891 41.0657 34.4772 40.3921 34.7467C40.6405 34.5399 40.9067 34.3553 41.1874 34.195C40.942 34.159 40.7088 34.0649 40.5071 33.9207C39.4447 33.6451 38.3334 33.6156 37.2579 33.8343C35.2172 34.3295 33.0289 34.5168 31.5042 36.2924C31.1984 36.6091 30.9128 36.9449 30.6494 37.2977C30.6097 37.3578 30.4559 37.4923 30.571 37.5332C31.111 37.7251 30.588 37.8802 30.5332 37.8977C30.3319 37.996 30.1758 38.1674 30.0967 38.3769C29.7273 38.9384 29.6524 39.623 29.3185 40.2082C29.0967 40.5971 29.2307 40.7113 29.8548 40.63C29.555 40.7362 29.2959 40.9334 29.1135 41.1939C28.9311 41.4545 28.8345 41.7654 28.8373 42.0835C28.8844 42.427 28.7977 42.7756 28.5951 43.0571C28.4255 42.5257 28.8235 42.0201 28.7092 41.4353C28.2704 41.7338 27.8784 42.0958 27.5459 42.5094C27.2597 42.7914 27.081 43.1646 27.0408 43.5643C27.0005 43.9641 27.1011 44.3654 27.3253 44.6989C27.4012 44.8189 27.5325 45.1465 27.1304 45.147L26.7776 43.3423C26.3612 43.9893 26.0194 44.5242 25.6737 45.0564C25.4934 45.2679 25.3733 45.524 25.3261 45.7979C25.2789 46.0718 25.3064 46.3533 25.4055 46.6129C25.3148 46.4596 25.1917 46.3279 25.0448 46.2271C24.7147 47.0399 24.2777 47.8474 24.9228 48.7309C25.2149 48.4698 25.4176 48.1235 25.5023 47.741C25.5871 47.3585 25.5496 46.9591 25.3952 46.599ZM25.3042 43.8144C26.8337 41.1655 28.1784 38.3989 30.7253 36.5199C28.2474 38.4571 25.7839 40.4045 25.3042 43.8144ZM27.2829 42.2863C27.9505 41.8799 28.5179 41.3283 28.9429 40.6724C29.3679 40.0165 29.6395 39.2732 29.7376 38.4979C29.0865 38.9229 28.5318 39.4796 28.109 40.1321C27.6862 40.7846 27.4048 41.5184 27.2829 42.2863ZM27.2326 41.1781C26.774 41.9149 26.3814 42.5635 25.9711 43.2008C25.6958 43.4969 25.4885 43.8496 25.3635 44.2341C25.2386 44.6186 25.1991 45.0258 25.2478 45.4272C25.9127 43.982 27.2505 42.9824 27.2326 41.1781ZM46.2578 61.5213C47.548 61.4321 48.6803 60.5964 48.6074 59.7872C47.6286 60.0379 46.7858 60.6598 46.2578 61.5213ZM24.3463 48.2662C24.1873 48.9047 24.1887 49.5726 24.3504 50.2104C24.6281 49.5652 25.0603 48.9865 24.3463 48.2662ZM30.2897 37.3443C29.7001 37.7346 29.1919 38.2356 28.7934 38.8196C29.1376 38.702 29.451 38.5083 29.71 38.2529C29.9691 37.9974 30.1672 37.6869 30.2897 37.3443ZM22.8366 49.5488C22.8032 50.2961 22.8778 51.0442 23.0583 51.7701C23.1309 51.0223 23.0555 50.2675 22.8366 49.5488ZM24.5211 46.8207C24.6903 46.6115 24.8161 46.3708 24.8913 46.1126C24.9665 45.8543 24.9895 45.5837 24.9591 45.3164C24.6445 45.7526 24.4899 46.2838 24.5211 46.8207ZM45.5463 36.4708C46.0675 36.4985 46.4671 36.9164 46.9882 36.9298C46.8277 36.7102 46.6015 36.5473 46.3423 36.4648C46.083 36.3822 45.8043 36.3843 45.5463 36.4708ZM24.7146 44.1263C24.5236 44.3232 24.3828 44.5633 24.3041 44.8261C24.2255 45.0889 24.2113 45.3668 24.2627 45.6363C24.4642 45.1496 24.6156 44.6437 24.7146 44.1263Z" fill="black"/>
<path d="M70.6747 42.6958C71.723 42.8807 72.7883 42.9522 73.8519 42.9088L72.9968 42.5722C73.5292 42.5027 74.0705 42.5661 74.5725 42.7566C74.5713 42.7995 74.561 42.8418 74.5424 42.8805C74.5238 42.9192 74.4972 42.9536 74.4644 42.9814C74.4316 43.0091 74.3933 43.0296 74.3521 43.0416C74.3108 43.0536 74.2675 43.0567 74.2249 43.0508C72.8099 43.1734 71.3854 43.1253 69.9819 42.9075C69.4783 42.8684 68.9722 42.9366 68.4969 43.1075C66.7662 43.4603 64.9992 43.5287 63.2651 43.8475C61.6514 44.1442 60.0241 44.3661 58.4224 44.7293C58.3797 44.7464 58.3324 44.7476 58.2889 44.7329C58.2454 44.7181 58.2087 44.6883 58.1852 44.6489C58.9388 44.2514 59.8151 44.3796 60.5762 44.0325C59.3682 44.0737 58.1646 43.602 56.9429 44.029C58.0814 43.3874 59.4068 43.4125 60.7619 42.8835C59.7696 42.4464 58.7644 42.9478 57.9375 42.4146C58.3288 42.1801 58.772 42.0462 59.2277 42.0249C60.4921 41.9408 61.7492 41.7718 63.021 41.7563C64.7984 41.7346 66.574 41.6296 68.3488 41.5075C69.621 41.42 70.8993 41.4123 72.1753 41.3927C73.8323 41.4039 75.4861 41.2444 77.1104 40.9168C77.6435 40.7766 78.2031 40.7713 78.7387 40.9016C78.7992 40.9042 78.8577 40.9242 78.907 40.9593C78.9564 40.9944 78.9944 41.0431 79.0166 41.0995C79.0446 41.2959 78.8359 41.3138 78.7228 41.3352C78.4287 41.3907 78.1209 41.3749 77.8272 41.4317C77.311 41.6811 76.7666 41.8673 76.2059 41.9864C76.1688 41.9885 76.1327 41.999 76.1001 42.0169C76.0676 42.0349 76.0395 42.06 76.018 42.0902C76.0285 42.6126 75.6116 42.5434 75.3635 42.4765C73.8783 42.2052 72.3507 42.2756 70.8967 42.6824C70.823 42.6914 70.7489 42.6959 70.6747 42.6958ZM60.9068 43.6132C62.0743 43.7694 66.5745 43.1447 67.2506 42.6785C65.0637 42.9665 62.8979 42.9306 60.9068 43.6132ZM62.4396 42.1128L62.4105 42.2729C65.2868 42.211 68.1671 42.3159 71.0397 42.0938L71.0363 41.9362L62.4396 42.1128ZM65.4994 42.673L65.4902 42.5987C64.9475 42.5776 64.4048 42.5485 63.8619 42.5407C63.7128 42.5385 63.4485 42.4187 63.4733 42.736C63.4921 42.9779 63.727 42.9075 63.8589 42.8937C64.4074 42.8364 64.9528 42.7492 65.4994 42.673Z" fill="black"/>
<path d="M54.265 10.2252L52.8998 12.8859C53.0148 12.9262 52.4325 13.3372 53.055 13.1553C53.2416 13.1008 53.1065 13.4397 53.0551 13.5332C52.4971 14.5974 52.0057 15.6951 51.5837 16.8202C50.344 19.9374 48.7972 22.9171 47.5278 26.0193C47.2603 26.8286 46.9344 27.6174 46.5527 28.3795C46.9882 26.6772 47.6936 25.0691 48.2691 23.4131C47.0369 25.6526 46.0125 28.0003 45.2087 30.4268C45.1686 29.6232 45.3212 28.8216 45.6537 28.089C45.8868 27.3269 46.1571 26.5762 46.3833 25.8064C45.883 26.4961 45.442 27.2271 45.0651 27.9914C45.0336 28.0872 44.9776 28.1731 44.9027 28.2406C44.8277 28.3081 44.7364 28.3548 44.6379 28.3762C44.4239 28.411 44.2046 28.3663 44.0213 28.2507C43.8853 28.1158 44.0772 27.8848 44.1719 27.7222C45.8587 24.8265 47.3486 21.8174 49.1415 18.9842C50.2021 17.3084 50.9225 15.4668 51.8558 13.7307C52.2272 13.04 52.5808 12.3381 52.9033 11.6236C53.0154 11.3751 53.4194 11.09 52.9317 10.7856C52.8246 10.7188 52.9727 10.5485 53.0182 10.5697C53.1903 10.6223 53.3749 10.6165 53.5434 10.5533C53.7119 10.4901 53.8547 10.3729 53.9497 10.2201C54.0536 10.196 54.1619 10.1978 54.265 10.2252ZM44.5912 27.7192L44.7599 27.7939C45.1624 27.1466 45.5525 26.4912 45.9711 25.8544C46.3572 25.2668 46.3171 24.4858 47.1128 24.0497C47.4064 23.8049 47.6472 23.503 47.8206 23.1624C47.9941 22.8218 48.0965 22.4495 48.1218 22.0681C47.8805 22.4771 47.5872 22.8531 47.2491 23.1866C47.7657 22.1894 48.2188 21.3149 48.6718 20.4403C47.1361 22.7639 45.7722 25.1967 44.5912 27.7192ZM49.0526 20.799C49.6339 19.8449 50.0968 18.8234 50.4309 17.7573C49.8471 18.7101 49.3841 19.7319 49.0526 20.799Z" fill="black"/>
<path d="M13.305 49.3138C11.9551 49.3322 10.609 49.4602 9.27983 49.6965C9.46877 49.8079 9.68275 49.87 9.90201 49.877C10.1213 49.884 10.3388 49.8356 10.5344 49.7363C10.847 49.6003 11.191 49.5525 11.5288 49.5983C13.6177 49.5331 15.7048 49.3613 17.797 49.4353C17.9182 49.4368 18.0356 49.4778 18.1313 49.5521C17.1644 49.8777 16.1574 50.0689 15.1385 50.1203C15.5791 50.3062 16.0881 50.057 16.4975 50.6065C14.1677 50.2297 11.8055 50.0919 9.44774 50.1954L9.43889 50.364L12.812 50.4951L12.8075 50.67L9.2736 50.5327C11.7765 50.9904 14.3153 51.2236 16.8597 51.2294C16.8486 51.2895 16.8253 51.3467 16.7911 51.3974C16.7569 51.4481 16.7126 51.4912 16.661 51.5239C16.6094 51.5567 16.5516 51.5784 16.4912 51.5878C16.4307 51.5971 16.369 51.5939 16.3099 51.5783C14.8745 51.4584 13.4399 51.3284 12.0038 51.2163C11.4626 51.1741 10.9183 51.1707 10.3698 51.1773L12.397 51.571C11.2523 51.5107 10.1144 51.3582 8.99416 51.115C7.31159 50.7717 5.58997 50.6601 3.87716 50.7834C1.46788 51.1327 -0.983509 51.0651 -3.36988 50.5836C-3.54843 50.5574 -3.71198 50.469 -3.83171 50.3339C-3.88429 50.3033 -3.92764 50.2591 -3.95723 50.2059C-3.98682 50.1528 -4.00155 50.0926 -3.99987 50.0318C-3.97007 49.9671 -3.92109 49.913 -3.85956 49.877C-3.79803 49.841 -3.72693 49.8248 -3.65587 49.8305C-2.67332 49.7518 -1.6911 49.6285 -0.707431 49.6148C0.487399 49.5982 1.68429 49.7205 2.87893 49.7007C4.49673 49.6738 6.11357 49.5758 7.7302 49.4957C9.24639 49.4206 10.7553 49.2025 12.2757 49.2345C12.6166 49.1312 12.9839 49.1595 13.305 49.3138ZM-3.61857 50.1114C-2.08329 50.858 -0.44157 50.6138 1.16543 50.6721C0.804316 50.7162 0.437884 50.6744 0.0959487 50.5502C-0.256966 50.4147 -0.637265 50.3659 -1.01297 50.4079C-1.32791 50.3691 -1.75597 50.5794 -1.97125 50.0173L-0.685641 50.0673L-0.689321 49.8982C-1.67083 49.8447 -2.65516 49.9163 -3.61857 50.1114ZM11.9495 50.0184C12.9827 50.1468 14.0314 50.0548 15.0264 49.7484C13.9936 49.7147 12.9606 49.8054 11.9495 50.0184ZM3.59142 50.0561C4.33222 50.2265 5.10426 50.205 5.83442 49.9936C5.09074 49.8556 4.32627 49.877 3.59142 50.0561Z" fill="black"/>
<path d="M38.2203 28.0328C37.6784 26.4507 37.2613 24.8286 36.9727 23.1814C37.121 25.3297 37.3935 27.4677 37.7888 29.5845C37.4414 29.2859 37.1871 28.8939 37.0558 28.455C36.7835 28.9256 37.1473 29.3568 36.9291 29.7781C36.2384 28.6277 36.5749 27.4021 36.5897 26.2479C36.5692 23.7624 36.386 21.2808 36.0412 18.8191C35.8826 17.4768 35.7697 16.129 35.5298 14.7973C35.4749 14.5851 35.4084 14.376 35.3307 14.171C35.2791 15.5028 35.3021 16.8364 35.3996 18.1656C34.9559 15.1317 34.8371 12.0591 35.0453 9C35.0625 9.71075 35.118 10.42 35.2116 11.1248C35.5405 10.8743 35.3043 10.3875 35.7263 10.0827C36.5415 15.2199 37.597 20.2546 38.2712 25.3562C37.7284 23.2179 37.4715 21.0217 36.8892 18.891C36.7361 20.0616 36.8898 21.2519 37.3354 22.3451C37.5595 22.8609 37.6872 23.4133 37.7123 23.975C37.8387 25.1344 38.0293 26.2858 38.2832 27.4241C38.3345 27.6281 38.3122 27.8436 38.2203 28.0328Z" fill="black"/>
<path d="M65.8701 22.6809C65.6856 23.0798 65.4742 23.4657 65.2375 23.8361L67.6776 21.6128L67.8429 21.7805C65.8613 23.8856 63.8113 25.9315 61.9173 28.1126C60.0211 30.2964 58.4923 32.7682 56.7332 35.072L59.5171 30.8237L59.4065 30.7253C57.4421 32.7091 55.7282 34.9332 53.7155 36.8835C53.7422 36.5135 53.8539 36.1546 54.042 35.8349C54.2301 35.5152 54.4895 35.2433 54.8 35.0403C55.3563 34.6449 55.8548 34.1739 56.2812 33.6409C57.6111 32.25 58.8731 30.7942 60.1592 29.3616C60.1822 29.2599 60.192 29.1557 60.1883 29.0514C59.0344 30.1427 57.9904 31.1346 56.9412 32.121C55.7905 33.2029 54.6375 34.2824 53.4823 35.3595C53.2099 35.4694 52.9112 35.4974 52.623 35.4398C55.2763 32.2501 58.6973 29.8631 61.43 26.7726C61.169 27.2415 60.8304 27.6629 60.4287 28.0189C62.8773 26.8085 64.036 24.4067 65.8701 22.6809ZM60.1504 28.721C58.6064 29.9569 57.1492 31.2975 55.7891 32.7332C57.3613 31.5305 58.821 30.1876 60.1504 28.721Z" fill="black"/>
<path d="M29.5153 33.0713C27.3913 31.1684 25.97 28.7063 24.1833 26.5086C24.6866 27.5094 25.1473 28.5348 25.7045 29.5047C26.2985 30.6532 27.0624 31.7056 27.9704 32.6262C28.0184 32.6876 28.0569 32.7559 28.0846 32.8288C27.3319 33.1638 28.1789 33.5326 28.0608 33.8784C28.0293 33.9705 28.2493 34.102 28.017 34.1539C27.9868 34.1604 27.9556 34.1606 27.9254 34.1543C27.8952 34.148 27.8666 34.1355 27.8416 34.1176C27.8165 34.0997 27.7954 34.0767 27.7797 34.0501C27.764 34.0236 27.754 33.994 27.7504 33.9634C27.2652 32.7263 26.6517 31.5435 25.9198 30.4343C24.102 27.2307 22.3788 23.9708 20.361 20.8839C19.6124 19.7388 18.8319 18.6146 18.0684 17.4792C17.9781 17.345 17.9009 17.2017 17.821 17.0607C17.7218 16.8857 17.606 16.5749 17.8153 16.5675C18.0196 16.5603 18.24 16.2306 18.5452 16.6541C19.6659 18.2094 20.608 19.8811 21.7214 21.4349C23.1714 23.4582 24.7054 25.4215 26.2116 27.4042C27.044 28.5 27.8941 29.5823 28.7331 30.6732C28.7666 30.7635 28.7881 30.8578 28.7971 30.9538C26.4526 28.5181 24.6817 25.7842 22.6589 23.2455C23.2211 24.4435 23.9255 25.5694 24.7569 26.5989C25.4686 27.7256 26.2644 28.7935 27.0325 29.8814C27.8119 30.9852 28.6969 31.9983 29.5153 33.0713Z" fill="black"/>
<path d="M21.684 38.0312C21.2467 38.0313 20.813 37.951 20.4046 37.7943C20.9658 38.1888 21.5474 38.5533 22.147 38.8864C19.7534 37.6623 17.2845 36.5915 14.7551 35.6805C15.4986 36.1488 16.1856 36.6018 16.8924 37.0216C17.7376 37.5236 18.5955 38.005 19.4573 38.4782C19.711 38.6106 19.9909 38.6854 20.2768 38.6972C20.5189 38.762 20.7338 38.9027 20.8902 39.0984C21.0466 39.2942 21.1362 39.5349 21.1459 39.7853C20.6062 39.6195 20.1061 39.3451 19.6761 38.9791C17.319 37.6361 14.9835 36.2548 12.6207 34.922C10.053 33.5279 7.5667 31.989 5.17376 30.3126C4.77005 30.0752 4.42566 29.7491 4.16666 29.3589C4.08935 29.216 3.89037 29.0501 4.09356 28.8785C4.16654 28.8407 4.25041 28.8294 4.33079 28.8466C4.41117 28.8638 4.48306 28.9085 4.53413 28.9729C5.89759 29.8686 7.2528 30.777 8.6173 31.6711C10.0141 32.542 11.464 33.3245 12.9586 34.0141C15.3686 35.1929 17.777 36.3792 20.2515 37.4215C20.7263 37.6215 21.1997 37.8249 21.684 38.0312Z" fill="black"/>
<path d="M20.2321 44.6093C20.1571 45.0534 19.7198 44.8985 19.5565 45.1798C20.02 45.2682 20.468 45.4243 20.8861 45.6429C20.9457 45.6561 20.9982 45.6911 21.0333 45.7411C21.0683 45.791 21.0834 45.8523 21.0754 45.9128C21.0509 45.9542 21.0176 45.9897 20.9778 46.0169C20.9381 46.0441 20.8929 46.0622 20.8454 46.0701C20.2095 46.3289 19.499 46.3364 18.8579 46.0909C18.3555 45.9438 17.834 45.8725 17.3106 45.8795C15.7366 45.6219 14.154 45.4171 12.5742 45.195C12.3204 45.1594 11.9679 45.1909 11.9924 44.837C12.0193 44.4483 12.3853 44.5965 12.6286 44.5851C12.7705 44.5905 12.9126 44.5815 13.0527 44.5583C12.4122 44.3328 11.7425 44.2011 11.0644 44.167C10.786 44.1274 10.5099 44.0735 10.2371 44.0054C10.1121 43.9738 9.95352 43.9456 9.97308 43.8126C9.98284 43.7784 9.99951 43.7465 10.0221 43.719C10.0446 43.6915 10.0726 43.6688 10.1042 43.6525C10.1358 43.6362 10.1705 43.6265 10.206 43.6241C10.2415 43.6217 10.2771 43.6266 10.3107 43.6385C10.5489 43.6817 10.7839 43.7437 11.023 43.78C13.1838 44.1079 15.3462 44.4033 17.5311 44.5544C18.4298 44.6214 19.3314 44.6397 20.2321 44.6093ZM17.7702 45.7378C16.2272 45.0992 14.5507 44.8497 12.8886 45.0115C13.749 45.1476 14.5286 45.2768 15.3102 45.3931C16.0969 45.5102 16.8855 45.6144 17.7702 45.7378ZM20.593 45.8424C19.5125 45.3332 18.3238 45.0959 17.1306 45.151C18.2274 45.609 19.4044 45.844 20.593 45.8424Z" fill="black"/>
<path d="M50.3768 32.3763C50.8322 31.2739 51.2935 30.1575 51.7547 29.041C50.9795 29.9616 50.3179 30.9721 49.7841 32.0508C49.7671 32.1819 49.7025 32.3022 49.6024 32.3886C49.5024 32.475 49.374 32.5216 49.2418 32.5194C49.3748 32.2202 48.826 32.1 49.0865 31.7105C49.9974 30.348 50.9563 29.0212 51.9632 27.7302C53.0306 26.3636 53.9808 24.9093 54.8036 23.3829C54.8366 23.2568 54.9046 23.1427 54.9996 23.0536C55.0946 22.9645 55.2129 22.904 55.3408 22.8792C55.374 22.9199 55.3925 22.9707 55.3935 23.0233C55.3945 23.0758 55.3778 23.1272 55.3461 23.1692C54.6928 24.5185 54.0626 25.878 53.3521 27.2007C52.6391 28.5281 51.9958 29.8925 51.2765 31.2187C51.1861 31.6351 50.9921 32.0219 50.7123 32.3434C50.6926 32.3677 50.6682 32.3879 50.6406 32.4028C50.613 32.4177 50.5827 32.4269 50.5515 32.43C50.5203 32.433 50.4888 32.4299 50.4588 32.4207C50.4288 32.4114 50.4009 32.3964 50.3768 32.3763Z" fill="black"/>
<path d="M41.9457 30.4192C41.9817 30.2491 41.9643 30.0721 41.8959 29.9123C41.8275 29.7525 41.7114 29.6178 41.5635 29.5265C41.4042 29.4476 41.4899 29.2161 41.5365 29.0271C41.8193 27.8783 42.0745 26.7226 42.255 25.5433C42.0396 26.1858 41.8159 26.8257 41.6111 27.4715C41.3901 28.1309 41.0677 28.7519 40.6553 29.3119C40.6591 28.5823 40.8279 27.863 41.149 27.2078C41.6682 25.8587 42.3374 24.5604 42.7665 23.1854C43.1491 21.9594 43.7911 20.8617 44.2297 19.671C44.2718 19.5786 44.322 19.4902 44.3798 19.4068C44.4409 19.3034 44.5055 19.1752 44.6502 19.2399C44.8519 19.33 44.718 19.4517 44.6745 19.5845C44.0611 21.1545 43.5279 22.7547 43.0768 24.3788C42.9481 24.967 42.8074 25.5527 42.6901 26.1431C42.6777 26.2055 42.4735 26.5609 42.8961 26.343C43.0872 26.2444 42.9724 26.5017 42.9415 26.6167C42.6131 27.5641 42.3372 28.5289 42.1151 29.5067C42.111 29.8183 42.0537 30.1269 41.9457 30.4192Z" fill="black"/>
<path d="M31.042 22.9456C31.0778 22.7665 30.984 22.5608 31.2061 22.5664C31.2688 22.5932 31.3233 22.6359 31.3643 22.6903C31.4053 22.7447 31.4313 22.8089 31.4398 22.8765C32.3773 24.5276 32.4818 26.4289 33.0628 28.1843C33.1585 28.8173 33.3214 29.4383 33.5487 30.0367C33.5168 30.2627 33.4618 30.4848 33.3846 30.6996C33.3783 30.7235 33.3638 30.7445 33.3436 30.7588C33.3233 30.7732 33.2987 30.7799 33.274 30.778C33.2493 30.776 33.2261 30.7655 33.2084 30.7481C33.1907 30.7308 33.1796 30.7078 33.1772 30.6831C33.1821 30.5931 33.1662 30.5032 33.1306 30.4203C33.0951 30.3375 33.0408 30.264 32.9721 30.2057C32.9034 30.1473 32.8222 30.1056 32.7347 30.0839C32.6472 30.0622 32.5559 30.061 32.4679 30.0804C32.3179 30.0979 32.2674 29.8612 32.2273 29.7001C31.891 28.5611 31.6956 27.3852 31.6456 26.1986C31.5379 25.2229 31.3563 24.2567 31.1021 23.3085C31.0807 23.1701 31.0564 23.0322 31.042 22.9456Z" fill="black"/>
<path d="M56.8737 39.3617C56.4146 39.3937 55.9682 39.5267 55.5664 39.7511C55.3959 39.5164 55.5564 39.4288 55.7087 39.3149C57.0617 38.3417 58.521 37.5257 60.0586 36.8827C61.1023 36.4221 62.1464 35.9641 63.2077 35.5467C63.3487 35.4912 63.5706 35.2833 63.6762 35.5369C63.7613 35.7411 63.5104 35.8261 63.3587 35.9007C62.078 36.4657 60.8613 37.166 59.7295 37.9897C58.9253 38.6398 58.0814 39.2393 57.2028 39.7847C57.0279 39.8912 56.8999 39.9937 56.736 39.8239C56.5182 39.5983 56.9174 39.5745 56.8737 39.3617Z" fill="black"/>
<path d="M60.551 49.2629C59.9659 48.8811 59.3682 48.8709 58.8357 48.4817C59.3652 48.5289 59.8808 48.6776 60.3541 48.9198C61.948 49.4477 63.5746 49.8712 65.2236 50.1875C65.482 50.2409 65.9851 50.191 65.9291 50.5303C65.8751 50.8577 65.3939 50.6949 65.1366 50.6418C63.6933 50.3438 62.2092 50.3156 60.7758 49.9898C59.5888 49.8975 58.4186 49.6531 57.2939 49.2626L58.605 49.3135C58.4176 49.2918 58.2365 49.2325 58.0725 49.1393C57.9085 49.0461 57.765 48.9208 57.6504 48.771L60.551 49.2629Z" fill="black"/>
<path d="M24.833 36.8186C24.0966 36.2533 23.4605 35.5681 22.9514 34.7918C22.0413 33.5281 21.0641 32.3141 20.0239 31.1551C19.898 31.024 19.7869 30.8794 19.6924 30.7241C19.6601 30.6509 19.6568 30.5682 19.6832 30.4926C19.7097 30.4171 19.7638 30.3544 19.8348 30.3174C19.9464 30.2165 20.0591 30.3106 20.146 30.4043C20.1908 30.4456 20.2312 30.4915 20.2664 30.5413C20.9301 31.598 21.7776 32.5275 22.7688 33.2856C23.5118 33.8932 24.1842 34.606 24.8998 35.2601C25.2831 35.4639 25.6106 35.7587 25.8536 36.1185C24.9235 35.5724 24.0448 34.9432 23.2284 34.2384C23.8616 35.0332 24.4001 35.8991 24.833 36.8186Z" fill="black"/>
<path d="M36.3445 25.9083C35.8977 23.7521 35.6407 21.5609 35.5767 19.3599L36.3445 25.9083Z" fill="black"/>
<path d="M51.3017 44.4711L49.9878 42.6102C50.6069 43.0804 51.0658 43.7303 51.3017 44.4711Z" fill="black"/>
<path d="M41.9185 36.5449C42.6347 36.7807 43.2593 37.2347 43.7046 37.8432C43.0593 37.4836 42.4597 37.0477 41.9185 36.5449Z" fill="black"/>
<path d="M288 46.8596C285.601 46.7227 283.549 45.8585 281.133 45.8421C274.612 45.7974 268.165 46.2966 261.683 46.6294C253.315 47.059 244.895 47.4247 236.463 47.3589C233.941 47.348 231.42 47.4422 228.917 47.6411C225.177 47.9843 221.411 48.2044 217.636 48.3005C214.848 48.5911 212.005 48.5918 209.217 48.3024C208.664 48.1733 208.064 48.1461 207.488 48.2237C206.911 48.3014 206.38 48.4808 205.956 48.7416C206.158 47.4271 206.886 46.1678 208.071 45.0845C208.547 44.6388 208.772 44.1032 208.709 43.5653C208.645 43.0274 208.297 42.5192 207.721 42.124C206.884 41.5411 206.435 40.7733 206.47 39.9831C206.356 38.4237 206.051 36.8724 205.557 35.3434C205.387 34.9627 205.375 34.5604 205.522 34.1758C206.053 33.3013 206.17 32.3466 205.859 31.4299C205.547 30.5133 204.821 29.6752 203.769 29.0195C202.058 27.4778 201.156 27.406 198.445 28.3085C197.856 28.5047 197.489 28.8198 196.975 29.022C195.976 29.4146 195.1 29.7484 194.411 28.6299C193.651 27.3802 193.127 26.0772 192.85 24.7484C192.16 21.6235 188.273 19.7803 184.915 17.8717C182.408 16.2133 179.431 14.8734 176.141 13.9232C173.504 12.9799 170.7 12.2412 167.788 11.7231C164.827 11.3892 161.811 11.3 158.815 11.4576C157.919 11.5905 157.085 11.8551 156.379 12.2304C155.673 12.6058 155.115 13.0813 154.749 13.6189C154.383 14.1566 154.22 14.7414 154.272 15.3266C154.324 15.9118 154.59 16.4811 155.049 16.9888C155.376 17.1458 155.625 17.3591 155.767 17.6034C155.909 17.8478 155.939 18.113 155.853 18.3678C154.426 17.2806 152.516 18.2161 150.937 17.7931C149.626 17.3489 148.265 16.9672 146.866 16.6511C140.733 15.7984 134.388 15.7721 128.238 16.5738C126.284 16.8893 124.291 17.0957 122.28 17.1906C118.563 17.4116 114.989 18.2173 111.879 19.5355C111.019 19.7869 110.299 20.2 109.817 20.7196C109.335 21.2391 109.113 21.8402 109.182 22.4423C109.438 23.3649 109.38 24.3118 109.011 25.2186C108.344 26.7128 108.432 28.3028 109.26 29.7636C110.089 31.2244 111.617 32.4821 113.627 33.3588C114.678 33.5301 115.627 33.8941 116.357 34.4056C116.815 34.8116 117.406 35.1492 118.089 35.395C122.891 36.5008 131.06 34.8342 130.809 30.5662C130.644 29.2135 130.134 27.887 129.302 26.6384C128.883 26.1948 128.689 25.6795 128.747 25.163C128.804 24.6464 129.111 24.1539 129.625 23.7528C131.012 22.9568 132.544 22.2704 134.189 21.7084C135.362 21.2731 136.739 21.1163 138.077 21.2658C142.056 21.597 145.927 22.3297 149.545 23.4366C152.428 24.0941 154.974 25.2413 156.909 26.7544C158.628 28.5331 159.146 30.5699 160.7 32.3988C161.665 33.7898 161.886 35.3445 161.329 36.8235C160.772 38.3024 159.468 39.6236 157.618 40.5834C158.129 39.3768 158.754 38.1908 159.489 37.032C157.787 37.7819 156.612 38.927 156.216 40.2222C154.404 43.0259 151.289 45.4087 147.291 47.0504C146.398 47.4655 145.31 47.6738 144.206 47.6411C138.363 47.4872 132.519 47.7141 126.674 47.708C120.181 47.7862 86.1105 48.1338 79.6619 48.6259C71.6119 49.0403 87.6728 48.9199 79.6619 48.2666C70.4879 47.6314 64.697 47.702 55.5048 47.3851C49.5532 47.1799 43.5673 47.4423 37.5953 47.551C29.4546 47.6993 21.2929 47.4532 13.1428 47.3188C11.8036 47.2966 10.5165 47.4683 9.16108 47.4402C4.44086 47.3425 4.75269 46.3843 0.000112593 47.242C0.381604 47.9467 2.14685 47.5883 2.64029 48.3009C2.59092 48.3473 2.52707 48.3866 2.45274 48.4165C2.37841 48.4464 2.29521 48.4661 2.20834 48.4745C2.12148 48.4829 2.03282 48.4798 1.94793 48.4654C1.86305 48.4509 1.78376 48.4254 1.71504 48.3905C0.777488 48.1165 0.0965291 48.4273 0.571665 48.9086C0.85534 49.1411 1.21766 49.3299 1.63162 49.4607C2.04557 49.5915 2.50049 49.6611 2.96246 49.6642C5.73429 49.4988 3.4814 49.7637 6.23397 49.687C11.1651 49.6526 16.0956 49.7828 21.0054 50.077C23.937 50.1909 26.8986 50.1285 29.8046 50.3894C34.3242 50.5818 38.8571 50.614 43.3823 50.4858C38.5968 49.7047 33.5666 50.3504 28.8181 49.5161C29.6693 49.4959 30.5051 49.3658 31.2751 49.1335C27.3094 49.3058 23.3257 49.1686 19.4122 48.7249C20.2708 48.5621 21.1674 48.4966 22.0615 48.5314C25.4314 48.4744 28.8033 48.5815 32.1477 48.8517C33.0215 48.9425 34.7645 48.142 34.7348 49.5807C35.0894 49.6536 35.4686 49.6628 35.8309 49.6073C38.3338 48.8987 41.1368 48.7456 43.7922 49.1723C43.1819 49.3519 42.5887 49.5543 42.0157 49.7783C56.5047 49.483 46.852 49.7761 61.2826 50.6559C55.9956 51.5607 50.9073 50.1844 45.9855 51.1619C56.4163 51.2806 66.8073 51.9493 77.2373 51.6487C72.7394 51.1323 68.2072 50.8769 63.6598 50.6089H72.6863C72.4149 50.0394 71.3637 50.5843 71.1693 50.0464C72.6032 49.9991 72.9802 49.3955 74.4124 49.4596C75.011 49.6511 74.831 49.7538 75.5005 49.7603C76.17 49.7668 76.8331 49.6768 77.4405 49.497C78.8192 49.2606 78.7619 48.8214 80.1619 49C80.8763 49.0314 109.152 50.0375 109.862 49.9763C113.946 49.5495 118.105 49.496 122.213 49.8174C126.658 50.0071 131.068 49.8813 135.546 49.907C134.266 49.7007 133.052 49.3526 131.96 48.8788C135.474 48.5688 139.029 48.4956 142.567 48.6605C140.826 49.5006 138.855 50.1262 136.754 50.5051C130.209 51.6956 123.9 53.3097 117.381 54.5649C112.615 55.4854 107.749 56.1836 102.824 56.6538C94.4133 57.449 119.005 58.9061 110.466 59.2574C103.93 59.7119 97.3326 59.6725 90.8111 59.14C89.4659 58.9923 87.9555 58.6719 87.6441 59.6086C87.3235 60.5728 89.2288 60.6229 90.332 60.9318C90.4814 60.969 90.6425 60.9829 90.802 60.9723C95.4624 60.7208 100.059 61.3399 104.794 61.0839C112.302 60.6782 119.737 59.9675 127.075 59.0939C136.853 57.9299 114.106 57.6079 123.556 55.3795C128.875 54.3595 134.03 53.0188 138.95 51.3754C142.685 49.9397 146.173 47.6817 151.378 48.8105C151.492 48.8376 151.613 48.8492 151.734 48.8447C151.854 48.8402 151.973 48.8197 152.08 48.7845C152.188 48.7493 152.283 48.7001 152.359 48.6401C152.436 48.5801 152.492 48.5106 152.523 48.4361C152.586 48.0228 151.967 47.9557 151.384 47.9296C150.603 48.0156 149.799 47.9203 149.118 47.661C152.104 45.926 155.13 44.2842 157.924 42.5032C159.867 41.4217 161.493 40.1281 162.724 38.683C163.444 37.7256 163.856 36.6861 163.936 35.6256C164.016 34.5651 163.763 33.5051 163.191 32.5081C162.161 30.5962 160.522 28.8754 159.279 27.0936C156.918 24.3644 153.056 22.2895 148.438 21.2693C147.921 21.1232 146.97 21.226 147.227 20.6927C146.22 20.5123 145.234 20.3618 144.291 20.2526C144.046 20.3316 143.779 20.3782 143.505 20.3896C143.231 20.4009 142.956 20.3768 142.697 20.3187C139.06 19.7245 135.355 19.3159 131.616 19.0965C132.758 18.4646 134.091 17.9891 135.532 17.6995C136.974 17.4098 138.494 17.3122 139.997 17.4128C140.301 17.4393 140.586 17.5209 140.818 17.648C140.982 17.6162 141.153 17.5997 141.324 17.5989C146.828 17.8595 152.167 18.9125 156.94 20.6786C157.648 20.7874 158.293 21.0219 158.8 21.355C158.826 21.3844 158.847 21.4158 158.862 21.4484C159.977 21.9278 161.035 22.4597 162.025 23.0398C162.031 22.9987 162.047 22.9585 162.073 22.9206C162.253 22.7085 162.552 22.4033 162.953 22.5509C163.239 22.5485 163.522 22.5833 163.786 22.6533C164.05 22.7233 164.289 22.8269 164.487 22.9578C165.565 24.6117 167.478 25.9887 169.922 26.8707C170.963 27.3292 171.894 27.8814 172.686 28.5099C171.475 29.1208 170.436 27.2052 169.11 28.713C170.509 29.0257 171.706 29.6248 172.515 30.4167C174.057 31.2202 175.308 32.2271 176.181 33.3683C177.054 34.5094 177.53 35.7577 177.574 37.0272C178.1 40.2131 177.103 43.4261 174.713 46.2438C172.514 48.8324 170.048 51.3251 167.331 53.7054C166.53 54.5854 165.463 55.355 164.192 55.9694C162.921 56.5839 161.471 57.031 159.926 57.2846C158.514 57.4481 157.251 57.9465 156.391 58.6796C160.043 58.3793 163.607 57.7402 166.969 56.7824C165.859 57.4473 164.669 58.0558 163.41 58.6024C162.863 59.1119 162.394 59.6538 162.009 60.2205C161.496 61.1013 159.152 60.5936 159.056 61.8227C161.342 61.2684 163.251 60.4388 165.307 59.9397C170.027 58.8501 174.314 57.1129 177.866 54.8507C180.957 53.2591 183.347 51.1828 184.802 48.8251C187.594 43.2482 186.946 37.2024 182.991 31.9194C182.177 30.7453 181.879 29.4521 182.128 28.1782C180.761 26.4295 179.375 24.6863 178.091 22.9109C174.99 18.6221 170.132 17.2441 162.922 17.1448C162.687 17.1443 162.453 17.1138 162.237 17.055C162.02 16.9963 161.823 16.9104 161.659 16.8026C161.394 16.7948 161.128 16.7832 160.867 16.7832C159.458 16.7831 159.988 16.1094 159.972 15.7024C159.878 15.4449 159.909 15.1752 160.062 14.9293C160.214 14.6834 160.481 14.473 160.825 14.3261C161.17 14.1793 161.577 14.1029 161.992 14.1073C162.406 14.1116 162.809 14.1965 163.146 14.3505C163.286 14.3919 163.439 14.4141 163.593 14.4157C163.748 14.4172 163.901 14.3981 164.044 14.3595C167.118 12.5852 169.134 14.8187 171.639 15.135C172.512 15.316 173.27 15.673 173.797 16.1523C175.237 16.5982 176.552 17.1927 177.688 17.9119C177.691 17.8566 177.713 17.8024 177.753 17.7535C177.793 17.7045 177.851 17.6621 177.921 17.6296C177.991 17.597 178.072 17.5751 178.157 17.5655C178.243 17.556 178.33 17.5591 178.414 17.5746C180.312 18.0308 181.957 18.8344 183.142 19.8847C182.331 21.1222 184.057 21.4414 184.943 21.9935C186.07 22.6813 186.834 23.5757 187.128 24.5527C187.641 26.2854 187.811 28.0556 188.202 29.8035C188.311 30.287 188.44 30.7686 188.608 31.242C189.006 31.8083 189.361 32.3885 189.734 32.9626C190.005 33.2251 190.328 33.4642 190.695 33.6742C189.558 30.9178 188.958 28.0825 188.908 25.2325C189.536 25.6511 190.044 26.1366 190.409 26.6669C190.753 26.8785 191.028 27.1314 191.218 27.4111C191.409 27.6908 191.51 27.9917 191.518 28.2966C190.885 28.9033 190.517 29.6062 190.449 30.3334C190.382 31.0607 190.618 31.7864 191.133 32.4365C192.479 36.0666 192.441 39.8496 191.021 43.4683C190.147 45.2341 190.397 47.1131 189.352 48.8475C187.093 52.1943 184.419 55.4209 181.356 58.4968C179.332 60.7552 176.559 62.7045 173.231 64.2084C172.312 64.5166 171.62 65.0426 171.302 65.6731C173.259 64.3167 176.83 64.8077 178.484 63.1402C178.25 63.6839 177.843 64.191 177.288 64.63C176.733 65.0689 176.043 65.4304 175.259 65.6918C174.867 65.8779 174.037 66.0063 174.562 66.4325C174.997 66.7851 175.354 66.3656 175.694 66.2063C179.594 64.3976 182.864 62.0926 185.295 59.437C188.507 56.1921 191.345 52.8027 193.787 49.2954C194.586 48.0282 195.332 46.7394 196.454 45.3386C197.049 41.7055 197.264 38.0513 197.099 34.4C197.07 34.1516 197.179 33.9045 197.407 33.7023C197.635 33.5 197.967 33.3554 198.346 33.294C198.372 33.1606 198.44 33.032 198.547 32.9161C198.654 32.8002 198.797 32.6994 198.967 32.62C199.043 32.578 199.133 32.5474 199.23 32.5303C199.328 32.5132 199.43 32.5101 199.529 32.5212C199.628 32.5323 199.723 32.5573 199.805 32.5944C199.887 32.6315 199.956 32.6798 200.005 32.7359C200.702 33.3315 201.024 34.0717 200.909 34.8112C201.127 38.2281 201.02 41.6503 200.589 45.0589C200.799 45.0683 201.003 45.105 201.19 45.1669C201.376 45.2288 201.541 45.3146 201.673 45.4188C201.805 45.523 201.903 45.6434 201.959 45.7726C202.015 45.9018 202.028 46.037 201.999 46.1698C201.93 47.6904 201.587 49.2009 200.978 50.6716C200.288 51.6745 198.636 52.5899 200.117 53.8403C200.187 54.0318 200.142 54.2329 199.992 54.4045C199.228 55.7022 198.361 56.9744 197.395 58.216C196.484 60.0022 195.052 61.6777 194.183 63.4806C194.096 63.6583 193.946 63.8208 193.745 63.9556C193.544 64.0903 193.296 64.1936 193.022 64.2574C192.748 64.3212 192.454 64.3438 192.164 64.3234C191.874 64.3031 191.595 64.2403 191.349 64.14C188.677 66.1493 185.487 67.8526 181.915 69.1762C181.487 69.3345 180.567 69.6672 181.211 69.87C182.527 70.2845 181.517 70.3886 181.118 70.5297C179.274 71.1763 177.31 71.674 175.273 72.0113C173.273 72.3528 170.987 71.6782 169.125 72.637C169.911 72.6967 170.655 72.8946 171.275 73.2085C167.784 74.6412 163.672 73.5239 160.044 74.3075C159.859 74.3585 159.651 74.3621 159.462 74.3174C159.273 74.2728 159.119 74.1834 159.031 74.0679C158.995 73.9948 158.933 73.928 158.851 73.8724C158.769 73.8167 158.668 73.7738 158.555 73.7469C158.443 73.7199 158.323 73.7097 158.203 73.7169C158.084 73.7241 157.969 73.7486 157.866 73.7885C154.964 74.9088 151.968 73.5811 149.001 73.9309C152.04 73.4247 155.009 72.7616 157.879 71.9482C160.917 71.557 163.87 70.9351 166.676 70.096C163.317 70.0098 159.963 70.3339 156.795 71.0509C148.582 73.0376 139.772 73.8171 131.021 73.3313C125.347 73.2499 119.664 73.1781 113.99 73.158C110.519 72.9677 212.279 72.3456 208.796 72.396C205.783 72.5326 202.76 72.5632 199.742 72.4877C194.796 72.2043 189.812 72.3553 184.93 72.9364C180.464 73.3288 175.956 73.4974 171.448 73.4406C163.403 73.9673 155.485 72.5811 147.456 72.5877C141.042 72.5931 134.623 72.5026 128.215 72.6226C124.948 72.6838 121.675 72.5216 118.444 72.6718C117.553 72.8097 116.619 72.7849 115.749 72.6C114.88 72.4152 114.109 72.0779 113.526 71.6268C113.324 72.0776 112.857 72.4612 112.221 72.6972C111.586 72.9331 110.832 73.0032 110.118 72.8927C107.748 72.9283 105.379 72.8303 103.037 72.5998C102.889 72.5599 102.729 72.5415 102.568 72.546C102.407 72.5506 102.25 72.5779 102.109 72.626C101.967 72.6741 101.843 72.7418 101.748 72.8241C101.652 72.9065 101.586 73.0014 101.556 73.102C101.483 73.6003 102.263 73.7021 102.883 73.7546C103.511 73.8078 104.16 73.757 104.794 73.7893C106.437 73.6568 108.106 73.7534 109.684 74.0726C107.524 74.5389 105.282 74.8348 103.009 74.9539C102.778 74.9725 102.561 75.036 102.388 75.1358C102.215 75.2356 102.095 75.367 102.043 75.5119C102.042 75.9469 102.706 75.852 103.127 75.84C104.313 75.8399 105.498 75.7902 106.674 75.6914C111.319 75.0918 116.036 74.7485 120.773 74.6651C125.921 74.6621 131.041 74.9591 136.172 75.1555C145.403 75.5088 154.672 75.5079 163.928 75.7598C172.295 75.9876 180.715 75.3908 189.116 75.2825C193.301 75.2285 197.497 75.5426 201.687 75.5315C207.636 75.5159 213.584 75.6295 114.253 76.4786C120.397 76.7871 126.548 76.9213 132.688 77.1841C135.772 76.9488 138.898 77.104 141.888 77.6408C143.963 78.1368 146.225 78.216 148.372 77.8677C149.149 77.8317 149.913 77.6013 150.683 77.6017C157.429 77.6048 164.193 77.4624 170.919 77.7119C178.727 78.0015 186.508 77.8704 194.296 77.6926C201.597 77.5258 208.89 77.2435 216.188 77.0168C219.912 76.901 223.636 76.7977 227.36 76.6824C227.744 76.6704 228.169 76.6626 228.465 75.8962C208.393 76.4517 188.582 77.4136 168.696 76.8878C168.73 76.7522 168.841 76.6292 169.007 76.5422C169.174 76.4552 169.385 76.4102 169.6 76.4157C172.616 76.3111 175.631 76.1754 178.65 76.1132C188.278 75.9149 197.899 76.1427 207.548 75.6156C218.371 75.0242 229.29 75.0707 240.171 74.9373C247.58 74.8865 254.979 74.5796 262.337 74.0177C264.707 73.4773 267.191 73.1664 269.705 73.0954C271.846 73.2247 274.004 73.201 276.137 73.0248C276.57 73.0021 277.597 72.8987 277.545 72.3905C277.489 71.8425 276.632 71.9533 276.033 71.9516C272.364 71.9423 268.693 71.9049 265.026 71.961C261.562 72.0139 258.009 71.6077 254.964 73.3441C254.289 73.6045 253.53 73.7643 252.744 73.8116C251.958 73.859 251.166 73.7926 250.426 73.6174C250.907 73.6035 251.375 73.5107 251.784 73.348C252.192 73.1853 252.529 72.9582 252.76 72.6885C251.999 72.5123 251.174 72.4837 250.387 72.6062C245.591 73.0185 240.742 73.1275 235.912 72.9317C226.734 72.6059 217.555 72.2604 208.373 71.9667C202.409 71.8062 196.48 71.3038 190.657 70.4655C193.204 69.1968 195.132 67.4927 196.218 65.5518C196.504 64.9484 196.971 64.3861 197.593 63.8961C201.427 60.5807 203.939 56.7209 204.915 52.6488C204.877 52.3556 204.945 52.0608 205.114 51.787C205.283 51.5132 205.548 51.2677 205.889 51.0694C206.23 50.871 206.637 50.7251 207.08 50.6428C207.523 50.5604 207.99 50.5439 208.444 50.5944C212.193 50.5184 215.885 51.029 219.643 50.9191C223.3 50.8231 226.963 50.9135 230.598 51.1895C232.331 51.3157 233.998 51.6341 235.69 51.8484C238.179 52.0246 240.633 52.3679 243.01 52.8726C245.883 53.6832 248.345 55.0059 251.802 54.1806C252.19 54.1115 252.599 54.1098 252.989 54.1758C255.017 54.5028 257.081 54.7332 259.163 54.8649C259.696 54.8017 260.247 54.8586 260.722 55.0259C261.196 55.1932 261.565 55.4604 261.764 55.7819C261.859 55.9502 262.035 56.0951 262.266 56.1958C262.498 56.2965 262.773 56.3477 263.054 56.3423C263.334 56.3368 263.604 56.2748 263.825 56.1652C264.047 56.0557 264.208 55.9042 264.286 55.7325C264.376 55.5939 264.509 55.4683 264.677 55.3633C264.845 55.2584 265.045 55.1761 265.264 55.1216C265.483 55.0671 265.717 55.0414 265.952 55.0461C266.188 55.0508 266.419 55.0857 266.632 55.1489C269.205 55.382 271.813 55.4159 274.399 55.25C269.931 54.279 265.132 55.1612 260.645 54.0478H271.326C270.241 53.798 269.335 53.3068 268.773 52.6646C268.495 52.3952 268.123 52.1703 267.687 52.0072C267.251 51.8441 266.762 51.7472 266.258 51.724C265.753 51.7009 265.248 51.752 264.779 51.8736C264.311 51.9951 263.893 52.1838 263.557 52.425C262.62 54.0453 260.779 53.4011 259.138 53.6106C255.04 54.1332 251.847 52.1793 247.793 52.2764C242.27 52.0465 236.811 51.3962 231.53 50.3393C246.691 49.5923 261.846 50.4772 277.147 50.6583C276.307 50.0642 275.281 49.5891 274.135 49.2635C272.989 48.9379 271.749 48.769 270.495 48.7677C267.853 48.7744 265.214 48.6602 262.598 48.426C266.427 48.0726 270.358 48.3423 274.463 47.7435C272.593 46.8833 270.602 47.7274 268.952 47.2979C275.256 46.6972 281.645 46.5502 288 46.8596ZM125.976 21.532C123.75 22.9484 122.186 24.7322 121.461 26.6835C121.07 25.6204 121.316 24.5025 122.151 23.5493C122.987 22.5961 124.351 21.8766 125.976 21.532ZM124.772 32.7623C122.506 32.7895 123.563 34.8644 121.312 34.8711C120.406 34.8873 119.52 34.6977 118.812 34.336C118.105 33.9743 117.622 33.4641 117.45 32.8964C117.411 32.7779 117.335 32.6657 117.226 32.5664C117.117 32.4671 116.979 32.3827 116.818 32.3182C116.657 32.2538 116.478 32.2106 116.29 32.1912C116.103 32.1718 115.911 32.1766 115.727 32.2054C114.875 32.2531 114.024 32.1116 113.318 31.8049C112.612 31.4981 112.094 31.045 111.852 30.5224C111.524 29.8837 110.782 29.3254 110.468 28.6855C110.043 27.8206 109.125 26.8007 111.846 26.5913C113.116 26.4936 113.616 25.9204 112.28 25.2864C111.851 25.0833 111.465 24.8465 110.804 24.4855C111.866 24.2839 113.075 24.9844 112.75 23.7156C112.645 22.7386 113.05 21.767 113.9 20.9517C114.75 20.1364 115.999 19.523 117.453 19.207C118.066 19.0482 119.275 18.5122 119.465 19.1658C119.668 19.8635 120.953 20.6535 119.546 21.4315C118.399 22.1452 117.543 23.0275 117.054 24.0011C116.565 24.9747 116.459 26.0099 116.743 27.016C117.027 28.0221 117.694 28.9684 118.685 29.7719C119.676 30.5755 120.961 31.2118 122.427 31.6251C122.992 31.7922 123.609 31.8951 124.159 32.0773C124.338 32.1525 124.488 32.2537 124.594 32.3728C124.701 32.4919 124.762 32.6254 124.772 32.7623ZM126.139 27.1096C125.863 27.1187 125.592 27.0579 125.386 26.9405C125.18 26.823 125.055 26.6584 125.037 26.4824C124.958 26.0624 125.072 25.6366 125.366 25.2574C125.66 24.8781 126.122 24.5619 126.694 24.3475C126.621 25.0286 126.63 25.7122 126.72 26.3924C126.727 26.5336 126.678 26.6737 126.576 26.7992C126.474 26.9247 126.324 27.0316 126.139 27.1096ZM125.94 19.7264C125.101 19.7567 124.341 19.7855 124.425 19.2215C124.458 19.0759 124.536 18.9359 124.655 18.8099C124.774 18.6838 124.931 18.5741 125.117 18.4872C125.304 18.4003 125.515 18.3379 125.739 18.3037C125.964 18.2696 126.197 18.2643 126.424 18.2882C127.168 18.2712 128.182 18.1902 128.105 18.8831C128.008 19.7608 126.572 19.4854 125.94 19.7264ZM167.502 55.1734C170.88 52.2588 173.721 49.5986 176.641 46.9953C174.639 50.0079 173.533 53.3678 167.502 55.1734ZM176.718 23.5865C177.268 23.4993 177.85 23.5492 178.344 23.7262C178.833 24.6295 178.827 25.6118 178.327 26.5125C178.346 26.124 178.232 25.7376 177.994 25.3799C177.756 25.0222 177.398 24.7017 176.947 24.4407C176.678 24.2673 176.115 23.8001 176.718 23.5865ZM179.239 30.7966C179.588 30.8888 179.257 31.0678 179.121 31.1206C178.888 31.2315 178.604 31.2913 178.313 31.2908C177.602 31.0918 176.997 30.7646 176.573 30.3495C176.149 29.9343 175.924 29.4493 175.926 28.9538C177.68 29.2063 177.831 30.4254 179.239 30.7966ZM169.493 22.735C169.95 22.8892 170.353 23.1001 170.68 23.3553C171.007 23.6105 171.251 23.9047 171.397 24.2208C171.373 24.5739 171.04 24.6325 170.616 24.5198C170.124 24.431 169.671 24.2716 169.291 24.0537C168.911 23.8358 168.615 23.5653 168.425 23.2629C168.278 22.9412 168.945 22.8692 169.493 22.735ZM167.925 18.0724V20.2152C165.422 18.9601 165.422 18.9601 167.925 18.0724ZM189.657 73.8548C200.841 73.2956 212.045 73.5621 117.999 74.1207C212.086 75.1726 200.857 73.9515 189.657 73.8548ZM120.269 75.3354C131.684 75.5008 143.094 75.8067 154.68 75.84C152.341 76.917 123.816 76.5346 120.269 75.3354ZM196.488 72.2296C203.107 72.9262 209.813 73.2312 216.52 73.1407C220.408 73.1419 224.297 73.141 228.182 73.3837C219.519 74.1595 210.77 74.4815 202.025 74.3464C194.632 74.3346 187.231 74.1368 179.847 74.496C178.097 74.5813 176.369 74.852 174.631 75.0373C177.267 74.3653 179.672 73.5261 182.212 72.9323C186.78 71.869 191.718 71.6259 196.488 72.2296ZM218.714 49.8459C221.632 49.3838 224.661 49.2764 227.641 49.5292C224.76 50.1312 221.682 50.2404 218.714 49.8459Z" fill="black"/>
</g>
<defs>
<clipPath id="clip0_2357_3827">
<rect width="80" height="50" fill="white"/>
</clipPath>
</defs>
</svg>
