<svg width="54" height="84" viewBox="0 0 54 84" fill="none" xmlns="http://www.w3.org/2000/svg">
<g clip-path="url(#clip0_2351_3313)">
<path d="M26.1 83.2999C22.7 83.4999 19.2 83.0999 15.9 82.0999C13.2 81.2999 10.5 80.6999 8.20001 78.8999C7.70001 78.4999 6.90001 78.1999 6.20001 78.0999C5.10001 77.7999 4.70001 76.9999 4.50001 76.0999C3.50001 71.3999 3.30001 66.6999 3.20001 61.8999C3.10001 56.5999 2.90001 51.2999 2.60001 45.9999C2.30001 41.1999 2.30001 36.3999 2.20001 31.5999C2.20001 29.0999 1.7 26.5999 1.8 24.0999C1.8 23.9999 1.8 23.7999 1.8 23.6999C0.100005 22.6999 1.20001 21.0999 1.10001 19.7999C0.600006 16.3999 1.60001 12.9999 2.10001 9.69995C2.40001 8.19995 3.4 6.89995 4.8 6.09995C9.4 3.59995 14.3 1.99995 19.6 1.39995C23.4 0.899946 27.3 0.599946 31.1 0.699946C34.4 0.799946 37.7 0.799946 41 1.39995C42.9 1.69995 44.8 1.69995 46.7 2.29995C50.5 3.39995 52.4 5.89995 52.7 9.59995C53 12.4999 53.3 15.3999 52.7 18.3999C52.5 19.3999 52.6 19.9999 51.4 20.2999C50.7 20.4999 50.8 21.1999 50.8 21.7999C50.7 25.4999 50.7 29.1999 50.6 32.8999C50.4 37.8999 50 42.7999 49.9 47.7999C49.8 50.0999 49.3 52.3999 49.4 54.6999C49.6 57.3999 49.4 59.9999 49.2 62.6999C49.1 64.2999 49.5 65.8999 49.4 67.3999C49 70.9999 49.8 74.6999 47.6 77.9999C46.9 79.0999 46.2 80.1999 44.6 80.2999C43.9 80.2999 43.3 80.8999 42.6 81.1999C40.4 82.0999 38.1 82.3999 35.7 82.7999C32.7 83.0999 29.4 83.4999 26.1 83.2999ZM30.5 69.4999C31.7 70.7999 31.7 71.8999 30.4 72.9999C28.7 74.3999 26.8 75.6999 24.8 76.6999C24.1 77.0999 23.1 77.1999 22.7 78.1999C27.3 77.4999 32 78.9999 36.5 77.0999C35.8 76.5999 35 76.1999 34 75.9999C31.8 75.5999 31.3 73.9999 32.7 72.4999C33.3 71.8999 33.9 71.2999 34.7 70.9999C34.3 70.2999 33.6 70.3999 33.1 70.3999C32.1 70.2999 31.6 69.1999 30.5 69.4999C30.5 68.6999 29.7 68.6999 29.2 68.3999C28.8 68.0999 28.3 67.8999 28.1 67.3999C27.6 66.0999 29.6 63.4999 31 63.4999C32.6 63.4999 34.1 63.9999 35.6 64.4999C35.7 64.0999 35.4 63.9999 35.2 63.7999C34.3 62.5999 33.3 61.3999 32.5 59.9999C31.7 58.5999 33.1 56.8999 35.2 56.6999C36.2 56.5999 37.2 56.4999 38.1 57.6999C39.1 58.9999 40.3 60.1999 41.5 61.6999C41.5 60.2999 41.7 59.1999 41.5 58.0999C41.1 55.8999 42.4 54.3999 43.6 52.7999C43.8 52.4999 44.1 52.5999 44.3 52.5999C45.9 52.2999 46.5 53.4999 47.4 54.4999C47.6 52.2999 47.6 50.1999 47.7 48.1999C47.8 47.0999 47.5 46.8999 46.4 47.1999C44.9 47.6999 43.5 48.1999 41.5 47.9999C43.3 46.7999 45.2 46.6999 46.9 46.1999C47.2 46.0999 47.8 46.5999 47.8 45.7999C47.8 44.2999 48.2 42.7999 48.1 41.1999C48 40.1999 47.6 39.0999 47.9 38.0999C48.4 36.3999 47.9 34.7999 47.9 33.0999C46.5 33.7999 45.1 33.8999 43.4 33.6999C44.3 33.1999 45.2 33.0999 46 32.8999C47.4 32.5999 48.4 32.1999 48 30.4999C47.9 29.8999 48 29.2999 48 28.6999C48.1 27.8999 47.9 27.5999 46.9 27.7999C46 27.9999 45 28.3999 43.9 28.0999C44.9 27.1999 46 27.0999 47.1 26.8999C47.5 26.7999 48 26.7999 48 26.2999C48 25.4999 48.4 24.6999 48.3 23.7999C48.2 22.9999 47.9 22.7999 47.1 22.9999C42.9 24.1999 38.7 24.5999 34.4 24.6999C32.6 24.7999 30.8 24.8999 29.1 24.9999C26.3 25.0999 23.5 25.7999 20.7 25.8999C18 25.8999 15.4 25.1999 12.8 25.2999C10 25.3999 7.40001 25.1999 4.60001 24.9999C4.20001 24.9999 4.00001 25.0999 4.00001 25.4999C3.90001 26.1999 3.7 26.7999 3.8 27.4999C4 31.9999 4.00001 36.9999 4.40001 41.8999C4.70001 45.5999 5.10001 49.3999 5.10001 53.1999C5.00001 59.1999 5.90001 65.1999 6.00001 71.1999C6.00001 73.3999 6.70001 75.1999 8.90001 76.2999C11.9 77.6999 15.1 78.1999 18.3 78.4999C19.6 78.5999 20.9 78.2999 22.2 78.1999C21.4 77.9999 20.4 78.3999 20 77.4999C19.5 76.3999 19 75.2999 20 74.0999C20.6 73.3999 21.3 72.9999 22 72.5999C23.2 71.8999 23.8 70.4999 25.2 70.0999C25.8 69.8999 26.6 69.3999 26.9 69.9999C27.2 70.4999 26.3 70.8999 25.9 71.1999C25.3 71.4999 24.6 72.1999 24.6 72.4999C24.6 73.3999 25.6 73.7999 26.2 74.2999C26.6 74.5999 27.1 74.3999 27.5 74.0999C28.2 73.4999 29 72.7999 29.7 72.0999C30.6 71.0999 30.3 70.5999 29 70.2999C28.6 70.1999 28.1 70.2999 27.7 69.8999C28.6 69.0999 29.4 68.5999 30.5 69.4999ZM26.1 13.1999C31.6 13.6999 37.1 12.8999 42.4 11.6999C44.9 11.0999 47.4 10.1999 49.4 8.49995C50.4 7.69995 50.5 6.99995 49.6 6.09995C48.8 5.19995 48 4.39995 46.7 4.19995C46.1 4.09995 45.6 3.69995 45 3.39995C44.1 2.89995 43.2 2.49995 42.1 2.59995C39.2 2.69995 36.3 2.19995 33.3 2.29995C30.4 2.39995 27.5 1.59995 24.5 1.99995C22.4 2.29995 20.3 2.19995 18.2 2.59995C14.7 3.29995 11.2 4.39995 7.9 5.89995C6.1 6.79995 4.40001 7.49995 4.10001 9.79995C3.90001 11.4999 4.40001 12.4999 6.20001 12.5999C8.30001 12.6999 10.4 12.7999 12.5 12.8999C17.1 13.1999 21.6 13.0999 26.1 13.1999ZM20.1 20.1999C20.2 18.5999 20.3 16.9999 20.4 15.3999C20.5 14.5999 19.9 14.6999 19.4 14.6999C19 14.6999 18.3 14.3999 18.3 15.2999C18.1 17.7999 17.5 20.1999 17.4 22.6999C17.3 23.9999 17.6 24.0999 18.8 24.1999C21.1 24.2999 23.3 24.0999 25.5 23.9999C27.8 23.8999 30 23.6999 32.2 22.7999C31.9 22.1999 31.4 21.6999 31.4 21.0999C31.5 19.3999 31.6 17.7999 31.9 16.1999C32.3 14.4999 32.2 14.5999 30.5 14.5999C29.9 14.5999 29.4 14.5999 29.6 15.3999C29.7 15.7999 29.5 16.1999 29.5 16.5999C29.4 17.2999 29.5 18.5999 28.8 18.3999C27.8 18.1999 28.5 17.1999 28.6 16.4999C28.9 14.4999 28.9 14.4999 26.8 14.5999C26.3 14.5999 25.7 14.3999 25.6 15.0999C25.3 16.9999 25.1 18.8999 25.3 20.7999C25.4 21.3999 25.5 22.0999 24.9 22.1999C24.2 22.2999 24.3 21.4999 24.2 20.9999C24.1 20.6999 24.2 20.3999 24.2 20.0999C24.1 18.5999 24.5 17.1999 24.6 15.7999C24.6 15.4999 24.8 14.9999 24.3 14.9999C23.5 14.8999 22.6 14.7999 21.9 15.0999C21.4 15.2999 21.8 16.0999 21.6 16.6999C21.1 17.6999 21.4 19.1999 20.1 20.1999ZM8.8 77.5999C9.2 78.2999 9.8 78.4999 10.3 78.7999C13 80.2999 16 80.9999 19 81.5999C20.6 81.8999 22.3 82.1999 24 82.1999C27.7 82.0999 31.4 81.8999 35 81.6999C38.7 81.4999 41.9 79.8999 45.2 78.8999C46.1 78.5999 46.4 77.7999 46.5 76.9999C46.7 76.2999 46.4 75.9999 45.6 76.3999C44.1 77.0999 42.6 77.8999 40.9 78.0999C39.9 78.1999 38.9 78.0999 37.9 78.2999C35.4 78.8999 32.9 79.4999 30.2 79.3999C28.5 79.2999 26.8 79.0999 25.1 79.2999C21.7 79.4999 18.3 79.7999 14.9 79.3999C12.9 79.0999 10.9 78.3999 8.8 77.5999ZM46.9 20.8999C46.7 20.4999 46.5 20.1999 46.5 19.7999C46.7 17.2999 46.9 14.7999 47 12.2999C47 11.9999 47.3 11.6999 46.8 11.4999C46.1 11.1999 44.6 12.1999 44.4 12.8999C44 14.3999 43.9 16.0999 43.1 17.4999C42.5 16.9999 42.7 16.4999 42.8 15.9999C43 15.2999 43.2 14.5999 43.3 13.7999C43.4 13.3999 43.9 12.8999 43.1 12.5999C42.6 12.3999 40.5 13.2999 40.6 13.5999C41 15.5999 39.9 17.6999 40.9 19.6999C41.1 20.0999 41.1 20.6999 40.6 20.7999C39.8 20.9999 39.6 21.6999 39.8 21.9999C40 22.5999 40.8 22.1999 41.3 22.1999C43.2 22.1999 44.9 21.0999 46.9 20.8999ZM7.4 14.5999C7.8 16.8999 7.6 19.0999 7.4 21.2999C7.4 21.6999 7.20001 22.0999 7.00001 22.4999C6.90001 22.7999 6.70001 23.1999 6.20001 23.0999C5.90001 22.9999 5.8 22.5999 5.8 22.2999C5.8 21.0999 5.80001 19.7999 6.00001 18.5999C6.20001 17.2999 6.20001 16.0999 6.20001 14.7999C6.20001 14.1999 5.70001 13.9999 5.20001 13.8999C4.70001 13.7999 4.60001 14.1999 4.70001 14.4999C5.00001 15.5999 4.50001 16.5999 4.60001 17.6999C4.80001 19.1999 4.80001 20.6999 4.60001 22.0999C4.50001 23.0999 4.90001 23.2999 5.60001 23.2999C7.00001 23.3999 8.30001 23.2999 9.70001 23.5999C10.5 23.7999 11.3 23.4999 11.1 22.3999C10.8 20.7999 11.1 19.1999 11.4 17.5999C11.5 16.6999 11.5 15.7999 11.5 14.9999C11.5 14.4999 11.3 14.0999 10.8 14.1999C9.7 14.7999 8.5 14.3999 7.4 14.5999ZM33.2 21.9999C32.9 22.8999 33.5 23.1999 34.6 23.0999C35.6 22.9999 36.6 22.9999 37.5 22.9999C38.4 22.9999 38.7 22.5999 38.8 21.6999C38.9 19.2999 39.1 16.8999 39.4 14.4999C39.5 13.7999 39.3 13.4999 38.6 13.5999C37.4 13.8999 36.1 13.9999 34.8 14.1999C34.5 14.1999 33.9 14.1999 33.9 14.6999C34 16.9999 33.5 19.2999 33.2 21.9999ZM16.1 17.1999C16.1 16.7999 16.1 16.4999 16.1 16.0999C16.3 14.9999 15.7 14.6999 14.7 14.7999C14.4 14.7999 14.1 14.7999 13.9 14.7999C12.9 14.7999 12.5 15.0999 12.5 16.0999C12.6 18.3999 12.5 20.6999 12 22.8999C11.8 23.5999 12.3 23.6999 12.9 23.7999C13.7 23.7999 14.6 23.6999 15.4 23.9999C16.4 24.2999 16.5 23.7999 16.3 23.1999C15.8 21.1999 15.8 19.1999 16.1 17.1999ZM39.3 71.8999C39.9 72.1999 40.5 72.4999 41.1 72.8999C42.8 74.0999 44.6 74.0999 46.5 73.2999C47.4 72.9999 47.1 72.4999 47 71.8999C46.9 71.1999 46.4 71.5999 46 71.6999C44.8 71.8999 43.6 72.5999 42.2 72.2999C43.3 71.1999 44.9 71.2999 46.1 70.5999C46.9 70.1999 47.5 68.8999 47.1 67.9999C46.7 67.1999 46 67.8999 45.5 67.9999C44.4 68.1999 43.4 68.5999 42.2 68.3999C42.6 67.9999 43 67.7999 43.5 67.5999C44 67.3999 44.4 67.2999 43.9 66.6999C43.6 66.2999 43.2 66.0999 42.7 66.4999C42.2 66.8999 41.6 67.3999 41 67.4999C40.4 67.5999 40.4 67.7999 40.6 68.2999C41.7 70.6999 41.7 70.6999 39.3 71.8999ZM37.9 70.9999C38.5 70.8999 39.1 70.7999 39.6 70.6999C39.8 70.5999 40.1 70.4999 40 70.1999C39.4 68.4999 38.4 67.0999 36.6 66.3999C36.1 66.1999 35.2 66.1999 35.2 66.7999C35.2 67.7999 33.5 68.5999 34.6 69.5999C35.5 70.2999 36.8 70.5999 37.9 70.9999ZM46.6 58.8999C45.8 58.3999 47.3 56.5999 45.5 56.5999C42.8 56.4999 42.7 56.6999 42.7 58.6999C42.7 59.5999 43.7 60.2999 45 60.1999C45.6 60.0999 46.6 60.1999 46.6 58.8999ZM49 19.1999C50.5 16.2999 49.8 13.1999 49.7 10.0999C48.7 10.3999 48.4 10.6999 48.5 11.6999C48.7 13.1999 48.6 14.8999 48.4 16.3999C48.3 17.4999 48.4 18.2999 49 19.1999ZM36.1 75.3999C36.5 75.4999 36.6 75.0999 36.8 74.8999C37.2 74.3999 37.5 73.8999 37.9 73.3999C38.1 73.0999 38.6 72.9999 38.1 72.5999C37.8 72.2999 37.4 72.3999 37.1 72.6999C36.5 73.2999 35.9 73.0999 35.3 72.5999C34.6 71.9999 34.2 72.7999 33.7 73.0999C33.3 73.3999 32.9 73.9999 33.4 74.2999C34.3 74.8999 35.2 75.1999 36.1 75.3999ZM35.6 58.3999C34.9 58.3999 34.7 58.5999 34.6 59.2999C34.6 60.1999 35.8 62.1999 36.4 61.9999C37.3 61.6999 37.7 60.8999 38 59.9999C38.1 59.2999 36.9 58.4999 35.6 58.3999ZM43.1 56.3999C43.9 56.1999 44.6 55.8999 45.3 55.7999C45.6 55.6999 46 55.7999 46.1 55.2999C46.1 54.5999 45.8 54.1999 45.3 53.7999C45 53.4999 44.6 53.4999 44.3 53.7999C43.6 54.2999 43.2 54.9999 42.7 55.6999C42.6 55.8999 42.5 56.3999 43.1 56.3999ZM3.10001 16.1999C2.40001 17.4999 2.30001 21.3999 3.00001 22.6999C3.10001 20.3999 3.30001 18.3999 3.10001 16.1999Z" fill="#2E2E2E"/>
<path d="M17.4001 60.6C19.0001 60.2 20.3001 59.6 21.7001 59.1C22.2001 58.9 22.4001 58.6 22.2001 58.2C21.2001 56.1 22.9001 55.2 24.1001 54.2C25.9001 52.8 28.2001 52.1 30.4001 51.4C32.0001 50.9 33.9001 51.8 34.7001 53.1C35.5001 54.4 34.9001 55.7 33.2001 56.3C31.2001 57 29.6001 58.5 27.1001 58.7C28.1001 59.6 28.8001 60.4 29.1001 61.5C29.3001 62.3 29.2001 62.7 28.5001 63C25.9001 64.2 23.3001 65.4 20.4001 65.8C19.4001 65.9 18.5001 66.3 17.3001 66C15.9001 65.6 15.2001 64.9 15.4001 63.5C15.4001 63.2 15.5001 62.8 15.2001 62.7C14.8001 62.5 14.7001 62.9 14.5001 63.1C13.1001 64.4 11.6001 65.6 9.80005 66.5C8.60005 67.1 7.60005 66.7 7.20005 65.5C6.70005 63.9 6.90005 62.6 8.00005 61.2C9.40005 59.4 11.2001 58.1 12.8001 56.5C13.9001 55.4 15.5001 55.4 16.9001 55.2C18.2001 55 19.1001 57.2 18.4001 58.7C18.1001 59.3 17.8001 59.8 17.4001 60.6ZM22.3001 62.5C22.1001 64.1 22.7001 64.7 24.1001 64.1C25.3001 63.7 26.4001 63.1 27.6001 62.5C27.9001 62.4 28.3001 62.2 28.2001 61.7C27.8001 60.6 27.0001 59.7 26.0001 59.3C25.0001 58.9 23.8001 59.4 22.8001 59.8C22.6001 59.9 22.4001 60.1 22.5001 60.3C22.8001 61.3 21.9001 61.9 22.3001 62.5ZM17.5001 57.6C17.4001 56.9 17.0001 56.5 16.2001 56.5C15.0001 56.6 13.9001 57 13.0001 57.7C11.8001 58.7 11.9001 59.6 13.0001 60.9C14.1001 62.1 14.7001 61.7 15.5001 60.6C15.7001 60.3 16.0001 60.2 16.2001 59.9C16.8001 59.2 17.3001 58.5 17.5001 57.6ZM23.0001 56.9C23.2001 57.7 23.4001 58.5 24.4001 58.3C24.9001 58.2 25.5001 58.2 26.0001 58.1C28.0001 57.8 28.1001 57.6 27.5001 55.7C27.4001 55.5 27.2001 55.2 27.3001 55C27.5001 53.6 26.7001 53.9 25.9001 54.3C25.6001 54.4 25.2001 54.6 24.9001 54.8C24.2001 55.5 23.2001 55.9 23.0001 56.9Z" fill="#2E2E2E"/>
<path d="M21.7 68.1C21.5 67.3 20.6 67 19.7 67.1C19.6 67.1 19.4 67.1 19.3 67.1C16.4 67.4 13.5 68.3 10.7 69.3C10.2 69.8 9.60004 70.3 9.00004 70.7C8.60004 70.9 8.50004 71.6 8.50004 72.2C8.30004 73.8 10 75 12 74.9C12.9 74.8 13.8 74.4 14.7 74.4C15.4 74.1 16.1 73.9 16.8 73.6C16.9 73.4 17.3 73.3 17.6 73.2C18.9 72.7 20.2 72.2 21.3 71.2C22.3 70.3 22 69.1 21.7 68.1ZM13.3 73.7C12.6 73.7 11.9 73.8 11.3 73.9C10.6 73.9 9.90004 73.6 9.70004 72.9C9.40004 72.2 9.80004 71.7 10.4 71.2C11.3 70.4 12.5 70.1 13.8 69.4C13.8 70.6 13.9 71.6 14.3 72.5C14.4 73.1 14.3 73.7 13.3 73.7Z" fill="#2E2E2E"/>
<path d="M41.3 40.6C43 40.2 44.8 39.7 46.5 39.3C46.7 39.2 47.1 39.3 47.1 39.6C47.1 39.9 47 40 46.8 40.1C45 40.6 43.3 41.2 41.4 41C41.4 40.9 41.4 40.8 41.3 40.6Z" fill="#2E2E2E"/>
<path d="M43.1 51C44.2 50.6 45 50.4 45.7 50.1C46 50 46.4 49.8 46.6 50.3C46.7 50.8 46.2 50.8 46 50.8C45.2 51 44.4 51.4 43.1 51Z" fill="#2E2E2E"/>
<path d="M37.2 14C37 15.5 36.8 16.9 36.7 18.2C36.7 18.4 36.6 18.7 36.3 18.7C36.1 18.7 36 18.5 36 18.4C35.4 17.2 36 15.1 37.2 14Z" fill="#2E2E2E"/>
<path d="M26.5 70.8C26.9 70.4 27.3 70.3 27.8 70.3C28.5 70.4 29.3 70.2 29.8 69.8C30.2 69.4 30.1 68.8 29.5 68.7C27.6 68.4 25.5 68.9 24.1 70.2C23.6 70.6 23.8 71.1 24.4 71.3C25.1 71.5 26 71.3 26.5 70.8Z" fill="#2E2E2E"/>
</g>
<defs>
<clipPath id="clip0_2351_3313">
<rect width="54" height="84" fill="white"/>
</clipPath>
</defs>
</svg>
