<svg width="78" height="78" viewBox="0 0 78 78" fill="none" xmlns="http://www.w3.org/2000/svg">
<g clip-path="url(#clip0_2353_3550)">
<path d="M34.8 42.2C35.3 41.6 35.4 40.7 34.7 40C34.6 39.9 34.5 39.9 34.4 39.8C31.2 36.9 27.2 34.7 23.3 32.8C21.3 31.8 19.8 34.5 21.6 35.7C22.9 36.6 24.3 37.4 25.6 38.3C26 38.5 29 40.4 29 41C29 40.3 26.4 43.1 26.1 43.4C24.7 44.9 23.3 46.4 21.9 47.9C20.6 49.2 22.3 51.7 23.9 50.6C27.4 48.1 30.8 45.4 34.3 42.8C34.5 42.6 34.7 42.4 34.8 42.2Z" fill="#2E2E2E"/>
<path d="M56.6001 32.8C52.8001 34.8 48.8001 36.9 45.5001 39.8C45.4001 39.9 45.3001 40 45.2001 40C44.5001 40.7 44.6001 41.6 45.1001 42.2C45.2001 42.4 45.4001 42.5 45.6001 42.7C49.1001 45.2 52.5001 47.9 56.0001 50.5C57.6001 51.7 59.3001 49.2 58.0001 47.8C56.7001 46.4 55.4001 45.1 54.1001 43.7C53.7001 43.3 51.1001 40.1 50.8001 41C51.0001 40.3 53.2001 38.9 53.8001 38.5C55.2001 37.5 56.8001 36.7 58.2001 35.7C60.1001 34.5 58.6001 31.8 56.6001 32.8Z" fill="#2E2E2E"/>
<path d="M77.3 29.3C76.7 24.5 73.8 20.3 71.4 16.2C67.7 9.89998 62.1 5.49998 55.3 3.09998C46.1 -0.200022 35.5 -0.300022 26.2 2.59998C17.7 5.19998 12.8 9.79998 7.50003 16.5C7.50003 16.6 7.40002 16.6 7.40002 16.7C7.30002 16.8 7.30003 16.8 7.20003 16.9C-2.39997 30 -1.79997 48.9 7.90002 61.8C17.4 74.4 33.8 80.3 49.1 76.4C66 72 76 58.1 77.4 41.2C77.8 37.3 77.9 33.2 77.3 29.3ZM54 71.1C40.5 77.1 24.7 74.1 14.2 63.8C2.20003 52 0.100025 32.2 10.1 18.6C13.5 14.3 16.6 10.5 21.6 7.99998C29.1 4.29998 37.8 3.19998 46 4.29998C60.9 6.29998 73.9 18.1 74.3 33.8C74.7 49.4 69 64.4 54 71.1Z" fill="#2E2E2E"/>
<path d="M38.1001 53.5C33.6001 53.4 26.6001 57.6 25.3001 62.3C25.1001 63.1 25.5001 63.8 26.1001 64.1C26.5001 64.8 27.4001 65.2 28.3001 64.7C31.2001 63 33.9001 62.4 37.2001 62C40.9001 61.5 43.5001 63.5 46.9001 64.4C48.0001 64.7 49.0001 63.9 49.0001 62.8C49.5001 57.2 42.8001 53.6 38.1001 53.5Z" fill="#2E2E2E"/>
<path d="M64.2 26.3C62.6 26.4 60.6 25.7 59.4 25.1C57.3 24.1 55.5 22 54.1 20.1C52.9 18.6 50.8 20.7 52 22.2C53.9 24.5 56 26.9 58.8 28C60.9 28.8 63.7 29.6 65.9 29C66.4 28.9 66.9 28.5 66.9 28C66.9 27.9 66.9 27.7 67 27.6C67.2 26 64.9 25.1 64.2 26.3Z" fill="#2E2E2E"/>
<path d="M23.9 25.8C24.2 25.3 24.6 24.9 24.8 24.4C24.9 24.2 24.9 24 24.9 23.8C24.9 23.7 24.9 23.7 24.9 23.6C26.2 22.9 26 20.6 24.3 20.8C21.9 21 22.2 22.9 21 24.5C18.8 27.4 15.6 27.3 12.3 27.3C10.4 27.3 10.4 30.3 12.3 30.3C15.3 30.3 18.6 30.4 21.1 28.6C22.3 27.8 23.2 26.8 23.9 25.8Z" fill="#2E2E2E"/>
</g>
<defs>
<clipPath id="clip0_2353_3550">
<rect width="78" height="78" fill="white"/>
</clipPath>
</defs>
</svg>
