<svg width="78" height="78" viewBox="0 0 78 78" fill="none" xmlns="http://www.w3.org/2000/svg">
<g clip-path="url(#clip0_2353_3542)">
<path d="M62.5001 43.3001C47.6001 49.1001 31.0001 49.6001 15.8001 44.5001C15.6001 44.4001 15.4001 44.3001 15.2001 44.3001C14.2001 44.1001 13.5001 44.9001 13.4001 45.7001C13.3001 46.1001 13.4001 46.4001 13.5001 46.8001C14.7001 53.0001 19.1001 58.4001 23.7001 62.5001C28.5001 66.7001 34.1001 67.5001 40.3001 67.3001C46.5001 67.1001 52.4001 65.9001 56.9001 61.3001C61.1001 57.0001 63.1001 51.0001 64.7001 45.3001C64.9001 44.2001 63.8001 42.8001 62.5001 43.3001ZM58.7001 50.5001C51.0001 57.4001 36.1001 56.8001 26.7001 54.8001C25.0001 54.4001 21.9001 54.1001 20.6001 53.2001C20.0001 52.8001 19.6001 51.8001 19.2001 51.0001C18.8001 50.3001 18.5001 49.5001 18.1001 48.8001C31.5001 52.5001 46.6001 52.0001 59.9001 47.8001C59.5001 48.7001 59.1001 49.6001 58.7001 50.5001Z" fill="#2E2E2E"/>
<path d="M77.4 29.6C76.8 24.8 73.9 20.6 71.5 16.5C67.8 10.2 62.2 5.80003 55.4 3.40003C46.2 0.100027 35.6 2.64645e-05 26.3 2.90003C17.8 5.50003 12.9 10.1 7.6 16.8C7.6 16.9 7.5 16.9 7.5 17C7.4 17.1 7.4 17.1 7.3 17.2C-2.3 30.3 -1.7 49.2 8 62.1C17.5 74.7 33.9 80.6 49.2 76.7C66 72.3 76 58.3 77.5 41.4C77.8 37.5 77.9 33.4 77.4 29.6ZM54.1 71.3C40.6 77.3 24.8 74.3 14.3 64C2.3 52.2 0.200002 32.4 10.2 18.8C13.6 14.5 16.7 10.7 21.7 8.20003C29.2 4.50003 37.9 3.40003 46.1 4.50003C61 6.50003 74 18.3 74.4 34C74.7 49.7 69.1 64.7 54.1 71.3Z" fill="#2E2E2E"/>
<path d="M44.5 38.7001C45 38.3001 45.5 37.9001 46.1 37.5001C47.5 36.5001 48.8 36.0001 50.4 36.8001C51.6 37.4001 52.5 38.3001 53.7 39.0001C54.8 39.6001 56.2 38.8001 56.2 37.5001C56.3 33.0001 54.5 24.9001 48.7 25.0001C43.1 25.1001 41.4 33.2001 41.7 37.5001C41.8 39.1001 43.4 39.7001 44.5 38.7001Z" fill="#2E2E2E"/>
<path d="M23.5 38.7001C24 38.3001 24.5 37.9001 25.1 37.5001C26.5 36.5001 27.8 36.0001 29.4 36.8001C30.6 37.4001 31.5 38.3001 32.7 39.0001C33.8 39.6001 35.2 38.8001 35.2 37.5001C35.3 33.0001 33.5 24.9001 27.7 25.0001C22.1 25.1001 20.4 33.2001 20.7 37.5001C20.8 39.1001 22.4 39.7001 23.5 38.7001Z" fill="#2E2E2E"/>
</g>
<defs>
<clipPath id="clip0_2353_3542">
<rect width="78" height="78" fill="white"/>
</clipPath>
</defs>
</svg>
