<svg width="56" height="96" viewBox="0 0 56 96" fill="none" xmlns="http://www.w3.org/2000/svg">
<g clip-path="url(#clip0_2384_3335)">
<path d="M33.2001 94.7C30.3001 94.8 27.4001 95.1 24.5001 95.1C19.2001 95.1 14.1001 94.1 9.00005 93.1C6.10005 92.5 4.80005 91 4.20005 88.4C4.10005 88.1 4.00005 87.8 4.10005 87.5C5.30005 84.5 4.40005 81.4 4.20005 78.3C4.00005 75.8 3.80005 73.3 3.70005 70.8C3.60005 67.5 2.90005 64.3 2.90005 61C2.90005 58 2.50005 55 2.50005 52C2.50005 49.7 2.20005 47.4 1.70005 45.1C1.50005 44.1 1.90005 43.3 1.90005 42.4C1.90005 38.2 1.70005 33.9 1.30005 29.7C0.800052 25 -0.0999471 20.4 0.100053 15.6C0.200053 13.4 0.100053 11.3 0.100053 9.09995C0.100053 7.89995 1.30005 6.89995 2.50005 6.39995C3.90005 5.69995 5.10005 4.79995 6.30005 3.89995C7.40005 3.09995 8.90005 3.09995 10.2001 2.79995C14.2001 1.89995 18.2001 1.09995 22.3001 0.899952C23.6001 0.799952 25.0001 0.599952 26.4001 0.999952C27.0001 1.19995 27.6001 1.09995 28.2001 0.999952C31.7001 0.499952 35.3001 0.499952 38.8001 0.799952C40.2001 0.899952 41.5001 1.19995 42.7001 1.79995C42.8001 1.89995 43.0001 1.99995 43.1001 1.99995C46.2001 1.99995 48.7001 3.49995 51.4001 4.79995C54.2001 6.09995 55.6001 9.19995 54.8001 12.2C54.3001 14 54.7001 16 54.2001 17.8C53.3001 21 54.0001 24.3 53.3001 27.6C52.7001 30.4 52.8001 33.3 52.7001 36.1C52.7001 37.1 52.2001 37.9 52.1001 38.9C51.8001 45 50.5001 51 49.8001 57.1C49.4001 60.7 48.9001 64.3 48.6001 67.8C48.3001 72.4 47.9001 77.1 47.6001 81.7C47.5001 84 47.8001 86.2 47.7001 88.4C47.6001 91.3 46.3001 93.6 42.9001 93.4C40.6001 93.3 38.5001 94.6 36.1001 94.5C35.1001 94.5 34.2001 94.6 33.2001 94.7C33.2001 94.8 33.2001 94.8 33.2001 94.7ZM46.2001 66.3C45.3001 65.9 46.2001 64.6 44.9001 64.7C44.6001 64.7 44.2001 64.8 44.1001 64.4C44.0001 63.8 44.6001 63.9 44.9001 63.6C44.5001 63.3 43.7001 63.4 43.8001 62.7C43.9001 62.2 44.4001 62.3 44.8001 62.2C45.6001 62.1 46.0001 61.8 45.0001 61.3C44.7001 61.1 44.5001 60.7 44.7001 60.6C46.0001 59.9 45.4001 58.8 45.4001 57.8C45.5001 56.9 45.5001 56 45.7001 55.1C45.8001 54.7 45.9001 54.5 46.3001 54.6C46.8001 54.7 46.5001 55 46.5001 55.3C46.4001 56.7 46.4001 58.2 46.4001 59.6C46.4001 60 46.4001 60.5 47.0001 60.7C47.0001 60.5 47.1001 60.3 47.1001 60.2C47.3001 59.2 46.7001 57.9 48.2001 57.5C48.3001 57.5 48.3001 57.2 48.3001 57.1C48.5001 54.7 48.9001 52.3 49.3001 50C49.9001 46.3 50.5001 42.6 50.7001 38.9C50.8001 37.3 51.9001 35.5 50.2001 34C49.2001 33.2 48.1001 32.6 47.3001 31.6C46.8001 31 45.5001 30.6 44.6001 30.9C42.9001 31.6 41.5001 31.7 40.2001 30C40.0001 29.7 39.2001 29.6 39.1001 30.1C38.8001 31.2 38.3001 30.7 37.7001 30.5C37.1001 30.3 36.4001 30.2 35.7001 30.2C31.1001 30.1 26.5001 29.6 21.9001 29.8C19.1001 30 16.3001 29.9 13.7001 31.3C13.3001 31.5 12.5001 31.8 12.3001 31C12.0001 29.8 11.1001 30.4 10.8001 30.7C9.90005 31.6 8.70005 31.7 7.70005 32.3C9.30005 32.4 10.7001 32.2 11.3001 34.3C11.5001 35 12.5001 36.8 13.8001 36.3C16.2001 35.3 18.1001 36.9 20.3001 37.1C21.2001 37.2 22.0001 37.7 22.9001 38C25.2001 38.9 27.8001 37 30.1001 38.7C30.2001 38.7 30.3001 38.7 30.4001 38.7C31.9001 38.3 33.5001 38.6 35.1001 38.1C35.9001 37.8 36.9001 37.6 37.7001 38.4C38.0001 38.7 38.6001 38.8 39.0001 38.6C40.6001 37.8 42.2001 37.6 43.9001 37.8C44.6001 37.9 45.3001 37.6 45.9001 37.2C46.4001 36.9 46.9001 36.7 47.4001 36.5C47.9001 36.3 48.5001 36.5 48.7001 37C49.0001 37.7 48.3001 37.8 47.9001 37.8C47.1001 38 46.4001 38.4 45.7001 38.8C44.7001 39.4 43.6001 39.5 42.6001 39.1C41.7001 38.7 41.2001 38.9 40.5001 39.3C39.5001 39.9 38.3001 40.4 37.2001 39.7C36.1001 39.1 35.1001 39.3 34.0001 39.5C32.3001 39.8 30.5001 40.4 28.9001 39.6C28.0001 39.1 27.2001 39.1 26.3001 39.2C24.6001 39.4 22.9001 39.8 21.3001 38.7C20.4001 38.1 19.6001 38.4 18.8001 38.8C17.1001 39.7 15.6001 39.4 14.5001 37.8C14.2001 37.3 14.0001 37.6 13.6001 37.6C11.6001 37.7 9.60005 37.6 7.70005 37C7.10005 36.8 6.70005 36.5 6.10005 36.8C5.10005 37.3 4.00005 37.4 3.00005 36.2C2.90005 38.7 3.70005 40.8 3.80005 42.9C3.80005 43.7 4.20005 43.8 4.90005 44.1C5.80005 44.5 6.80005 44.8 7.80005 45.3C7.40005 45.4 7.00005 45.5 6.60005 45.4C6.10005 45.3 5.80005 45.5 5.90005 45.9C6.10005 46.7 5.50005 48 7.10005 48.1C7.30005 48.1 7.60005 48.3 7.60005 48.6C7.60005 48.9 7.30005 48.9 7.20005 48.9C6.00005 48.7 6.20005 49.5 6.20005 50.3C6.20005 52.6 6.40005 54.9 5.40005 57C5.10005 55.1 4.90005 53.2 4.60005 51.3C3.80005 51.4 4.00005 52 4.00005 52.4C4.00005 54 4.20005 55.6 4.20005 57.2C4.20005 59.8 4.30005 62.4 4.60005 65C5.10005 71 5.60005 77 5.90005 83C6.00005 84.1 6.40005 84.8 7.30005 85.3C9.70005 86.5 12.4001 87.4 14.9001 87.9C19.0001 88.7 23.3001 89 27.6001 89.2C33.8001 89.6 39.7001 88.1 45.5001 86.1C45.8001 86 46.2001 85.8 46.0001 85.5C45.0001 84 46.0001 82.6 46.1001 81.2C46.3001 78.3 46.5001 75.5 46.7001 72.6C46.9001 69 47.1001 65.4 47.2001 61.8C47.2001 61.5 47.5001 61 46.9001 61C46.4001 61 46.4001 61.4 46.4001 61.8C46.4001 62.3 46.3001 62.8 46.4001 63.3C46.8001 64.3 46.5001 65.2 46.2001 66.3ZM51.3001 32.8C51.8001 32.4 51.7001 32 51.7001 31.5C51.8001 29.4 52.0001 27.4 52.1001 25.3C52.3001 21.7 52.5001 18.1 52.7001 14.5C52.8001 13.3 52.3001 13.4 51.5001 13.8C49.5001 14.8 47.4001 15.5 45.2001 15.9C40.7001 16.8 36.2001 17.6 31.6001 17.4C28.9001 17.3 26.2001 17.3 23.6001 17.5C21.4001 17.7 19.2001 17.5 17.1001 17.5C14.4001 17.5 11.6001 17.1 8.80005 16.7C6.70005 16.4 4.50005 16.2 2.80005 14.8C2.50005 14.6 2.30005 14 1.90005 14.2C1.50005 14.4 1.60005 14.9 1.60005 15.3C1.40005 21.3 2.20005 27.2 3.20005 33.1C3.70005 32.5 4.00005 31.9 4.50005 31.5C6.70005 29.7 9.40005 29.2 12.0001 28.9C14.2001 28.6 16.5001 28.4 18.7001 28.2C21.8001 28 24.8001 27.7 27.9001 28C29.4001 28.2 30.9001 28.5 32.4001 28.1C33.3001 27.9 34.1001 27.9 35.0001 27.8C37.7001 27.6 40.2001 28.9 42.7001 28.9C46.2001 29.1 48.8001 30.7 51.3001 32.8ZM26.0001 16C28.7001 16 31.5001 16 34.2001 16C38.3001 16 42.3001 15.1 46.3001 14.1C48.3001 13.6 50.3001 13 52.0001 12C53.6001 11 53.6001 10.3 52.5001 8.79995C52.0001 7.99995 51.2001 7.99995 50.7001 7.39995C49.2001 5.19995 46.4001 5.19995 44.4001 3.99995C43.3001 3.29995 41.8001 3.29995 40.4001 2.99995C34.7001 1.69995 29.0001 2.79995 23.3001 2.69995C20.6001 2.69995 17.9001 3.19995 15.2001 3.49995C11.2001 3.89995 7.50005 5.19995 4.00005 6.99995C2.60005 7.69995 2.90005 9.29995 1.90005 10.2C1.40005 10.6 3.70005 14 4.60005 14.2C7.60005 15.1 10.7001 15.3 13.8001 15.7C17.8001 16.2 21.9001 16 26.0001 16ZM37.2001 91.6C37.8001 91.5 37.8001 90.6 38.5001 90.7C39.7001 90.8 41.0001 90.6 42.2001 90.8C43.7001 91.1 44.3001 89.6 45.6001 89.5C46.0001 89.5 45.6001 88.5 46.0001 87.7C42.4001 89 39.0001 89.5 35.6001 90.1C32.2001 90.7 28.8001 90.7 25.3001 90.5C22.4001 90.4 19.6001 89.6 16.7001 89.7C16.6001 89.7 16.4001 89.7 16.4001 89.9C16.8001 90.1 17.1001 90.3 17.6001 90.5C16.6001 91 15.9001 90 14.8001 90.5C16.7001 90.5 17.4001 92.7 19.3001 92.1C19.6001 92 19.9001 92.3 19.9001 92.6C19.9001 93 19.5001 93 19.2001 93C19.0001 93 18.6001 92.7 18.5001 93.2C23.0001 93.4 27.5001 92.5 31.9001 93C36.5001 93.5 40.6001 91.5 44.9001 91.3C42.4001 91.8 39.8001 91.5 37.2001 91.6ZM11.7001 88.7C10.7001 87.8 9.30005 87.8 8.10005 87.3C6.20005 86.5 6.10005 86.5 6.20005 88.6C6.20005 88.7 6.10005 88.8 6.20005 88.9C6.50005 89.5 6.50005 90.6 7.70005 89.6C8.40005 89 9.40005 88.9 10.3001 89C10.7001 89 11.2001 89.2 11.7001 88.7ZM4.00005 46.1C4.00005 46.7 3.80005 47.6 4.70005 47.5C5.50005 47.4 4.90005 46.5 5.10005 45.9C5.20005 45.5 5.20005 44.7 4.50005 44.8C3.70005 45 4.20005 45.7 4.00005 46.1ZM11.0001 91.8C11.7001 92 12.4001 92.1 13.0001 92.4C13.6001 92.7 13.6001 92.3 13.7001 91.9C13.9001 91.3 13.5001 91.3 13.1001 91.3C12.5001 91.3 11.8001 91.2 11.0001 91.8ZM5.20005 49.7C5.30005 49 5.10005 48.6 4.50005 48.5C3.90005 48.5 4.10005 48.9 4.00005 49.2C4.00005 49.8 4.10005 50.2 4.80005 50.3C5.40005 50.4 5.20005 49.9 5.20005 49.7Z" fill="#2E2E2E"/>
<path d="M21.7999 67.4999C23.3999 70.3999 24.2999 73.3999 25.0999 76.3999C25.0999 76.4999 25.1999 76.6999 25.1999 76.7999C25.1999 77.0999 22.2999 79.7999 21.9999 79.6999C21.5999 79.5999 21.3999 79.3999 21.3999 78.8999C21.5999 76.2999 20.6999 73.8999 19.7999 71.5999C19.0999 69.6999 18.4999 69.5999 16.4999 69.9999C14.6999 70.3999 12.9999 70.9999 11.2999 71.7999C10.5999 72.0999 10.3999 72.4999 10.5999 73.2999C11.3999 75.8999 11.5999 78.6999 12.8999 81.1999C13.3999 82.1999 13.7999 82.1999 14.5999 81.8999C15.7999 81.2999 17.0999 80.6999 18.3999 80.1999C18.7999 79.9999 19.1999 79.7999 19.5999 79.7999C20.1999 79.7999 21.1999 79.3999 21.3999 80.1999C21.5999 81.1999 20.5999 80.8999 19.9999 81.0999C17.8999 81.6999 16.1999 82.7999 14.3999 83.8999C12.9999 84.7999 12.6999 84.4999 12.1999 82.9999C11.0999 80.0999 10.0999 77.0999 9.39989 74.0999C9.39989 73.9999 9.29989 73.7999 9.19989 73.6999C7.29989 72.1999 8.59989 71.1999 9.69989 70.0999C11.0999 68.5999 12.2999 66.7999 14.6999 66.7999C16.1999 66.7999 17.5999 67.4999 19.0999 66.8999C19.5999 66.6999 20.2999 67.1999 19.6999 67.7999C18.9999 68.5999 19.3999 68.8999 19.8999 69.3999C21.6999 71.2999 22.0999 73.6999 22.3999 76.0999C22.4999 76.4999 22.1999 77.1999 23.0999 77.0999C23.9999 76.9999 23.8999 76.4999 23.6999 75.7999C22.8999 72.7999 22.0999 69.7999 20.4999 67.0999C19.8999 66.0999 18.6999 65.2999 17.3999 64.9999C16.2999 64.6999 15.0999 64.4999 13.8999 64.1999C12.9999 63.9999 12.3999 63.5999 12.9999 62.4999C14.5999 59.4999 15.3999 55.9999 17.3999 53.0999C18.7999 50.8999 22.6999 49.3999 25.2999 49.8999C27.4999 50.3999 29.6999 50.9999 31.9999 51.4999C33.1999 51.7999 33.3999 51.9999 33.1999 53.3999C32.6999 56.2999 31.0999 58.7999 31.0999 61.7999C31.0999 62.1999 30.8999 62.4999 30.5999 62.6999C28.4999 63.9999 26.8999 65.8999 24.8999 67.3999C24.1999 67.8999 23.5999 68.5999 22.7999 67.4999C22.5999 67.3999 22.0999 67.4999 21.7999 67.4999ZM27.5999 55.3999C27.5999 54.5999 26.9999 54.3999 26.3999 54.3999C24.2999 54.3999 22.1999 54.1999 20.1999 53.7999C18.8999 53.5999 17.9999 54.1999 17.5999 55.3999C16.8999 57.4999 16.0999 59.5999 15.0999 61.5999C14.7999 62.0999 14.6999 62.6999 15.5999 62.8999C17.9999 63.3999 20.1999 64.3999 22.2999 65.5999C23.1999 66.0999 23.6999 65.5999 23.9999 64.8999C24.7999 63.0999 25.5999 61.3999 26.2999 59.5999C26.6999 58.2999 27.0999 56.8999 27.5999 55.3999ZM25.8999 64.5999C26.8999 63.7999 27.7999 62.9999 28.7999 62.0999C29.0999 61.7999 29.4999 61.5999 29.3999 61.0999C29.1999 59.8999 29.7999 58.8999 30.1999 57.8999C30.5999 56.9999 30.8999 55.8999 30.6999 54.6999C29.9999 55.0999 29.2999 55.2999 29.0999 55.9999C28.0999 58.8999 26.9999 61.6999 25.8999 64.5999ZM23.2999 50.9999C22.7999 50.8999 22.4999 51.3999 21.9999 51.4999C21.5999 51.5999 20.8999 51.4999 20.9999 52.0999C21.0999 52.6999 21.7999 52.3999 22.1999 52.4999C24.2999 52.7999 26.3999 52.5999 28.3999 53.3999C28.6999 53.4999 28.9999 53.5999 29.2999 53.5999C29.6999 53.5999 30.1999 53.3999 30.2999 52.9999C30.3999 52.3999 29.7999 52.3999 29.4999 52.2999C28.6999 52.1999 27.8999 51.9999 27.0999 51.7999C25.8999 51.3999 24.5999 51.2999 23.2999 50.9999ZM11.5999 69.9999C13.7999 69.3999 15.7999 69.0999 17.4999 67.9999C15.4999 68.2999 13.1999 67.6999 11.5999 69.9999Z" fill="#2E2E2E"/>
<path d="M33.1 70C31.7 69.9 31.1 70.2 30.9 71.4C30.4 73.9 29.3 76.1 28.4 78.5C28.1 79.3 28.2 79.6 29.1 79.7C30.8 80 32.5 80.4 34 81.2C34.4 81.4 35 81.7 34.8 82.1C34.6 82.7 33.8 82.6 33.5 82.4C31.5 81 29.3 81 27 81.4C26.4 81.5 26.4 81 26.2 80.7C25.9 80.2 25.7 79.5 26.1 79.3C27.1 78.9 27 78 27.4 77.2C28.5 74.8 29.4 72.3 30 69.7C30.2 68.7 30.7 68.1 31.8 68.1C33.3 68 34.7 67.2 36.2 66.8C38.2 66.3 39.8 67.4 41.5 67.8C42.4 68 43.2 68.8 44.3 68.8C44.9 68.8 45.2 69.4 44.9 70.2C44 72.9 43.4 75.6 43.1 78.4C43 79.2 42.6 79.7 42 80.2C40.6 81.3 38.6 81.7 37.7 83.5C37.6 83.7 37.1 83.9 36.9 83.7C36.5 83.4 36.4 82.9 36.5 82.3C36.9 80.3 37.7 78.5 38.4 76.7L38.5 76.6C38.9 75.4 39.7 74.2 39.6 73.1C39.5 71.9 37.8 72 36.9 71.4C35.6 70.6 34.1 70.3 33.1 70ZM34.3 68.7C35.6 69.4 36.9 69.4 37.9 70.2C38.9 70.9 39.8 71.2 40.7 70.1C41 69.8 41.5 69.6 42 69.3C39.5 68.4 37.2 66.8 34.3 68.7ZM42 74.4C42 74.4 42.5 73.8 41.8 73.6C41.5 73.5 41 73.5 40.9 74.2C40.7 76.2 39.2 77.7 38.8 79.5C38.7 79.8 38 80.2 38.7 80.5C39.1 80.7 39.3 80.3 39.6 80.1C41.3 78.7 42.2 77.1 42 74.4Z" fill="#2E2E2E"/>
<path d="M37.7999 55.8999C37.8999 56.7999 37.3999 57.2999 36.8999 57.8999C36.3999 58.3999 35.7999 58.5999 35.2999 58.1999C34.5999 57.6999 34.5999 56.8999 34.8999 56.1999C35.0999 55.7999 35.6999 55.4999 35.7999 56.3999C35.8999 56.8999 36.0999 56.7999 36.3999 56.6999C36.5999 56.5999 36.5999 56.3999 36.3999 56.1999C35.7999 55.7999 35.9999 55.2999 36.2999 54.9999C36.5999 54.6999 36.8999 54.3999 37.3999 54.5999C37.8999 54.8999 37.7999 55.3999 37.7999 55.8999Z" fill="#2E2E2E"/>
<path d="M36.6001 61.4C36.6001 62.5 36.1001 63.3 35.2001 63.4C33.9001 63.5 34.1001 62.1 34.0001 61.4C33.9001 60.7 34.8001 60.3 35.5001 60.3C36.3001 60.2 36.7001 60.6 36.6001 61.4Z" fill="#2E2E2E"/>
<path d="M28.1999 31.7999C28.7999 31.9999 29.8999 31.5999 30.8999 31.2999C31.3999 31.0999 31.8999 30.8999 31.9999 31.5999C32.0999 32.0999 31.4999 32.4999 31.0999 32.3999C29.8999 32.0999 28.7999 33.2999 27.4999 32.1999C27.0999 31.8999 25.7999 32.4999 24.8999 32.7999C24.5999 32.8999 24.3999 32.9999 24.2999 32.6999C24.1999 32.3999 24.4999 32.1999 24.6999 32.1999C25.6999 31.7999 26.6999 31.6999 28.1999 31.7999Z" fill="#2E2E2E"/>
<path d="M37.1001 50.3C36.0001 50.4 35.6001 50.1 35.6001 49.3C35.6001 48.2 36.4001 47.9 37.2001 47.9C38.0001 47.8 38.4001 48.5 38.4001 49.2C38.4001 50.2 37.5001 50.3 37.1001 50.3Z" fill="#2E2E2E"/>
<path d="M44.6 33.8C43.3 33.7 42.1 34.4 40.3 34.1C41.9 33.3 43.2 33.1 44.6 33.8Z" fill="#2E2E2E"/>
<path d="M17.3 32.3C16.2 33 14.8 32.9 13.8 33.6C13.6 33.7 13.4 33.6001 13.3 33.4001C13 33.0001 13.4 33.0001 13.6 32.9001C14.7 32.1001 16.1 32.5 17.3 32.3Z" fill="#2E2E2E"/>
<path d="M33.9 35.7999C32.6 35.7999 31.6 35.7999 30.5 35.7999C30.1 35.7999 30 35.4999 30.1 35.1999C30.2 34.8999 30.8 34.6999 30.8 34.7999C31.5 36.1999 32.9 34.9999 33.9 35.7999Z" fill="#2E2E2E"/>
<path d="M36.1001 91.5001C35.2001 92.2001 34.2001 92.2001 33.3001 92.2001C30.4001 92.2001 27.6001 92.7001 24.7001 92.6001C24.2001 92.6001 23.7001 92.6001 23.2001 92.5001C22.8001 92.4001 22.1001 92.3001 22.2001 91.8001C22.3001 91.1001 22.9001 91.6001 23.3001 91.5001C25.1001 91.4001 26.9001 91.3001 28.8001 91.1001C31.1001 91.0001 33.6001 90.8001 36.1001 91.5001Z" fill="#2E2E2E"/>
</g>
<defs>
<clipPath id="clip0_2384_3335">
<rect width="56" height="96" fill="white"/>
</clipPath>
</defs>
</svg>
